  0
SECTION
  2
BLOCKS
  0
ENDSEC
  0
SECTION
  2
ENTITIES
  0
LINE
  8
0
 10
-35
 20
-49
 11
115
 21
-49
  0
LINE
  8
0
 10
115
 20
-49
 11
115
 21
49
  0
LINE
  8
0
 10
115
 20
49
 11
-35
 21
49
  0
LINE
  8
0
 10
-35
 20
49
 11
-35
 21
-49
  0
LINE
  8
0
 10
-18.5
 20
0
 11
-18.48
 21
0.509984
  0
LINE
  8
0
 10
-18.48
 20
0.509984
 11
-18.42
 21
1.01682
  0
LINE
  8
0
 10
-18.42
 20
1.01682
 11
-18.3204
 21
1.51739
  0
LINE
  8
0
 10
-18.3204
 20
1.51739
 11
-18.1819
 21
2.00861
  0
LINE
  8
0
 10
-18.1819
 20
2.00861
 11
-18.0052
 21
2.48744
  0
LINE
  8
0
 10
-18.0052
 20
2.48744
 11
-17.7915
 21
2.95094
  0
LINE
  8
0
 10
-17.7915
 20
2.95094
 11
-17.5422
 21
3.39624
  0
LINE
  8
0
 10
-17.5422
 20
3.39624
 11
-17.2586
 21
3.8206
  0
LINE
  8
0
 10
-17.2586
 20
3.8206
 11
-16.9426
 21
4.22141
  0
LINE
  8
0
 10
-16.9426
 20
4.22141
 11
-16.5962
 21
4.59619
  0
LINE
  8
0
 10
-16.5962
 20
4.59619
 11
-16.2214
 21
4.94264
  0
LINE
  8
0
 10
-16.2214
 20
4.94264
 11
-15.8206
 21
5.25861
  0
LINE
  8
0
 10
-15.8206
 20
5.25861
 11
-15.3962
 21
5.54216
  0
LINE
  8
0
 10
-15.3962
 20
5.54216
 11
-14.9509
 21
5.79154
  0
LINE
  8
0
 10
-14.9509
 20
5.79154
 11
-5.44789
 21
10.6921
  0
LINE
  8
0
 10
-5.44789
 20
10.6921
 11
-4.5922
 21
11.0866
  0
LINE
  8
0
 10
-4.5922
 20
11.0866
 11
-3.7082
 21
11.4127
  0
LINE
  8
0
 10
-3.7082
 20
11.4127
 11
-2.80134
 21
11.6684
  0
LINE
  8
0
 10
-2.80134
 20
11.6684
 11
-1.87721
 21
11.8523
  0
LINE
  8
0
 10
-1.87721
 20
11.8523
 11
-0.941509
 21
11.963
  0
LINE
  8
0
 10
-0.941509
 20
11.963
 11
0
 21
12
  0
LINE
  8
0
 10
0
 20
12
 11
0.941508
 21
11.963
  0
LINE
  8
0
 10
0.941508
 20
11.963
 11
1.87721
 21
11.8523
  0
LINE
  8
0
 10
1.87721
 20
11.8523
 11
2.80134
 21
11.6684
  0
LINE
  8
0
 10
2.80134
 20
11.6684
 11
3.7082
 21
11.4127
  0
LINE
  8
0
 10
3.7082
 20
11.4127
 11
4.5922
 21
11.0866
  0
LINE
  8
0
 10
4.5922
 20
11.0866
 11
5.44789
 21
10.6921
  0
LINE
  8
0
 10
5.44789
 20
10.6921
 11
14.9509
 21
5.79154
  0
LINE
  8
0
 10
14.9509
 20
5.79154
 11
15.3962
 21
5.54216
  0
LINE
  8
0
 10
15.3962
 20
5.54216
 11
15.8206
 21
5.25861
  0
LINE
  8
0
 10
15.8206
 20
5.25861
 11
16.2214
 21
4.94264
  0
LINE
  8
0
 10
16.2214
 20
4.94264
 11
16.5962
 21
4.59619
  0
LINE
  8
0
 10
16.5962
 20
4.59619
 11
16.9426
 21
4.22141
  0
LINE
  8
0
 10
16.9426
 20
4.22141
 11
17.2586
 21
3.8206
  0
LINE
  8
0
 10
17.2586
 20
3.8206
 11
17.5422
 21
3.39624
  0
LINE
  8
0
 10
17.5422
 20
3.39624
 11
17.7915
 21
2.95094
  0
LINE
  8
0
 10
17.7915
 20
2.95094
 11
18.0052
 21
2.48744
  0
LINE
  8
0
 10
18.0052
 20
2.48744
 11
18.1819
 21
2.00861
  0
LINE
  8
0
 10
18.1819
 20
2.00861
 11
18.3204
 21
1.51739
  0
LINE
  8
0
 10
18.3204
 20
1.51739
 11
18.42
 21
1.01682
  0
LINE
  8
0
 10
18.42
 20
1.01682
 11
18.48
 21
0.509984
  0
LINE
  8
0
 10
18.48
 20
0.509984
 11
18.5
 21
0
  0
LINE
  8
0
 10
18.5
 20
0
 11
18.48
 21
-0.509984
  0
LINE
  8
0
 10
18.48
 20
-0.509984
 11
18.42
 21
-1.01682
  0
LINE
  8
0
 10
18.42
 20
-1.01682
 11
18.3204
 21
-1.51739
  0
LINE
  8
0
 10
18.3204
 20
-1.51739
 11
18.1819
 21
-2.00861
  0
LINE
  8
0
 10
18.1819
 20
-2.00861
 11
18.0052
 21
-2.48744
  0
LINE
  8
0
 10
18.0052
 20
-2.48744
 11
17.7915
 21
-2.95094
  0
LINE
  8
0
 10
17.7915
 20
-2.95094
 11
17.5422
 21
-3.39624
  0
LINE
  8
0
 10
17.5422
 20
-3.39624
 11
17.2586
 21
-3.8206
  0
LINE
  8
0
 10
17.2586
 20
-3.8206
 11
16.9426
 21
-4.22141
  0
LINE
  8
0
 10
16.9426
 20
-4.22141
 11
16.5962
 21
-4.59619
  0
LINE
  8
0
 10
16.5962
 20
-4.59619
 11
16.2214
 21
-4.94264
  0
LINE
  8
0
 10
16.2214
 20
-4.94264
 11
15.8206
 21
-5.25861
  0
LINE
  8
0
 10
15.8206
 20
-5.25861
 11
15.3962
 21
-5.54216
  0
LINE
  8
0
 10
15.3962
 20
-5.54216
 11
14.9509
 21
-5.79154
  0
LINE
  8
0
 10
14.9509
 20
-5.79154
 11
5.44789
 21
-10.6921
  0
LINE
  8
0
 10
5.44789
 20
-10.6921
 11
4.5922
 21
-11.0866
  0
LINE
  8
0
 10
4.5922
 20
-11.0866
 11
3.7082
 21
-11.4127
  0
LINE
  8
0
 10
3.7082
 20
-11.4127
 11
2.80134
 21
-11.6684
  0
LINE
  8
0
 10
2.80134
 20
-11.6684
 11
1.87721
 21
-11.8523
  0
LINE
  8
0
 10
1.87721
 20
-11.8523
 11
0.941508
 21
-11.963
  0
LINE
  8
0
 10
0.941508
 20
-11.963
 11
0
 21
-12
  0
LINE
  8
0
 10
0
 20
-12
 11
-0.941509
 21
-11.963
  0
LINE
  8
0
 10
-0.941509
 20
-11.963
 11
-1.87721
 21
-11.8523
  0
LINE
  8
0
 10
-1.87721
 20
-11.8523
 11
-2.80134
 21
-11.6684
  0
LINE
  8
0
 10
-2.80134
 20
-11.6684
 11
-3.7082
 21
-11.4127
  0
LINE
  8
0
 10
-3.7082
 20
-11.4127
 11
-4.5922
 21
-11.0866
  0
LINE
  8
0
 10
-4.5922
 20
-11.0866
 11
-5.44789
 21
-10.6921
  0
LINE
  8
0
 10
-5.44789
 20
-10.6921
 11
-14.9509
 21
-5.79154
  0
LINE
  8
0
 10
-14.9509
 20
-5.79154
 11
-15.3962
 21
-5.54216
  0
LINE
  8
0
 10
-15.3962
 20
-5.54216
 11
-15.8206
 21
-5.25861
  0
LINE
  8
0
 10
-15.8206
 20
-5.25861
 11
-16.2214
 21
-4.94264
  0
LINE
  8
0
 10
-16.2214
 20
-4.94264
 11
-16.5962
 21
-4.59619
  0
LINE
  8
0
 10
-16.5962
 20
-4.59619
 11
-16.9426
 21
-4.22141
  0
LINE
  8
0
 10
-16.9426
 20
-4.22141
 11
-17.2586
 21
-3.8206
  0
LINE
  8
0
 10
-17.2586
 20
-3.8206
 11
-17.5422
 21
-3.39624
  0
LINE
  8
0
 10
-17.5422
 20
-3.39624
 11
-17.7915
 21
-2.95094
  0
LINE
  8
0
 10
-17.7915
 20
-2.95094
 11
-18.0052
 21
-2.48744
  0
LINE
  8
0
 10
-18.0052
 20
-2.48744
 11
-18.1819
 21
-2.00861
  0
LINE
  8
0
 10
-18.1819
 20
-2.00861
 11
-18.3204
 21
-1.51739
  0
LINE
  8
0
 10
-18.3204
 20
-1.51739
 11
-18.42
 21
-1.01682
  0
LINE
  8
0
 10
-18.42
 20
-1.01682
 11
-18.48
 21
-0.509984
  0
LINE
  8
0
 10
-18.48
 20
-0.509984
 11
-18.5
 21
0
  0
LINE
  8
0
 10
28.5
 20
-25
 11
28.5
 21
25
  0
LINE
  8
0
 10
28.5
 20
25
 11
28.52
 21
25.51
  0
LINE
  8
0
 10
28.52
 20
25.51
 11
28.58
 21
26.0168
  0
LINE
  8
0
 10
28.58
 20
26.0168
 11
28.6796
 21
26.5174
  0
LINE
  8
0
 10
28.6796
 20
26.5174
 11
28.8181
 21
27.0086
  0
LINE
  8
0
 10
28.8181
 20
27.0086
 11
28.9948
 21
27.4874
  0
LINE
  8
0
 10
28.9948
 20
27.4874
 11
29.2085
 21
27.9509
  0
LINE
  8
0
 10
29.2085
 20
27.9509
 11
29.4578
 21
28.3962
  0
LINE
  8
0
 10
29.4578
 20
28.3962
 11
29.7414
 21
28.8206
  0
LINE
  8
0
 10
29.7414
 20
28.8206
 11
30.0574
 21
29.2214
  0
LINE
  8
0
 10
30.0574
 20
29.2214
 11
30.4038
 21
29.5962
  0
LINE
  8
0
 10
30.4038
 20
29.5962
 11
30.7786
 21
29.9426
  0
LINE
  8
0
 10
30.7786
 20
29.9426
 11
31.1794
 21
30.2586
  0
LINE
  8
0
 10
31.1794
 20
30.2586
 11
31.6038
 21
30.5422
  0
LINE
  8
0
 10
31.6038
 20
30.5422
 11
32.0491
 21
30.7915
  0
LINE
  8
0
 10
32.0491
 20
30.7915
 11
32.5126
 21
31.0052
  0
LINE
  8
0
 10
32.5126
 20
31.0052
 11
32.9914
 21
31.1819
  0
LINE
  8
0
 10
32.9914
 20
31.1819
 11
33.4826
 21
31.3204
  0
LINE
  8
0
 10
33.4826
 20
31.3204
 11
33.9832
 21
31.42
  0
LINE
  8
0
 10
33.9832
 20
31.42
 11
34.49
 21
31.48
  0
LINE
  8
0
 10
34.49
 20
31.48
 11
35
 21
31.5
  0
LINE
  8
0
 10
35
 20
31.5
 11
105
 21
31.5
  0
LINE
  8
0
 10
105
 20
31.5
 11
105.51
 21
31.48
  0
LINE
  8
0
 10
105.51
 20
31.48
 11
106.017
 21
31.42
  0
LINE
  8
0
 10
106.017
 20
31.42
 11
106.517
 21
31.3204
  0
LINE
  8
0
 10
106.517
 20
31.3204
 11
107.009
 21
31.1819
  0
LINE
  8
0
 10
107.009
 20
31.1819
 11
107.487
 21
31.0052
  0
LINE
  8
0
 10
107.487
 20
31.0052
 11
107.951
 21
30.7915
  0
LINE
  8
0
 10
107.951
 20
30.7915
 11
108.396
 21
30.5422
  0
LINE
  8
0
 10
108.396
 20
30.5422
 11
108.821
 21
30.2586
  0
LINE
  8
0
 10
108.821
 20
30.2586
 11
109.221
 21
29.9426
  0
LINE
  8
0
 10
109.221
 20
29.9426
 11
109.596
 21
29.5962
  0
LINE
  8
0
 10
109.596
 20
29.5962
 11
109.943
 21
29.2214
  0
LINE
  8
0
 10
109.943
 20
29.2214
 11
110.259
 21
28.8206
  0
LINE
  8
0
 10
110.259
 20
28.8206
 11
110.542
 21
28.3962
  0
LINE
  8
0
 10
110.542
 20
28.3962
 11
110.792
 21
27.9509
  0
LINE
  8
0
 10
110.792
 20
27.9509
 11
111.005
 21
27.4874
  0
LINE
  8
0
 10
111.005
 20
27.4874
 11
111.182
 21
27.0086
  0
LINE
  8
0
 10
111.182
 20
27.0086
 11
111.32
 21
26.5174
  0
LINE
  8
0
 10
111.32
 20
26.5174
 11
111.42
 21
26.0168
  0
LINE
  8
0
 10
111.42
 20
26.0168
 11
111.48
 21
25.51
  0
LINE
  8
0
 10
111.48
 20
25.51
 11
111.5
 21
25
  0
LINE
  8
0
 10
111.5
 20
25
 11
111.5
 21
-25
  0
LINE
  8
0
 10
111.5
 20
-25
 11
111.48
 21
-25.51
  0
LINE
  8
0
 10
111.48
 20
-25.51
 11
111.42
 21
-26.0168
  0
LINE
  8
0
 10
111.42
 20
-26.0168
 11
111.32
 21
-26.5174
  0
LINE
  8
0
 10
111.32
 20
-26.5174
 11
111.182
 21
-27.0086
  0
LINE
  8
0
 10
111.182
 20
-27.0086
 11
111.005
 21
-27.4874
  0
LINE
  8
0
 10
111.005
 20
-27.4874
 11
110.792
 21
-27.9509
  0
LINE
  8
0
 10
110.792
 20
-27.9509
 11
110.542
 21
-28.3962
  0
LINE
  8
0
 10
110.542
 20
-28.3962
 11
110.259
 21
-28.8206
  0
LINE
  8
0
 10
110.259
 20
-28.8206
 11
109.943
 21
-29.2214
  0
LINE
  8
0
 10
109.943
 20
-29.2214
 11
109.596
 21
-29.5962
  0
LINE
  8
0
 10
109.596
 20
-29.5962
 11
109.221
 21
-29.9426
  0
LINE
  8
0
 10
109.221
 20
-29.9426
 11
108.821
 21
-30.2586
  0
LINE
  8
0
 10
108.821
 20
-30.2586
 11
108.396
 21
-30.5422
  0
LINE
  8
0
 10
108.396
 20
-30.5422
 11
107.951
 21
-30.7915
  0
LINE
  8
0
 10
107.951
 20
-30.7915
 11
107.487
 21
-31.0052
  0
LINE
  8
0
 10
107.487
 20
-31.0052
 11
107.009
 21
-31.1819
  0
LINE
  8
0
 10
107.009
 20
-31.1819
 11
106.517
 21
-31.3204
  0
LINE
  8
0
 10
106.517
 20
-31.3204
 11
106.017
 21
-31.42
  0
LINE
  8
0
 10
106.017
 20
-31.42
 11
105.51
 21
-31.48
  0
LINE
  8
0
 10
105.51
 20
-31.48
 11
105
 21
-31.5
  0
LINE
  8
0
 10
105
 20
-31.5
 11
35
 21
-31.5
  0
LINE
  8
0
 10
35
 20
-31.5
 11
34.49
 21
-31.48
  0
LINE
  8
0
 10
34.49
 20
-31.48
 11
33.9832
 21
-31.42
  0
LINE
  8
0
 10
33.9832
 20
-31.42
 11
33.4826
 21
-31.3204
  0
LINE
  8
0
 10
33.4826
 20
-31.3204
 11
32.9914
 21
-31.1819
  0
LINE
  8
0
 10
32.9914
 20
-31.1819
 11
32.5126
 21
-31.0052
  0
LINE
  8
0
 10
32.5126
 20
-31.0052
 11
32.0491
 21
-30.7915
  0
LINE
  8
0
 10
32.0491
 20
-30.7915
 11
31.6038
 21
-30.5422
  0
LINE
  8
0
 10
31.6038
 20
-30.5422
 11
31.1794
 21
-30.2586
  0
LINE
  8
0
 10
31.1794
 20
-30.2586
 11
30.7786
 21
-29.9426
  0
LINE
  8
0
 10
30.7786
 20
-29.9426
 11
30.4038
 21
-29.5962
  0
LINE
  8
0
 10
30.4038
 20
-29.5962
 11
30.0574
 21
-29.2214
  0
LINE
  8
0
 10
30.0574
 20
-29.2214
 11
29.7414
 21
-28.8206
  0
LINE
  8
0
 10
29.7414
 20
-28.8206
 11
29.4578
 21
-28.3962
  0
LINE
  8
0
 10
29.4578
 20
-28.3962
 11
29.2085
 21
-27.9509
  0
LINE
  8
0
 10
29.2085
 20
-27.9509
 11
28.9948
 21
-27.4874
  0
LINE
  8
0
 10
28.9948
 20
-27.4874
 11
28.8181
 21
-27.0086
  0
LINE
  8
0
 10
28.8181
 20
-27.0086
 11
28.6796
 21
-26.5174
  0
LINE
  8
0
 10
28.6796
 20
-26.5174
 11
28.58
 21
-26.0168
  0
LINE
  8
0
 10
28.58
 20
-26.0168
 11
28.52
 21
-25.51
  0
LINE
  8
0
 10
28.52
 20
-25.51
 11
28.5
 21
-25
  0
ENDSEC
  0
SECTION
  2
OBJECTS
  0
DICTIONARY
  0
ENDSEC
  0
EOF
