  0
SECTION
  2
BLOCKS
  0
ENDSEC
  0
SECTION
  2
ENTITIES
  0
LINE
  8
0
 10
-25
 20
0
 11
-24.9229
 21
-1.96148
  0
LINE
  8
0
 10
-24.9229
 20
-1.96148
 11
-24.6922
 21
-3.91086
  0
LINE
  8
0
 10
-24.6922
 20
-3.91086
 11
-24.3092
 21
-5.83613
  0
LINE
  8
0
 10
-24.3092
 20
-5.83613
 11
-23.7764
 21
-7.72542
  0
LINE
  8
0
 10
-23.7764
 20
-7.72542
 11
-23.097
 21
-9.56709
  0
LINE
  8
0
 10
-23.097
 20
-9.56709
 11
-22.2752
 21
-11.3498
  0
LINE
  8
0
 10
-22.2752
 20
-11.3498
 11
-21.316
 21
-13.0625
  0
LINE
  8
0
 10
-21.316
 20
-13.0625
 11
-20.2254
 21
-14.6946
  0
LINE
  8
0
 10
-20.2254
 20
-14.6946
 11
-19.0101
 21
-16.2362
  0
LINE
  8
0
 10
-19.0101
 20
-16.2362
 11
-17.6777
 21
-17.6777
  0
LINE
  8
0
 10
-17.6777
 20
-17.6777
 11
-16.2362
 21
-19.0101
  0
LINE
  8
0
 10
-16.2362
 20
-19.0101
 11
-14.6946
 21
-20.2254
  0
LINE
  8
0
 10
-14.6946
 20
-20.2254
 11
-13.0625
 21
-21.316
  0
LINE
  8
0
 10
-13.0625
 20
-21.316
 11
-11.3498
 21
-22.2752
  0
LINE
  8
0
 10
-11.3498
 20
-22.2752
 11
-9.56709
 21
-23.097
  0
LINE
  8
0
 10
-9.56709
 20
-23.097
 11
-7.72542
 21
-23.7764
  0
LINE
  8
0
 10
-7.72542
 20
-23.7764
 11
-5.83613
 21
-24.3092
  0
LINE
  8
0
 10
-5.83613
 20
-24.3092
 11
-5
 21
-24.4756
  0
LINE
  8
0
 10
-5
 20
-24.4756
 11
-5
 21
-49
  0
LINE
  8
0
 10
-5
 20
-49
 11
115
 21
-49
  0
LINE
  8
0
 10
115
 20
-49
 11
115
 21
49
  0
LINE
  8
0
 10
115
 20
49
 11
-5
 21
49
  0
LINE
  8
0
 10
-5
 20
49
 11
-5
 21
24.4756
  0
LINE
  8
0
 10
-5
 20
24.4756
 11
-5.83613
 21
24.3092
  0
LINE
  8
0
 10
-5.83613
 20
24.3092
 11
-7.72542
 21
23.7764
  0
LINE
  8
0
 10
-7.72542
 20
23.7764
 11
-9.56709
 21
23.097
  0
LINE
  8
0
 10
-9.56709
 20
23.097
 11
-11.3498
 21
22.2752
  0
LINE
  8
0
 10
-11.3498
 20
22.2752
 11
-13.0625
 21
21.316
  0
LINE
  8
0
 10
-13.0625
 20
21.316
 11
-14.6946
 21
20.2254
  0
LINE
  8
0
 10
-14.6946
 20
20.2254
 11
-16.2362
 21
19.0101
  0
LINE
  8
0
 10
-16.2362
 20
19.0101
 11
-17.6777
 21
17.6777
  0
LINE
  8
0
 10
-17.6777
 20
17.6777
 11
-19.0101
 21
16.2362
  0
LINE
  8
0
 10
-19.0101
 20
16.2362
 11
-20.2254
 21
14.6946
  0
LINE
  8
0
 10
-20.2254
 20
14.6946
 11
-21.316
 21
13.0625
  0
LINE
  8
0
 10
-21.316
 20
13.0625
 11
-22.2752
 21
11.3498
  0
LINE
  8
0
 10
-22.2752
 20
11.3498
 11
-23.097
 21
9.56709
  0
LINE
  8
0
 10
-23.097
 20
9.56709
 11
-23.7764
 21
7.72542
  0
LINE
  8
0
 10
-23.7764
 20
7.72542
 11
-24.3092
 21
5.83613
  0
LINE
  8
0
 10
-24.3092
 20
5.83613
 11
-24.6922
 21
3.91086
  0
LINE
  8
0
 10
-24.6922
 20
3.91086
 11
-24.9229
 21
1.96148
  0
LINE
  8
0
 10
-24.9229
 20
1.96148
 11
-25
 21
0
  0
LINE
  8
0
 10
-21.5
 20
0
 11
-21.48
 21
0.509984
  0
LINE
  8
0
 10
-21.48
 20
0.509984
 11
-21.42
 21
1.01682
  0
LINE
  8
0
 10
-21.42
 20
1.01682
 11
-21.3204
 21
1.51739
  0
LINE
  8
0
 10
-21.3204
 20
1.51739
 11
-21.1819
 21
2.00861
  0
LINE
  8
0
 10
-21.1819
 20
2.00861
 11
-21.0052
 21
2.48744
  0
LINE
  8
0
 10
-21.0052
 20
2.48744
 11
-20.7915
 21
2.95094
  0
LINE
  8
0
 10
-20.7915
 20
2.95094
 11
-20.5422
 21
3.39624
  0
LINE
  8
0
 10
-20.5422
 20
3.39624
 11
-20.2586
 21
3.8206
  0
LINE
  8
0
 10
-20.2586
 20
3.8206
 11
-19.9426
 21
4.22141
  0
LINE
  8
0
 10
-19.9426
 20
4.22141
 11
-19.5962
 21
4.59619
  0
LINE
  8
0
 10
-19.5962
 20
4.59619
 11
-12.0208
 21
12.0208
  0
LINE
  8
0
 10
-12.0208
 20
12.0208
 11
-11.0406
 21
12.9269
  0
LINE
  8
0
 10
-11.0406
 20
12.9269
 11
-9.99235
 21
13.7533
  0
LINE
  8
0
 10
-9.99235
 20
13.7533
 11
-8.88247
 21
14.4949
  0
LINE
  8
0
 10
-8.88247
 20
14.4949
 11
-7.71784
 21
15.1471
  0
LINE
  8
0
 10
-7.71784
 20
15.1471
 11
-6.50562
 21
15.706
  0
LINE
  8
0
 10
-6.50562
 20
15.706
 11
-5.25329
 21
16.168
  0
LINE
  8
0
 10
-5.25329
 20
16.168
 11
-3.96857
 21
16.5303
  0
LINE
  8
0
 10
-3.96857
 20
16.5303
 11
-2.65939
 21
16.7907
  0
LINE
  8
0
 10
-2.65939
 20
16.7907
 11
-1.33381
 21
16.9476
  0
LINE
  8
0
 10
-1.33381
 20
16.9476
 11
0
 21
17
  0
LINE
  8
0
 10
0
 20
17
 11
1.3338
 21
16.9476
  0
LINE
  8
0
 10
1.3338
 20
16.9476
 11
2.65939
 21
16.7907
  0
LINE
  8
0
 10
2.65939
 20
16.7907
 11
3.96857
 21
16.5303
  0
LINE
  8
0
 10
3.96857
 20
16.5303
 11
5.25329
 21
16.168
  0
LINE
  8
0
 10
5.25329
 20
16.168
 11
6.50562
 21
15.706
  0
LINE
  8
0
 10
6.50562
 20
15.706
 11
7.71784
 21
15.1471
  0
LINE
  8
0
 10
7.71784
 20
15.1471
 11
8.88247
 21
14.4949
  0
LINE
  8
0
 10
8.88247
 20
14.4949
 11
9.99235
 21
13.7533
  0
LINE
  8
0
 10
9.99235
 20
13.7533
 11
11.0406
 21
12.9269
  0
LINE
  8
0
 10
11.0406
 20
12.9269
 11
12.0208
 21
12.0208
  0
LINE
  8
0
 10
12.0208
 20
12.0208
 11
19.5962
 21
4.59619
  0
LINE
  8
0
 10
19.5962
 20
4.59619
 11
19.9426
 21
4.22141
  0
LINE
  8
0
 10
19.9426
 20
4.22141
 11
20.2586
 21
3.8206
  0
LINE
  8
0
 10
20.2586
 20
3.8206
 11
20.5422
 21
3.39624
  0
LINE
  8
0
 10
20.5422
 20
3.39624
 11
20.7915
 21
2.95094
  0
LINE
  8
0
 10
20.7915
 20
2.95094
 11
21.0052
 21
2.48744
  0
LINE
  8
0
 10
21.0052
 20
2.48744
 11
21.1819
 21
2.00861
  0
LINE
  8
0
 10
21.1819
 20
2.00861
 11
21.3204
 21
1.51739
  0
LINE
  8
0
 10
21.3204
 20
1.51739
 11
21.42
 21
1.01682
  0
LINE
  8
0
 10
21.42
 20
1.01682
 11
21.48
 21
0.509984
  0
LINE
  8
0
 10
21.48
 20
0.509984
 11
21.5
 21
0
  0
LINE
  8
0
 10
21.5
 20
0
 11
21.48
 21
-0.509984
  0
LINE
  8
0
 10
21.48
 20
-0.509984
 11
21.42
 21
-1.01682
  0
LINE
  8
0
 10
21.42
 20
-1.01682
 11
21.3204
 21
-1.51739
  0
LINE
  8
0
 10
21.3204
 20
-1.51739
 11
21.1819
 21
-2.00861
  0
LINE
  8
0
 10
21.1819
 20
-2.00861
 11
21.0052
 21
-2.48744
  0
LINE
  8
0
 10
21.0052
 20
-2.48744
 11
20.7915
 21
-2.95094
  0
LINE
  8
0
 10
20.7915
 20
-2.95094
 11
20.5422
 21
-3.39624
  0
LINE
  8
0
 10
20.5422
 20
-3.39624
 11
20.2586
 21
-3.8206
  0
LINE
  8
0
 10
20.2586
 20
-3.8206
 11
19.9426
 21
-4.22141
  0
LINE
  8
0
 10
19.9426
 20
-4.22141
 11
19.5962
 21
-4.59619
  0
LINE
  8
0
 10
19.5962
 20
-4.59619
 11
12.0208
 21
-12.0208
  0
LINE
  8
0
 10
12.0208
 20
-12.0208
 11
11.0406
 21
-12.9269
  0
LINE
  8
0
 10
11.0406
 20
-12.9269
 11
9.99235
 21
-13.7533
  0
LINE
  8
0
 10
9.99235
 20
-13.7533
 11
8.88247
 21
-14.4949
  0
LINE
  8
0
 10
8.88247
 20
-14.4949
 11
7.71784
 21
-15.1471
  0
LINE
  8
0
 10
7.71784
 20
-15.1471
 11
6.50562
 21
-15.706
  0
LINE
  8
0
 10
6.50562
 20
-15.706
 11
5.25329
 21
-16.168
  0
LINE
  8
0
 10
5.25329
 20
-16.168
 11
3.96857
 21
-16.5303
  0
LINE
  8
0
 10
3.96857
 20
-16.5303
 11
2.65939
 21
-16.7907
  0
LINE
  8
0
 10
2.65939
 20
-16.7907
 11
1.3338
 21
-16.9476
  0
LINE
  8
0
 10
1.3338
 20
-16.9476
 11
0
 21
-17
  0
LINE
  8
0
 10
0
 20
-17
 11
-1.33381
 21
-16.9476
  0
LINE
  8
0
 10
-1.33381
 20
-16.9476
 11
-2.65939
 21
-16.7907
  0
LINE
  8
0
 10
-2.65939
 20
-16.7907
 11
-3.96857
 21
-16.5303
  0
LINE
  8
0
 10
-3.96857
 20
-16.5303
 11
-5.25329
 21
-16.168
  0
LINE
  8
0
 10
-5.25329
 20
-16.168
 11
-6.50562
 21
-15.706
  0
LINE
  8
0
 10
-6.50562
 20
-15.706
 11
-7.71784
 21
-15.1471
  0
LINE
  8
0
 10
-7.71784
 20
-15.1471
 11
-8.88247
 21
-14.4949
  0
LINE
  8
0
 10
-8.88247
 20
-14.4949
 11
-9.99235
 21
-13.7533
  0
LINE
  8
0
 10
-9.99235
 20
-13.7533
 11
-11.0406
 21
-12.9269
  0
LINE
  8
0
 10
-11.0406
 20
-12.9269
 11
-12.0208
 21
-12.0208
  0
LINE
  8
0
 10
-12.0208
 20
-12.0208
 11
-19.5962
 21
-4.59619
  0
LINE
  8
0
 10
-19.5962
 20
-4.59619
 11
-19.9426
 21
-4.22141
  0
LINE
  8
0
 10
-19.9426
 20
-4.22141
 11
-20.2586
 21
-3.8206
  0
LINE
  8
0
 10
-20.2586
 20
-3.8206
 11
-20.5422
 21
-3.39624
  0
LINE
  8
0
 10
-20.5422
 20
-3.39624
 11
-20.7915
 21
-2.95094
  0
LINE
  8
0
 10
-20.7915
 20
-2.95094
 11
-21.0052
 21
-2.48744
  0
LINE
  8
0
 10
-21.0052
 20
-2.48744
 11
-21.1819
 21
-2.00861
  0
LINE
  8
0
 10
-21.1819
 20
-2.00861
 11
-21.3204
 21
-1.51739
  0
LINE
  8
0
 10
-21.3204
 20
-1.51739
 11
-21.42
 21
-1.01682
  0
LINE
  8
0
 10
-21.42
 20
-1.01682
 11
-21.48
 21
-0.509984
  0
LINE
  8
0
 10
-21.48
 20
-0.509984
 11
-21.5
 21
0
  0
LINE
  8
0
 10
20
 20
-41.75
 11
20
 21
-28.25
  0
LINE
  8
0
 10
20
 20
-28.25
 11
30
 21
-28.25
  0
LINE
  8
0
 10
30
 20
-28.25
 11
30
 21
-41.75
  0
LINE
  8
0
 10
30
 20
-41.75
 11
20
 21
-41.75
  0
LINE
  8
0
 10
20
 20
28.25
 11
20
 21
41.75
  0
LINE
  8
0
 10
20
 20
41.75
 11
30
 21
41.75
  0
LINE
  8
0
 10
30
 20
41.75
 11
30
 21
28.25
  0
LINE
  8
0
 10
30
 20
28.25
 11
20
 21
28.25
  0
LINE
  8
0
 10
40
 20
0
 11
40.0771
 21
1.96148
  0
LINE
  8
0
 10
40.0771
 20
1.96148
 11
40.3078
 21
3.91086
  0
LINE
  8
0
 10
40.3078
 20
3.91086
 11
40.6908
 21
5.83613
  0
LINE
  8
0
 10
40.6908
 20
5.83613
 11
41.2236
 21
7.72542
  0
LINE
  8
0
 10
41.2236
 20
7.72542
 11
41.903
 21
9.56709
  0
LINE
  8
0
 10
41.903
 20
9.56709
 11
42.7248
 21
11.3498
  0
LINE
  8
0
 10
42.7248
 20
11.3498
 11
43.684
 21
13.0625
  0
LINE
  8
0
 10
43.684
 20
13.0625
 11
44.7746
 21
14.6946
  0
LINE
  8
0
 10
44.7746
 20
14.6946
 11
45.9899
 21
16.2362
  0
LINE
  8
0
 10
45.9899
 20
16.2362
 11
47.3223
 21
17.6777
  0
LINE
  8
0
 10
47.3223
 20
17.6777
 11
48.7638
 21
19.0101
  0
LINE
  8
0
 10
48.7638
 20
19.0101
 11
50.3054
 21
20.2254
  0
LINE
  8
0
 10
50.3054
 20
20.2254
 11
51.9375
 21
21.316
  0
LINE
  8
0
 10
51.9375
 20
21.316
 11
53.6502
 21
22.2752
  0
LINE
  8
0
 10
53.6502
 20
22.2752
 11
55.4329
 21
23.097
  0
LINE
  8
0
 10
55.4329
 20
23.097
 11
57.2746
 21
23.7764
  0
LINE
  8
0
 10
57.2746
 20
23.7764
 11
59.1639
 21
24.3092
  0
LINE
  8
0
 10
59.1639
 20
24.3092
 11
61.0891
 21
24.6922
  0
LINE
  8
0
 10
61.0891
 20
24.6922
 11
63.0385
 21
24.9229
  0
LINE
  8
0
 10
63.0385
 20
24.9229
 11
65
 21
25
  0
LINE
  8
0
 10
65
 20
25
 11
75
 21
25
  0
LINE
  8
0
 10
75
 20
25
 11
76.9615
 21
24.9229
  0
LINE
  8
0
 10
76.9615
 20
24.9229
 11
78.9109
 21
24.6922
  0
LINE
  8
0
 10
78.9109
 20
24.6922
 11
80.8361
 21
24.3092
  0
LINE
  8
0
 10
80.8361
 20
24.3092
 11
82.7254
 21
23.7764
  0
LINE
  8
0
 10
82.7254
 20
23.7764
 11
84.5671
 21
23.097
  0
LINE
  8
0
 10
84.5671
 20
23.097
 11
86.3498
 21
22.2752
  0
LINE
  8
0
 10
86.3498
 20
22.2752
 11
88.0625
 21
21.316
  0
LINE
  8
0
 10
88.0625
 20
21.316
 11
89.6946
 21
20.2254
  0
LINE
  8
0
 10
89.6946
 20
20.2254
 11
91.2362
 21
19.0101
  0
LINE
  8
0
 10
91.2362
 20
19.0101
 11
92.6777
 21
17.6777
  0
LINE
  8
0
 10
92.6777
 20
17.6777
 11
94.0101
 21
16.2362
  0
LINE
  8
0
 10
94.0101
 20
16.2362
 11
95.2254
 21
14.6946
  0
LINE
  8
0
 10
95.2254
 20
14.6946
 11
96.316
 21
13.0625
  0
LINE
  8
0
 10
96.316
 20
13.0625
 11
97.2752
 21
11.3498
  0
LINE
  8
0
 10
97.2752
 20
11.3498
 11
98.097
 21
9.56709
  0
LINE
  8
0
 10
98.097
 20
9.56709
 11
98.7764
 21
7.72542
  0
LINE
  8
0
 10
98.7764
 20
7.72542
 11
99.3092
 21
5.83613
  0
LINE
  8
0
 10
99.3092
 20
5.83613
 11
99.6922
 21
3.91086
  0
LINE
  8
0
 10
99.6922
 20
3.91086
 11
99.9229
 21
1.96148
  0
LINE
  8
0
 10
99.9229
 20
1.96148
 11
100
 21
0
  0
LINE
  8
0
 10
100
 20
0
 11
99.9229
 21
-1.96148
  0
LINE
  8
0
 10
99.9229
 20
-1.96148
 11
99.6922
 21
-3.91086
  0
LINE
  8
0
 10
99.6922
 20
-3.91086
 11
99.3092
 21
-5.83613
  0
LINE
  8
0
 10
99.3092
 20
-5.83613
 11
98.7764
 21
-7.72542
  0
LINE
  8
0
 10
98.7764
 20
-7.72542
 11
98.097
 21
-9.56709
  0
LINE
  8
0
 10
98.097
 20
-9.56709
 11
97.2752
 21
-11.3498
  0
LINE
  8
0
 10
97.2752
 20
-11.3498
 11
96.316
 21
-13.0625
  0
LINE
  8
0
 10
96.316
 20
-13.0625
 11
95.2254
 21
-14.6946
  0
LINE
  8
0
 10
95.2254
 20
-14.6946
 11
94.0101
 21
-16.2362
  0
LINE
  8
0
 10
94.0101
 20
-16.2362
 11
92.6777
 21
-17.6777
  0
LINE
  8
0
 10
92.6777
 20
-17.6777
 11
91.2362
 21
-19.0101
  0
LINE
  8
0
 10
91.2362
 20
-19.0101
 11
89.6946
 21
-20.2254
  0
LINE
  8
0
 10
89.6946
 20
-20.2254
 11
88.0625
 21
-21.316
  0
LINE
  8
0
 10
88.0625
 20
-21.316
 11
86.3498
 21
-22.2752
  0
LINE
  8
0
 10
86.3498
 20
-22.2752
 11
84.5671
 21
-23.097
  0
LINE
  8
0
 10
84.5671
 20
-23.097
 11
82.7254
 21
-23.7764
  0
LINE
  8
0
 10
82.7254
 20
-23.7764
 11
80.8361
 21
-24.3092
  0
LINE
  8
0
 10
80.8361
 20
-24.3092
 11
78.9109
 21
-24.6922
  0
LINE
  8
0
 10
78.9109
 20
-24.6922
 11
76.9615
 21
-24.9229
  0
LINE
  8
0
 10
76.9615
 20
-24.9229
 11
75
 21
-25
  0
LINE
  8
0
 10
75
 20
-25
 11
65
 21
-25
  0
LINE
  8
0
 10
65
 20
-25
 11
63.0385
 21
-24.9229
  0
LINE
  8
0
 10
63.0385
 20
-24.9229
 11
61.0891
 21
-24.6922
  0
LINE
  8
0
 10
61.0891
 20
-24.6922
 11
59.1639
 21
-24.3092
  0
LINE
  8
0
 10
59.1639
 20
-24.3092
 11
57.2746
 21
-23.7764
  0
LINE
  8
0
 10
57.2746
 20
-23.7764
 11
55.4329
 21
-23.097
  0
LINE
  8
0
 10
55.4329
 20
-23.097
 11
53.6502
 21
-22.2752
  0
LINE
  8
0
 10
53.6502
 20
-22.2752
 11
51.9375
 21
-21.316
  0
LINE
  8
0
 10
51.9375
 20
-21.316
 11
50.3054
 21
-20.2254
  0
LINE
  8
0
 10
50.3054
 20
-20.2254
 11
48.7638
 21
-19.0101
  0
LINE
  8
0
 10
48.7638
 20
-19.0101
 11
47.3223
 21
-17.6777
  0
LINE
  8
0
 10
47.3223
 20
-17.6777
 11
45.9899
 21
-16.2362
  0
LINE
  8
0
 10
45.9899
 20
-16.2362
 11
44.7746
 21
-14.6946
  0
LINE
  8
0
 10
44.7746
 20
-14.6946
 11
43.684
 21
-13.0625
  0
LINE
  8
0
 10
43.684
 20
-13.0625
 11
42.7248
 21
-11.3498
  0
LINE
  8
0
 10
42.7248
 20
-11.3498
 11
41.903
 21
-9.56709
  0
LINE
  8
0
 10
41.903
 20
-9.56709
 11
41.2236
 21
-7.72542
  0
LINE
  8
0
 10
41.2236
 20
-7.72542
 11
40.6908
 21
-5.83613
  0
LINE
  8
0
 10
40.6908
 20
-5.83613
 11
40.3078
 21
-3.91086
  0
LINE
  8
0
 10
40.3078
 20
-3.91086
 11
40.0771
 21
-1.96148
  0
LINE
  8
0
 10
40.0771
 20
-1.96148
 11
40
 21
0
  0
LINE
  8
0
 10
41
 20
-25
 11
41.0123
 21
-24.6862
  0
LINE
  8
0
 10
41.0123
 20
-24.6862
 11
41.0492
 21
-24.3743
  0
LINE
  8
0
 10
41.0492
 20
-24.3743
 11
41.1105
 21
-24.0662
  0
LINE
  8
0
 10
41.1105
 20
-24.0662
 11
41.1958
 21
-23.7639
  0
LINE
  8
0
 10
41.1958
 20
-23.7639
 11
41.3045
 21
-23.4693
  0
LINE
  8
0
 10
41.3045
 20
-23.4693
 11
41.436
 21
-23.184
  0
LINE
  8
0
 10
41.436
 20
-23.184
 11
41.5894
 21
-22.91
  0
LINE
  8
0
 10
41.5894
 20
-22.91
 11
41.7639
 21
-22.6489
  0
LINE
  8
0
 10
41.7639
 20
-22.6489
 11
41.9584
 21
-22.4022
  0
LINE
  8
0
 10
41.9584
 20
-22.4022
 11
42.1716
 21
-22.1716
  0
LINE
  8
0
 10
42.1716
 20
-22.1716
 11
42.4022
 21
-21.9584
  0
LINE
  8
0
 10
42.4022
 20
-21.9584
 11
42.6489
 21
-21.7639
  0
LINE
  8
0
 10
42.6489
 20
-21.7639
 11
42.91
 21
-21.5894
  0
LINE
  8
0
 10
42.91
 20
-21.5894
 11
43.184
 21
-21.436
  0
LINE
  8
0
 10
43.184
 20
-21.436
 11
43.4693
 21
-21.3045
  0
LINE
  8
0
 10
43.4693
 20
-21.3045
 11
43.7639
 21
-21.1958
  0
LINE
  8
0
 10
43.7639
 20
-21.1958
 11
44.0662
 21
-21.1105
  0
LINE
  8
0
 10
44.0662
 20
-21.1105
 11
44.3743
 21
-21.0492
  0
LINE
  8
0
 10
44.3743
 20
-21.0492
 11
44.6862
 21
-21.0123
  0
LINE
  8
0
 10
44.6862
 20
-21.0123
 11
45
 21
-21
  0
LINE
  8
0
 10
45
 20
-21
 11
45.3138
 21
-21.0123
  0
LINE
  8
0
 10
45.3138
 20
-21.0123
 11
45.6257
 21
-21.0492
  0
LINE
  8
0
 10
45.6257
 20
-21.0492
 11
45.9338
 21
-21.1105
  0
LINE
  8
0
 10
45.9338
 20
-21.1105
 11
46.2361
 21
-21.1958
  0
LINE
  8
0
 10
46.2361
 20
-21.1958
 11
46.5307
 21
-21.3045
  0
LINE
  8
0
 10
46.5307
 20
-21.3045
 11
46.816
 21
-21.436
  0
LINE
  8
0
 10
46.816
 20
-21.436
 11
47.09
 21
-21.5894
  0
LINE
  8
0
 10
47.09
 20
-21.5894
 11
47.3511
 21
-21.7639
  0
LINE
  8
0
 10
47.3511
 20
-21.7639
 11
47.5978
 21
-21.9584
  0
LINE
  8
0
 10
47.5978
 20
-21.9584
 11
47.8284
 21
-22.1716
  0
LINE
  8
0
 10
47.8284
 20
-22.1716
 11
48.0416
 21
-22.4022
  0
LINE
  8
0
 10
48.0416
 20
-22.4022
 11
48.2361
 21
-22.6489
  0
LINE
  8
0
 10
48.2361
 20
-22.6489
 11
48.4106
 21
-22.91
  0
LINE
  8
0
 10
48.4106
 20
-22.91
 11
48.564
 21
-23.184
  0
LINE
  8
0
 10
48.564
 20
-23.184
 11
48.6955
 21
-23.4693
  0
LINE
  8
0
 10
48.6955
 20
-23.4693
 11
48.8042
 21
-23.7639
  0
LINE
  8
0
 10
48.8042
 20
-23.7639
 11
48.8895
 21
-24.0662
  0
LINE
  8
0
 10
48.8895
 20
-24.0662
 11
48.9508
 21
-24.3743
  0
LINE
  8
0
 10
48.9508
 20
-24.3743
 11
48.9877
 21
-24.6862
  0
LINE
  8
0
 10
48.9877
 20
-24.6862
 11
49
 21
-25
  0
LINE
  8
0
 10
49
 20
-25
 11
48.9877
 21
-25.3138
  0
LINE
  8
0
 10
48.9877
 20
-25.3138
 11
48.9508
 21
-25.6257
  0
LINE
  8
0
 10
48.9508
 20
-25.6257
 11
48.8895
 21
-25.9338
  0
LINE
  8
0
 10
48.8895
 20
-25.9338
 11
48.8042
 21
-26.2361
  0
LINE
  8
0
 10
48.8042
 20
-26.2361
 11
48.6955
 21
-26.5307
  0
LINE
  8
0
 10
48.6955
 20
-26.5307
 11
48.564
 21
-26.816
  0
LINE
  8
0
 10
48.564
 20
-26.816
 11
48.4106
 21
-27.09
  0
LINE
  8
0
 10
48.4106
 20
-27.09
 11
48.2361
 21
-27.3511
  0
LINE
  8
0
 10
48.2361
 20
-27.3511
 11
48.0416
 21
-27.5978
  0
LINE
  8
0
 10
48.0416
 20
-27.5978
 11
47.8284
 21
-27.8284
  0
LINE
  8
0
 10
47.8284
 20
-27.8284
 11
47.5978
 21
-28.0416
  0
LINE
  8
0
 10
47.5978
 20
-28.0416
 11
47.3511
 21
-28.2361
  0
LINE
  8
0
 10
47.3511
 20
-28.2361
 11
47.09
 21
-28.4106
  0
LINE
  8
0
 10
47.09
 20
-28.4106
 11
46.816
 21
-28.564
  0
LINE
  8
0
 10
46.816
 20
-28.564
 11
46.5307
 21
-28.6955
  0
LINE
  8
0
 10
46.5307
 20
-28.6955
 11
46.2361
 21
-28.8042
  0
LINE
  8
0
 10
46.2361
 20
-28.8042
 11
45.9338
 21
-28.8895
  0
LINE
  8
0
 10
45.9338
 20
-28.8895
 11
45.6257
 21
-28.9508
  0
LINE
  8
0
 10
45.6257
 20
-28.9508
 11
45.3138
 21
-28.9877
  0
LINE
  8
0
 10
45.3138
 20
-28.9877
 11
45
 21
-29
  0
LINE
  8
0
 10
45
 20
-29
 11
44.6862
 21
-28.9877
  0
LINE
  8
0
 10
44.6862
 20
-28.9877
 11
44.3743
 21
-28.9508
  0
LINE
  8
0
 10
44.3743
 20
-28.9508
 11
44.0662
 21
-28.8895
  0
LINE
  8
0
 10
44.0662
 20
-28.8895
 11
43.7639
 21
-28.8042
  0
LINE
  8
0
 10
43.7639
 20
-28.8042
 11
43.4693
 21
-28.6955
  0
LINE
  8
0
 10
43.4693
 20
-28.6955
 11
43.184
 21
-28.564
  0
LINE
  8
0
 10
43.184
 20
-28.564
 11
42.91
 21
-28.4106
  0
LINE
  8
0
 10
42.91
 20
-28.4106
 11
42.6489
 21
-28.2361
  0
LINE
  8
0
 10
42.6489
 20
-28.2361
 11
42.4022
 21
-28.0416
  0
LINE
  8
0
 10
42.4022
 20
-28.0416
 11
42.1716
 21
-27.8284
  0
LINE
  8
0
 10
42.1716
 20
-27.8284
 11
41.9584
 21
-27.5978
  0
LINE
  8
0
 10
41.9584
 20
-27.5978
 11
41.7639
 21
-27.3511
  0
LINE
  8
0
 10
41.7639
 20
-27.3511
 11
41.5894
 21
-27.09
  0
LINE
  8
0
 10
41.5894
 20
-27.09
 11
41.436
 21
-26.816
  0
LINE
  8
0
 10
41.436
 20
-26.816
 11
41.3045
 21
-26.5307
  0
LINE
  8
0
 10
41.3045
 20
-26.5307
 11
41.1958
 21
-26.2361
  0
LINE
  8
0
 10
41.1958
 20
-26.2361
 11
41.1105
 21
-25.9338
  0
LINE
  8
0
 10
41.1105
 20
-25.9338
 11
41.0492
 21
-25.6257
  0
LINE
  8
0
 10
41.0492
 20
-25.6257
 11
41.0123
 21
-25.3138
  0
LINE
  8
0
 10
41.0123
 20
-25.3138
 11
41
 21
-25
  0
LINE
  8
0
 10
41
 20
25
 11
41.0123
 21
25.3138
  0
LINE
  8
0
 10
41.0123
 20
25.3138
 11
41.0492
 21
25.6257
  0
LINE
  8
0
 10
41.0492
 20
25.6257
 11
41.1105
 21
25.9338
  0
LINE
  8
0
 10
41.1105
 20
25.9338
 11
41.1958
 21
26.2361
  0
LINE
  8
0
 10
41.1958
 20
26.2361
 11
41.3045
 21
26.5307
  0
LINE
  8
0
 10
41.3045
 20
26.5307
 11
41.436
 21
26.816
  0
LINE
  8
0
 10
41.436
 20
26.816
 11
41.5894
 21
27.09
  0
LINE
  8
0
 10
41.5894
 20
27.09
 11
41.7639
 21
27.3511
  0
LINE
  8
0
 10
41.7639
 20
27.3511
 11
41.9584
 21
27.5978
  0
LINE
  8
0
 10
41.9584
 20
27.5978
 11
42.1716
 21
27.8284
  0
LINE
  8
0
 10
42.1716
 20
27.8284
 11
42.4022
 21
28.0416
  0
LINE
  8
0
 10
42.4022
 20
28.0416
 11
42.6489
 21
28.2361
  0
LINE
  8
0
 10
42.6489
 20
28.2361
 11
42.91
 21
28.4106
  0
LINE
  8
0
 10
42.91
 20
28.4106
 11
43.184
 21
28.564
  0
LINE
  8
0
 10
43.184
 20
28.564
 11
43.4693
 21
28.6955
  0
LINE
  8
0
 10
43.4693
 20
28.6955
 11
43.7639
 21
28.8042
  0
LINE
  8
0
 10
43.7639
 20
28.8042
 11
44.0662
 21
28.8895
  0
LINE
  8
0
 10
44.0662
 20
28.8895
 11
44.3743
 21
28.9508
  0
LINE
  8
0
 10
44.3743
 20
28.9508
 11
44.6862
 21
28.9877
  0
LINE
  8
0
 10
44.6862
 20
28.9877
 11
45
 21
29
  0
LINE
  8
0
 10
45
 20
29
 11
45.3138
 21
28.9877
  0
LINE
  8
0
 10
45.3138
 20
28.9877
 11
45.6257
 21
28.9508
  0
LINE
  8
0
 10
45.6257
 20
28.9508
 11
45.9338
 21
28.8895
  0
LINE
  8
0
 10
45.9338
 20
28.8895
 11
46.2361
 21
28.8042
  0
LINE
  8
0
 10
46.2361
 20
28.8042
 11
46.5307
 21
28.6955
  0
LINE
  8
0
 10
46.5307
 20
28.6955
 11
46.816
 21
28.564
  0
LINE
  8
0
 10
46.816
 20
28.564
 11
47.09
 21
28.4106
  0
LINE
  8
0
 10
47.09
 20
28.4106
 11
47.3511
 21
28.2361
  0
LINE
  8
0
 10
47.3511
 20
28.2361
 11
47.5978
 21
28.0416
  0
LINE
  8
0
 10
47.5978
 20
28.0416
 11
47.8284
 21
27.8284
  0
LINE
  8
0
 10
47.8284
 20
27.8284
 11
48.0416
 21
27.5978
  0
LINE
  8
0
 10
48.0416
 20
27.5978
 11
48.2361
 21
27.3511
  0
LINE
  8
0
 10
48.2361
 20
27.3511
 11
48.4106
 21
27.09
  0
LINE
  8
0
 10
48.4106
 20
27.09
 11
48.564
 21
26.816
  0
LINE
  8
0
 10
48.564
 20
26.816
 11
48.6955
 21
26.5307
  0
LINE
  8
0
 10
48.6955
 20
26.5307
 11
48.8042
 21
26.2361
  0
LINE
  8
0
 10
48.8042
 20
26.2361
 11
48.8895
 21
25.9338
  0
LINE
  8
0
 10
48.8895
 20
25.9338
 11
48.9508
 21
25.6257
  0
LINE
  8
0
 10
48.9508
 20
25.6257
 11
48.9877
 21
25.3138
  0
LINE
  8
0
 10
48.9877
 20
25.3138
 11
49
 21
25
  0
LINE
  8
0
 10
49
 20
25
 11
48.9877
 21
24.6862
  0
LINE
  8
0
 10
48.9877
 20
24.6862
 11
48.9508
 21
24.3743
  0
LINE
  8
0
 10
48.9508
 20
24.3743
 11
48.8895
 21
24.0662
  0
LINE
  8
0
 10
48.8895
 20
24.0662
 11
48.8042
 21
23.7639
  0
LINE
  8
0
 10
48.8042
 20
23.7639
 11
48.6955
 21
23.4693
  0
LINE
  8
0
 10
48.6955
 20
23.4693
 11
48.564
 21
23.184
  0
LINE
  8
0
 10
48.564
 20
23.184
 11
48.4106
 21
22.91
  0
LINE
  8
0
 10
48.4106
 20
22.91
 11
48.2361
 21
22.6489
  0
LINE
  8
0
 10
48.2361
 20
22.6489
 11
48.0416
 21
22.4022
  0
LINE
  8
0
 10
48.0416
 20
22.4022
 11
47.8284
 21
22.1716
  0
LINE
  8
0
 10
47.8284
 20
22.1716
 11
47.5978
 21
21.9584
  0
LINE
  8
0
 10
47.5978
 20
21.9584
 11
47.3511
 21
21.7639
  0
LINE
  8
0
 10
47.3511
 20
21.7639
 11
47.09
 21
21.5894
  0
LINE
  8
0
 10
47.09
 20
21.5894
 11
46.816
 21
21.436
  0
LINE
  8
0
 10
46.816
 20
21.436
 11
46.5307
 21
21.3045
  0
LINE
  8
0
 10
46.5307
 20
21.3045
 11
46.2361
 21
21.1958
  0
LINE
  8
0
 10
46.2361
 20
21.1958
 11
45.9338
 21
21.1105
  0
LINE
  8
0
 10
45.9338
 20
21.1105
 11
45.6257
 21
21.0492
  0
LINE
  8
0
 10
45.6257
 20
21.0492
 11
45.3138
 21
21.0123
  0
LINE
  8
0
 10
45.3138
 20
21.0123
 11
45
 21
21
  0
LINE
  8
0
 10
45
 20
21
 11
44.6862
 21
21.0123
  0
LINE
  8
0
 10
44.6862
 20
21.0123
 11
44.3743
 21
21.0492
  0
LINE
  8
0
 10
44.3743
 20
21.0492
 11
44.0662
 21
21.1105
  0
LINE
  8
0
 10
44.0662
 20
21.1105
 11
43.7639
 21
21.1958
  0
LINE
  8
0
 10
43.7639
 20
21.1958
 11
43.4693
 21
21.3045
  0
LINE
  8
0
 10
43.4693
 20
21.3045
 11
43.184
 21
21.436
  0
LINE
  8
0
 10
43.184
 20
21.436
 11
42.91
 21
21.5894
  0
LINE
  8
0
 10
42.91
 20
21.5894
 11
42.6489
 21
21.7639
  0
LINE
  8
0
 10
42.6489
 20
21.7639
 11
42.4022
 21
21.9584
  0
LINE
  8
0
 10
42.4022
 20
21.9584
 11
42.1716
 21
22.1716
  0
LINE
  8
0
 10
42.1716
 20
22.1716
 11
41.9584
 21
22.4022
  0
LINE
  8
0
 10
41.9584
 20
22.4022
 11
41.7639
 21
22.6489
  0
LINE
  8
0
 10
41.7639
 20
22.6489
 11
41.5894
 21
22.91
  0
LINE
  8
0
 10
41.5894
 20
22.91
 11
41.436
 21
23.184
  0
LINE
  8
0
 10
41.436
 20
23.184
 11
41.3045
 21
23.4693
  0
LINE
  8
0
 10
41.3045
 20
23.4693
 11
41.1958
 21
23.7639
  0
LINE
  8
0
 10
41.1958
 20
23.7639
 11
41.1105
 21
24.0662
  0
LINE
  8
0
 10
41.1105
 20
24.0662
 11
41.0492
 21
24.3743
  0
LINE
  8
0
 10
41.0492
 20
24.3743
 11
41.0123
 21
24.6862
  0
LINE
  8
0
 10
41.0123
 20
24.6862
 11
41
 21
25
  0
LINE
  8
0
 10
91
 20
-25
 11
91.0123
 21
-24.6862
  0
LINE
  8
0
 10
91.0123
 20
-24.6862
 11
91.0492
 21
-24.3743
  0
LINE
  8
0
 10
91.0492
 20
-24.3743
 11
91.1105
 21
-24.0662
  0
LINE
  8
0
 10
91.1105
 20
-24.0662
 11
91.1958
 21
-23.7639
  0
LINE
  8
0
 10
91.1958
 20
-23.7639
 11
91.3045
 21
-23.4693
  0
LINE
  8
0
 10
91.3045
 20
-23.4693
 11
91.436
 21
-23.184
  0
LINE
  8
0
 10
91.436
 20
-23.184
 11
91.5894
 21
-22.91
  0
LINE
  8
0
 10
91.5894
 20
-22.91
 11
91.7639
 21
-22.6489
  0
LINE
  8
0
 10
91.7639
 20
-22.6489
 11
91.9584
 21
-22.4022
  0
LINE
  8
0
 10
91.9584
 20
-22.4022
 11
92.1716
 21
-22.1716
  0
LINE
  8
0
 10
92.1716
 20
-22.1716
 11
92.4022
 21
-21.9584
  0
LINE
  8
0
 10
92.4022
 20
-21.9584
 11
92.6489
 21
-21.7639
  0
LINE
  8
0
 10
92.6489
 20
-21.7639
 11
92.91
 21
-21.5894
  0
LINE
  8
0
 10
92.91
 20
-21.5894
 11
93.184
 21
-21.436
  0
LINE
  8
0
 10
93.184
 20
-21.436
 11
93.4693
 21
-21.3045
  0
LINE
  8
0
 10
93.4693
 20
-21.3045
 11
93.7639
 21
-21.1958
  0
LINE
  8
0
 10
93.7639
 20
-21.1958
 11
94.0662
 21
-21.1105
  0
LINE
  8
0
 10
94.0662
 20
-21.1105
 11
94.3743
 21
-21.0492
  0
LINE
  8
0
 10
94.3743
 20
-21.0492
 11
94.6862
 21
-21.0123
  0
LINE
  8
0
 10
94.6862
 20
-21.0123
 11
95
 21
-21
  0
LINE
  8
0
 10
95
 20
-21
 11
95.3138
 21
-21.0123
  0
LINE
  8
0
 10
95.3138
 20
-21.0123
 11
95.6257
 21
-21.0492
  0
LINE
  8
0
 10
95.6257
 20
-21.0492
 11
95.9338
 21
-21.1105
  0
LINE
  8
0
 10
95.9338
 20
-21.1105
 11
96.2361
 21
-21.1958
  0
LINE
  8
0
 10
96.2361
 20
-21.1958
 11
96.5307
 21
-21.3045
  0
LINE
  8
0
 10
96.5307
 20
-21.3045
 11
96.816
 21
-21.436
  0
LINE
  8
0
 10
96.816
 20
-21.436
 11
97.09
 21
-21.5894
  0
LINE
  8
0
 10
97.09
 20
-21.5894
 11
97.3511
 21
-21.7639
  0
LINE
  8
0
 10
97.3511
 20
-21.7639
 11
97.5978
 21
-21.9584
  0
LINE
  8
0
 10
97.5978
 20
-21.9584
 11
97.8284
 21
-22.1716
  0
LINE
  8
0
 10
97.8284
 20
-22.1716
 11
98.0416
 21
-22.4022
  0
LINE
  8
0
 10
98.0416
 20
-22.4022
 11
98.2361
 21
-22.6489
  0
LINE
  8
0
 10
98.2361
 20
-22.6489
 11
98.4106
 21
-22.91
  0
LINE
  8
0
 10
98.4106
 20
-22.91
 11
98.564
 21
-23.184
  0
LINE
  8
0
 10
98.564
 20
-23.184
 11
98.6955
 21
-23.4693
  0
LINE
  8
0
 10
98.6955
 20
-23.4693
 11
98.8042
 21
-23.7639
  0
LINE
  8
0
 10
98.8042
 20
-23.7639
 11
98.8895
 21
-24.0662
  0
LINE
  8
0
 10
98.8895
 20
-24.0662
 11
98.9508
 21
-24.3743
  0
LINE
  8
0
 10
98.9508
 20
-24.3743
 11
98.9877
 21
-24.6862
  0
LINE
  8
0
 10
98.9877
 20
-24.6862
 11
99
 21
-25
  0
LINE
  8
0
 10
99
 20
-25
 11
98.9877
 21
-25.3138
  0
LINE
  8
0
 10
98.9877
 20
-25.3138
 11
98.9508
 21
-25.6257
  0
LINE
  8
0
 10
98.9508
 20
-25.6257
 11
98.8895
 21
-25.9338
  0
LINE
  8
0
 10
98.8895
 20
-25.9338
 11
98.8042
 21
-26.2361
  0
LINE
  8
0
 10
98.8042
 20
-26.2361
 11
98.6955
 21
-26.5307
  0
LINE
  8
0
 10
98.6955
 20
-26.5307
 11
98.564
 21
-26.816
  0
LINE
  8
0
 10
98.564
 20
-26.816
 11
98.4106
 21
-27.09
  0
LINE
  8
0
 10
98.4106
 20
-27.09
 11
98.2361
 21
-27.3511
  0
LINE
  8
0
 10
98.2361
 20
-27.3511
 11
98.0416
 21
-27.5978
  0
LINE
  8
0
 10
98.0416
 20
-27.5978
 11
97.8284
 21
-27.8284
  0
LINE
  8
0
 10
97.8284
 20
-27.8284
 11
97.5978
 21
-28.0416
  0
LINE
  8
0
 10
97.5978
 20
-28.0416
 11
97.3511
 21
-28.2361
  0
LINE
  8
0
 10
97.3511
 20
-28.2361
 11
97.09
 21
-28.4106
  0
LINE
  8
0
 10
97.09
 20
-28.4106
 11
96.816
 21
-28.564
  0
LINE
  8
0
 10
96.816
 20
-28.564
 11
96.5307
 21
-28.6955
  0
LINE
  8
0
 10
96.5307
 20
-28.6955
 11
96.2361
 21
-28.8042
  0
LINE
  8
0
 10
96.2361
 20
-28.8042
 11
95.9338
 21
-28.8895
  0
LINE
  8
0
 10
95.9338
 20
-28.8895
 11
95.6257
 21
-28.9508
  0
LINE
  8
0
 10
95.6257
 20
-28.9508
 11
95.3138
 21
-28.9877
  0
LINE
  8
0
 10
95.3138
 20
-28.9877
 11
95
 21
-29
  0
LINE
  8
0
 10
95
 20
-29
 11
94.6862
 21
-28.9877
  0
LINE
  8
0
 10
94.6862
 20
-28.9877
 11
94.3743
 21
-28.9508
  0
LINE
  8
0
 10
94.3743
 20
-28.9508
 11
94.0662
 21
-28.8895
  0
LINE
  8
0
 10
94.0662
 20
-28.8895
 11
93.7639
 21
-28.8042
  0
LINE
  8
0
 10
93.7639
 20
-28.8042
 11
93.4693
 21
-28.6955
  0
LINE
  8
0
 10
93.4693
 20
-28.6955
 11
93.184
 21
-28.564
  0
LINE
  8
0
 10
93.184
 20
-28.564
 11
92.91
 21
-28.4106
  0
LINE
  8
0
 10
92.91
 20
-28.4106
 11
92.6489
 21
-28.2361
  0
LINE
  8
0
 10
92.6489
 20
-28.2361
 11
92.4022
 21
-28.0416
  0
LINE
  8
0
 10
92.4022
 20
-28.0416
 11
92.1716
 21
-27.8284
  0
LINE
  8
0
 10
92.1716
 20
-27.8284
 11
91.9584
 21
-27.5978
  0
LINE
  8
0
 10
91.9584
 20
-27.5978
 11
91.7639
 21
-27.3511
  0
LINE
  8
0
 10
91.7639
 20
-27.3511
 11
91.5894
 21
-27.09
  0
LINE
  8
0
 10
91.5894
 20
-27.09
 11
91.436
 21
-26.816
  0
LINE
  8
0
 10
91.436
 20
-26.816
 11
91.3045
 21
-26.5307
  0
LINE
  8
0
 10
91.3045
 20
-26.5307
 11
91.1958
 21
-26.2361
  0
LINE
  8
0
 10
91.1958
 20
-26.2361
 11
91.1105
 21
-25.9338
  0
LINE
  8
0
 10
91.1105
 20
-25.9338
 11
91.0492
 21
-25.6257
  0
LINE
  8
0
 10
91.0492
 20
-25.6257
 11
91.0123
 21
-25.3138
  0
LINE
  8
0
 10
91.0123
 20
-25.3138
 11
91
 21
-25
  0
LINE
  8
0
 10
91
 20
25
 11
91.0123
 21
25.3138
  0
LINE
  8
0
 10
91.0123
 20
25.3138
 11
91.0492
 21
25.6257
  0
LINE
  8
0
 10
91.0492
 20
25.6257
 11
91.1105
 21
25.9338
  0
LINE
  8
0
 10
91.1105
 20
25.9338
 11
91.1958
 21
26.2361
  0
LINE
  8
0
 10
91.1958
 20
26.2361
 11
91.3045
 21
26.5307
  0
LINE
  8
0
 10
91.3045
 20
26.5307
 11
91.436
 21
26.816
  0
LINE
  8
0
 10
91.436
 20
26.816
 11
91.5894
 21
27.09
  0
LINE
  8
0
 10
91.5894
 20
27.09
 11
91.7639
 21
27.3511
  0
LINE
  8
0
 10
91.7639
 20
27.3511
 11
91.9584
 21
27.5978
  0
LINE
  8
0
 10
91.9584
 20
27.5978
 11
92.1716
 21
27.8284
  0
LINE
  8
0
 10
92.1716
 20
27.8284
 11
92.4022
 21
28.0416
  0
LINE
  8
0
 10
92.4022
 20
28.0416
 11
92.6489
 21
28.2361
  0
LINE
  8
0
 10
92.6489
 20
28.2361
 11
92.91
 21
28.4106
  0
LINE
  8
0
 10
92.91
 20
28.4106
 11
93.184
 21
28.564
  0
LINE
  8
0
 10
93.184
 20
28.564
 11
93.4693
 21
28.6955
  0
LINE
  8
0
 10
93.4693
 20
28.6955
 11
93.7639
 21
28.8042
  0
LINE
  8
0
 10
93.7639
 20
28.8042
 11
94.0662
 21
28.8895
  0
LINE
  8
0
 10
94.0662
 20
28.8895
 11
94.3743
 21
28.9508
  0
LINE
  8
0
 10
94.3743
 20
28.9508
 11
94.6862
 21
28.9877
  0
LINE
  8
0
 10
94.6862
 20
28.9877
 11
95
 21
29
  0
LINE
  8
0
 10
95
 20
29
 11
95.3138
 21
28.9877
  0
LINE
  8
0
 10
95.3138
 20
28.9877
 11
95.6257
 21
28.9508
  0
LINE
  8
0
 10
95.6257
 20
28.9508
 11
95.9338
 21
28.8895
  0
LINE
  8
0
 10
95.9338
 20
28.8895
 11
96.2361
 21
28.8042
  0
LINE
  8
0
 10
96.2361
 20
28.8042
 11
96.5307
 21
28.6955
  0
LINE
  8
0
 10
96.5307
 20
28.6955
 11
96.816
 21
28.564
  0
LINE
  8
0
 10
96.816
 20
28.564
 11
97.09
 21
28.4106
  0
LINE
  8
0
 10
97.09
 20
28.4106
 11
97.3511
 21
28.2361
  0
LINE
  8
0
 10
97.3511
 20
28.2361
 11
97.5978
 21
28.0416
  0
LINE
  8
0
 10
97.5978
 20
28.0416
 11
97.8284
 21
27.8284
  0
LINE
  8
0
 10
97.8284
 20
27.8284
 11
98.0416
 21
27.5978
  0
LINE
  8
0
 10
98.0416
 20
27.5978
 11
98.2361
 21
27.3511
  0
LINE
  8
0
 10
98.2361
 20
27.3511
 11
98.4106
 21
27.09
  0
LINE
  8
0
 10
98.4106
 20
27.09
 11
98.564
 21
26.816
  0
LINE
  8
0
 10
98.564
 20
26.816
 11
98.6955
 21
26.5307
  0
LINE
  8
0
 10
98.6955
 20
26.5307
 11
98.8042
 21
26.2361
  0
LINE
  8
0
 10
98.8042
 20
26.2361
 11
98.8895
 21
25.9338
  0
LINE
  8
0
 10
98.8895
 20
25.9338
 11
98.9508
 21
25.6257
  0
LINE
  8
0
 10
98.9508
 20
25.6257
 11
98.9877
 21
25.3138
  0
LINE
  8
0
 10
98.9877
 20
25.3138
 11
99
 21
25
  0
LINE
  8
0
 10
99
 20
25
 11
98.9877
 21
24.6862
  0
LINE
  8
0
 10
98.9877
 20
24.6862
 11
98.9508
 21
24.3743
  0
LINE
  8
0
 10
98.9508
 20
24.3743
 11
98.8895
 21
24.0662
  0
LINE
  8
0
 10
98.8895
 20
24.0662
 11
98.8042
 21
23.7639
  0
LINE
  8
0
 10
98.8042
 20
23.7639
 11
98.6955
 21
23.4693
  0
LINE
  8
0
 10
98.6955
 20
23.4693
 11
98.564
 21
23.184
  0
LINE
  8
0
 10
98.564
 20
23.184
 11
98.4106
 21
22.91
  0
LINE
  8
0
 10
98.4106
 20
22.91
 11
98.2361
 21
22.6489
  0
LINE
  8
0
 10
98.2361
 20
22.6489
 11
98.0416
 21
22.4022
  0
LINE
  8
0
 10
98.0416
 20
22.4022
 11
97.8284
 21
22.1716
  0
LINE
  8
0
 10
97.8284
 20
22.1716
 11
97.5978
 21
21.9584
  0
LINE
  8
0
 10
97.5978
 20
21.9584
 11
97.3511
 21
21.7639
  0
LINE
  8
0
 10
97.3511
 20
21.7639
 11
97.09
 21
21.5894
  0
LINE
  8
0
 10
97.09
 20
21.5894
 11
96.816
 21
21.436
  0
LINE
  8
0
 10
96.816
 20
21.436
 11
96.5307
 21
21.3045
  0
LINE
  8
0
 10
96.5307
 20
21.3045
 11
96.2361
 21
21.1958
  0
LINE
  8
0
 10
96.2361
 20
21.1958
 11
95.9338
 21
21.1105
  0
LINE
  8
0
 10
95.9338
 20
21.1105
 11
95.6257
 21
21.0492
  0
LINE
  8
0
 10
95.6257
 20
21.0492
 11
95.3138
 21
21.0123
  0
LINE
  8
0
 10
95.3138
 20
21.0123
 11
95
 21
21
  0
LINE
  8
0
 10
95
 20
21
 11
94.6862
 21
21.0123
  0
LINE
  8
0
 10
94.6862
 20
21.0123
 11
94.3743
 21
21.0492
  0
LINE
  8
0
 10
94.3743
 20
21.0492
 11
94.0662
 21
21.1105
  0
LINE
  8
0
 10
94.0662
 20
21.1105
 11
93.7639
 21
21.1958
  0
LINE
  8
0
 10
93.7639
 20
21.1958
 11
93.4693
 21
21.3045
  0
LINE
  8
0
 10
93.4693
 20
21.3045
 11
93.184
 21
21.436
  0
LINE
  8
0
 10
93.184
 20
21.436
 11
92.91
 21
21.5894
  0
LINE
  8
0
 10
92.91
 20
21.5894
 11
92.6489
 21
21.7639
  0
LINE
  8
0
 10
92.6489
 20
21.7639
 11
92.4022
 21
21.9584
  0
LINE
  8
0
 10
92.4022
 20
21.9584
 11
92.1716
 21
22.1716
  0
LINE
  8
0
 10
92.1716
 20
22.1716
 11
91.9584
 21
22.4022
  0
LINE
  8
0
 10
91.9584
 20
22.4022
 11
91.7639
 21
22.6489
  0
LINE
  8
0
 10
91.7639
 20
22.6489
 11
91.5894
 21
22.91
  0
LINE
  8
0
 10
91.5894
 20
22.91
 11
91.436
 21
23.184
  0
LINE
  8
0
 10
91.436
 20
23.184
 11
91.3045
 21
23.4693
  0
LINE
  8
0
 10
91.3045
 20
23.4693
 11
91.1958
 21
23.7639
  0
LINE
  8
0
 10
91.1958
 20
23.7639
 11
91.1105
 21
24.0662
  0
LINE
  8
0
 10
91.1105
 20
24.0662
 11
91.0492
 21
24.3743
  0
LINE
  8
0
 10
91.0492
 20
24.3743
 11
91.0123
 21
24.6862
  0
LINE
  8
0
 10
91.0123
 20
24.6862
 11
91
 21
25
  0
ENDSEC
  0
SECTION
  2
OBJECTS
  0
DICTIONARY
  0
ENDSEC
  0
EOF
