  0
SECTION
  2
BLOCKS
  0
ENDSEC
  0
SECTION
  2
ENTITIES
  0
LINE
  8
0
 10
-25
 20
0
 11
-24.9229
 21
-1.96148
  0
LINE
  8
0
 10
-24.9229
 20
-1.96148
 11
-24.6922
 21
-3.91086
  0
LINE
  8
0
 10
-24.6922
 20
-3.91086
 11
-24.3092
 21
-5.83613
  0
LINE
  8
0
 10
-24.3092
 20
-5.83613
 11
-23.7764
 21
-7.72542
  0
LINE
  8
0
 10
-23.7764
 20
-7.72542
 11
-23.097
 21
-9.56709
  0
LINE
  8
0
 10
-23.097
 20
-9.56709
 11
-22.2752
 21
-11.3498
  0
LINE
  8
0
 10
-22.2752
 20
-11.3498
 11
-21.316
 21
-13.0625
  0
LINE
  8
0
 10
-21.316
 20
-13.0625
 11
-20.2254
 21
-14.6946
  0
LINE
  8
0
 10
-20.2254
 20
-14.6946
 11
-19.0101
 21
-16.2362
  0
LINE
  8
0
 10
-19.0101
 20
-16.2362
 11
-17.6777
 21
-17.6777
  0
LINE
  8
0
 10
-17.6777
 20
-17.6777
 11
-16.2362
 21
-19.0101
  0
LINE
  8
0
 10
-16.2362
 20
-19.0101
 11
-14.6946
 21
-20.2254
  0
LINE
  8
0
 10
-14.6946
 20
-20.2254
 11
-13.0625
 21
-21.316
  0
LINE
  8
0
 10
-13.0625
 20
-21.316
 11
-11.3498
 21
-22.2752
  0
LINE
  8
0
 10
-11.3498
 20
-22.2752
 11
-9.56709
 21
-23.097
  0
LINE
  8
0
 10
-9.56709
 20
-23.097
 11
-7.72542
 21
-23.7764
  0
LINE
  8
0
 10
-7.72542
 20
-23.7764
 11
-5.83613
 21
-24.3092
  0
LINE
  8
0
 10
-5.83613
 20
-24.3092
 11
-5
 21
-24.4756
  0
LINE
  8
0
 10
-5
 20
-24.4756
 11
-5
 21
-32.3572
  0
LINE
  8
0
 10
-5
 20
-32.3572
 11
20
 21
-32.3572
  0
LINE
  8
0
 10
20
 20
-32.3572
 11
20
 21
-28.25
  0
LINE
  8
0
 10
20
 20
-28.25
 11
30
 21
-28.25
  0
LINE
  8
0
 10
30
 20
-28.25
 11
30
 21
-41.75
  0
LINE
  8
0
 10
30
 20
-41.75
 11
20
 21
-41.75
  0
LINE
  8
0
 10
20
 20
-41.75
 11
20
 21
-37.6428
  0
LINE
  8
0
 10
20
 20
-37.6428
 11
-5
 21
-37.6428
  0
LINE
  8
0
 10
-5
 20
-37.6428
 11
-5
 21
-49
  0
LINE
  8
0
 10
-5
 20
-49
 11
115
 21
-49
  0
LINE
  8
0
 10
115
 20
-49
 11
115
 21
49
  0
LINE
  8
0
 10
115
 20
49
 11
-5
 21
49
  0
LINE
  8
0
 10
-5
 20
49
 11
-5
 21
37.6428
  0
LINE
  8
0
 10
-5
 20
37.6428
 11
20
 21
37.6428
  0
LINE
  8
0
 10
20
 20
37.6428
 11
20
 21
41.75
  0
LINE
  8
0
 10
20
 20
41.75
 11
30
 21
41.75
  0
LINE
  8
0
 10
30
 20
41.75
 11
30
 21
28.25
  0
LINE
  8
0
 10
30
 20
28.25
 11
20
 21
28.25
  0
LINE
  8
0
 10
20
 20
28.25
 11
20
 21
32.3572
  0
LINE
  8
0
 10
20
 20
32.3572
 11
-5
 21
32.3572
  0
LINE
  8
0
 10
-5
 20
32.3572
 11
-5
 21
24.4756
  0
LINE
  8
0
 10
-5
 20
24.4756
 11
-5.83613
 21
24.3092
  0
LINE
  8
0
 10
-5.83613
 20
24.3092
 11
-7.72542
 21
23.7764
  0
LINE
  8
0
 10
-7.72542
 20
23.7764
 11
-9.56709
 21
23.097
  0
LINE
  8
0
 10
-9.56709
 20
23.097
 11
-11.3498
 21
22.2752
  0
LINE
  8
0
 10
-11.3498
 20
22.2752
 11
-13.0625
 21
21.316
  0
LINE
  8
0
 10
-13.0625
 20
21.316
 11
-14.6946
 21
20.2254
  0
LINE
  8
0
 10
-14.6946
 20
20.2254
 11
-16.2362
 21
19.0101
  0
LINE
  8
0
 10
-16.2362
 20
19.0101
 11
-17.6777
 21
17.6777
  0
LINE
  8
0
 10
-17.6777
 20
17.6777
 11
-19.0101
 21
16.2362
  0
LINE
  8
0
 10
-19.0101
 20
16.2362
 11
-20.2254
 21
14.6946
  0
LINE
  8
0
 10
-20.2254
 20
14.6946
 11
-21.316
 21
13.0625
  0
LINE
  8
0
 10
-21.316
 20
13.0625
 11
-22.2752
 21
11.3498
  0
LINE
  8
0
 10
-22.2752
 20
11.3498
 11
-23.097
 21
9.56709
  0
LINE
  8
0
 10
-23.097
 20
9.56709
 11
-23.7764
 21
7.72542
  0
LINE
  8
0
 10
-23.7764
 20
7.72542
 11
-24.3092
 21
5.83613
  0
LINE
  8
0
 10
-24.3092
 20
5.83613
 11
-24.6922
 21
3.91086
  0
LINE
  8
0
 10
-24.6922
 20
3.91086
 11
-24.9229
 21
1.96148
  0
LINE
  8
0
 10
-24.9229
 20
1.96148
 11
-25
 21
0
  0
LINE
  8
0
 10
-13
 20
0
 11
-12.9599
 21
1.01997
  0
LINE
  8
0
 10
-12.9599
 20
1.01997
 11
-12.8399
 21
2.03365
  0
LINE
  8
0
 10
-12.8399
 20
2.03365
 11
-12.6408
 21
3.03479
  0
LINE
  8
0
 10
-12.6408
 20
3.03479
 11
-12.3637
 21
4.01722
  0
LINE
  8
0
 10
-12.3637
 20
4.01722
 11
-12.0104
 21
4.97488
  0
LINE
  8
0
 10
-12.0104
 20
4.97488
 11
-11.5831
 21
5.90188
  0
LINE
  8
0
 10
-11.5831
 20
5.90188
 11
-11.0843
 21
6.79248
  0
LINE
  8
0
 10
-11.0843
 20
6.79248
 11
-10.5172
 21
7.64121
  0
LINE
  8
0
 10
-10.5172
 20
7.64121
 11
-9.88528
 21
8.44282
  0
LINE
  8
0
 10
-9.88528
 20
8.44282
 11
-9.19239
 21
9.19239
  0
LINE
  8
0
 10
-9.19239
 20
9.19239
 11
-8.44282
 21
9.88528
  0
LINE
  8
0
 10
-8.44282
 20
9.88528
 11
-7.64121
 21
10.5172
  0
LINE
  8
0
 10
-7.64121
 20
10.5172
 11
-6.79248
 21
11.0843
  0
LINE
  8
0
 10
-6.79248
 20
11.0843
 11
-5.90188
 21
11.5831
  0
LINE
  8
0
 10
-5.90188
 20
11.5831
 11
-4.97488
 21
12.0104
  0
LINE
  8
0
 10
-4.97488
 20
12.0104
 11
-4.01722
 21
12.3637
  0
LINE
  8
0
 10
-4.01722
 20
12.3637
 11
-3.03479
 21
12.6408
  0
LINE
  8
0
 10
-3.03479
 20
12.6408
 11
-2.03365
 21
12.8399
  0
LINE
  8
0
 10
-2.03365
 20
12.8399
 11
-1.01997
 21
12.9599
  0
LINE
  8
0
 10
-1.01997
 20
12.9599
 11
0
 21
13
  0
LINE
  8
0
 10
0
 20
13
 11
1.01997
 21
12.9599
  0
LINE
  8
0
 10
1.01997
 20
12.9599
 11
2.03365
 21
12.8399
  0
LINE
  8
0
 10
2.03365
 20
12.8399
 11
3.03479
 21
12.6408
  0
LINE
  8
0
 10
3.03479
 20
12.6408
 11
4.01722
 21
12.3637
  0
LINE
  8
0
 10
4.01722
 20
12.3637
 11
4.97488
 21
12.0104
  0
LINE
  8
0
 10
4.97488
 20
12.0104
 11
5.90188
 21
11.5831
  0
LINE
  8
0
 10
5.90188
 20
11.5831
 11
6.79248
 21
11.0843
  0
LINE
  8
0
 10
6.79248
 20
11.0843
 11
7.64121
 21
10.5172
  0
LINE
  8
0
 10
7.64121
 20
10.5172
 11
8.44282
 21
9.88528
  0
LINE
  8
0
 10
8.44282
 20
9.88528
 11
9.19239
 21
9.19239
  0
LINE
  8
0
 10
9.19239
 20
9.19239
 11
9.88528
 21
8.44282
  0
LINE
  8
0
 10
9.88528
 20
8.44282
 11
10.5172
 21
7.64121
  0
LINE
  8
0
 10
10.5172
 20
7.64121
 11
11.0843
 21
6.79248
  0
LINE
  8
0
 10
11.0843
 20
6.79248
 11
11.5831
 21
5.90188
  0
LINE
  8
0
 10
11.5831
 20
5.90188
 11
12.0104
 21
4.97488
  0
LINE
  8
0
 10
12.0104
 20
4.97488
 11
12.3637
 21
4.01722
  0
LINE
  8
0
 10
12.3637
 20
4.01722
 11
12.6408
 21
3.03479
  0
LINE
  8
0
 10
12.6408
 20
3.03479
 11
12.8399
 21
2.03365
  0
LINE
  8
0
 10
12.8399
 20
2.03365
 11
12.9599
 21
1.01997
  0
LINE
  8
0
 10
12.9599
 20
1.01997
 11
13
 21
0
  0
LINE
  8
0
 10
13
 20
0
 11
12.9599
 21
-1.01997
  0
LINE
  8
0
 10
12.9599
 20
-1.01997
 11
12.8399
 21
-2.03365
  0
LINE
  8
0
 10
12.8399
 20
-2.03365
 11
12.6408
 21
-3.03479
  0
LINE
  8
0
 10
12.6408
 20
-3.03479
 11
12.3637
 21
-4.01722
  0
LINE
  8
0
 10
12.3637
 20
-4.01722
 11
12.0104
 21
-4.97488
  0
LINE
  8
0
 10
12.0104
 20
-4.97488
 11
11.5831
 21
-5.90188
  0
LINE
  8
0
 10
11.5831
 20
-5.90188
 11
11.0843
 21
-6.79248
  0
LINE
  8
0
 10
11.0843
 20
-6.79248
 11
10.5172
 21
-7.64121
  0
LINE
  8
0
 10
10.5172
 20
-7.64121
 11
9.88528
 21
-8.44282
  0
LINE
  8
0
 10
9.88528
 20
-8.44282
 11
9.19239
 21
-9.19239
  0
LINE
  8
0
 10
9.19239
 20
-9.19239
 11
8.44282
 21
-9.88528
  0
LINE
  8
0
 10
8.44282
 20
-9.88528
 11
7.64121
 21
-10.5172
  0
LINE
  8
0
 10
7.64121
 20
-10.5172
 11
6.79248
 21
-11.0843
  0
LINE
  8
0
 10
6.79248
 20
-11.0843
 11
5.90188
 21
-11.5831
  0
LINE
  8
0
 10
5.90188
 20
-11.5831
 11
4.97488
 21
-12.0104
  0
LINE
  8
0
 10
4.97488
 20
-12.0104
 11
4.01722
 21
-12.3637
  0
LINE
  8
0
 10
4.01722
 20
-12.3637
 11
3.03479
 21
-12.6408
  0
LINE
  8
0
 10
3.03479
 20
-12.6408
 11
2.03365
 21
-12.8399
  0
LINE
  8
0
 10
2.03365
 20
-12.8399
 11
1.01997
 21
-12.9599
  0
LINE
  8
0
 10
1.01997
 20
-12.9599
 11
0
 21
-13
  0
LINE
  8
0
 10
0
 20
-13
 11
-1.01997
 21
-12.9599
  0
LINE
  8
0
 10
-1.01997
 20
-12.9599
 11
-2.03365
 21
-12.8399
  0
LINE
  8
0
 10
-2.03365
 20
-12.8399
 11
-3.03479
 21
-12.6408
  0
LINE
  8
0
 10
-3.03479
 20
-12.6408
 11
-4.01722
 21
-12.3637
  0
LINE
  8
0
 10
-4.01722
 20
-12.3637
 11
-4.97488
 21
-12.0104
  0
LINE
  8
0
 10
-4.97488
 20
-12.0104
 11
-5.90188
 21
-11.5831
  0
LINE
  8
0
 10
-5.90188
 20
-11.5831
 11
-6.79248
 21
-11.0843
  0
LINE
  8
0
 10
-6.79248
 20
-11.0843
 11
-7.64121
 21
-10.5172
  0
LINE
  8
0
 10
-7.64121
 20
-10.5172
 11
-8.44282
 21
-9.88528
  0
LINE
  8
0
 10
-8.44282
 20
-9.88528
 11
-9.19239
 21
-9.19239
  0
LINE
  8
0
 10
-9.19239
 20
-9.19239
 11
-9.88528
 21
-8.44282
  0
LINE
  8
0
 10
-9.88528
 20
-8.44282
 11
-10.5172
 21
-7.64121
  0
LINE
  8
0
 10
-10.5172
 20
-7.64121
 11
-11.0843
 21
-6.79248
  0
LINE
  8
0
 10
-11.0843
 20
-6.79248
 11
-11.5831
 21
-5.90188
  0
LINE
  8
0
 10
-11.5831
 20
-5.90188
 11
-12.0104
 21
-4.97488
  0
LINE
  8
0
 10
-12.0104
 20
-4.97488
 11
-12.3637
 21
-4.01722
  0
LINE
  8
0
 10
-12.3637
 20
-4.01722
 11
-12.6408
 21
-3.03479
  0
LINE
  8
0
 10
-12.6408
 20
-3.03479
 11
-12.8399
 21
-2.03365
  0
LINE
  8
0
 10
-12.8399
 20
-2.03365
 11
-12.9599
 21
-1.01997
  0
LINE
  8
0
 10
-12.9599
 20
-1.01997
 11
-13
 21
0
  0
LINE
  8
0
 10
40
 20
0
 11
40.0771
 21
1.96148
  0
LINE
  8
0
 10
40.0771
 20
1.96148
 11
40.3078
 21
3.91086
  0
LINE
  8
0
 10
40.3078
 20
3.91086
 11
40.6908
 21
5.83613
  0
LINE
  8
0
 10
40.6908
 20
5.83613
 11
41.2236
 21
7.72542
  0
LINE
  8
0
 10
41.2236
 20
7.72542
 11
41.903
 21
9.56709
  0
LINE
  8
0
 10
41.903
 20
9.56709
 11
42.7248
 21
11.3498
  0
LINE
  8
0
 10
42.7248
 20
11.3498
 11
43.684
 21
13.0625
  0
LINE
  8
0
 10
43.684
 20
13.0625
 11
44.7746
 21
14.6946
  0
LINE
  8
0
 10
44.7746
 20
14.6946
 11
45.9899
 21
16.2362
  0
LINE
  8
0
 10
45.9899
 20
16.2362
 11
47.3223
 21
17.6777
  0
LINE
  8
0
 10
47.3223
 20
17.6777
 11
48.7638
 21
19.0101
  0
LINE
  8
0
 10
48.7638
 20
19.0101
 11
50.3054
 21
20.2254
  0
LINE
  8
0
 10
50.3054
 20
20.2254
 11
51.9375
 21
21.316
  0
LINE
  8
0
 10
51.9375
 20
21.316
 11
53.6502
 21
22.2752
  0
LINE
  8
0
 10
53.6502
 20
22.2752
 11
55.4329
 21
23.097
  0
LINE
  8
0
 10
55.4329
 20
23.097
 11
57.2746
 21
23.7764
  0
LINE
  8
0
 10
57.2746
 20
23.7764
 11
59.1639
 21
24.3092
  0
LINE
  8
0
 10
59.1639
 20
24.3092
 11
61.0891
 21
24.6922
  0
LINE
  8
0
 10
61.0891
 20
24.6922
 11
63.0385
 21
24.9229
  0
LINE
  8
0
 10
63.0385
 20
24.9229
 11
65
 21
25
  0
LINE
  8
0
 10
65
 20
25
 11
75
 21
25
  0
LINE
  8
0
 10
75
 20
25
 11
76.9615
 21
24.9229
  0
LINE
  8
0
 10
76.9615
 20
24.9229
 11
78.9109
 21
24.6922
  0
LINE
  8
0
 10
78.9109
 20
24.6922
 11
80.8361
 21
24.3092
  0
LINE
  8
0
 10
80.8361
 20
24.3092
 11
82.7254
 21
23.7764
  0
LINE
  8
0
 10
82.7254
 20
23.7764
 11
84.5671
 21
23.097
  0
LINE
  8
0
 10
84.5671
 20
23.097
 11
86.3498
 21
22.2752
  0
LINE
  8
0
 10
86.3498
 20
22.2752
 11
88.0625
 21
21.316
  0
LINE
  8
0
 10
88.0625
 20
21.316
 11
89.6946
 21
20.2254
  0
LINE
  8
0
 10
89.6946
 20
20.2254
 11
91.2362
 21
19.0101
  0
LINE
  8
0
 10
91.2362
 20
19.0101
 11
92.6777
 21
17.6777
  0
LINE
  8
0
 10
92.6777
 20
17.6777
 11
94.0101
 21
16.2362
  0
LINE
  8
0
 10
94.0101
 20
16.2362
 11
95.2254
 21
14.6946
  0
LINE
  8
0
 10
95.2254
 20
14.6946
 11
96.316
 21
13.0625
  0
LINE
  8
0
 10
96.316
 20
13.0625
 11
97.2752
 21
11.3498
  0
LINE
  8
0
 10
97.2752
 20
11.3498
 11
98.097
 21
9.56709
  0
LINE
  8
0
 10
98.097
 20
9.56709
 11
98.7764
 21
7.72542
  0
LINE
  8
0
 10
98.7764
 20
7.72542
 11
99.3092
 21
5.83613
  0
LINE
  8
0
 10
99.3092
 20
5.83613
 11
99.6922
 21
3.91086
  0
LINE
  8
0
 10
99.6922
 20
3.91086
 11
99.9229
 21
1.96148
  0
LINE
  8
0
 10
99.9229
 20
1.96148
 11
100
 21
0
  0
LINE
  8
0
 10
100
 20
0
 11
99.9229
 21
-1.96148
  0
LINE
  8
0
 10
99.9229
 20
-1.96148
 11
99.6922
 21
-3.91086
  0
LINE
  8
0
 10
99.6922
 20
-3.91086
 11
99.3092
 21
-5.83613
  0
LINE
  8
0
 10
99.3092
 20
-5.83613
 11
98.7764
 21
-7.72542
  0
LINE
  8
0
 10
98.7764
 20
-7.72542
 11
98.097
 21
-9.56709
  0
LINE
  8
0
 10
98.097
 20
-9.56709
 11
97.2752
 21
-11.3498
  0
LINE
  8
0
 10
97.2752
 20
-11.3498
 11
96.316
 21
-13.0625
  0
LINE
  8
0
 10
96.316
 20
-13.0625
 11
95.2254
 21
-14.6946
  0
LINE
  8
0
 10
95.2254
 20
-14.6946
 11
94.0101
 21
-16.2362
  0
LINE
  8
0
 10
94.0101
 20
-16.2362
 11
92.6777
 21
-17.6777
  0
LINE
  8
0
 10
92.6777
 20
-17.6777
 11
91.2362
 21
-19.0101
  0
LINE
  8
0
 10
91.2362
 20
-19.0101
 11
89.6946
 21
-20.2254
  0
LINE
  8
0
 10
89.6946
 20
-20.2254
 11
88.0625
 21
-21.316
  0
LINE
  8
0
 10
88.0625
 20
-21.316
 11
86.3498
 21
-22.2752
  0
LINE
  8
0
 10
86.3498
 20
-22.2752
 11
84.5671
 21
-23.097
  0
LINE
  8
0
 10
84.5671
 20
-23.097
 11
82.7254
 21
-23.7764
  0
LINE
  8
0
 10
82.7254
 20
-23.7764
 11
80.8361
 21
-24.3092
  0
LINE
  8
0
 10
80.8361
 20
-24.3092
 11
78.9109
 21
-24.6922
  0
LINE
  8
0
 10
78.9109
 20
-24.6922
 11
76.9615
 21
-24.9229
  0
LINE
  8
0
 10
76.9615
 20
-24.9229
 11
75
 21
-25
  0
LINE
  8
0
 10
75
 20
-25
 11
65
 21
-25
  0
LINE
  8
0
 10
65
 20
-25
 11
63.0385
 21
-24.9229
  0
LINE
  8
0
 10
63.0385
 20
-24.9229
 11
61.0891
 21
-24.6922
  0
LINE
  8
0
 10
61.0891
 20
-24.6922
 11
59.1639
 21
-24.3092
  0
LINE
  8
0
 10
59.1639
 20
-24.3092
 11
57.2746
 21
-23.7764
  0
LINE
  8
0
 10
57.2746
 20
-23.7764
 11
55.4329
 21
-23.097
  0
LINE
  8
0
 10
55.4329
 20
-23.097
 11
53.6502
 21
-22.2752
  0
LINE
  8
0
 10
53.6502
 20
-22.2752
 11
51.9375
 21
-21.316
  0
LINE
  8
0
 10
51.9375
 20
-21.316
 11
50.3054
 21
-20.2254
  0
LINE
  8
0
 10
50.3054
 20
-20.2254
 11
48.7638
 21
-19.0101
  0
LINE
  8
0
 10
48.7638
 20
-19.0101
 11
47.3223
 21
-17.6777
  0
LINE
  8
0
 10
47.3223
 20
-17.6777
 11
45.9899
 21
-16.2362
  0
LINE
  8
0
 10
45.9899
 20
-16.2362
 11
44.7746
 21
-14.6946
  0
LINE
  8
0
 10
44.7746
 20
-14.6946
 11
43.684
 21
-13.0625
  0
LINE
  8
0
 10
43.684
 20
-13.0625
 11
42.7248
 21
-11.3498
  0
LINE
  8
0
 10
42.7248
 20
-11.3498
 11
41.903
 21
-9.56709
  0
LINE
  8
0
 10
41.903
 20
-9.56709
 11
41.2236
 21
-7.72542
  0
LINE
  8
0
 10
41.2236
 20
-7.72542
 11
40.6908
 21
-5.83613
  0
LINE
  8
0
 10
40.6908
 20
-5.83613
 11
40.3078
 21
-3.91086
  0
LINE
  8
0
 10
40.3078
 20
-3.91086
 11
40.0771
 21
-1.96148
  0
LINE
  8
0
 10
40.0771
 20
-1.96148
 11
40
 21
0
  0
LINE
  8
0
 10
43
 20
-25
 11
43.0062
 21
-24.8431
  0
LINE
  8
0
 10
43.0062
 20
-24.8431
 11
43.0246
 21
-24.6871
  0
LINE
  8
0
 10
43.0246
 20
-24.6871
 11
43.0553
 21
-24.5331
  0
LINE
  8
0
 10
43.0553
 20
-24.5331
 11
43.0979
 21
-24.382
  0
LINE
  8
0
 10
43.0979
 20
-24.382
 11
43.1522
 21
-24.2346
  0
LINE
  8
0
 10
43.1522
 20
-24.2346
 11
43.218
 21
-24.092
  0
LINE
  8
0
 10
43.218
 20
-24.092
 11
43.2947
 21
-23.955
  0
LINE
  8
0
 10
43.2947
 20
-23.955
 11
43.382
 21
-23.8244
  0
LINE
  8
0
 10
43.382
 20
-23.8244
 11
43.4792
 21
-23.7011
  0
LINE
  8
0
 10
43.4792
 20
-23.7011
 11
43.5858
 21
-23.5858
  0
LINE
  8
0
 10
43.5858
 20
-23.5858
 11
43.7011
 21
-23.4792
  0
LINE
  8
0
 10
43.7011
 20
-23.4792
 11
43.8244
 21
-23.382
  0
LINE
  8
0
 10
43.8244
 20
-23.382
 11
43.955
 21
-23.2947
  0
LINE
  8
0
 10
43.955
 20
-23.2947
 11
44.092
 21
-23.218
  0
LINE
  8
0
 10
44.092
 20
-23.218
 11
44.2346
 21
-23.1522
  0
LINE
  8
0
 10
44.2346
 20
-23.1522
 11
44.382
 21
-23.0979
  0
LINE
  8
0
 10
44.382
 20
-23.0979
 11
44.5331
 21
-23.0553
  0
LINE
  8
0
 10
44.5331
 20
-23.0553
 11
44.6871
 21
-23.0246
  0
LINE
  8
0
 10
44.6871
 20
-23.0246
 11
44.8431
 21
-23.0062
  0
LINE
  8
0
 10
44.8431
 20
-23.0062
 11
45
 21
-23
  0
LINE
  8
0
 10
45
 20
-23
 11
45.1569
 21
-23.0062
  0
LINE
  8
0
 10
45.1569
 20
-23.0062
 11
45.3129
 21
-23.0246
  0
LINE
  8
0
 10
45.3129
 20
-23.0246
 11
45.4669
 21
-23.0553
  0
LINE
  8
0
 10
45.4669
 20
-23.0553
 11
45.618
 21
-23.0979
  0
LINE
  8
0
 10
45.618
 20
-23.0979
 11
45.7654
 21
-23.1522
  0
LINE
  8
0
 10
45.7654
 20
-23.1522
 11
45.908
 21
-23.218
  0
LINE
  8
0
 10
45.908
 20
-23.218
 11
46.045
 21
-23.2947
  0
LINE
  8
0
 10
46.045
 20
-23.2947
 11
46.1756
 21
-23.382
  0
LINE
  8
0
 10
46.1756
 20
-23.382
 11
46.2989
 21
-23.4792
  0
LINE
  8
0
 10
46.2989
 20
-23.4792
 11
46.4142
 21
-23.5858
  0
LINE
  8
0
 10
46.4142
 20
-23.5858
 11
46.5208
 21
-23.7011
  0
LINE
  8
0
 10
46.5208
 20
-23.7011
 11
46.618
 21
-23.8244
  0
LINE
  8
0
 10
46.618
 20
-23.8244
 11
46.7053
 21
-23.955
  0
LINE
  8
0
 10
46.7053
 20
-23.955
 11
46.782
 21
-24.092
  0
LINE
  8
0
 10
46.782
 20
-24.092
 11
46.8478
 21
-24.2346
  0
LINE
  8
0
 10
46.8478
 20
-24.2346
 11
46.9021
 21
-24.382
  0
LINE
  8
0
 10
46.9021
 20
-24.382
 11
46.9447
 21
-24.5331
  0
LINE
  8
0
 10
46.9447
 20
-24.5331
 11
46.9754
 21
-24.6871
  0
LINE
  8
0
 10
46.9754
 20
-24.6871
 11
46.9938
 21
-24.8431
  0
LINE
  8
0
 10
46.9938
 20
-24.8431
 11
47
 21
-25
  0
LINE
  8
0
 10
47
 20
-25
 11
46.9938
 21
-25.1569
  0
LINE
  8
0
 10
46.9938
 20
-25.1569
 11
46.9754
 21
-25.3129
  0
LINE
  8
0
 10
46.9754
 20
-25.3129
 11
46.9447
 21
-25.4669
  0
LINE
  8
0
 10
46.9447
 20
-25.4669
 11
46.9021
 21
-25.618
  0
LINE
  8
0
 10
46.9021
 20
-25.618
 11
46.8478
 21
-25.7654
  0
LINE
  8
0
 10
46.8478
 20
-25.7654
 11
46.782
 21
-25.908
  0
LINE
  8
0
 10
46.782
 20
-25.908
 11
46.7053
 21
-26.045
  0
LINE
  8
0
 10
46.7053
 20
-26.045
 11
46.618
 21
-26.1756
  0
LINE
  8
0
 10
46.618
 20
-26.1756
 11
46.5208
 21
-26.2989
  0
LINE
  8
0
 10
46.5208
 20
-26.2989
 11
46.4142
 21
-26.4142
  0
LINE
  8
0
 10
46.4142
 20
-26.4142
 11
46.2989
 21
-26.5208
  0
LINE
  8
0
 10
46.2989
 20
-26.5208
 11
46.1756
 21
-26.618
  0
LINE
  8
0
 10
46.1756
 20
-26.618
 11
46.045
 21
-26.7053
  0
LINE
  8
0
 10
46.045
 20
-26.7053
 11
45.908
 21
-26.782
  0
LINE
  8
0
 10
45.908
 20
-26.782
 11
45.7654
 21
-26.8478
  0
LINE
  8
0
 10
45.7654
 20
-26.8478
 11
45.618
 21
-26.9021
  0
LINE
  8
0
 10
45.618
 20
-26.9021
 11
45.4669
 21
-26.9447
  0
LINE
  8
0
 10
45.4669
 20
-26.9447
 11
45.3129
 21
-26.9754
  0
LINE
  8
0
 10
45.3129
 20
-26.9754
 11
45.1569
 21
-26.9938
  0
LINE
  8
0
 10
45.1569
 20
-26.9938
 11
45
 21
-27
  0
LINE
  8
0
 10
45
 20
-27
 11
44.8431
 21
-26.9938
  0
LINE
  8
0
 10
44.8431
 20
-26.9938
 11
44.6871
 21
-26.9754
  0
LINE
  8
0
 10
44.6871
 20
-26.9754
 11
44.5331
 21
-26.9447
  0
LINE
  8
0
 10
44.5331
 20
-26.9447
 11
44.382
 21
-26.9021
  0
LINE
  8
0
 10
44.382
 20
-26.9021
 11
44.2346
 21
-26.8478
  0
LINE
  8
0
 10
44.2346
 20
-26.8478
 11
44.092
 21
-26.782
  0
LINE
  8
0
 10
44.092
 20
-26.782
 11
43.955
 21
-26.7053
  0
LINE
  8
0
 10
43.955
 20
-26.7053
 11
43.8244
 21
-26.618
  0
LINE
  8
0
 10
43.8244
 20
-26.618
 11
43.7011
 21
-26.5208
  0
LINE
  8
0
 10
43.7011
 20
-26.5208
 11
43.5858
 21
-26.4142
  0
LINE
  8
0
 10
43.5858
 20
-26.4142
 11
43.4792
 21
-26.2989
  0
LINE
  8
0
 10
43.4792
 20
-26.2989
 11
43.382
 21
-26.1756
  0
LINE
  8
0
 10
43.382
 20
-26.1756
 11
43.2947
 21
-26.045
  0
LINE
  8
0
 10
43.2947
 20
-26.045
 11
43.218
 21
-25.908
  0
LINE
  8
0
 10
43.218
 20
-25.908
 11
43.1522
 21
-25.7654
  0
LINE
  8
0
 10
43.1522
 20
-25.7654
 11
43.0979
 21
-25.618
  0
LINE
  8
0
 10
43.0979
 20
-25.618
 11
43.0553
 21
-25.4669
  0
LINE
  8
0
 10
43.0553
 20
-25.4669
 11
43.0246
 21
-25.3129
  0
LINE
  8
0
 10
43.0246
 20
-25.3129
 11
43.0062
 21
-25.1569
  0
LINE
  8
0
 10
43.0062
 20
-25.1569
 11
43
 21
-25
  0
LINE
  8
0
 10
43
 20
25
 11
43.0062
 21
25.1569
  0
LINE
  8
0
 10
43.0062
 20
25.1569
 11
43.0246
 21
25.3129
  0
LINE
  8
0
 10
43.0246
 20
25.3129
 11
43.0553
 21
25.4669
  0
LINE
  8
0
 10
43.0553
 20
25.4669
 11
43.0979
 21
25.618
  0
LINE
  8
0
 10
43.0979
 20
25.618
 11
43.1522
 21
25.7654
  0
LINE
  8
0
 10
43.1522
 20
25.7654
 11
43.218
 21
25.908
  0
LINE
  8
0
 10
43.218
 20
25.908
 11
43.2947
 21
26.045
  0
LINE
  8
0
 10
43.2947
 20
26.045
 11
43.382
 21
26.1756
  0
LINE
  8
0
 10
43.382
 20
26.1756
 11
43.4792
 21
26.2989
  0
LINE
  8
0
 10
43.4792
 20
26.2989
 11
43.5858
 21
26.4142
  0
LINE
  8
0
 10
43.5858
 20
26.4142
 11
43.7011
 21
26.5208
  0
LINE
  8
0
 10
43.7011
 20
26.5208
 11
43.8244
 21
26.618
  0
LINE
  8
0
 10
43.8244
 20
26.618
 11
43.955
 21
26.7053
  0
LINE
  8
0
 10
43.955
 20
26.7053
 11
44.092
 21
26.782
  0
LINE
  8
0
 10
44.092
 20
26.782
 11
44.2346
 21
26.8478
  0
LINE
  8
0
 10
44.2346
 20
26.8478
 11
44.382
 21
26.9021
  0
LINE
  8
0
 10
44.382
 20
26.9021
 11
44.5331
 21
26.9447
  0
LINE
  8
0
 10
44.5331
 20
26.9447
 11
44.6871
 21
26.9754
  0
LINE
  8
0
 10
44.6871
 20
26.9754
 11
44.8431
 21
26.9938
  0
LINE
  8
0
 10
44.8431
 20
26.9938
 11
45
 21
27
  0
LINE
  8
0
 10
45
 20
27
 11
45.1569
 21
26.9938
  0
LINE
  8
0
 10
45.1569
 20
26.9938
 11
45.3129
 21
26.9754
  0
LINE
  8
0
 10
45.3129
 20
26.9754
 11
45.4669
 21
26.9447
  0
LINE
  8
0
 10
45.4669
 20
26.9447
 11
45.618
 21
26.9021
  0
LINE
  8
0
 10
45.618
 20
26.9021
 11
45.7654
 21
26.8478
  0
LINE
  8
0
 10
45.7654
 20
26.8478
 11
45.908
 21
26.782
  0
LINE
  8
0
 10
45.908
 20
26.782
 11
46.045
 21
26.7053
  0
LINE
  8
0
 10
46.045
 20
26.7053
 11
46.1756
 21
26.618
  0
LINE
  8
0
 10
46.1756
 20
26.618
 11
46.2989
 21
26.5208
  0
LINE
  8
0
 10
46.2989
 20
26.5208
 11
46.4142
 21
26.4142
  0
LINE
  8
0
 10
46.4142
 20
26.4142
 11
46.5208
 21
26.2989
  0
LINE
  8
0
 10
46.5208
 20
26.2989
 11
46.618
 21
26.1756
  0
LINE
  8
0
 10
46.618
 20
26.1756
 11
46.7053
 21
26.045
  0
LINE
  8
0
 10
46.7053
 20
26.045
 11
46.782
 21
25.908
  0
LINE
  8
0
 10
46.782
 20
25.908
 11
46.8478
 21
25.7654
  0
LINE
  8
0
 10
46.8478
 20
25.7654
 11
46.9021
 21
25.618
  0
LINE
  8
0
 10
46.9021
 20
25.618
 11
46.9447
 21
25.4669
  0
LINE
  8
0
 10
46.9447
 20
25.4669
 11
46.9754
 21
25.3129
  0
LINE
  8
0
 10
46.9754
 20
25.3129
 11
46.9938
 21
25.1569
  0
LINE
  8
0
 10
46.9938
 20
25.1569
 11
47
 21
25
  0
LINE
  8
0
 10
47
 20
25
 11
46.9938
 21
24.8431
  0
LINE
  8
0
 10
46.9938
 20
24.8431
 11
46.9754
 21
24.6871
  0
LINE
  8
0
 10
46.9754
 20
24.6871
 11
46.9447
 21
24.5331
  0
LINE
  8
0
 10
46.9447
 20
24.5331
 11
46.9021
 21
24.382
  0
LINE
  8
0
 10
46.9021
 20
24.382
 11
46.8478
 21
24.2346
  0
LINE
  8
0
 10
46.8478
 20
24.2346
 11
46.782
 21
24.092
  0
LINE
  8
0
 10
46.782
 20
24.092
 11
46.7053
 21
23.955
  0
LINE
  8
0
 10
46.7053
 20
23.955
 11
46.618
 21
23.8244
  0
LINE
  8
0
 10
46.618
 20
23.8244
 11
46.5208
 21
23.7011
  0
LINE
  8
0
 10
46.5208
 20
23.7011
 11
46.4142
 21
23.5858
  0
LINE
  8
0
 10
46.4142
 20
23.5858
 11
46.2989
 21
23.4792
  0
LINE
  8
0
 10
46.2989
 20
23.4792
 11
46.1756
 21
23.382
  0
LINE
  8
0
 10
46.1756
 20
23.382
 11
46.045
 21
23.2947
  0
LINE
  8
0
 10
46.045
 20
23.2947
 11
45.908
 21
23.218
  0
LINE
  8
0
 10
45.908
 20
23.218
 11
45.7654
 21
23.1522
  0
LINE
  8
0
 10
45.7654
 20
23.1522
 11
45.618
 21
23.0979
  0
LINE
  8
0
 10
45.618
 20
23.0979
 11
45.4669
 21
23.0553
  0
LINE
  8
0
 10
45.4669
 20
23.0553
 11
45.3129
 21
23.0246
  0
LINE
  8
0
 10
45.3129
 20
23.0246
 11
45.1569
 21
23.0062
  0
LINE
  8
0
 10
45.1569
 20
23.0062
 11
45
 21
23
  0
LINE
  8
0
 10
45
 20
23
 11
44.8431
 21
23.0062
  0
LINE
  8
0
 10
44.8431
 20
23.0062
 11
44.6871
 21
23.0246
  0
LINE
  8
0
 10
44.6871
 20
23.0246
 11
44.5331
 21
23.0553
  0
LINE
  8
0
 10
44.5331
 20
23.0553
 11
44.382
 21
23.0979
  0
LINE
  8
0
 10
44.382
 20
23.0979
 11
44.2346
 21
23.1522
  0
LINE
  8
0
 10
44.2346
 20
23.1522
 11
44.092
 21
23.218
  0
LINE
  8
0
 10
44.092
 20
23.218
 11
43.955
 21
23.2947
  0
LINE
  8
0
 10
43.955
 20
23.2947
 11
43.8244
 21
23.382
  0
LINE
  8
0
 10
43.8244
 20
23.382
 11
43.7011
 21
23.4792
  0
LINE
  8
0
 10
43.7011
 20
23.4792
 11
43.5858
 21
23.5858
  0
LINE
  8
0
 10
43.5858
 20
23.5858
 11
43.4792
 21
23.7011
  0
LINE
  8
0
 10
43.4792
 20
23.7011
 11
43.382
 21
23.8244
  0
LINE
  8
0
 10
43.382
 20
23.8244
 11
43.2947
 21
23.955
  0
LINE
  8
0
 10
43.2947
 20
23.955
 11
43.218
 21
24.092
  0
LINE
  8
0
 10
43.218
 20
24.092
 11
43.1522
 21
24.2346
  0
LINE
  8
0
 10
43.1522
 20
24.2346
 11
43.0979
 21
24.382
  0
LINE
  8
0
 10
43.0979
 20
24.382
 11
43.0553
 21
24.5331
  0
LINE
  8
0
 10
43.0553
 20
24.5331
 11
43.0246
 21
24.6871
  0
LINE
  8
0
 10
43.0246
 20
24.6871
 11
43.0062
 21
24.8431
  0
LINE
  8
0
 10
43.0062
 20
24.8431
 11
43
 21
25
  0
LINE
  8
0
 10
93
 20
-25
 11
93.0062
 21
-24.8431
  0
LINE
  8
0
 10
93.0062
 20
-24.8431
 11
93.0246
 21
-24.6871
  0
LINE
  8
0
 10
93.0246
 20
-24.6871
 11
93.0553
 21
-24.5331
  0
LINE
  8
0
 10
93.0553
 20
-24.5331
 11
93.0979
 21
-24.382
  0
LINE
  8
0
 10
93.0979
 20
-24.382
 11
93.1522
 21
-24.2346
  0
LINE
  8
0
 10
93.1522
 20
-24.2346
 11
93.218
 21
-24.092
  0
LINE
  8
0
 10
93.218
 20
-24.092
 11
93.2947
 21
-23.955
  0
LINE
  8
0
 10
93.2947
 20
-23.955
 11
93.382
 21
-23.8244
  0
LINE
  8
0
 10
93.382
 20
-23.8244
 11
93.4792
 21
-23.7011
  0
LINE
  8
0
 10
93.4792
 20
-23.7011
 11
93.5858
 21
-23.5858
  0
LINE
  8
0
 10
93.5858
 20
-23.5858
 11
93.7011
 21
-23.4792
  0
LINE
  8
0
 10
93.7011
 20
-23.4792
 11
93.8244
 21
-23.382
  0
LINE
  8
0
 10
93.8244
 20
-23.382
 11
93.955
 21
-23.2947
  0
LINE
  8
0
 10
93.955
 20
-23.2947
 11
94.092
 21
-23.218
  0
LINE
  8
0
 10
94.092
 20
-23.218
 11
94.2346
 21
-23.1522
  0
LINE
  8
0
 10
94.2346
 20
-23.1522
 11
94.382
 21
-23.0979
  0
LINE
  8
0
 10
94.382
 20
-23.0979
 11
94.5331
 21
-23.0553
  0
LINE
  8
0
 10
94.5331
 20
-23.0553
 11
94.6871
 21
-23.0246
  0
LINE
  8
0
 10
94.6871
 20
-23.0246
 11
94.8431
 21
-23.0062
  0
LINE
  8
0
 10
94.8431
 20
-23.0062
 11
95
 21
-23
  0
LINE
  8
0
 10
95
 20
-23
 11
95.1569
 21
-23.0062
  0
LINE
  8
0
 10
95.1569
 20
-23.0062
 11
95.3129
 21
-23.0246
  0
LINE
  8
0
 10
95.3129
 20
-23.0246
 11
95.4669
 21
-23.0553
  0
LINE
  8
0
 10
95.4669
 20
-23.0553
 11
95.618
 21
-23.0979
  0
LINE
  8
0
 10
95.618
 20
-23.0979
 11
95.7654
 21
-23.1522
  0
LINE
  8
0
 10
95.7654
 20
-23.1522
 11
95.908
 21
-23.218
  0
LINE
  8
0
 10
95.908
 20
-23.218
 11
96.045
 21
-23.2947
  0
LINE
  8
0
 10
96.045
 20
-23.2947
 11
96.1756
 21
-23.382
  0
LINE
  8
0
 10
96.1756
 20
-23.382
 11
96.2989
 21
-23.4792
  0
LINE
  8
0
 10
96.2989
 20
-23.4792
 11
96.4142
 21
-23.5858
  0
LINE
  8
0
 10
96.4142
 20
-23.5858
 11
96.5208
 21
-23.7011
  0
LINE
  8
0
 10
96.5208
 20
-23.7011
 11
96.618
 21
-23.8244
  0
LINE
  8
0
 10
96.618
 20
-23.8244
 11
96.7053
 21
-23.955
  0
LINE
  8
0
 10
96.7053
 20
-23.955
 11
96.782
 21
-24.092
  0
LINE
  8
0
 10
96.782
 20
-24.092
 11
96.8478
 21
-24.2346
  0
LINE
  8
0
 10
96.8478
 20
-24.2346
 11
96.9021
 21
-24.382
  0
LINE
  8
0
 10
96.9021
 20
-24.382
 11
96.9447
 21
-24.5331
  0
LINE
  8
0
 10
96.9447
 20
-24.5331
 11
96.9754
 21
-24.6871
  0
LINE
  8
0
 10
96.9754
 20
-24.6871
 11
96.9938
 21
-24.8431
  0
LINE
  8
0
 10
96.9938
 20
-24.8431
 11
97
 21
-25
  0
LINE
  8
0
 10
97
 20
-25
 11
96.9938
 21
-25.1569
  0
LINE
  8
0
 10
96.9938
 20
-25.1569
 11
96.9754
 21
-25.3129
  0
LINE
  8
0
 10
96.9754
 20
-25.3129
 11
96.9447
 21
-25.4669
  0
LINE
  8
0
 10
96.9447
 20
-25.4669
 11
96.9021
 21
-25.618
  0
LINE
  8
0
 10
96.9021
 20
-25.618
 11
96.8478
 21
-25.7654
  0
LINE
  8
0
 10
96.8478
 20
-25.7654
 11
96.782
 21
-25.908
  0
LINE
  8
0
 10
96.782
 20
-25.908
 11
96.7053
 21
-26.045
  0
LINE
  8
0
 10
96.7053
 20
-26.045
 11
96.618
 21
-26.1756
  0
LINE
  8
0
 10
96.618
 20
-26.1756
 11
96.5208
 21
-26.2989
  0
LINE
  8
0
 10
96.5208
 20
-26.2989
 11
96.4142
 21
-26.4142
  0
LINE
  8
0
 10
96.4142
 20
-26.4142
 11
96.2989
 21
-26.5208
  0
LINE
  8
0
 10
96.2989
 20
-26.5208
 11
96.1756
 21
-26.618
  0
LINE
  8
0
 10
96.1756
 20
-26.618
 11
96.045
 21
-26.7053
  0
LINE
  8
0
 10
96.045
 20
-26.7053
 11
95.908
 21
-26.782
  0
LINE
  8
0
 10
95.908
 20
-26.782
 11
95.7654
 21
-26.8478
  0
LINE
  8
0
 10
95.7654
 20
-26.8478
 11
95.618
 21
-26.9021
  0
LINE
  8
0
 10
95.618
 20
-26.9021
 11
95.4669
 21
-26.9447
  0
LINE
  8
0
 10
95.4669
 20
-26.9447
 11
95.3129
 21
-26.9754
  0
LINE
  8
0
 10
95.3129
 20
-26.9754
 11
95.1569
 21
-26.9938
  0
LINE
  8
0
 10
95.1569
 20
-26.9938
 11
95
 21
-27
  0
LINE
  8
0
 10
95
 20
-27
 11
94.8431
 21
-26.9938
  0
LINE
  8
0
 10
94.8431
 20
-26.9938
 11
94.6871
 21
-26.9754
  0
LINE
  8
0
 10
94.6871
 20
-26.9754
 11
94.5331
 21
-26.9447
  0
LINE
  8
0
 10
94.5331
 20
-26.9447
 11
94.382
 21
-26.9021
  0
LINE
  8
0
 10
94.382
 20
-26.9021
 11
94.2346
 21
-26.8478
  0
LINE
  8
0
 10
94.2346
 20
-26.8478
 11
94.092
 21
-26.782
  0
LINE
  8
0
 10
94.092
 20
-26.782
 11
93.955
 21
-26.7053
  0
LINE
  8
0
 10
93.955
 20
-26.7053
 11
93.8244
 21
-26.618
  0
LINE
  8
0
 10
93.8244
 20
-26.618
 11
93.7011
 21
-26.5208
  0
LINE
  8
0
 10
93.7011
 20
-26.5208
 11
93.5858
 21
-26.4142
  0
LINE
  8
0
 10
93.5858
 20
-26.4142
 11
93.4792
 21
-26.2989
  0
LINE
  8
0
 10
93.4792
 20
-26.2989
 11
93.382
 21
-26.1756
  0
LINE
  8
0
 10
93.382
 20
-26.1756
 11
93.2947
 21
-26.045
  0
LINE
  8
0
 10
93.2947
 20
-26.045
 11
93.218
 21
-25.908
  0
LINE
  8
0
 10
93.218
 20
-25.908
 11
93.1522
 21
-25.7654
  0
LINE
  8
0
 10
93.1522
 20
-25.7654
 11
93.0979
 21
-25.618
  0
LINE
  8
0
 10
93.0979
 20
-25.618
 11
93.0553
 21
-25.4669
  0
LINE
  8
0
 10
93.0553
 20
-25.4669
 11
93.0246
 21
-25.3129
  0
LINE
  8
0
 10
93.0246
 20
-25.3129
 11
93.0062
 21
-25.1569
  0
LINE
  8
0
 10
93.0062
 20
-25.1569
 11
93
 21
-25
  0
LINE
  8
0
 10
93
 20
25
 11
93.0062
 21
25.1569
  0
LINE
  8
0
 10
93.0062
 20
25.1569
 11
93.0246
 21
25.3129
  0
LINE
  8
0
 10
93.0246
 20
25.3129
 11
93.0553
 21
25.4669
  0
LINE
  8
0
 10
93.0553
 20
25.4669
 11
93.0979
 21
25.618
  0
LINE
  8
0
 10
93.0979
 20
25.618
 11
93.1522
 21
25.7654
  0
LINE
  8
0
 10
93.1522
 20
25.7654
 11
93.218
 21
25.908
  0
LINE
  8
0
 10
93.218
 20
25.908
 11
93.2947
 21
26.045
  0
LINE
  8
0
 10
93.2947
 20
26.045
 11
93.382
 21
26.1756
  0
LINE
  8
0
 10
93.382
 20
26.1756
 11
93.4792
 21
26.2989
  0
LINE
  8
0
 10
93.4792
 20
26.2989
 11
93.5858
 21
26.4142
  0
LINE
  8
0
 10
93.5858
 20
26.4142
 11
93.7011
 21
26.5208
  0
LINE
  8
0
 10
93.7011
 20
26.5208
 11
93.8244
 21
26.618
  0
LINE
  8
0
 10
93.8244
 20
26.618
 11
93.955
 21
26.7053
  0
LINE
  8
0
 10
93.955
 20
26.7053
 11
94.092
 21
26.782
  0
LINE
  8
0
 10
94.092
 20
26.782
 11
94.2346
 21
26.8478
  0
LINE
  8
0
 10
94.2346
 20
26.8478
 11
94.382
 21
26.9021
  0
LINE
  8
0
 10
94.382
 20
26.9021
 11
94.5331
 21
26.9447
  0
LINE
  8
0
 10
94.5331
 20
26.9447
 11
94.6871
 21
26.9754
  0
LINE
  8
0
 10
94.6871
 20
26.9754
 11
94.8431
 21
26.9938
  0
LINE
  8
0
 10
94.8431
 20
26.9938
 11
95
 21
27
  0
LINE
  8
0
 10
95
 20
27
 11
95.1569
 21
26.9938
  0
LINE
  8
0
 10
95.1569
 20
26.9938
 11
95.3129
 21
26.9754
  0
LINE
  8
0
 10
95.3129
 20
26.9754
 11
95.4669
 21
26.9447
  0
LINE
  8
0
 10
95.4669
 20
26.9447
 11
95.618
 21
26.9021
  0
LINE
  8
0
 10
95.618
 20
26.9021
 11
95.7654
 21
26.8478
  0
LINE
  8
0
 10
95.7654
 20
26.8478
 11
95.908
 21
26.782
  0
LINE
  8
0
 10
95.908
 20
26.782
 11
96.045
 21
26.7053
  0
LINE
  8
0
 10
96.045
 20
26.7053
 11
96.1756
 21
26.618
  0
LINE
  8
0
 10
96.1756
 20
26.618
 11
96.2989
 21
26.5208
  0
LINE
  8
0
 10
96.2989
 20
26.5208
 11
96.4142
 21
26.4142
  0
LINE
  8
0
 10
96.4142
 20
26.4142
 11
96.5208
 21
26.2989
  0
LINE
  8
0
 10
96.5208
 20
26.2989
 11
96.618
 21
26.1756
  0
LINE
  8
0
 10
96.618
 20
26.1756
 11
96.7053
 21
26.045
  0
LINE
  8
0
 10
96.7053
 20
26.045
 11
96.782
 21
25.908
  0
LINE
  8
0
 10
96.782
 20
25.908
 11
96.8478
 21
25.7654
  0
LINE
  8
0
 10
96.8478
 20
25.7654
 11
96.9021
 21
25.618
  0
LINE
  8
0
 10
96.9021
 20
25.618
 11
96.9447
 21
25.4669
  0
LINE
  8
0
 10
96.9447
 20
25.4669
 11
96.9754
 21
25.3129
  0
LINE
  8
0
 10
96.9754
 20
25.3129
 11
96.9938
 21
25.1569
  0
LINE
  8
0
 10
96.9938
 20
25.1569
 11
97
 21
25
  0
LINE
  8
0
 10
97
 20
25
 11
96.9938
 21
24.8431
  0
LINE
  8
0
 10
96.9938
 20
24.8431
 11
96.9754
 21
24.6871
  0
LINE
  8
0
 10
96.9754
 20
24.6871
 11
96.9447
 21
24.5331
  0
LINE
  8
0
 10
96.9447
 20
24.5331
 11
96.9021
 21
24.382
  0
LINE
  8
0
 10
96.9021
 20
24.382
 11
96.8478
 21
24.2346
  0
LINE
  8
0
 10
96.8478
 20
24.2346
 11
96.782
 21
24.092
  0
LINE
  8
0
 10
96.782
 20
24.092
 11
96.7053
 21
23.955
  0
LINE
  8
0
 10
96.7053
 20
23.955
 11
96.618
 21
23.8244
  0
LINE
  8
0
 10
96.618
 20
23.8244
 11
96.5208
 21
23.7011
  0
LINE
  8
0
 10
96.5208
 20
23.7011
 11
96.4142
 21
23.5858
  0
LINE
  8
0
 10
96.4142
 20
23.5858
 11
96.2989
 21
23.4792
  0
LINE
  8
0
 10
96.2989
 20
23.4792
 11
96.1756
 21
23.382
  0
LINE
  8
0
 10
96.1756
 20
23.382
 11
96.045
 21
23.2947
  0
LINE
  8
0
 10
96.045
 20
23.2947
 11
95.908
 21
23.218
  0
LINE
  8
0
 10
95.908
 20
23.218
 11
95.7654
 21
23.1522
  0
LINE
  8
0
 10
95.7654
 20
23.1522
 11
95.618
 21
23.0979
  0
LINE
  8
0
 10
95.618
 20
23.0979
 11
95.4669
 21
23.0553
  0
LINE
  8
0
 10
95.4669
 20
23.0553
 11
95.3129
 21
23.0246
  0
LINE
  8
0
 10
95.3129
 20
23.0246
 11
95.1569
 21
23.0062
  0
LINE
  8
0
 10
95.1569
 20
23.0062
 11
95
 21
23
  0
LINE
  8
0
 10
95
 20
23
 11
94.8431
 21
23.0062
  0
LINE
  8
0
 10
94.8431
 20
23.0062
 11
94.6871
 21
23.0246
  0
LINE
  8
0
 10
94.6871
 20
23.0246
 11
94.5331
 21
23.0553
  0
LINE
  8
0
 10
94.5331
 20
23.0553
 11
94.382
 21
23.0979
  0
LINE
  8
0
 10
94.382
 20
23.0979
 11
94.2346
 21
23.1522
  0
LINE
  8
0
 10
94.2346
 20
23.1522
 11
94.092
 21
23.218
  0
LINE
  8
0
 10
94.092
 20
23.218
 11
93.955
 21
23.2947
  0
LINE
  8
0
 10
93.955
 20
23.2947
 11
93.8244
 21
23.382
  0
LINE
  8
0
 10
93.8244
 20
23.382
 11
93.7011
 21
23.4792
  0
LINE
  8
0
 10
93.7011
 20
23.4792
 11
93.5858
 21
23.5858
  0
LINE
  8
0
 10
93.5858
 20
23.5858
 11
93.4792
 21
23.7011
  0
LINE
  8
0
 10
93.4792
 20
23.7011
 11
93.382
 21
23.8244
  0
LINE
  8
0
 10
93.382
 20
23.8244
 11
93.2947
 21
23.955
  0
LINE
  8
0
 10
93.2947
 20
23.955
 11
93.218
 21
24.092
  0
LINE
  8
0
 10
93.218
 20
24.092
 11
93.1522
 21
24.2346
  0
LINE
  8
0
 10
93.1522
 20
24.2346
 11
93.0979
 21
24.382
  0
LINE
  8
0
 10
93.0979
 20
24.382
 11
93.0553
 21
24.5331
  0
LINE
  8
0
 10
93.0553
 20
24.5331
 11
93.0246
 21
24.6871
  0
LINE
  8
0
 10
93.0246
 20
24.6871
 11
93.0062
 21
24.8431
  0
LINE
  8
0
 10
93.0062
 20
24.8431
 11
93
 21
25
  0
ENDSEC
  0
SECTION
  2
OBJECTS
  0
DICTIONARY
  0
ENDSEC
  0
EOF
