  0
SECTION
  2
BLOCKS
  0
ENDSEC
  0
SECTION
  2
ENTITIES
  0
LINE
  8
0
 10
1.29457
 20
-16.4491
 11
2.58116
 21
-16.2968
  0
LINE
  8
0
 10
2.58116
 20
-16.2968
 11
3.85184
 21
-16.0441
  0
LINE
  8
0
 10
3.85184
 20
-16.0441
 11
5.09877
 21
-15.6924
  0
LINE
  8
0
 10
5.09877
 20
-15.6924
 11
6.31427
 21
-15.244
  0
LINE
  8
0
 10
6.31427
 20
-15.244
 11
7.49083
 21
-14.7016
  0
LINE
  8
0
 10
7.49083
 20
-14.7016
 11
8.62122
 21
-14.0686
  0
LINE
  8
0
 10
8.62122
 20
-14.0686
 11
9.69846
 21
-13.3488
  0
LINE
  8
0
 10
9.69846
 20
-13.3488
 11
10.7159
 21
-12.5467
  0
LINE
  8
0
 10
10.7159
 20
-12.5467
 11
11.6673
 21
-11.6673
  0
LINE
  8
0
 10
11.6673
 20
-11.6673
 11
19.2426
 21
-4.24263
  0
LINE
  8
0
 10
19.2426
 20
-4.24263
 11
19.5624
 21
-3.89668
  0
LINE
  8
0
 10
19.5624
 20
-3.89668
 11
19.8541
 21
-3.5267
  0
LINE
  8
0
 10
19.8541
 20
-3.5267
 11
20.1158
 21
-3.13498
  0
LINE
  8
0
 10
20.1158
 20
-3.13498
 11
20.346
 21
-2.72394
  0
LINE
  8
0
 10
20.346
 20
-2.72394
 11
20.5433
 21
-2.2961
  0
LINE
  8
0
 10
20.5433
 20
-2.2961
 11
20.7063
 21
-1.8541
  0
LINE
  8
0
 10
20.7063
 20
-1.8541
 11
20.8342
 21
-1.40067
  0
LINE
  8
0
 10
20.8342
 20
-1.40067
 11
20.9261
 21
-0.938599
  0
LINE
  8
0
 10
20.9261
 20
-0.938599
 11
20.9815
 21
-0.470749
  0
LINE
  8
0
 10
20.9815
 20
-0.470749
 11
21
 21
0
  0
LINE
  8
0
 10
21
 20
0
 11
20.9815
 21
0.470749
  0
LINE
  8
0
 10
20.9815
 20
0.470749
 11
20.9261
 21
0.938599
  0
LINE
  8
0
 10
20.9261
 20
0.938599
 11
20.8342
 21
1.40067
  0
LINE
  8
0
 10
20.8342
 20
1.40067
 11
20.7063
 21
1.8541
  0
LINE
  8
0
 10
20.7063
 20
1.8541
 11
20.5433
 21
2.2961
  0
LINE
  8
0
 10
20.5433
 20
2.2961
 11
20.346
 21
2.72394
  0
LINE
  8
0
 10
20.346
 20
2.72394
 11
20.1158
 21
3.13498
  0
LINE
  8
0
 10
20.1158
 20
3.13498
 11
19.8541
 21
3.5267
  0
LINE
  8
0
 10
19.8541
 20
3.5267
 11
19.5624
 21
3.89668
  0
LINE
  8
0
 10
19.5624
 20
3.89668
 11
19.2426
 21
4.24263
  0
LINE
  8
0
 10
19.2426
 20
4.24263
 11
11.6673
 21
11.6673
  0
LINE
  8
0
 10
11.6673
 20
11.6673
 11
10.7159
 21
12.5467
  0
LINE
  8
0
 10
10.7159
 20
12.5467
 11
9.69846
 21
13.3488
  0
LINE
  8
0
 10
9.69846
 20
13.3488
 11
8.62122
 21
14.0686
  0
LINE
  8
0
 10
8.62122
 20
14.0686
 11
7.49083
 21
14.7016
  0
LINE
  8
0
 10
7.49083
 20
14.7016
 11
6.31427
 21
15.244
  0
LINE
  8
0
 10
6.31427
 20
15.244
 11
5.09877
 21
15.6924
  0
LINE
  8
0
 10
5.09877
 20
15.6924
 11
3.85184
 21
16.0441
  0
LINE
  8
0
 10
3.85184
 20
16.0441
 11
2.58116
 21
16.2968
  0
LINE
  8
0
 10
2.58116
 20
16.2968
 11
1.29457
 21
16.4491
  0
LINE
  8
0
 10
1.29457
 20
16.4491
 11
0
 21
16.5
  0
LINE
  8
0
 10
0
 20
16.5
 11
-1.29457
 21
16.4491
  0
LINE
  8
0
 10
-1.29457
 20
16.4491
 11
-2.58116
 21
16.2968
  0
LINE
  8
0
 10
-2.58116
 20
16.2968
 11
-3.85184
 21
16.0441
  0
LINE
  8
0
 10
-3.85184
 20
16.0441
 11
-5.09877
 21
15.6924
  0
LINE
  8
0
 10
-5.09877
 20
15.6924
 11
-6.31427
 21
15.244
  0
LINE
  8
0
 10
-6.31427
 20
15.244
 11
-7.49083
 21
14.7016
  0
LINE
  8
0
 10
-7.49083
 20
14.7016
 11
-8.62122
 21
14.0686
  0
LINE
  8
0
 10
-8.62122
 20
14.0686
 11
-9.69846
 21
13.3488
  0
LINE
  8
0
 10
-9.69846
 20
13.3488
 11
-10.7159
 21
12.5467
  0
LINE
  8
0
 10
-10.7159
 20
12.5467
 11
-11.6673
 21
11.6673
  0
LINE
  8
0
 10
-11.6673
 20
11.6673
 11
-19.2426
 21
4.24263
  0
LINE
  8
0
 10
-19.2426
 20
4.24263
 11
-19.5624
 21
3.89668
  0
LINE
  8
0
 10
-19.5624
 20
3.89668
 11
-19.8541
 21
3.5267
  0
LINE
  8
0
 10
-19.8541
 20
3.5267
 11
-20.1158
 21
3.13498
  0
LINE
  8
0
 10
-20.1158
 20
3.13498
 11
-20.346
 21
2.72394
  0
LINE
  8
0
 10
-20.346
 20
2.72394
 11
-20.5433
 21
2.2961
  0
LINE
  8
0
 10
-20.5433
 20
2.2961
 11
-20.7063
 21
1.8541
  0
LINE
  8
0
 10
-20.7063
 20
1.8541
 11
-20.8342
 21
1.40067
  0
LINE
  8
0
 10
-20.8342
 20
1.40067
 11
-20.9261
 21
0.938599
  0
LINE
  8
0
 10
-20.9261
 20
0.938599
 11
-20.9815
 21
0.470749
  0
LINE
  8
0
 10
-20.9815
 20
0.470749
 11
-21
 21
0
  0
LINE
  8
0
 10
-21
 20
0
 11
-20.9815
 21
-0.470749
  0
LINE
  8
0
 10
-20.9815
 20
-0.470749
 11
-20.9261
 21
-0.938599
  0
LINE
  8
0
 10
-20.9261
 20
-0.938599
 11
-20.8342
 21
-1.40067
  0
LINE
  8
0
 10
-20.8342
 20
-1.40067
 11
-20.7063
 21
-1.8541
  0
LINE
  8
0
 10
-20.7063
 20
-1.8541
 11
-20.5433
 21
-2.2961
  0
LINE
  8
0
 10
-20.5433
 20
-2.2961
 11
-20.346
 21
-2.72394
  0
LINE
  8
0
 10
-20.346
 20
-2.72394
 11
-20.1158
 21
-3.13498
  0
LINE
  8
0
 10
-20.1158
 20
-3.13498
 11
-19.8541
 21
-3.5267
  0
LINE
  8
0
 10
-19.8541
 20
-3.5267
 11
-19.5624
 21
-3.89668
  0
LINE
  8
0
 10
-19.5624
 20
-3.89668
 11
-19.2426
 21
-4.24263
  0
LINE
  8
0
 10
-19.2426
 20
-4.24263
 11
-11.6673
 21
-11.6673
  0
LINE
  8
0
 10
-11.6673
 20
-11.6673
 11
-10.7159
 21
-12.5467
  0
LINE
  8
0
 10
-10.7159
 20
-12.5467
 11
-9.69846
 21
-13.3488
  0
LINE
  8
0
 10
-9.69846
 20
-13.3488
 11
-8.62122
 21
-14.0686
  0
LINE
  8
0
 10
-8.62122
 20
-14.0686
 11
-7.49083
 21
-14.7016
  0
LINE
  8
0
 10
-7.49083
 20
-14.7016
 11
-6.31427
 21
-15.244
  0
LINE
  8
0
 10
-6.31427
 20
-15.244
 11
-5.09877
 21
-15.6924
  0
LINE
  8
0
 10
-5.09877
 20
-15.6924
 11
-3.85184
 21
-16.0441
  0
LINE
  8
0
 10
-3.85184
 20
-16.0441
 11
-2.58116
 21
-16.2968
  0
LINE
  8
0
 10
-2.58116
 20
-16.2968
 11
-1.29457
 21
-16.4491
  0
LINE
  8
0
 10
-1.29457
 20
-16.4491
 11
0
 21
-16.5
  0
LINE
  8
0
 10
0
 20
-16.5
 11
1.29457
 21
-16.4491
  0
LINE
  8
0
 10
-0.823807
 20
-10.4676
 11
-1.64255
 21
-10.3707
  0
LINE
  8
0
 10
-1.64255
 20
-10.3707
 11
-2.45117
 21
-10.2099
  0
LINE
  8
0
 10
-2.45117
 20
-10.2099
 11
-3.24467
 21
-9.98608
  0
LINE
  8
0
 10
-3.24467
 20
-9.98608
 11
-4.01817
 21
-9.70073
  0
LINE
  8
0
 10
-4.01817
 20
-9.70073
 11
-4.76689
 21
-9.35556
  0
LINE
  8
0
 10
-4.76689
 20
-9.35556
 11
-5.48622
 21
-8.95271
  0
LINE
  8
0
 10
-5.48622
 20
-8.95271
 11
-6.17174
 21
-8.49467
  0
LINE
  8
0
 10
-6.17174
 20
-8.49467
 11
-6.8192
 21
-7.98425
  0
LINE
  8
0
 10
-6.8192
 20
-7.98425
 11
-7.42461
 21
-7.42461
  0
LINE
  8
0
 10
-7.42461
 20
-7.42461
 11
-7.98425
 21
-6.8192
  0
LINE
  8
0
 10
-7.98425
 20
-6.8192
 11
-8.49467
 21
-6.17174
  0
LINE
  8
0
 10
-8.49467
 20
-6.17174
 11
-8.95271
 21
-5.48622
  0
LINE
  8
0
 10
-8.95271
 20
-5.48622
 11
-9.35556
 21
-4.76689
  0
LINE
  8
0
 10
-9.35556
 20
-4.76689
 11
-9.70073
 21
-4.01817
  0
LINE
  8
0
 10
-9.70073
 20
-4.01817
 11
-9.98608
 21
-3.24467
  0
LINE
  8
0
 10
-9.98608
 20
-3.24467
 11
-10.2099
 21
-2.45117
  0
LINE
  8
0
 10
-10.2099
 20
-2.45117
 11
-10.3707
 21
-1.64255
  0
LINE
  8
0
 10
-10.3707
 20
-1.64255
 11
-10.4676
 21
-0.823807
  0
LINE
  8
0
 10
-10.4676
 20
-0.823807
 11
-10.5
 21
0
  0
LINE
  8
0
 10
-10.5
 20
0
 11
-10.4676
 21
0.823807
  0
LINE
  8
0
 10
-10.4676
 20
0.823807
 11
-10.3707
 21
1.64255
  0
LINE
  8
0
 10
-10.3707
 20
1.64255
 11
-10.2099
 21
2.45117
  0
LINE
  8
0
 10
-10.2099
 20
2.45117
 11
-9.98608
 21
3.24467
  0
LINE
  8
0
 10
-9.98608
 20
3.24467
 11
-9.70073
 21
4.01817
  0
LINE
  8
0
 10
-9.70073
 20
4.01817
 11
-9.35556
 21
4.76689
  0
LINE
  8
0
 10
-9.35556
 20
4.76689
 11
-8.95271
 21
5.48622
  0
LINE
  8
0
 10
-8.95271
 20
5.48622
 11
-8.49467
 21
6.17174
  0
LINE
  8
0
 10
-8.49467
 20
6.17174
 11
-7.98425
 21
6.8192
  0
LINE
  8
0
 10
-7.98425
 20
6.8192
 11
-7.42461
 21
7.42461
  0
LINE
  8
0
 10
-7.42461
 20
7.42461
 11
-6.8192
 21
7.98425
  0
LINE
  8
0
 10
-6.8192
 20
7.98425
 11
-6.17174
 21
8.49467
  0
LINE
  8
0
 10
-6.17174
 20
8.49467
 11
-5.48622
 21
8.95271
  0
LINE
  8
0
 10
-5.48622
 20
8.95271
 11
-4.76689
 21
9.35556
  0
LINE
  8
0
 10
-4.76689
 20
9.35556
 11
-4.01817
 21
9.70073
  0
LINE
  8
0
 10
-4.01817
 20
9.70073
 11
-3.24467
 21
9.98608
  0
LINE
  8
0
 10
-3.24467
 20
9.98608
 11
-2.45117
 21
10.2099
  0
LINE
  8
0
 10
-2.45117
 20
10.2099
 11
-1.64255
 21
10.3707
  0
LINE
  8
0
 10
-1.64255
 20
10.3707
 11
-0.823807
 21
10.4676
  0
LINE
  8
0
 10
-0.823807
 20
10.4676
 11
0
 21
10.5
  0
LINE
  8
0
 10
0
 20
10.5
 11
0.823807
 21
10.4676
  0
LINE
  8
0
 10
0.823807
 20
10.4676
 11
1.64255
 21
10.3707
  0
LINE
  8
0
 10
1.64255
 20
10.3707
 11
2.45117
 21
10.2099
  0
LINE
  8
0
 10
2.45117
 20
10.2099
 11
3.24467
 21
9.98608
  0
LINE
  8
0
 10
3.24467
 20
9.98608
 11
4.01817
 21
9.70073
  0
LINE
  8
0
 10
4.01817
 20
9.70073
 11
4.76689
 21
9.35556
  0
LINE
  8
0
 10
4.76689
 20
9.35556
 11
5.48622
 21
8.95271
  0
LINE
  8
0
 10
5.48622
 20
8.95271
 11
6.17174
 21
8.49467
  0
LINE
  8
0
 10
6.17174
 20
8.49467
 11
6.8192
 21
7.98425
  0
LINE
  8
0
 10
6.8192
 20
7.98425
 11
7.42461
 21
7.42461
  0
LINE
  8
0
 10
7.42461
 20
7.42461
 11
7.98425
 21
6.8192
  0
LINE
  8
0
 10
7.98425
 20
6.8192
 11
8.49467
 21
6.17174
  0
LINE
  8
0
 10
8.49467
 20
6.17174
 11
8.95271
 21
5.48622
  0
LINE
  8
0
 10
8.95271
 20
5.48622
 11
9.35556
 21
4.76689
  0
LINE
  8
0
 10
9.35556
 20
4.76689
 11
9.70073
 21
4.01817
  0
LINE
  8
0
 10
9.70073
 20
4.01817
 11
9.98608
 21
3.24467
  0
LINE
  8
0
 10
9.98608
 20
3.24467
 11
10.2099
 21
2.45117
  0
LINE
  8
0
 10
10.2099
 20
2.45117
 11
10.3707
 21
1.64255
  0
LINE
  8
0
 10
10.3707
 20
1.64255
 11
10.4676
 21
0.823807
  0
LINE
  8
0
 10
10.4676
 20
0.823807
 11
10.5
 21
0
  0
LINE
  8
0
 10
10.5
 20
0
 11
10.4676
 21
-0.823807
  0
LINE
  8
0
 10
10.4676
 20
-0.823807
 11
10.3707
 21
-1.64255
  0
LINE
  8
0
 10
10.3707
 20
-1.64255
 11
10.2099
 21
-2.45117
  0
LINE
  8
0
 10
10.2099
 20
-2.45117
 11
9.98608
 21
-3.24467
  0
LINE
  8
0
 10
9.98608
 20
-3.24467
 11
9.70073
 21
-4.01817
  0
LINE
  8
0
 10
9.70073
 20
-4.01817
 11
9.35556
 21
-4.76689
  0
LINE
  8
0
 10
9.35556
 20
-4.76689
 11
8.95271
 21
-5.48622
  0
LINE
  8
0
 10
8.95271
 20
-5.48622
 11
8.49467
 21
-6.17174
  0
LINE
  8
0
 10
8.49467
 20
-6.17174
 11
7.98425
 21
-6.8192
  0
LINE
  8
0
 10
7.98425
 20
-6.8192
 11
7.42461
 21
-7.42461
  0
LINE
  8
0
 10
7.42461
 20
-7.42461
 11
6.8192
 21
-7.98425
  0
LINE
  8
0
 10
6.8192
 20
-7.98425
 11
6.17174
 21
-8.49467
  0
LINE
  8
0
 10
6.17174
 20
-8.49467
 11
5.48622
 21
-8.95271
  0
LINE
  8
0
 10
5.48622
 20
-8.95271
 11
4.76689
 21
-9.35556
  0
LINE
  8
0
 10
4.76689
 20
-9.35556
 11
4.01817
 21
-9.70073
  0
LINE
  8
0
 10
4.01817
 20
-9.70073
 11
3.24467
 21
-9.98608
  0
LINE
  8
0
 10
3.24467
 20
-9.98608
 11
2.45117
 21
-10.2099
  0
LINE
  8
0
 10
2.45117
 20
-10.2099
 11
1.64255
 21
-10.3707
  0
LINE
  8
0
 10
1.64255
 20
-10.3707
 11
0.823807
 21
-10.4676
  0
LINE
  8
0
 10
0.823807
 20
-10.4676
 11
0
 21
-10.5
  0
LINE
  8
0
 10
0
 20
-10.5
 11
-0.823807
 21
-10.4676
  0
LINE
  8
0
 10
-18.4635
 20
-1.42657
 11
-19.2135
 21
-0.881668
  0
LINE
  8
0
 10
-19.2135
 20
-0.881668
 11
-19.5
 21
0
  0
LINE
  8
0
 10
-19.5
 20
0
 11
-19.2135
 21
0.881668
  0
LINE
  8
0
 10
-19.2135
 20
0.881668
 11
-18.4635
 21
1.42657
  0
LINE
  8
0
 10
-18.4635
 20
1.42657
 11
-17.5365
 21
1.42657
  0
LINE
  8
0
 10
-17.5365
 20
1.42657
 11
-16.7865
 21
0.881668
  0
LINE
  8
0
 10
-16.7865
 20
0.881668
 11
-16.5
 21
0
  0
LINE
  8
0
 10
-16.5
 20
0
 11
-16.7865
 21
-0.881668
  0
LINE
  8
0
 10
-16.7865
 20
-0.881668
 11
-17.5365
 21
-1.42657
  0
LINE
  8
0
 10
-17.5365
 20
-1.42657
 11
-18.4635
 21
-1.42657
  0
LINE
  8
0
 10
17.5365
 20
-1.42657
 11
16.7865
 21
-0.881668
  0
LINE
  8
0
 10
16.7865
 20
-0.881668
 11
16.5
 21
0
  0
LINE
  8
0
 10
16.5
 20
0
 11
16.7865
 21
0.881668
  0
LINE
  8
0
 10
16.7865
 20
0.881668
 11
17.5365
 21
1.42657
  0
LINE
  8
0
 10
17.5365
 20
1.42657
 11
18.4635
 21
1.42657
  0
LINE
  8
0
 10
18.4635
 20
1.42657
 11
19.2135
 21
0.881668
  0
LINE
  8
0
 10
19.2135
 20
0.881668
 11
19.5
 21
0
  0
LINE
  8
0
 10
19.5
 20
0
 11
19.2135
 21
-0.881668
  0
LINE
  8
0
 10
19.2135
 20
-0.881668
 11
18.4635
 21
-1.42657
  0
LINE
  8
0
 10
18.4635
 20
-1.42657
 11
17.5365
 21
-1.42657
  0
ENDSEC
  0
SECTION
  2
OBJECTS
  0
DICTIONARY
  0
ENDSEC
  0
EOF
