  0
SECTION
  2
BLOCKS
  0
ENDSEC
  0
SECTION
  2
ENTITIES
  0
LINE
  8
0
 10
0.902267
 20
-11.4645
 11
1.799
 21
-11.3584
  0
LINE
  8
0
 10
1.799
 20
-11.3584
 11
2.68462
 21
-11.1823
  0
LINE
  8
0
 10
2.68462
 20
-11.1823
 11
3.55368
 21
-10.9371
  0
LINE
  8
0
 10
3.55368
 20
-10.9371
 11
4.40085
 21
-10.6246
  0
LINE
  8
0
 10
4.40085
 20
-10.6246
 11
5.22089
 21
-10.2466
  0
LINE
  8
0
 10
5.22089
 20
-10.2466
 11
14.7239
 21
-5.34604
  0
LINE
  8
0
 10
14.7239
 20
-5.34604
 11
15.135
 21
-5.11583
  0
LINE
  8
0
 10
15.135
 20
-5.11583
 11
15.5267
 21
-4.8541
  0
LINE
  8
0
 10
15.5267
 20
-4.8541
 11
15.8967
 21
-4.56242
  0
LINE
  8
0
 10
15.8967
 20
-4.56242
 11
16.2426
 21
-4.24263
  0
LINE
  8
0
 10
16.2426
 20
-4.24263
 11
16.5624
 21
-3.89668
  0
LINE
  8
0
 10
16.5624
 20
-3.89668
 11
16.8541
 21
-3.5267
  0
LINE
  8
0
 10
16.8541
 20
-3.5267
 11
17.1158
 21
-3.13498
  0
LINE
  8
0
 10
17.1158
 20
-3.13498
 11
17.346
 21
-2.72394
  0
LINE
  8
0
 10
17.346
 20
-2.72394
 11
17.5433
 21
-2.2961
  0
LINE
  8
0
 10
17.5433
 20
-2.2961
 11
17.7063
 21
-1.8541
  0
LINE
  8
0
 10
17.7063
 20
-1.8541
 11
17.8342
 21
-1.40067
  0
LINE
  8
0
 10
17.8342
 20
-1.40067
 11
17.9261
 21
-0.938599
  0
LINE
  8
0
 10
17.9261
 20
-0.938599
 11
17.9815
 21
-0.470749
  0
LINE
  8
0
 10
17.9815
 20
-0.470749
 11
18
 21
0
  0
LINE
  8
0
 10
18
 20
0
 11
17.9815
 21
0.470749
  0
LINE
  8
0
 10
17.9815
 20
0.470749
 11
17.9261
 21
0.938599
  0
LINE
  8
0
 10
17.9261
 20
0.938599
 11
17.8342
 21
1.40067
  0
LINE
  8
0
 10
17.8342
 20
1.40067
 11
17.7063
 21
1.8541
  0
LINE
  8
0
 10
17.7063
 20
1.8541
 11
17.5433
 21
2.2961
  0
LINE
  8
0
 10
17.5433
 20
2.2961
 11
17.346
 21
2.72394
  0
LINE
  8
0
 10
17.346
 20
2.72394
 11
17.1158
 21
3.13498
  0
LINE
  8
0
 10
17.1158
 20
3.13498
 11
16.8541
 21
3.5267
  0
LINE
  8
0
 10
16.8541
 20
3.5267
 11
16.5624
 21
3.89668
  0
LINE
  8
0
 10
16.5624
 20
3.89668
 11
16.2426
 21
4.24263
  0
LINE
  8
0
 10
16.2426
 20
4.24263
 11
15.8967
 21
4.56242
  0
LINE
  8
0
 10
15.8967
 20
4.56242
 11
15.5267
 21
4.8541
  0
LINE
  8
0
 10
15.5267
 20
4.8541
 11
15.135
 21
5.11583
  0
LINE
  8
0
 10
15.135
 20
5.11583
 11
14.7239
 21
5.34604
  0
LINE
  8
0
 10
14.7239
 20
5.34604
 11
5.22089
 21
10.2466
  0
LINE
  8
0
 10
5.22089
 20
10.2466
 11
4.40085
 21
10.6246
  0
LINE
  8
0
 10
4.40085
 20
10.6246
 11
3.55368
 21
10.9371
  0
LINE
  8
0
 10
3.55368
 20
10.9371
 11
2.68462
 21
11.1823
  0
LINE
  8
0
 10
2.68462
 20
11.1823
 11
1.799
 21
11.3584
  0
LINE
  8
0
 10
1.799
 20
11.3584
 11
0.902267
 21
11.4645
  0
LINE
  8
0
 10
0.902267
 20
11.4645
 11
0
 21
11.5
  0
LINE
  8
0
 10
0
 20
11.5
 11
-0.902267
 21
11.4645
  0
LINE
  8
0
 10
-0.902267
 20
11.4645
 11
-1.799
 21
11.3584
  0
LINE
  8
0
 10
-1.799
 20
11.3584
 11
-2.68462
 21
11.1823
  0
LINE
  8
0
 10
-2.68462
 20
11.1823
 11
-3.55368
 21
10.9371
  0
LINE
  8
0
 10
-3.55368
 20
10.9371
 11
-4.40085
 21
10.6246
  0
LINE
  8
0
 10
-4.40085
 20
10.6246
 11
-5.22089
 21
10.2466
  0
LINE
  8
0
 10
-5.22089
 20
10.2466
 11
-14.7239
 21
5.34604
  0
LINE
  8
0
 10
-14.7239
 20
5.34604
 11
-15.135
 21
5.11583
  0
LINE
  8
0
 10
-15.135
 20
5.11583
 11
-15.5267
 21
4.8541
  0
LINE
  8
0
 10
-15.5267
 20
4.8541
 11
-15.8967
 21
4.56242
  0
LINE
  8
0
 10
-15.8967
 20
4.56242
 11
-16.2426
 21
4.24263
  0
LINE
  8
0
 10
-16.2426
 20
4.24263
 11
-16.5624
 21
3.89668
  0
LINE
  8
0
 10
-16.5624
 20
3.89668
 11
-16.8541
 21
3.5267
  0
LINE
  8
0
 10
-16.8541
 20
3.5267
 11
-17.1158
 21
3.13498
  0
LINE
  8
0
 10
-17.1158
 20
3.13498
 11
-17.346
 21
2.72394
  0
LINE
  8
0
 10
-17.346
 20
2.72394
 11
-17.5433
 21
2.2961
  0
LINE
  8
0
 10
-17.5433
 20
2.2961
 11
-17.7063
 21
1.8541
  0
LINE
  8
0
 10
-17.7063
 20
1.8541
 11
-17.8342
 21
1.40067
  0
LINE
  8
0
 10
-17.8342
 20
1.40067
 11
-17.9261
 21
0.938599
  0
LINE
  8
0
 10
-17.9261
 20
0.938599
 11
-17.9815
 21
0.470749
  0
LINE
  8
0
 10
-17.9815
 20
0.470749
 11
-18
 21
0
  0
LINE
  8
0
 10
-18
 20
0
 11
-17.9815
 21
-0.470749
  0
LINE
  8
0
 10
-17.9815
 20
-0.470749
 11
-17.9261
 21
-0.938599
  0
LINE
  8
0
 10
-17.9261
 20
-0.938599
 11
-17.8342
 21
-1.40067
  0
LINE
  8
0
 10
-17.8342
 20
-1.40067
 11
-17.7063
 21
-1.8541
  0
LINE
  8
0
 10
-17.7063
 20
-1.8541
 11
-17.5433
 21
-2.2961
  0
LINE
  8
0
 10
-17.5433
 20
-2.2961
 11
-17.346
 21
-2.72394
  0
LINE
  8
0
 10
-17.346
 20
-2.72394
 11
-17.1158
 21
-3.13498
  0
LINE
  8
0
 10
-17.1158
 20
-3.13498
 11
-16.8541
 21
-3.5267
  0
LINE
  8
0
 10
-16.8541
 20
-3.5267
 11
-16.5624
 21
-3.89668
  0
LINE
  8
0
 10
-16.5624
 20
-3.89668
 11
-16.2426
 21
-4.24263
  0
LINE
  8
0
 10
-16.2426
 20
-4.24263
 11
-15.8967
 21
-4.56242
  0
LINE
  8
0
 10
-15.8967
 20
-4.56242
 11
-15.5267
 21
-4.8541
  0
LINE
  8
0
 10
-15.5267
 20
-4.8541
 11
-15.135
 21
-5.11583
  0
LINE
  8
0
 10
-15.135
 20
-5.11583
 11
-14.7239
 21
-5.34604
  0
LINE
  8
0
 10
-14.7239
 20
-5.34604
 11
-5.22089
 21
-10.2466
  0
LINE
  8
0
 10
-5.22089
 20
-10.2466
 11
-4.40085
 21
-10.6246
  0
LINE
  8
0
 10
-4.40085
 20
-10.6246
 11
-3.55368
 21
-10.9371
  0
LINE
  8
0
 10
-3.55368
 20
-10.9371
 11
-2.68462
 21
-11.1823
  0
LINE
  8
0
 10
-2.68462
 20
-11.1823
 11
-1.799
 21
-11.3584
  0
LINE
  8
0
 10
-1.799
 20
-11.3584
 11
-0.902267
 21
-11.4645
  0
LINE
  8
0
 10
-0.902267
 20
-11.4645
 11
0
 21
-11.5
  0
LINE
  8
0
 10
0
 20
-11.5
 11
0.902267
 21
-11.4645
  0
LINE
  8
0
 10
-0.62767
 20
-7.97533
 11
-1.25146
 21
-7.9015
  0
LINE
  8
0
 10
-1.25146
 20
-7.9015
 11
-1.86755
 21
-7.77895
  0
LINE
  8
0
 10
-1.86755
 20
-7.77895
 11
-2.47212
 21
-7.60844
  0
LINE
  8
0
 10
-2.47212
 20
-7.60844
 11
-3.06146
 21
-7.39102
  0
LINE
  8
0
 10
-3.06146
 20
-7.39102
 11
-3.63191
 21
-7.12805
  0
LINE
  8
0
 10
-3.63191
 20
-7.12805
 11
-4.17998
 21
-6.82112
  0
LINE
  8
0
 10
-4.17998
 20
-6.82112
 11
-4.70227
 21
-6.47212
  0
LINE
  8
0
 10
-4.70227
 20
-6.47212
 11
-5.19557
 21
-6.08324
  0
LINE
  8
0
 10
-5.19557
 20
-6.08324
 11
-5.65685
 21
-5.65685
  0
LINE
  8
0
 10
-5.65685
 20
-5.65685
 11
-6.08324
 21
-5.19557
  0
LINE
  8
0
 10
-6.08324
 20
-5.19557
 11
-6.47212
 21
-4.70227
  0
LINE
  8
0
 10
-6.47212
 20
-4.70227
 11
-6.82112
 21
-4.17998
  0
LINE
  8
0
 10
-6.82112
 20
-4.17998
 11
-7.12805
 21
-3.63191
  0
LINE
  8
0
 10
-7.12805
 20
-3.63191
 11
-7.39102
 21
-3.06146
  0
LINE
  8
0
 10
-7.39102
 20
-3.06146
 11
-7.60844
 21
-2.47212
  0
LINE
  8
0
 10
-7.60844
 20
-2.47212
 11
-7.77895
 21
-1.86755
  0
LINE
  8
0
 10
-7.77895
 20
-1.86755
 11
-7.9015
 21
-1.25146
  0
LINE
  8
0
 10
-7.9015
 20
-1.25146
 11
-7.97533
 21
-0.62767
  0
LINE
  8
0
 10
-7.97533
 20
-0.62767
 11
-8
 21
0
  0
LINE
  8
0
 10
-8
 20
0
 11
-7.97533
 21
0.62767
  0
LINE
  8
0
 10
-7.97533
 20
0.62767
 11
-7.9015
 21
1.25146
  0
LINE
  8
0
 10
-7.9015
 20
1.25146
 11
-7.77895
 21
1.86755
  0
LINE
  8
0
 10
-7.77895
 20
1.86755
 11
-7.60844
 21
2.47212
  0
LINE
  8
0
 10
-7.60844
 20
2.47212
 11
-7.39102
 21
3.06146
  0
LINE
  8
0
 10
-7.39102
 20
3.06146
 11
-7.12805
 21
3.63191
  0
LINE
  8
0
 10
-7.12805
 20
3.63191
 11
-6.82112
 21
4.17998
  0
LINE
  8
0
 10
-6.82112
 20
4.17998
 11
-6.47212
 21
4.70227
  0
LINE
  8
0
 10
-6.47212
 20
4.70227
 11
-6.08324
 21
5.19557
  0
LINE
  8
0
 10
-6.08324
 20
5.19557
 11
-5.65685
 21
5.65685
  0
LINE
  8
0
 10
-5.65685
 20
5.65685
 11
-5.19557
 21
6.08324
  0
LINE
  8
0
 10
-5.19557
 20
6.08324
 11
-4.70227
 21
6.47212
  0
LINE
  8
0
 10
-4.70227
 20
6.47212
 11
-4.17998
 21
6.82112
  0
LINE
  8
0
 10
-4.17998
 20
6.82112
 11
-3.63191
 21
7.12805
  0
LINE
  8
0
 10
-3.63191
 20
7.12805
 11
-3.06146
 21
7.39102
  0
LINE
  8
0
 10
-3.06146
 20
7.39102
 11
-2.47212
 21
7.60844
  0
LINE
  8
0
 10
-2.47212
 20
7.60844
 11
-1.86755
 21
7.77895
  0
LINE
  8
0
 10
-1.86755
 20
7.77895
 11
-1.25146
 21
7.9015
  0
LINE
  8
0
 10
-1.25146
 20
7.9015
 11
-0.62767
 21
7.97533
  0
LINE
  8
0
 10
-0.62767
 20
7.97533
 11
0
 21
8
  0
LINE
  8
0
 10
0
 20
8
 11
0.62767
 21
7.97533
  0
LINE
  8
0
 10
0.62767
 20
7.97533
 11
1.25146
 21
7.9015
  0
LINE
  8
0
 10
1.25146
 20
7.9015
 11
1.86755
 21
7.77895
  0
LINE
  8
0
 10
1.86755
 20
7.77895
 11
2.47212
 21
7.60844
  0
LINE
  8
0
 10
2.47212
 20
7.60844
 11
3.06146
 21
7.39102
  0
LINE
  8
0
 10
3.06146
 20
7.39102
 11
3.63191
 21
7.12805
  0
LINE
  8
0
 10
3.63191
 20
7.12805
 11
4.17998
 21
6.82112
  0
LINE
  8
0
 10
4.17998
 20
6.82112
 11
4.70227
 21
6.47212
  0
LINE
  8
0
 10
4.70227
 20
6.47212
 11
5.19557
 21
6.08324
  0
LINE
  8
0
 10
5.19557
 20
6.08324
 11
5.65685
 21
5.65685
  0
LINE
  8
0
 10
5.65685
 20
5.65685
 11
6.08324
 21
5.19557
  0
LINE
  8
0
 10
6.08324
 20
5.19557
 11
6.47212
 21
4.70227
  0
LINE
  8
0
 10
6.47212
 20
4.70227
 11
6.82112
 21
4.17998
  0
LINE
  8
0
 10
6.82112
 20
4.17998
 11
7.12805
 21
3.63191
  0
LINE
  8
0
 10
7.12805
 20
3.63191
 11
7.39102
 21
3.06146
  0
LINE
  8
0
 10
7.39102
 20
3.06146
 11
7.60844
 21
2.47212
  0
LINE
  8
0
 10
7.60844
 20
2.47212
 11
7.77895
 21
1.86755
  0
LINE
  8
0
 10
7.77895
 20
1.86755
 11
7.9015
 21
1.25146
  0
LINE
  8
0
 10
7.9015
 20
1.25146
 11
7.97533
 21
0.62767
  0
LINE
  8
0
 10
7.97533
 20
0.62767
 11
8
 21
0
  0
LINE
  8
0
 10
8
 20
0
 11
7.97533
 21
-0.62767
  0
LINE
  8
0
 10
7.97533
 20
-0.62767
 11
7.9015
 21
-1.25146
  0
LINE
  8
0
 10
7.9015
 20
-1.25146
 11
7.77895
 21
-1.86755
  0
LINE
  8
0
 10
7.77895
 20
-1.86755
 11
7.60844
 21
-2.47212
  0
LINE
  8
0
 10
7.60844
 20
-2.47212
 11
7.39102
 21
-3.06146
  0
LINE
  8
0
 10
7.39102
 20
-3.06146
 11
7.12805
 21
-3.63191
  0
LINE
  8
0
 10
7.12805
 20
-3.63191
 11
6.82112
 21
-4.17998
  0
LINE
  8
0
 10
6.82112
 20
-4.17998
 11
6.47212
 21
-4.70227
  0
LINE
  8
0
 10
6.47212
 20
-4.70227
 11
6.08324
 21
-5.19557
  0
LINE
  8
0
 10
6.08324
 20
-5.19557
 11
5.65685
 21
-5.65685
  0
LINE
  8
0
 10
5.65685
 20
-5.65685
 11
5.19557
 21
-6.08324
  0
LINE
  8
0
 10
5.19557
 20
-6.08324
 11
4.70227
 21
-6.47212
  0
LINE
  8
0
 10
4.70227
 20
-6.47212
 11
4.17998
 21
-6.82112
  0
LINE
  8
0
 10
4.17998
 20
-6.82112
 11
3.63191
 21
-7.12805
  0
LINE
  8
0
 10
3.63191
 20
-7.12805
 11
3.06146
 21
-7.39102
  0
LINE
  8
0
 10
3.06146
 20
-7.39102
 11
2.47212
 21
-7.60844
  0
LINE
  8
0
 10
2.47212
 20
-7.60844
 11
1.86755
 21
-7.77895
  0
LINE
  8
0
 10
1.86755
 20
-7.77895
 11
1.25146
 21
-7.9015
  0
LINE
  8
0
 10
1.25146
 20
-7.9015
 11
0.62767
 21
-7.97533
  0
LINE
  8
0
 10
0.62767
 20
-7.97533
 11
0
 21
-8
  0
LINE
  8
0
 10
0
 20
-8
 11
-0.62767
 21
-7.97533
  0
LINE
  8
0
 10
14.5365
 20
-1.42657
 11
13.7865
 21
-0.881668
  0
LINE
  8
0
 10
13.7865
 20
-0.881668
 11
13.5
 21
0
  0
LINE
  8
0
 10
13.5
 20
0
 11
13.7865
 21
0.881668
  0
LINE
  8
0
 10
13.7865
 20
0.881668
 11
14.5365
 21
1.42657
  0
LINE
  8
0
 10
14.5365
 20
1.42657
 11
15.4635
 21
1.42657
  0
LINE
  8
0
 10
15.4635
 20
1.42657
 11
16.2135
 21
0.881668
  0
LINE
  8
0
 10
16.2135
 20
0.881668
 11
16.5
 21
0
  0
LINE
  8
0
 10
16.5
 20
0
 11
16.2135
 21
-0.881668
  0
LINE
  8
0
 10
16.2135
 20
-0.881668
 11
15.4635
 21
-1.42657
  0
LINE
  8
0
 10
15.4635
 20
-1.42657
 11
14.5365
 21
-1.42657
  0
LINE
  8
0
 10
-15.4635
 20
-1.42657
 11
-16.2135
 21
-0.881668
  0
LINE
  8
0
 10
-16.2135
 20
-0.881668
 11
-16.5
 21
0
  0
LINE
  8
0
 10
-16.5
 20
0
 11
-16.2135
 21
0.881668
  0
LINE
  8
0
 10
-16.2135
 20
0.881668
 11
-15.4635
 21
1.42657
  0
LINE
  8
0
 10
-15.4635
 20
1.42657
 11
-14.5365
 21
1.42657
  0
LINE
  8
0
 10
-14.5365
 20
1.42657
 11
-13.7865
 21
0.881668
  0
LINE
  8
0
 10
-13.7865
 20
0.881668
 11
-13.5
 21
0
  0
LINE
  8
0
 10
-13.5
 20
0
 11
-13.7865
 21
-0.881668
  0
LINE
  8
0
 10
-13.7865
 20
-0.881668
 11
-14.5365
 21
-1.42657
  0
LINE
  8
0
 10
-14.5365
 20
-1.42657
 11
-15.4635
 21
-1.42657
  0
ENDSEC
  0
SECTION
  2
OBJECTS
  0
DICTIONARY
  0
ENDSEC
  0
EOF
