  0
SECTION
  2
BLOCKS
  0
ENDSEC
  0
SECTION
  2
ENTITIES
  0
LINE
  8
0
 10
-20
 20
-15
 11
70
 21
-15
  0
LINE
  8
0
 10
70
 20
-15
 11
70
 21
15
  0
LINE
  8
0
 10
70
 20
15
 11
-20
 21
15
  0
LINE
  8
0
 10
-20
 20
15
 11
-20
 21
-15
  0
LINE
  8
0
 10
-11
 20
-9
 11
-10.9511
 21
-8.69098
  0
LINE
  8
0
 10
-10.9511
 20
-8.69098
 11
-10.809
 21
-8.41221
  0
LINE
  8
0
 10
-10.809
 20
-8.41221
 11
-10.5878
 21
-8.19098
  0
LINE
  8
0
 10
-10.5878
 20
-8.19098
 11
-10.309
 21
-8.04894
  0
LINE
  8
0
 10
-10.309
 20
-8.04894
 11
-10
 21
-8
  0
LINE
  8
0
 10
-10
 20
-8
 11
-9.69098
 21
-8.04894
  0
LINE
  8
0
 10
-9.69098
 20
-8.04894
 11
-9.41221
 21
-8.19098
  0
LINE
  8
0
 10
-9.41221
 20
-8.19098
 11
-9.19098
 21
-8.41221
  0
LINE
  8
0
 10
-9.19098
 20
-8.41221
 11
-9.04894
 21
-8.69098
  0
LINE
  8
0
 10
-9.04894
 20
-8.69098
 11
-9
 21
-9
  0
LINE
  8
0
 10
-9
 20
-9
 11
-9.04894
 21
-9.30902
  0
LINE
  8
0
 10
-9.04894
 20
-9.30902
 11
-9.19098
 21
-9.58778
  0
LINE
  8
0
 10
-9.19098
 20
-9.58778
 11
-9.41221
 21
-9.80902
  0
LINE
  8
0
 10
-9.41221
 20
-9.80902
 11
-9.69098
 21
-9.95106
  0
LINE
  8
0
 10
-9.69098
 20
-9.95106
 11
-10
 21
-10
  0
LINE
  8
0
 10
-10
 20
-10
 11
-10.309
 21
-9.95106
  0
LINE
  8
0
 10
-10.309
 20
-9.95106
 11
-10.5878
 21
-9.80902
  0
LINE
  8
0
 10
-10.5878
 20
-9.80902
 11
-10.809
 21
-9.58778
  0
LINE
  8
0
 10
-10.809
 20
-9.58778
 11
-10.9511
 21
-9.30902
  0
LINE
  8
0
 10
-10.9511
 20
-9.30902
 11
-11
 21
-9
  0
LINE
  8
0
 10
-11
 20
9
 11
-10.9511
 21
9.30902
  0
LINE
  8
0
 10
-10.9511
 20
9.30902
 11
-10.809
 21
9.58778
  0
LINE
  8
0
 10
-10.809
 20
9.58778
 11
-10.5878
 21
9.80902
  0
LINE
  8
0
 10
-10.5878
 20
9.80902
 11
-10.309
 21
9.95106
  0
LINE
  8
0
 10
-10.309
 20
9.95106
 11
-10
 21
10
  0
LINE
  8
0
 10
-10
 20
10
 11
-9.69098
 21
9.95106
  0
LINE
  8
0
 10
-9.69098
 20
9.95106
 11
-9.41221
 21
9.80902
  0
LINE
  8
0
 10
-9.41221
 20
9.80902
 11
-9.19098
 21
9.58778
  0
LINE
  8
0
 10
-9.19098
 20
9.58778
 11
-9.04894
 21
9.30902
  0
LINE
  8
0
 10
-9.04894
 20
9.30902
 11
-9
 21
9
  0
LINE
  8
0
 10
-9
 20
9
 11
-9.04894
 21
8.69098
  0
LINE
  8
0
 10
-9.04894
 20
8.69098
 11
-9.19098
 21
8.41221
  0
LINE
  8
0
 10
-9.19098
 20
8.41221
 11
-9.41221
 21
8.19098
  0
LINE
  8
0
 10
-9.41221
 20
8.19098
 11
-9.69098
 21
8.04894
  0
LINE
  8
0
 10
-9.69098
 20
8.04894
 11
-10
 21
8
  0
LINE
  8
0
 10
-10
 20
8
 11
-10.309
 21
8.04894
  0
LINE
  8
0
 10
-10.309
 20
8.04894
 11
-10.5878
 21
8.19098
  0
LINE
  8
0
 10
-10.5878
 20
8.19098
 11
-10.809
 21
8.41221
  0
LINE
  8
0
 10
-10.809
 20
8.41221
 11
-10.9511
 21
8.69098
  0
LINE
  8
0
 10
-10.9511
 20
8.69098
 11
-11
 21
9
  0
LINE
  8
0
 10
-6.5
 20
0
 11
-3.25
 21
5.62916
  0
LINE
  8
0
 10
-3.25
 20
5.62916
 11
3.25
 21
5.62916
  0
LINE
  8
0
 10
3.25
 20
5.62916
 11
6.5
 21
0
  0
LINE
  8
0
 10
6.5
 20
0
 11
3.25
 21
-5.62916
  0
LINE
  8
0
 10
3.25
 20
-5.62916
 11
-3.25
 21
-5.62916
  0
LINE
  8
0
 10
-3.25
 20
-5.62916
 11
-6.5
 21
0
  0
LINE
  8
0
 10
9
 20
-9
 11
9.04894
 21
-8.69098
  0
LINE
  8
0
 10
9.04894
 20
-8.69098
 11
9.19098
 21
-8.41221
  0
LINE
  8
0
 10
9.19098
 20
-8.41221
 11
9.41221
 21
-8.19098
  0
LINE
  8
0
 10
9.41221
 20
-8.19098
 11
9.69098
 21
-8.04894
  0
LINE
  8
0
 10
9.69098
 20
-8.04894
 11
10
 21
-8
  0
LINE
  8
0
 10
10
 20
-8
 11
10.309
 21
-8.04894
  0
LINE
  8
0
 10
10.309
 20
-8.04894
 11
10.5878
 21
-8.19098
  0
LINE
  8
0
 10
10.5878
 20
-8.19098
 11
10.809
 21
-8.41221
  0
LINE
  8
0
 10
10.809
 20
-8.41221
 11
10.9511
 21
-8.69098
  0
LINE
  8
0
 10
10.9511
 20
-8.69098
 11
11
 21
-9
  0
LINE
  8
0
 10
11
 20
-9
 11
10.9511
 21
-9.30902
  0
LINE
  8
0
 10
10.9511
 20
-9.30902
 11
10.809
 21
-9.58778
  0
LINE
  8
0
 10
10.809
 20
-9.58778
 11
10.5878
 21
-9.80902
  0
LINE
  8
0
 10
10.5878
 20
-9.80902
 11
10.309
 21
-9.95106
  0
LINE
  8
0
 10
10.309
 20
-9.95106
 11
10
 21
-10
  0
LINE
  8
0
 10
10
 20
-10
 11
9.69098
 21
-9.95106
  0
LINE
  8
0
 10
9.69098
 20
-9.95106
 11
9.41221
 21
-9.80902
  0
LINE
  8
0
 10
9.41221
 20
-9.80902
 11
9.19098
 21
-9.58778
  0
LINE
  8
0
 10
9.19098
 20
-9.58778
 11
9.04894
 21
-9.30902
  0
LINE
  8
0
 10
9.04894
 20
-9.30902
 11
9
 21
-9
  0
LINE
  8
0
 10
9
 20
9
 11
9.04894
 21
9.30902
  0
LINE
  8
0
 10
9.04894
 20
9.30902
 11
9.19098
 21
9.58778
  0
LINE
  8
0
 10
9.19098
 20
9.58778
 11
9.41221
 21
9.80902
  0
LINE
  8
0
 10
9.41221
 20
9.80902
 11
9.69098
 21
9.95106
  0
LINE
  8
0
 10
9.69098
 20
9.95106
 11
10
 21
10
  0
LINE
  8
0
 10
10
 20
10
 11
10.309
 21
9.95106
  0
LINE
  8
0
 10
10.309
 20
9.95106
 11
10.5878
 21
9.80902
  0
LINE
  8
0
 10
10.5878
 20
9.80902
 11
10.809
 21
9.58778
  0
LINE
  8
0
 10
10.809
 20
9.58778
 11
10.9511
 21
9.30902
  0
LINE
  8
0
 10
10.9511
 20
9.30902
 11
11
 21
9
  0
LINE
  8
0
 10
11
 20
9
 11
10.9511
 21
8.69098
  0
LINE
  8
0
 10
10.9511
 20
8.69098
 11
10.809
 21
8.41221
  0
LINE
  8
0
 10
10.809
 20
8.41221
 11
10.5878
 21
8.19098
  0
LINE
  8
0
 10
10.5878
 20
8.19098
 11
10.309
 21
8.04894
  0
LINE
  8
0
 10
10.309
 20
8.04894
 11
10
 21
8
  0
LINE
  8
0
 10
10
 20
8
 11
9.69098
 21
8.04894
  0
LINE
  8
0
 10
9.69098
 20
8.04894
 11
9.41221
 21
8.19098
  0
LINE
  8
0
 10
9.41221
 20
8.19098
 11
9.19098
 21
8.41221
  0
LINE
  8
0
 10
9.19098
 20
8.41221
 11
9.04894
 21
8.69098
  0
LINE
  8
0
 10
9.04894
 20
8.69098
 11
9
 21
9
  0
LINE
  8
0
 10
15
 20
0
 11
15.0394
 21
0.626666
  0
LINE
  8
0
 10
15.0394
 20
0.626666
 11
15.1571
 21
1.24345
  0
LINE
  8
0
 10
15.1571
 20
1.24345
 11
15.3511
 21
1.84062
  0
LINE
  8
0
 10
15.3511
 20
1.84062
 11
15.6185
 21
2.40877
  0
LINE
  8
0
 10
15.6185
 20
2.40877
 11
15.9549
 21
2.93893
  0
LINE
  8
0
 10
15.9549
 20
2.93893
 11
16.3552
 21
3.42274
  0
LINE
  8
0
 10
16.3552
 20
3.42274
 11
16.8129
 21
3.85257
  0
LINE
  8
0
 10
16.8129
 20
3.85257
 11
17.3209
 21
4.22164
  0
LINE
  8
0
 10
17.3209
 20
4.22164
 11
17.8711
 21
4.52413
  0
LINE
  8
0
 10
17.8711
 20
4.52413
 11
18.4549
 21
4.75528
  0
LINE
  8
0
 10
18.4549
 20
4.75528
 11
19.0631
 21
4.91144
  0
LINE
  8
0
 10
19.0631
 20
4.91144
 11
19.686
 21
4.99013
  0
LINE
  8
0
 10
19.686
 20
4.99013
 11
20.314
 21
4.99013
  0
LINE
  8
0
 10
20.314
 20
4.99013
 11
20.9369
 21
4.91144
  0
LINE
  8
0
 10
20.9369
 20
4.91144
 11
21.5451
 21
4.75528
  0
LINE
  8
0
 10
21.5451
 20
4.75528
 11
22.1289
 21
4.52413
  0
LINE
  8
0
 10
22.1289
 20
4.52413
 11
22.6791
 21
4.22164
  0
LINE
  8
0
 10
22.6791
 20
4.22164
 11
23.1871
 21
3.85257
  0
LINE
  8
0
 10
23.1871
 20
3.85257
 11
23.6448
 21
3.42274
  0
LINE
  8
0
 10
23.6448
 20
3.42274
 11
24.0451
 21
2.93893
  0
LINE
  8
0
 10
24.0451
 20
2.93893
 11
24.3815
 21
2.40877
  0
LINE
  8
0
 10
24.3815
 20
2.40877
 11
24.6489
 21
1.84062
  0
LINE
  8
0
 10
24.6489
 20
1.84062
 11
24.8429
 21
1.24345
  0
LINE
  8
0
 10
24.8429
 20
1.24345
 11
24.9606
 21
0.626666
  0
LINE
  8
0
 10
24.9606
 20
0.626666
 11
25
 21
0
  0
LINE
  8
0
 10
25
 20
0
 11
24.9606
 21
-0.626666
  0
LINE
  8
0
 10
24.9606
 20
-0.626666
 11
24.8429
 21
-1.24345
  0
LINE
  8
0
 10
24.8429
 20
-1.24345
 11
24.6489
 21
-1.84062
  0
LINE
  8
0
 10
24.6489
 20
-1.84062
 11
24.3815
 21
-2.40877
  0
LINE
  8
0
 10
24.3815
 20
-2.40877
 11
24.0451
 21
-2.93893
  0
LINE
  8
0
 10
24.0451
 20
-2.93893
 11
23.6448
 21
-3.42274
  0
LINE
  8
0
 10
23.6448
 20
-3.42274
 11
23.1871
 21
-3.85257
  0
LINE
  8
0
 10
23.1871
 20
-3.85257
 11
22.6791
 21
-4.22164
  0
LINE
  8
0
 10
22.6791
 20
-4.22164
 11
22.1289
 21
-4.52413
  0
LINE
  8
0
 10
22.1289
 20
-4.52413
 11
21.5451
 21
-4.75528
  0
LINE
  8
0
 10
21.5451
 20
-4.75528
 11
20.9369
 21
-4.91144
  0
LINE
  8
0
 10
20.9369
 20
-4.91144
 11
20.314
 21
-4.99013
  0
LINE
  8
0
 10
20.314
 20
-4.99013
 11
19.686
 21
-4.99013
  0
LINE
  8
0
 10
19.686
 20
-4.99013
 11
19.0631
 21
-4.91144
  0
LINE
  8
0
 10
19.0631
 20
-4.91144
 11
18.4549
 21
-4.75528
  0
LINE
  8
0
 10
18.4549
 20
-4.75528
 11
17.8711
 21
-4.52413
  0
LINE
  8
0
 10
17.8711
 20
-4.52413
 11
17.3209
 21
-4.22164
  0
LINE
  8
0
 10
17.3209
 20
-4.22164
 11
16.8129
 21
-3.85257
  0
LINE
  8
0
 10
16.8129
 20
-3.85257
 11
16.3552
 21
-3.42274
  0
LINE
  8
0
 10
16.3552
 20
-3.42274
 11
15.9549
 21
-2.93893
  0
LINE
  8
0
 10
15.9549
 20
-2.93893
 11
15.6185
 21
-2.40877
  0
LINE
  8
0
 10
15.6185
 20
-2.40877
 11
15.3511
 21
-1.84062
  0
LINE
  8
0
 10
15.3511
 20
-1.84062
 11
15.1571
 21
-1.24345
  0
LINE
  8
0
 10
15.1571
 20
-1.24345
 11
15.0394
 21
-0.626666
  0
LINE
  8
0
 10
15.0394
 20
-0.626666
 11
15
 21
0
  0
LINE
  8
0
 10
35
 20
0
 11
35.0394
 21
0.626666
  0
LINE
  8
0
 10
35.0394
 20
0.626666
 11
35.1571
 21
1.24345
  0
LINE
  8
0
 10
35.1571
 20
1.24345
 11
35.3511
 21
1.84062
  0
LINE
  8
0
 10
35.3511
 20
1.84062
 11
35.6185
 21
2.40877
  0
LINE
  8
0
 10
35.6185
 20
2.40877
 11
35.9549
 21
2.93893
  0
LINE
  8
0
 10
35.9549
 20
2.93893
 11
36.3552
 21
3.42274
  0
LINE
  8
0
 10
36.3552
 20
3.42274
 11
36.8129
 21
3.85257
  0
LINE
  8
0
 10
36.8129
 20
3.85257
 11
37.3209
 21
4.22164
  0
LINE
  8
0
 10
37.3209
 20
4.22164
 11
37.8711
 21
4.52413
  0
LINE
  8
0
 10
37.8711
 20
4.52413
 11
38.4549
 21
4.75528
  0
LINE
  8
0
 10
38.4549
 20
4.75528
 11
39.0631
 21
4.91144
  0
LINE
  8
0
 10
39.0631
 20
4.91144
 11
39.686
 21
4.99013
  0
LINE
  8
0
 10
39.686
 20
4.99013
 11
40.314
 21
4.99013
  0
LINE
  8
0
 10
40.314
 20
4.99013
 11
40.9369
 21
4.91144
  0
LINE
  8
0
 10
40.9369
 20
4.91144
 11
41.5451
 21
4.75528
  0
LINE
  8
0
 10
41.5451
 20
4.75528
 11
42.1289
 21
4.52413
  0
LINE
  8
0
 10
42.1289
 20
4.52413
 11
42.6791
 21
4.22164
  0
LINE
  8
0
 10
42.6791
 20
4.22164
 11
43.1871
 21
3.85257
  0
LINE
  8
0
 10
43.1871
 20
3.85257
 11
43.6448
 21
3.42274
  0
LINE
  8
0
 10
43.6448
 20
3.42274
 11
44.0451
 21
2.93893
  0
LINE
  8
0
 10
44.0451
 20
2.93893
 11
44.3815
 21
2.40877
  0
LINE
  8
0
 10
44.3815
 20
2.40877
 11
44.6489
 21
1.84062
  0
LINE
  8
0
 10
44.6489
 20
1.84062
 11
44.8429
 21
1.24345
  0
LINE
  8
0
 10
44.8429
 20
1.24345
 11
44.9606
 21
0.626666
  0
LINE
  8
0
 10
44.9606
 20
0.626666
 11
45
 21
0
  0
LINE
  8
0
 10
45
 20
0
 11
44.9606
 21
-0.626666
  0
LINE
  8
0
 10
44.9606
 20
-0.626666
 11
44.8429
 21
-1.24345
  0
LINE
  8
0
 10
44.8429
 20
-1.24345
 11
44.6489
 21
-1.84062
  0
LINE
  8
0
 10
44.6489
 20
-1.84062
 11
44.3815
 21
-2.40877
  0
LINE
  8
0
 10
44.3815
 20
-2.40877
 11
44.0451
 21
-2.93893
  0
LINE
  8
0
 10
44.0451
 20
-2.93893
 11
43.6448
 21
-3.42274
  0
LINE
  8
0
 10
43.6448
 20
-3.42274
 11
43.1871
 21
-3.85257
  0
LINE
  8
0
 10
43.1871
 20
-3.85257
 11
42.6791
 21
-4.22164
  0
LINE
  8
0
 10
42.6791
 20
-4.22164
 11
42.1289
 21
-4.52413
  0
LINE
  8
0
 10
42.1289
 20
-4.52413
 11
41.5451
 21
-4.75528
  0
LINE
  8
0
 10
41.5451
 20
-4.75528
 11
40.9369
 21
-4.91144
  0
LINE
  8
0
 10
40.9369
 20
-4.91144
 11
40.314
 21
-4.99013
  0
LINE
  8
0
 10
40.314
 20
-4.99013
 11
39.686
 21
-4.99013
  0
LINE
  8
0
 10
39.686
 20
-4.99013
 11
39.0631
 21
-4.91144
  0
LINE
  8
0
 10
39.0631
 20
-4.91144
 11
38.4549
 21
-4.75528
  0
LINE
  8
0
 10
38.4549
 20
-4.75528
 11
37.8711
 21
-4.52413
  0
LINE
  8
0
 10
37.8711
 20
-4.52413
 11
37.3209
 21
-4.22164
  0
LINE
  8
0
 10
37.3209
 20
-4.22164
 11
36.8129
 21
-3.85257
  0
LINE
  8
0
 10
36.8129
 20
-3.85257
 11
36.3552
 21
-3.42274
  0
LINE
  8
0
 10
36.3552
 20
-3.42274
 11
35.9549
 21
-2.93893
  0
LINE
  8
0
 10
35.9549
 20
-2.93893
 11
35.6185
 21
-2.40877
  0
LINE
  8
0
 10
35.6185
 20
-2.40877
 11
35.3511
 21
-1.84062
  0
LINE
  8
0
 10
35.3511
 20
-1.84062
 11
35.1571
 21
-1.24345
  0
LINE
  8
0
 10
35.1571
 20
-1.24345
 11
35.0394
 21
-0.626666
  0
LINE
  8
0
 10
35.0394
 20
-0.626666
 11
35
 21
0
  0
LINE
  8
0
 10
49
 20
-9
 11
49.0489
 21
-8.69098
  0
LINE
  8
0
 10
49.0489
 20
-8.69098
 11
49.191
 21
-8.41221
  0
LINE
  8
0
 10
49.191
 20
-8.41221
 11
49.4122
 21
-8.19098
  0
LINE
  8
0
 10
49.4122
 20
-8.19098
 11
49.691
 21
-8.04894
  0
LINE
  8
0
 10
49.691
 20
-8.04894
 11
50
 21
-8
  0
LINE
  8
0
 10
50
 20
-8
 11
50.309
 21
-8.04894
  0
LINE
  8
0
 10
50.309
 20
-8.04894
 11
50.5878
 21
-8.19098
  0
LINE
  8
0
 10
50.5878
 20
-8.19098
 11
50.809
 21
-8.41221
  0
LINE
  8
0
 10
50.809
 20
-8.41221
 11
50.9511
 21
-8.69098
  0
LINE
  8
0
 10
50.9511
 20
-8.69098
 11
51
 21
-9
  0
LINE
  8
0
 10
51
 20
-9
 11
50.9511
 21
-9.30902
  0
LINE
  8
0
 10
50.9511
 20
-9.30902
 11
50.809
 21
-9.58778
  0
LINE
  8
0
 10
50.809
 20
-9.58778
 11
50.5878
 21
-9.80902
  0
LINE
  8
0
 10
50.5878
 20
-9.80902
 11
50.309
 21
-9.95106
  0
LINE
  8
0
 10
50.309
 20
-9.95106
 11
50
 21
-10
  0
LINE
  8
0
 10
50
 20
-10
 11
49.691
 21
-9.95106
  0
LINE
  8
0
 10
49.691
 20
-9.95106
 11
49.4122
 21
-9.80902
  0
LINE
  8
0
 10
49.4122
 20
-9.80902
 11
49.191
 21
-9.58778
  0
LINE
  8
0
 10
49.191
 20
-9.58778
 11
49.0489
 21
-9.30902
  0
LINE
  8
0
 10
49.0489
 20
-9.30902
 11
49
 21
-9
  0
LINE
  8
0
 10
49
 20
9
 11
49.0489
 21
9.30902
  0
LINE
  8
0
 10
49.0489
 20
9.30902
 11
49.191
 21
9.58778
  0
LINE
  8
0
 10
49.191
 20
9.58778
 11
49.4122
 21
9.80902
  0
LINE
  8
0
 10
49.4122
 20
9.80902
 11
49.691
 21
9.95106
  0
LINE
  8
0
 10
49.691
 20
9.95106
 11
50
 21
10
  0
LINE
  8
0
 10
50
 20
10
 11
50.309
 21
9.95106
  0
LINE
  8
0
 10
50.309
 20
9.95106
 11
50.5878
 21
9.80902
  0
LINE
  8
0
 10
50.5878
 20
9.80902
 11
50.809
 21
9.58778
  0
LINE
  8
0
 10
50.809
 20
9.58778
 11
50.9511
 21
9.30902
  0
LINE
  8
0
 10
50.9511
 20
9.30902
 11
51
 21
9
  0
LINE
  8
0
 10
51
 20
9
 11
50.9511
 21
8.69098
  0
LINE
  8
0
 10
50.9511
 20
8.69098
 11
50.809
 21
8.41221
  0
LINE
  8
0
 10
50.809
 20
8.41221
 11
50.5878
 21
8.19098
  0
LINE
  8
0
 10
50.5878
 20
8.19098
 11
50.309
 21
8.04894
  0
LINE
  8
0
 10
50.309
 20
8.04894
 11
50
 21
8
  0
LINE
  8
0
 10
50
 20
8
 11
49.691
 21
8.04894
  0
LINE
  8
0
 10
49.691
 20
8.04894
 11
49.4122
 21
8.19098
  0
LINE
  8
0
 10
49.4122
 20
8.19098
 11
49.191
 21
8.41221
  0
LINE
  8
0
 10
49.191
 20
8.41221
 11
49.0489
 21
8.69098
  0
LINE
  8
0
 10
49.0489
 20
8.69098
 11
49
 21
9
  0
LINE
  8
0
 10
53.5
 20
0
 11
56.75
 21
5.62916
  0
LINE
  8
0
 10
56.75
 20
5.62916
 11
63.25
 21
5.62916
  0
LINE
  8
0
 10
63.25
 20
5.62916
 11
66.5
 21
0
  0
LINE
  8
0
 10
66.5
 20
0
 11
63.25
 21
-5.62916
  0
LINE
  8
0
 10
63.25
 20
-5.62916
 11
56.75
 21
-5.62916
  0
LINE
  8
0
 10
56.75
 20
-5.62916
 11
53.5
 21
0
  0
LINE
  8
0
 10
64
 20
-9
 11
64.0489
 21
-8.69098
  0
LINE
  8
0
 10
64.0489
 20
-8.69098
 11
64.191
 21
-8.41221
  0
LINE
  8
0
 10
64.191
 20
-8.41221
 11
64.4122
 21
-8.19098
  0
LINE
  8
0
 10
64.4122
 20
-8.19098
 11
64.691
 21
-8.04894
  0
LINE
  8
0
 10
64.691
 20
-8.04894
 11
65
 21
-8
  0
LINE
  8
0
 10
65
 20
-8
 11
65.309
 21
-8.04894
  0
LINE
  8
0
 10
65.309
 20
-8.04894
 11
65.5878
 21
-8.19098
  0
LINE
  8
0
 10
65.5878
 20
-8.19098
 11
65.809
 21
-8.41221
  0
LINE
  8
0
 10
65.809
 20
-8.41221
 11
65.9511
 21
-8.69098
  0
LINE
  8
0
 10
65.9511
 20
-8.69098
 11
66
 21
-9
  0
LINE
  8
0
 10
66
 20
-9
 11
65.9511
 21
-9.30902
  0
LINE
  8
0
 10
65.9511
 20
-9.30902
 11
65.809
 21
-9.58778
  0
LINE
  8
0
 10
65.809
 20
-9.58778
 11
65.5878
 21
-9.80902
  0
LINE
  8
0
 10
65.5878
 20
-9.80902
 11
65.309
 21
-9.95106
  0
LINE
  8
0
 10
65.309
 20
-9.95106
 11
65
 21
-10
  0
LINE
  8
0
 10
65
 20
-10
 11
64.691
 21
-9.95106
  0
LINE
  8
0
 10
64.691
 20
-9.95106
 11
64.4122
 21
-9.80902
  0
LINE
  8
0
 10
64.4122
 20
-9.80902
 11
64.191
 21
-9.58778
  0
LINE
  8
0
 10
64.191
 20
-9.58778
 11
64.0489
 21
-9.30902
  0
LINE
  8
0
 10
64.0489
 20
-9.30902
 11
64
 21
-9
  0
LINE
  8
0
 10
64
 20
9
 11
64.0489
 21
9.30902
  0
LINE
  8
0
 10
64.0489
 20
9.30902
 11
64.191
 21
9.58778
  0
LINE
  8
0
 10
64.191
 20
9.58778
 11
64.4122
 21
9.80902
  0
LINE
  8
0
 10
64.4122
 20
9.80902
 11
64.691
 21
9.95106
  0
LINE
  8
0
 10
64.691
 20
9.95106
 11
65
 21
10
  0
LINE
  8
0
 10
65
 20
10
 11
65.309
 21
9.95106
  0
LINE
  8
0
 10
65.309
 20
9.95106
 11
65.5878
 21
9.80902
  0
LINE
  8
0
 10
65.5878
 20
9.80902
 11
65.809
 21
9.58778
  0
LINE
  8
0
 10
65.809
 20
9.58778
 11
65.9511
 21
9.30902
  0
LINE
  8
0
 10
65.9511
 20
9.30902
 11
66
 21
9
  0
LINE
  8
0
 10
66
 20
9
 11
65.9511
 21
8.69098
  0
LINE
  8
0
 10
65.9511
 20
8.69098
 11
65.809
 21
8.41221
  0
LINE
  8
0
 10
65.809
 20
8.41221
 11
65.5878
 21
8.19098
  0
LINE
  8
0
 10
65.5878
 20
8.19098
 11
65.309
 21
8.04894
  0
LINE
  8
0
 10
65.309
 20
8.04894
 11
65
 21
8
  0
LINE
  8
0
 10
65
 20
8
 11
64.691
 21
8.04894
  0
LINE
  8
0
 10
64.691
 20
8.04894
 11
64.4122
 21
8.19098
  0
LINE
  8
0
 10
64.4122
 20
8.19098
 11
64.191
 21
8.41221
  0
LINE
  8
0
 10
64.191
 20
8.41221
 11
64.0489
 21
8.69098
  0
LINE
  8
0
 10
64.0489
 20
8.69098
 11
64
 21
9
  0
LINE
  8
0
 10
-3
 20
0
 11
-2.96306
 21
-0.469303
  0
LINE
  8
0
 10
-2.96306
 20
-0.469303
 11
-2.85317
 21
-0.927051
  0
LINE
  8
0
 10
-2.85317
 20
-0.927051
 11
-2.67302
 21
-1.36197
  0
LINE
  8
0
 10
-2.67302
 20
-1.36197
 11
-2.42705
 21
-1.76336
  0
LINE
  8
0
 10
-2.42705
 20
-1.76336
 11
-2.12132
 21
-2.12132
  0
LINE
  8
0
 10
-2.12132
 20
-2.12132
 11
-1.76336
 21
-2.42705
  0
LINE
  8
0
 10
-1.76336
 20
-2.42705
 11
-1.36197
 21
-2.67302
  0
LINE
  8
0
 10
-1.36197
 20
-2.67302
 11
-0.927051
 21
-2.85317
  0
LINE
  8
0
 10
-0.927051
 20
-2.85317
 11
-0.469303
 21
-2.96306
  0
LINE
  8
0
 10
-0.469303
 20
-2.96306
 11
0
 21
-3
  0
LINE
  8
0
 10
0
 20
-3
 11
0.469303
 21
-2.96306
  0
LINE
  8
0
 10
0.469303
 20
-2.96306
 11
0.927051
 21
-2.85317
  0
LINE
  8
0
 10
0.927051
 20
-2.85317
 11
1.36197
 21
-2.67302
  0
LINE
  8
0
 10
1.36197
 20
-2.67302
 11
1.76336
 21
-2.42705
  0
LINE
  8
0
 10
1.76336
 20
-2.42705
 11
2.12132
 21
-2.12132
  0
LINE
  8
0
 10
2.12132
 20
-2.12132
 11
2.42705
 21
-1.76336
  0
LINE
  8
0
 10
2.42705
 20
-1.76336
 11
2.67302
 21
-1.36197
  0
LINE
  8
0
 10
2.67302
 20
-1.36197
 11
2.85317
 21
-0.927051
  0
LINE
  8
0
 10
2.85317
 20
-0.927051
 11
2.96306
 21
-0.469303
  0
LINE
  8
0
 10
2.96306
 20
-0.469303
 11
3
 21
0
  0
LINE
  8
0
 10
3
 20
0
 11
2.96306
 21
0.469303
  0
LINE
  8
0
 10
2.96306
 20
0.469303
 11
2.85317
 21
0.927051
  0
LINE
  8
0
 10
2.85317
 20
0.927051
 11
2.67302
 21
1.36197
  0
LINE
  8
0
 10
2.67302
 20
1.36197
 11
2.42705
 21
1.76336
  0
LINE
  8
0
 10
2.42705
 20
1.76336
 11
2.12132
 21
2.12132
  0
LINE
  8
0
 10
2.12132
 20
2.12132
 11
1.76336
 21
2.42705
  0
LINE
  8
0
 10
1.76336
 20
2.42705
 11
1.36197
 21
2.67302
  0
LINE
  8
0
 10
1.36197
 20
2.67302
 11
0.927051
 21
2.85317
  0
LINE
  8
0
 10
0.927051
 20
2.85317
 11
0.469303
 21
2.96306
  0
LINE
  8
0
 10
0.469303
 20
2.96306
 11
0
 21
3
  0
LINE
  8
0
 10
0
 20
3
 11
-0.469303
 21
2.96306
  0
LINE
  8
0
 10
-0.469303
 20
2.96306
 11
-0.927051
 21
2.85317
  0
LINE
  8
0
 10
-0.927051
 20
2.85317
 11
-1.36197
 21
2.67302
  0
LINE
  8
0
 10
-1.36197
 20
2.67302
 11
-1.76336
 21
2.42705
  0
LINE
  8
0
 10
-1.76336
 20
2.42705
 11
-2.12132
 21
2.12132
  0
LINE
  8
0
 10
-2.12132
 20
2.12132
 11
-2.42705
 21
1.76336
  0
LINE
  8
0
 10
-2.42705
 20
1.76336
 11
-2.67302
 21
1.36197
  0
LINE
  8
0
 10
-2.67302
 20
1.36197
 11
-2.85317
 21
0.927051
  0
LINE
  8
0
 10
-2.85317
 20
0.927051
 11
-2.96306
 21
0.469303
  0
LINE
  8
0
 10
-2.96306
 20
0.469303
 11
-3
 21
0
  0
LINE
  8
0
 10
57
 20
0
 11
57.0369
 21
-0.469303
  0
LINE
  8
0
 10
57.0369
 20
-0.469303
 11
57.1468
 21
-0.927051
  0
LINE
  8
0
 10
57.1468
 20
-0.927051
 11
57.327
 21
-1.36197
  0
LINE
  8
0
 10
57.327
 20
-1.36197
 11
57.5729
 21
-1.76336
  0
LINE
  8
0
 10
57.5729
 20
-1.76336
 11
57.8787
 21
-2.12132
  0
LINE
  8
0
 10
57.8787
 20
-2.12132
 11
58.2366
 21
-2.42705
  0
LINE
  8
0
 10
58.2366
 20
-2.42705
 11
58.638
 21
-2.67302
  0
LINE
  8
0
 10
58.638
 20
-2.67302
 11
59.0729
 21
-2.85317
  0
LINE
  8
0
 10
59.0729
 20
-2.85317
 11
59.5307
 21
-2.96306
  0
LINE
  8
0
 10
59.5307
 20
-2.96306
 11
60
 21
-3
  0
LINE
  8
0
 10
60
 20
-3
 11
60.4693
 21
-2.96306
  0
LINE
  8
0
 10
60.4693
 20
-2.96306
 11
60.9271
 21
-2.85317
  0
LINE
  8
0
 10
60.9271
 20
-2.85317
 11
61.362
 21
-2.67302
  0
LINE
  8
0
 10
61.362
 20
-2.67302
 11
61.7634
 21
-2.42705
  0
LINE
  8
0
 10
61.7634
 20
-2.42705
 11
62.1213
 21
-2.12132
  0
LINE
  8
0
 10
62.1213
 20
-2.12132
 11
62.4271
 21
-1.76336
  0
LINE
  8
0
 10
62.4271
 20
-1.76336
 11
62.673
 21
-1.36197
  0
LINE
  8
0
 10
62.673
 20
-1.36197
 11
62.8532
 21
-0.927051
  0
LINE
  8
0
 10
62.8532
 20
-0.927051
 11
62.9631
 21
-0.469303
  0
LINE
  8
0
 10
62.9631
 20
-0.469303
 11
63
 21
0
  0
LINE
  8
0
 10
63
 20
0
 11
62.9631
 21
0.469303
  0
LINE
  8
0
 10
62.9631
 20
0.469303
 11
62.8532
 21
0.927051
  0
LINE
  8
0
 10
62.8532
 20
0.927051
 11
62.673
 21
1.36197
  0
LINE
  8
0
 10
62.673
 20
1.36197
 11
62.4271
 21
1.76336
  0
LINE
  8
0
 10
62.4271
 20
1.76336
 11
62.1213
 21
2.12132
  0
LINE
  8
0
 10
62.1213
 20
2.12132
 11
61.7634
 21
2.42705
  0
LINE
  8
0
 10
61.7634
 20
2.42705
 11
61.362
 21
2.67302
  0
LINE
  8
0
 10
61.362
 20
2.67302
 11
60.9271
 21
2.85317
  0
LINE
  8
0
 10
60.9271
 20
2.85317
 11
60.4693
 21
2.96306
  0
LINE
  8
0
 10
60.4693
 20
2.96306
 11
60
 21
3
  0
LINE
  8
0
 10
60
 20
3
 11
59.5307
 21
2.96306
  0
LINE
  8
0
 10
59.5307
 20
2.96306
 11
59.0729
 21
2.85317
  0
LINE
  8
0
 10
59.0729
 20
2.85317
 11
58.638
 21
2.67302
  0
LINE
  8
0
 10
58.638
 20
2.67302
 11
58.2366
 21
2.42705
  0
LINE
  8
0
 10
58.2366
 20
2.42705
 11
57.8787
 21
2.12132
  0
LINE
  8
0
 10
57.8787
 20
2.12132
 11
57.5729
 21
1.76336
  0
LINE
  8
0
 10
57.5729
 20
1.76336
 11
57.327
 21
1.36197
  0
LINE
  8
0
 10
57.327
 20
1.36197
 11
57.1468
 21
0.927051
  0
LINE
  8
0
 10
57.1468
 20
0.927051
 11
57.0369
 21
0.469303
  0
LINE
  8
0
 10
57.0369
 20
0.469303
 11
57
 21
0
  0
ENDSEC
  0
SECTION
  2
OBJECTS
  0
DICTIONARY
  0
ENDSEC
  0
EOF
