  0
SECTION
  2
BLOCKS
  0
ENDSEC
  0
SECTION
  2
ENTITIES
  0
LINE
  8
0
 10
-25
 20
-3.61259e-015
 11
-24.9229
 21
-1.96148
  0
LINE
  8
0
 10
-24.9229
 20
-1.96148
 11
-24.6922
 21
-3.91086
  0
LINE
  8
0
 10
-24.6922
 20
-3.91086
 11
-24.3092
 21
-5.83613
  0
LINE
  8
0
 10
-24.3092
 20
-5.83613
 11
-23.7764
 21
-7.72542
  0
LINE
  8
0
 10
-23.7764
 20
-7.72542
 11
-23.097
 21
-9.56709
  0
LINE
  8
0
 10
-23.097
 20
-9.56709
 11
-22.2752
 21
-11.3498
  0
LINE
  8
0
 10
-22.2752
 20
-11.3498
 11
-21.316
 21
-13.0625
  0
LINE
  8
0
 10
-21.316
 20
-13.0625
 11
-20.2254
 21
-14.6946
  0
LINE
  8
0
 10
-20.2254
 20
-14.6946
 11
-19.0101
 21
-16.2362
  0
LINE
  8
0
 10
-19.0101
 20
-16.2362
 11
-17.6777
 21
-17.6777
  0
LINE
  8
0
 10
-17.6777
 20
-17.6777
 11
-16.2362
 21
-19.0101
  0
LINE
  8
0
 10
-16.2362
 20
-19.0101
 11
-14.6946
 21
-20.2254
  0
LINE
  8
0
 10
-14.6946
 20
-20.2254
 11
-13.0625
 21
-21.316
  0
LINE
  8
0
 10
-13.0625
 20
-21.316
 11
-11.3498
 21
-22.2752
  0
LINE
  8
0
 10
-11.3498
 20
-22.2752
 11
-9.56709
 21
-23.097
  0
LINE
  8
0
 10
-9.56709
 20
-23.097
 11
-7.72542
 21
-23.7764
  0
LINE
  8
0
 10
-7.72542
 20
-23.7764
 11
-5.83613
 21
-24.3092
  0
LINE
  8
0
 10
-5.83613
 20
-24.3092
 11
-5
 21
-24.4756
  0
LINE
  8
0
 10
-5
 20
-24.4756
 11
-5
 21
-49
  0
LINE
  8
0
 10
-5
 20
-49
 11
115
 21
-49
  0
LINE
  8
0
 10
115
 20
-49
 11
115
 21
49
  0
LINE
  8
0
 10
115
 20
49
 11
-5
 21
49
  0
LINE
  8
0
 10
-5
 20
49
 11
-5
 21
24.4756
  0
LINE
  8
0
 10
-5
 20
24.4756
 11
-5.83613
 21
24.3092
  0
LINE
  8
0
 10
-5.83613
 20
24.3092
 11
-7.72542
 21
23.7764
  0
LINE
  8
0
 10
-7.72542
 20
23.7764
 11
-9.56709
 21
23.097
  0
LINE
  8
0
 10
-9.56709
 20
23.097
 11
-11.3498
 21
22.2752
  0
LINE
  8
0
 10
-11.3498
 20
22.2752
 11
-13.0625
 21
21.316
  0
LINE
  8
0
 10
-13.0625
 20
21.316
 11
-14.6946
 21
20.2254
  0
LINE
  8
0
 10
-14.6946
 20
20.2254
 11
-16.2362
 21
19.0101
  0
LINE
  8
0
 10
-16.2362
 20
19.0101
 11
-17.6777
 21
17.6777
  0
LINE
  8
0
 10
-17.6777
 20
17.6777
 11
-19.0101
 21
16.2362
  0
LINE
  8
0
 10
-19.0101
 20
16.2362
 11
-20.2254
 21
14.6946
  0
LINE
  8
0
 10
-20.2254
 20
14.6946
 11
-21.316
 21
13.0625
  0
LINE
  8
0
 10
-21.316
 20
13.0625
 11
-22.2752
 21
11.3498
  0
LINE
  8
0
 10
-22.2752
 20
11.3498
 11
-23.097
 21
9.56709
  0
LINE
  8
0
 10
-23.097
 20
9.56709
 11
-23.7764
 21
7.72542
  0
LINE
  8
0
 10
-23.7764
 20
7.72542
 11
-24.3092
 21
5.83613
  0
LINE
  8
0
 10
-24.3092
 20
5.83613
 11
-24.6922
 21
3.91086
  0
LINE
  8
0
 10
-24.6922
 20
3.91086
 11
-24.9229
 21
1.96148
  0
LINE
  8
0
 10
-24.9229
 20
1.96148
 11
-25
 21
-3.61259e-015
  0
LINE
  8
0
 10
-21.5
 20
-3.61259e-015
 11
-21.48
 21
0.509984
  0
LINE
  8
0
 10
-21.48
 20
0.509984
 11
-21.42
 21
1.01682
  0
LINE
  8
0
 10
-21.42
 20
1.01682
 11
-21.3204
 21
1.51739
  0
LINE
  8
0
 10
-21.3204
 20
1.51739
 11
-21.1819
 21
2.00861
  0
LINE
  8
0
 10
-21.1819
 20
2.00861
 11
-21.0052
 21
2.48744
  0
LINE
  8
0
 10
-21.0052
 20
2.48744
 11
-20.7915
 21
2.95094
  0
LINE
  8
0
 10
-20.7915
 20
2.95094
 11
-20.5422
 21
3.39624
  0
LINE
  8
0
 10
-20.5422
 20
3.39624
 11
-20.2586
 21
3.8206
  0
LINE
  8
0
 10
-20.2586
 20
3.8206
 11
-19.9426
 21
4.22141
  0
LINE
  8
0
 10
-19.9426
 20
4.22141
 11
-19.5962
 21
4.59619
  0
LINE
  8
0
 10
-19.5962
 20
4.59619
 11
-12.0208
 21
12.0208
  0
LINE
  8
0
 10
-12.0208
 20
12.0208
 11
-11.0406
 21
12.9269
  0
LINE
  8
0
 10
-11.0406
 20
12.9269
 11
-9.99235
 21
13.7533
  0
LINE
  8
0
 10
-9.99235
 20
13.7533
 11
-8.88247
 21
14.4949
  0
LINE
  8
0
 10
-8.88247
 20
14.4949
 11
-7.71784
 21
15.1471
  0
LINE
  8
0
 10
-7.71784
 20
15.1471
 11
-6.50562
 21
15.706
  0
LINE
  8
0
 10
-6.50562
 20
15.706
 11
-5.25329
 21
16.168
  0
LINE
  8
0
 10
-5.25329
 20
16.168
 11
-3.96857
 21
16.5303
  0
LINE
  8
0
 10
-3.96857
 20
16.5303
 11
-2.65939
 21
16.7907
  0
LINE
  8
0
 10
-2.65939
 20
16.7907
 11
-1.33381
 21
16.9476
  0
LINE
  8
0
 10
-1.33381
 20
16.9476
 11
-9.53674e-007
 21
17
  0
LINE
  8
0
 10
-9.53674e-007
 20
17
 11
1.3338
 21
16.9476
  0
LINE
  8
0
 10
1.3338
 20
16.9476
 11
2.65939
 21
16.7907
  0
LINE
  8
0
 10
2.65939
 20
16.7907
 11
3.96857
 21
16.5303
  0
LINE
  8
0
 10
3.96857
 20
16.5303
 11
5.25329
 21
16.168
  0
LINE
  8
0
 10
5.25329
 20
16.168
 11
6.50562
 21
15.706
  0
LINE
  8
0
 10
6.50562
 20
15.706
 11
7.71784
 21
15.1471
  0
LINE
  8
0
 10
7.71784
 20
15.1471
 11
8.88247
 21
14.4949
  0
LINE
  8
0
 10
8.88247
 20
14.4949
 11
9.99235
 21
13.7533
  0
LINE
  8
0
 10
9.99235
 20
13.7533
 11
11.0406
 21
12.9269
  0
LINE
  8
0
 10
11.0406
 20
12.9269
 11
12.0208
 21
12.0208
  0
LINE
  8
0
 10
12.0208
 20
12.0208
 11
19.5962
 21
4.59619
  0
LINE
  8
0
 10
19.5962
 20
4.59619
 11
19.9426
 21
4.22141
  0
LINE
  8
0
 10
19.9426
 20
4.22141
 11
20.2586
 21
3.8206
  0
LINE
  8
0
 10
20.2586
 20
3.8206
 11
20.5422
 21
3.39624
  0
LINE
  8
0
 10
20.5422
 20
3.39624
 11
20.7915
 21
2.95094
  0
LINE
  8
0
 10
20.7915
 20
2.95094
 11
21.0052
 21
2.48744
  0
LINE
  8
0
 10
21.0052
 20
2.48744
 11
21.1819
 21
2.00861
  0
LINE
  8
0
 10
21.1819
 20
2.00861
 11
21.3204
 21
1.51739
  0
LINE
  8
0
 10
21.3204
 20
1.51739
 11
21.42
 21
1.01682
  0
LINE
  8
0
 10
21.42
 20
1.01682
 11
21.48
 21
0.509984
  0
LINE
  8
0
 10
21.48
 20
0.509984
 11
21.5
 21
-3.61259e-015
  0
LINE
  8
0
 10
21.5
 20
-3.61259e-015
 11
21.48
 21
-0.509984
  0
LINE
  8
0
 10
21.48
 20
-0.509984
 11
21.42
 21
-1.01682
  0
LINE
  8
0
 10
21.42
 20
-1.01682
 11
21.3204
 21
-1.51739
  0
LINE
  8
0
 10
21.3204
 20
-1.51739
 11
21.1819
 21
-2.00861
  0
LINE
  8
0
 10
21.1819
 20
-2.00861
 11
21.0052
 21
-2.48744
  0
LINE
  8
0
 10
21.0052
 20
-2.48744
 11
20.7915
 21
-2.95094
  0
LINE
  8
0
 10
20.7915
 20
-2.95094
 11
20.5422
 21
-3.39624
  0
LINE
  8
0
 10
20.5422
 20
-3.39624
 11
20.2586
 21
-3.8206
  0
LINE
  8
0
 10
20.2586
 20
-3.8206
 11
19.9426
 21
-4.22141
  0
LINE
  8
0
 10
19.9426
 20
-4.22141
 11
19.5962
 21
-4.59619
  0
LINE
  8
0
 10
19.5962
 20
-4.59619
 11
12.0208
 21
-12.0208
  0
LINE
  8
0
 10
12.0208
 20
-12.0208
 11
11.0406
 21
-12.9269
  0
LINE
  8
0
 10
11.0406
 20
-12.9269
 11
9.99235
 21
-13.7533
  0
LINE
  8
0
 10
9.99235
 20
-13.7533
 11
8.88247
 21
-14.4949
  0
LINE
  8
0
 10
8.88247
 20
-14.4949
 11
7.71784
 21
-15.1471
  0
LINE
  8
0
 10
7.71784
 20
-15.1471
 11
6.50562
 21
-15.706
  0
LINE
  8
0
 10
6.50562
 20
-15.706
 11
5.25329
 21
-16.168
  0
LINE
  8
0
 10
5.25329
 20
-16.168
 11
3.96857
 21
-16.5303
  0
LINE
  8
0
 10
3.96857
 20
-16.5303
 11
2.65939
 21
-16.7907
  0
LINE
  8
0
 10
2.65939
 20
-16.7907
 11
1.3338
 21
-16.9476
  0
LINE
  8
0
 10
1.3338
 20
-16.9476
 11
0
 21
-17
  0
LINE
  8
0
 10
0
 20
-17
 11
-1.33381
 21
-16.9476
  0
LINE
  8
0
 10
-1.33381
 20
-16.9476
 11
-2.65939
 21
-16.7907
  0
LINE
  8
0
 10
-2.65939
 20
-16.7907
 11
-3.96857
 21
-16.5303
  0
LINE
  8
0
 10
-3.96857
 20
-16.5303
 11
-5.25329
 21
-16.168
  0
LINE
  8
0
 10
-5.25329
 20
-16.168
 11
-6.50562
 21
-15.706
  0
LINE
  8
0
 10
-6.50562
 20
-15.706
 11
-7.71784
 21
-15.1471
  0
LINE
  8
0
 10
-7.71784
 20
-15.1471
 11
-8.88247
 21
-14.4949
  0
LINE
  8
0
 10
-8.88247
 20
-14.4949
 11
-9.99235
 21
-13.7533
  0
LINE
  8
0
 10
-9.99235
 20
-13.7533
 11
-11.0406
 21
-12.9269
  0
LINE
  8
0
 10
-11.0406
 20
-12.9269
 11
-12.0208
 21
-12.0208
  0
LINE
  8
0
 10
-12.0208
 20
-12.0208
 11
-19.5962
 21
-4.59619
  0
LINE
  8
0
 10
-19.5962
 20
-4.59619
 11
-19.9426
 21
-4.22141
  0
LINE
  8
0
 10
-19.9426
 20
-4.22141
 11
-20.2586
 21
-3.8206
  0
LINE
  8
0
 10
-20.2586
 20
-3.8206
 11
-20.5422
 21
-3.39624
  0
LINE
  8
0
 10
-20.5422
 20
-3.39624
 11
-20.7915
 21
-2.95094
  0
LINE
  8
0
 10
-20.7915
 20
-2.95094
 11
-21.0052
 21
-2.48744
  0
LINE
  8
0
 10
-21.0052
 20
-2.48744
 11
-21.1819
 21
-2.00861
  0
LINE
  8
0
 10
-21.1819
 20
-2.00861
 11
-21.3204
 21
-1.51739
  0
LINE
  8
0
 10
-21.3204
 20
-1.51739
 11
-21.42
 21
-1.01682
  0
LINE
  8
0
 10
-21.42
 20
-1.01682
 11
-21.48
 21
-0.509984
  0
LINE
  8
0
 10
-21.48
 20
-0.509984
 11
-21.5
 21
-3.61259e-015
  0
LINE
  8
0
 10
25
 20
-41.75
 11
25
 21
-28.25
  0
LINE
  8
0
 10
25
 20
-28.25
 11
35
 21
-28.25
  0
LINE
  8
0
 10
35
 20
-28.25
 11
35
 21
-41.75
  0
LINE
  8
0
 10
35
 20
-41.75
 11
25
 21
-41.75
  0
LINE
  8
0
 10
25
 20
28.25
 11
25
 21
41.75
  0
LINE
  8
0
 10
25
 20
41.75
 11
35
 21
41.75
  0
LINE
  8
0
 10
35
 20
41.75
 11
35
 21
28.25
  0
LINE
  8
0
 10
35
 20
28.25
 11
25
 21
28.25
  0
LINE
  8
0
 10
40
 20
-3.61259e-015
 11
40.0771
 21
1.96148
  0
LINE
  8
0
 10
40.0771
 20
1.96148
 11
40.3078
 21
3.91086
  0
LINE
  8
0
 10
40.3078
 20
3.91086
 11
40.6908
 21
5.83613
  0
LINE
  8
0
 10
40.6908
 20
5.83613
 11
41.2236
 21
7.72542
  0
LINE
  8
0
 10
41.2236
 20
7.72542
 11
41.903
 21
9.56709
  0
LINE
  8
0
 10
41.903
 20
9.56709
 11
42.7248
 21
11.3498
  0
LINE
  8
0
 10
42.7248
 20
11.3498
 11
43.684
 21
13.0625
  0
LINE
  8
0
 10
43.684
 20
13.0625
 11
44.7746
 21
14.6946
  0
LINE
  8
0
 10
44.7746
 20
14.6946
 11
45.9899
 21
16.2362
  0
LINE
  8
0
 10
45.9899
 20
16.2362
 11
47.3223
 21
17.6777
  0
LINE
  8
0
 10
47.3223
 20
17.6777
 11
48.7638
 21
19.0101
  0
LINE
  8
0
 10
48.7638
 20
19.0101
 11
50.3054
 21
20.2254
  0
LINE
  8
0
 10
50.3054
 20
20.2254
 11
51.9375
 21
21.316
  0
LINE
  8
0
 10
51.9375
 20
21.316
 11
53.6502
 21
22.2752
  0
LINE
  8
0
 10
53.6502
 20
22.2752
 11
55.4329
 21
23.097
  0
LINE
  8
0
 10
55.4329
 20
23.097
 11
57.2746
 21
23.7764
  0
LINE
  8
0
 10
57.2746
 20
23.7764
 11
59.1639
 21
24.3092
  0
LINE
  8
0
 10
59.1639
 20
24.3092
 11
61.0891
 21
24.6922
  0
LINE
  8
0
 10
61.0891
 20
24.6922
 11
63.0385
 21
24.9229
  0
LINE
  8
0
 10
63.0385
 20
24.9229
 11
65
 21
25
  0
LINE
  8
0
 10
65
 20
25
 11
75
 21
25
  0
LINE
  8
0
 10
75
 20
25
 11
76.9615
 21
24.9229
  0
LINE
  8
0
 10
76.9615
 20
24.9229
 11
78.9109
 21
24.6922
  0
LINE
  8
0
 10
78.9109
 20
24.6922
 11
80.8361
 21
24.3092
  0
LINE
  8
0
 10
80.8361
 20
24.3092
 11
82.7254
 21
23.7764
  0
LINE
  8
0
 10
82.7254
 20
23.7764
 11
84.5671
 21
23.097
  0
LINE
  8
0
 10
84.5671
 20
23.097
 11
86.3498
 21
22.2752
  0
LINE
  8
0
 10
86.3498
 20
22.2752
 11
88.0625
 21
21.316
  0
LINE
  8
0
 10
88.0625
 20
21.316
 11
89.6946
 21
20.2254
  0
LINE
  8
0
 10
89.6946
 20
20.2254
 11
91.2362
 21
19.0101
  0
LINE
  8
0
 10
91.2362
 20
19.0101
 11
92.6777
 21
17.6777
  0
LINE
  8
0
 10
92.6777
 20
17.6777
 11
94.0101
 21
16.2362
  0
LINE
  8
0
 10
94.0101
 20
16.2362
 11
95.2254
 21
14.6946
  0
LINE
  8
0
 10
95.2254
 20
14.6946
 11
96.316
 21
13.0625
  0
LINE
  8
0
 10
96.316
 20
13.0625
 11
97.2752
 21
11.3498
  0
LINE
  8
0
 10
97.2752
 20
11.3498
 11
98.097
 21
9.56709
  0
LINE
  8
0
 10
98.097
 20
9.56709
 11
98.7764
 21
7.72542
  0
LINE
  8
0
 10
98.7764
 20
7.72542
 11
99.3092
 21
5.83613
  0
LINE
  8
0
 10
99.3092
 20
5.83613
 11
99.6922
 21
3.91086
  0
LINE
  8
0
 10
99.6922
 20
3.91086
 11
99.9229
 21
1.96148
  0
LINE
  8
0
 10
99.9229
 20
1.96148
 11
100
 21
-3.61259e-015
  0
LINE
  8
0
 10
100
 20
-3.61259e-015
 11
99.9229
 21
-1.96148
  0
LINE
  8
0
 10
99.9229
 20
-1.96148
 11
99.6922
 21
-3.91086
  0
LINE
  8
0
 10
99.6922
 20
-3.91086
 11
99.3092
 21
-5.83613
  0
LINE
  8
0
 10
99.3092
 20
-5.83613
 11
98.7764
 21
-7.72542
  0
LINE
  8
0
 10
98.7764
 20
-7.72542
 11
98.097
 21
-9.56709
  0
LINE
  8
0
 10
98.097
 20
-9.56709
 11
97.2752
 21
-11.3498
  0
LINE
  8
0
 10
97.2752
 20
-11.3498
 11
96.316
 21
-13.0625
  0
LINE
  8
0
 10
96.316
 20
-13.0625
 11
95.2254
 21
-14.6946
  0
LINE
  8
0
 10
95.2254
 20
-14.6946
 11
94.0101
 21
-16.2362
  0
LINE
  8
0
 10
94.0101
 20
-16.2362
 11
92.6777
 21
-17.6777
  0
LINE
  8
0
 10
92.6777
 20
-17.6777
 11
91.2362
 21
-19.0101
  0
LINE
  8
0
 10
91.2362
 20
-19.0101
 11
89.6946
 21
-20.2254
  0
LINE
  8
0
 10
89.6946
 20
-20.2254
 11
88.0625
 21
-21.316
  0
LINE
  8
0
 10
88.0625
 20
-21.316
 11
86.3498
 21
-22.2752
  0
LINE
  8
0
 10
86.3498
 20
-22.2752
 11
84.5671
 21
-23.097
  0
LINE
  8
0
 10
84.5671
 20
-23.097
 11
82.7254
 21
-23.7764
  0
LINE
  8
0
 10
82.7254
 20
-23.7764
 11
80.8361
 21
-24.3092
  0
LINE
  8
0
 10
80.8361
 20
-24.3092
 11
78.9109
 21
-24.6922
  0
LINE
  8
0
 10
78.9109
 20
-24.6922
 11
76.9615
 21
-24.9229
  0
LINE
  8
0
 10
76.9615
 20
-24.9229
 11
75
 21
-25
  0
LINE
  8
0
 10
75
 20
-25
 11
65
 21
-25
  0
LINE
  8
0
 10
65
 20
-25
 11
63.0385
 21
-24.9229
  0
LINE
  8
0
 10
63.0385
 20
-24.9229
 11
61.0891
 21
-24.6922
  0
LINE
  8
0
 10
61.0891
 20
-24.6922
 11
59.1639
 21
-24.3092
  0
LINE
  8
0
 10
59.1639
 20
-24.3092
 11
57.2746
 21
-23.7764
  0
LINE
  8
0
 10
57.2746
 20
-23.7764
 11
55.4329
 21
-23.097
  0
LINE
  8
0
 10
55.4329
 20
-23.097
 11
53.6502
 21
-22.2752
  0
LINE
  8
0
 10
53.6502
 20
-22.2752
 11
51.9375
 21
-21.316
  0
LINE
  8
0
 10
51.9375
 20
-21.316
 11
50.3054
 21
-20.2254
  0
LINE
  8
0
 10
50.3054
 20
-20.2254
 11
48.7638
 21
-19.0101
  0
LINE
  8
0
 10
48.7638
 20
-19.0101
 11
47.3223
 21
-17.6777
  0
LINE
  8
0
 10
47.3223
 20
-17.6777
 11
45.9899
 21
-16.2362
  0
LINE
  8
0
 10
45.9899
 20
-16.2362
 11
44.7746
 21
-14.6946
  0
LINE
  8
0
 10
44.7746
 20
-14.6946
 11
43.684
 21
-13.0625
  0
LINE
  8
0
 10
43.684
 20
-13.0625
 11
42.7248
 21
-11.3498
  0
LINE
  8
0
 10
42.7248
 20
-11.3498
 11
41.903
 21
-9.56709
  0
LINE
  8
0
 10
41.903
 20
-9.56709
 11
41.2236
 21
-7.72542
  0
LINE
  8
0
 10
41.2236
 20
-7.72542
 11
40.6908
 21
-5.83613
  0
LINE
  8
0
 10
40.6908
 20
-5.83613
 11
40.3078
 21
-3.91086
  0
LINE
  8
0
 10
40.3078
 20
-3.91086
 11
40.0771
 21
-1.96148
  0
LINE
  8
0
 10
40.0771
 20
-1.96148
 11
40
 21
-3.61259e-015
  0
LINE
  8
0
 10
40.5
 20
-25
 11
40.5983
 21
-24.0644
  0
LINE
  8
0
 10
40.5983
 20
-24.0644
 11
40.889
 21
-23.1697
  0
LINE
  8
0
 10
40.889
 20
-23.1697
 11
41.3594
 21
-22.355
  0
LINE
  8
0
 10
41.3594
 20
-22.355
 11
41.9889
 21
-21.6558
  0
LINE
  8
0
 10
41.9889
 20
-21.6558
 11
42.75
 21
-21.1029
  0
LINE
  8
0
 10
42.75
 20
-21.1029
 11
43.6094
 21
-20.7202
  0
LINE
  8
0
 10
43.6094
 20
-20.7202
 11
44.5296
 21
-20.5247
  0
LINE
  8
0
 10
44.5296
 20
-20.5247
 11
45.4704
 21
-20.5247
  0
LINE
  8
0
 10
45.4704
 20
-20.5247
 11
46.3906
 21
-20.7202
  0
LINE
  8
0
 10
46.3906
 20
-20.7202
 11
47.25
 21
-21.1029
  0
LINE
  8
0
 10
47.25
 20
-21.1029
 11
48.0111
 21
-21.6558
  0
LINE
  8
0
 10
48.0111
 20
-21.6558
 11
48.6406
 21
-22.355
  0
LINE
  8
0
 10
48.6406
 20
-22.355
 11
49.111
 21
-23.1697
  0
LINE
  8
0
 10
49.111
 20
-23.1697
 11
49.4017
 21
-24.0644
  0
LINE
  8
0
 10
49.4017
 20
-24.0644
 11
49.5
 21
-25
  0
LINE
  8
0
 10
49.5
 20
-25
 11
49.4017
 21
-25.9356
  0
LINE
  8
0
 10
49.4017
 20
-25.9356
 11
49.111
 21
-26.8303
  0
LINE
  8
0
 10
49.111
 20
-26.8303
 11
48.6406
 21
-27.645
  0
LINE
  8
0
 10
48.6406
 20
-27.645
 11
48.0111
 21
-28.3442
  0
LINE
  8
0
 10
48.0111
 20
-28.3442
 11
47.25
 21
-28.8971
  0
LINE
  8
0
 10
47.25
 20
-28.8971
 11
46.3906
 21
-29.2798
  0
LINE
  8
0
 10
46.3906
 20
-29.2798
 11
45.4704
 21
-29.4753
  0
LINE
  8
0
 10
45.4704
 20
-29.4753
 11
44.5296
 21
-29.4753
  0
LINE
  8
0
 10
44.5296
 20
-29.4753
 11
43.6094
 21
-29.2798
  0
LINE
  8
0
 10
43.6094
 20
-29.2798
 11
42.75
 21
-28.8971
  0
LINE
  8
0
 10
42.75
 20
-28.8971
 11
41.9889
 21
-28.3442
  0
LINE
  8
0
 10
41.9889
 20
-28.3442
 11
41.3594
 21
-27.645
  0
LINE
  8
0
 10
41.3594
 20
-27.645
 11
40.889
 21
-26.8303
  0
LINE
  8
0
 10
40.889
 20
-26.8303
 11
40.5983
 21
-25.9356
  0
LINE
  8
0
 10
40.5983
 20
-25.9356
 11
40.5
 21
-25
  0
LINE
  8
0
 10
40.5
 20
25
 11
40.5983
 21
25.9356
  0
LINE
  8
0
 10
40.5983
 20
25.9356
 11
40.889
 21
26.8303
  0
LINE
  8
0
 10
40.889
 20
26.8303
 11
41.3594
 21
27.645
  0
LINE
  8
0
 10
41.3594
 20
27.645
 11
41.9889
 21
28.3442
  0
LINE
  8
0
 10
41.9889
 20
28.3442
 11
42.75
 21
28.8971
  0
LINE
  8
0
 10
42.75
 20
28.8971
 11
43.6094
 21
29.2798
  0
LINE
  8
0
 10
43.6094
 20
29.2798
 11
44.5296
 21
29.4753
  0
LINE
  8
0
 10
44.5296
 20
29.4753
 11
45.4704
 21
29.4753
  0
LINE
  8
0
 10
45.4704
 20
29.4753
 11
46.3906
 21
29.2798
  0
LINE
  8
0
 10
46.3906
 20
29.2798
 11
47.25
 21
28.8971
  0
LINE
  8
0
 10
47.25
 20
28.8971
 11
48.0111
 21
28.3442
  0
LINE
  8
0
 10
48.0111
 20
28.3442
 11
48.6406
 21
27.645
  0
LINE
  8
0
 10
48.6406
 20
27.645
 11
49.111
 21
26.8303
  0
LINE
  8
0
 10
49.111
 20
26.8303
 11
49.4017
 21
25.9356
  0
LINE
  8
0
 10
49.4017
 20
25.9356
 11
49.5
 21
25
  0
LINE
  8
0
 10
49.5
 20
25
 11
49.4017
 21
24.0644
  0
LINE
  8
0
 10
49.4017
 20
24.0644
 11
49.111
 21
23.1697
  0
LINE
  8
0
 10
49.111
 20
23.1697
 11
48.6406
 21
22.355
  0
LINE
  8
0
 10
48.6406
 20
22.355
 11
48.0111
 21
21.6558
  0
LINE
  8
0
 10
48.0111
 20
21.6558
 11
47.25
 21
21.1029
  0
LINE
  8
0
 10
47.25
 20
21.1029
 11
46.3906
 21
20.7202
  0
LINE
  8
0
 10
46.3906
 20
20.7202
 11
45.4704
 21
20.5247
  0
LINE
  8
0
 10
45.4704
 20
20.5247
 11
44.5296
 21
20.5247
  0
LINE
  8
0
 10
44.5296
 20
20.5247
 11
43.6094
 21
20.7202
  0
LINE
  8
0
 10
43.6094
 20
20.7202
 11
42.75
 21
21.1029
  0
LINE
  8
0
 10
42.75
 20
21.1029
 11
41.9889
 21
21.6558
  0
LINE
  8
0
 10
41.9889
 20
21.6558
 11
41.3594
 21
22.355
  0
LINE
  8
0
 10
41.3594
 20
22.355
 11
40.889
 21
23.1697
  0
LINE
  8
0
 10
40.889
 20
23.1697
 11
40.5983
 21
24.0644
  0
LINE
  8
0
 10
40.5983
 20
24.0644
 11
40.5
 21
25
  0
LINE
  8
0
 10
90.5
 20
-25
 11
90.5983
 21
-24.0644
  0
LINE
  8
0
 10
90.5983
 20
-24.0644
 11
90.889
 21
-23.1697
  0
LINE
  8
0
 10
90.889
 20
-23.1697
 11
91.3594
 21
-22.355
  0
LINE
  8
0
 10
91.3594
 20
-22.355
 11
91.9889
 21
-21.6558
  0
LINE
  8
0
 10
91.9889
 20
-21.6558
 11
92.75
 21
-21.1029
  0
LINE
  8
0
 10
92.75
 20
-21.1029
 11
93.6094
 21
-20.7202
  0
LINE
  8
0
 10
93.6094
 20
-20.7202
 11
94.5296
 21
-20.5247
  0
LINE
  8
0
 10
94.5296
 20
-20.5247
 11
95.4704
 21
-20.5247
  0
LINE
  8
0
 10
95.4704
 20
-20.5247
 11
96.3906
 21
-20.7202
  0
LINE
  8
0
 10
96.3906
 20
-20.7202
 11
97.25
 21
-21.1029
  0
LINE
  8
0
 10
97.25
 20
-21.1029
 11
98.0111
 21
-21.6558
  0
LINE
  8
0
 10
98.0111
 20
-21.6558
 11
98.6406
 21
-22.355
  0
LINE
  8
0
 10
98.6406
 20
-22.355
 11
99.111
 21
-23.1697
  0
LINE
  8
0
 10
99.111
 20
-23.1697
 11
99.4017
 21
-24.0644
  0
LINE
  8
0
 10
99.4017
 20
-24.0644
 11
99.5
 21
-25
  0
LINE
  8
0
 10
99.5
 20
-25
 11
99.4017
 21
-25.9356
  0
LINE
  8
0
 10
99.4017
 20
-25.9356
 11
99.111
 21
-26.8303
  0
LINE
  8
0
 10
99.111
 20
-26.8303
 11
98.6406
 21
-27.645
  0
LINE
  8
0
 10
98.6406
 20
-27.645
 11
98.0111
 21
-28.3442
  0
LINE
  8
0
 10
98.0111
 20
-28.3442
 11
97.25
 21
-28.8971
  0
LINE
  8
0
 10
97.25
 20
-28.8971
 11
96.3906
 21
-29.2798
  0
LINE
  8
0
 10
96.3906
 20
-29.2798
 11
95.4704
 21
-29.4753
  0
LINE
  8
0
 10
95.4704
 20
-29.4753
 11
94.5296
 21
-29.4753
  0
LINE
  8
0
 10
94.5296
 20
-29.4753
 11
93.6094
 21
-29.2798
  0
LINE
  8
0
 10
93.6094
 20
-29.2798
 11
92.75
 21
-28.8971
  0
LINE
  8
0
 10
92.75
 20
-28.8971
 11
91.9889
 21
-28.3442
  0
LINE
  8
0
 10
91.9889
 20
-28.3442
 11
91.3594
 21
-27.645
  0
LINE
  8
0
 10
91.3594
 20
-27.645
 11
90.889
 21
-26.8303
  0
LINE
  8
0
 10
90.889
 20
-26.8303
 11
90.5983
 21
-25.9356
  0
LINE
  8
0
 10
90.5983
 20
-25.9356
 11
90.5
 21
-25
  0
LINE
  8
0
 10
90.5
 20
25
 11
90.5983
 21
25.9356
  0
LINE
  8
0
 10
90.5983
 20
25.9356
 11
90.889
 21
26.8303
  0
LINE
  8
0
 10
90.889
 20
26.8303
 11
91.3594
 21
27.645
  0
LINE
  8
0
 10
91.3594
 20
27.645
 11
91.9889
 21
28.3442
  0
LINE
  8
0
 10
91.9889
 20
28.3442
 11
92.75
 21
28.8971
  0
LINE
  8
0
 10
92.75
 20
28.8971
 11
93.6094
 21
29.2798
  0
LINE
  8
0
 10
93.6094
 20
29.2798
 11
94.5296
 21
29.4753
  0
LINE
  8
0
 10
94.5296
 20
29.4753
 11
95.4704
 21
29.4753
  0
LINE
  8
0
 10
95.4704
 20
29.4753
 11
96.3906
 21
29.2798
  0
LINE
  8
0
 10
96.3906
 20
29.2798
 11
97.25
 21
28.8971
  0
LINE
  8
0
 10
97.25
 20
28.8971
 11
98.0111
 21
28.3442
  0
LINE
  8
0
 10
98.0111
 20
28.3442
 11
98.6406
 21
27.645
  0
LINE
  8
0
 10
98.6406
 20
27.645
 11
99.111
 21
26.8303
  0
LINE
  8
0
 10
99.111
 20
26.8303
 11
99.4017
 21
25.9356
  0
LINE
  8
0
 10
99.4017
 20
25.9356
 11
99.5
 21
25
  0
LINE
  8
0
 10
99.5
 20
25
 11
99.4017
 21
24.0644
  0
LINE
  8
0
 10
99.4017
 20
24.0644
 11
99.111
 21
23.1697
  0
LINE
  8
0
 10
99.111
 20
23.1697
 11
98.6406
 21
22.355
  0
LINE
  8
0
 10
98.6406
 20
22.355
 11
98.0111
 21
21.6558
  0
LINE
  8
0
 10
98.0111
 20
21.6558
 11
97.25
 21
21.1029
  0
LINE
  8
0
 10
97.25
 20
21.1029
 11
96.3906
 21
20.7202
  0
LINE
  8
0
 10
96.3906
 20
20.7202
 11
95.4704
 21
20.5247
  0
LINE
  8
0
 10
95.4704
 20
20.5247
 11
94.5296
 21
20.5247
  0
LINE
  8
0
 10
94.5296
 20
20.5247
 11
93.6094
 21
20.7202
  0
LINE
  8
0
 10
93.6094
 20
20.7202
 11
92.75
 21
21.1029
  0
LINE
  8
0
 10
92.75
 20
21.1029
 11
91.9889
 21
21.6558
  0
LINE
  8
0
 10
91.9889
 20
21.6558
 11
91.3594
 21
22.355
  0
LINE
  8
0
 10
91.3594
 20
22.355
 11
90.889
 21
23.1697
  0
LINE
  8
0
 10
90.889
 20
23.1697
 11
90.5983
 21
24.0644
  0
LINE
  8
0
 10
90.5983
 20
24.0644
 11
90.5
 21
25
  0
ENDSEC
  0
SECTION
  2
OBJECTS
  0
DICTIONARY
  0
ENDSEC
  0
EOF
