  0
SECTION
  2
BLOCKS
  0
ENDSEC
  0
SECTION
  2
ENTITIES
  0
LINE
  8
0
 10
7.62373
 20
-49.9184
 11
7.92705
 21
-49.8532
  0
LINE
  8
0
 10
7.92705
 20
-49.8532
 11
8.2202
 21
-49.7256
  0
LINE
  8
0
 10
8.2202
 20
-49.7256
 11
8.5
 21
-49.5981
  0
LINE
  8
0
 10
8.5
 20
-49.5981
 11
8.76335
 21
-49.4137
  0
LINE
  8
0
 10
8.76335
 20
-49.4137
 11
9.00739
 21
-49.2294
  0
LINE
  8
0
 10
9.00739
 20
-49.2294
 11
9.22943
 21
-48.9964
  0
LINE
  8
0
 10
9.22943
 20
-48.9964
 11
9.42705
 21
-48.7634
  0
LINE
  8
0
 10
9.42705
 20
-48.7634
 11
9.59807
 21
-48.4918
  0
LINE
  8
0
 10
9.59807
 20
-48.4918
 11
9.74063
 21
-48.2202
  0
LINE
  8
0
 10
9.74063
 20
-48.2202
 11
9.85316
 21
-47.922
  0
LINE
  8
0
 10
9.85316
 20
-47.922
 11
9.93443
 21
-47.6237
  0
LINE
  8
0
 10
9.93443
 20
-47.6237
 11
9.98355
 21
-47.3119
  0
LINE
  8
0
 10
9.98355
 20
-47.3119
 11
10
 21
-47
  0
LINE
  8
0
 10
10
 20
-47
 11
10
 21
16
  0
LINE
  8
0
 10
10
 20
16
 11
9.96916
 21
16.7846
  0
LINE
  8
0
 10
9.96916
 20
16.7846
 11
9.87688
 21
17.5643
  0
LINE
  8
0
 10
9.87688
 20
17.5643
 11
9.84825
 21
17.7188
  0
LINE
  8
0
 10
9.84825
 20
17.7188
 11
9.74103
 21
18.2578
  0
LINE
  8
0
 10
9.74103
 20
18.2578
 11
9.72369
 21
18.3344
  0
LINE
  8
0
 10
9.72369
 20
18.3344
 11
9.51056
 21
19.0902
  0
LINE
  8
0
 10
9.51056
 20
19.0902
 11
9.23878
 21
19.8268
  0
LINE
  8
0
 10
9.23878
 20
19.8268
 11
9.20778
 21
19.899
  0
LINE
  8
0
 10
9.20778
 20
19.899
 11
8.97768
 21
20.3981
  0
LINE
  8
0
 10
8.97768
 20
20.3981
 11
8.91006
 21
20.5399
  0
LINE
  8
0
 10
8.91006
 20
20.5399
 11
8.5264
 21
21.225
  0
LINE
  8
0
 10
8.5264
 20
21.225
 11
8.09016
 21
21.8779
  0
LINE
  8
0
 10
8.09016
 20
21.8779
 11
7.60405
 21
22.4945
  0
LINE
  8
0
 10
7.60405
 20
22.4945
 11
7.07106
 21
23.0711
  0
LINE
  8
0
 10
7.07106
 20
23.0711
 11
6.95714
 21
23.1792
  0
LINE
  8
0
 10
6.95714
 20
23.1792
 11
6.55351
 21
23.5523
  0
LINE
  8
0
 10
6.55351
 20
23.5523
 11
6.49448
 21
23.604
  0
LINE
  8
0
 10
6.49448
 20
23.604
 11
5.87784
 21
24.0902
  0
LINE
  8
0
 10
5.87784
 20
24.0902
 11
5.22498
 21
24.5264
  0
LINE
  8
0
 10
5.22498
 20
24.5264
 11
5.15749
 21
24.5665
  0
LINE
  8
0
 10
5.15749
 20
24.5665
 11
4.67793
 21
24.8351
  0
LINE
  8
0
 10
4.67793
 20
24.8351
 11
4.5399
 21
24.9101
  0
LINE
  8
0
 10
4.5399
 20
24.9101
 11
3.82683
 21
25.2388
  0
LINE
  8
0
 10
3.82683
 20
25.2388
 11
3.09016
 21
25.5106
  0
LINE
  8
0
 10
3.09016
 20
25.5106
 11
2.33444
 21
25.7237
  0
LINE
  8
0
 10
2.33444
 20
25.7237
 11
1.56433
 21
25.8769
  0
LINE
  8
0
 10
1.56433
 20
25.8769
 11
1.40862
 21
25.8974
  0
LINE
  8
0
 10
1.40862
 20
25.8974
 11
0.862793
 21
25.962
  0
LINE
  8
0
 10
0.862793
 20
25.962
 11
0.784576
 21
25.9692
  0
LINE
  8
0
 10
0.784576
 20
25.9692
 11
0
 21
26
  0
LINE
  8
0
 10
0
 20
26
 11
-0.784576
 21
25.9692
  0
LINE
  8
0
 10
-0.784576
 20
25.9692
 11
-0.862793
 21
25.962
  0
LINE
  8
0
 10
-0.862793
 20
25.962
 11
-1.40862
 21
25.8974
  0
LINE
  8
0
 10
-1.40862
 20
25.8974
 11
-1.56433
 21
25.8769
  0
LINE
  8
0
 10
-1.56433
 20
25.8769
 11
-2.33444
 21
25.7237
  0
LINE
  8
0
 10
-2.33444
 20
25.7237
 11
-3.09016
 21
25.5106
  0
LINE
  8
0
 10
-3.09016
 20
25.5106
 11
-3.82683
 21
25.2388
  0
LINE
  8
0
 10
-3.82683
 20
25.2388
 11
-4.5399
 21
24.9101
  0
LINE
  8
0
 10
-4.5399
 20
24.9101
 11
-4.67793
 21
24.8351
  0
LINE
  8
0
 10
-4.67793
 20
24.8351
 11
-5.15749
 21
24.5665
  0
LINE
  8
0
 10
-5.15749
 20
24.5665
 11
-5.22498
 21
24.5264
  0
LINE
  8
0
 10
-5.22498
 20
24.5264
 11
-5.87784
 21
24.0902
  0
LINE
  8
0
 10
-5.87784
 20
24.0902
 11
-6.49448
 21
23.604
  0
LINE
  8
0
 10
-6.49448
 20
23.604
 11
-6.55351
 21
23.5523
  0
LINE
  8
0
 10
-6.55351
 20
23.5523
 11
-6.95714
 21
23.1792
  0
LINE
  8
0
 10
-6.95714
 20
23.1792
 11
-7.07106
 21
23.0711
  0
LINE
  8
0
 10
-7.07106
 20
23.0711
 11
-7.60405
 21
22.4945
  0
LINE
  8
0
 10
-7.60405
 20
22.4945
 11
-8.09016
 21
21.8779
  0
LINE
  8
0
 10
-8.09016
 20
21.8779
 11
-8.5264
 21
21.225
  0
LINE
  8
0
 10
-8.5264
 20
21.225
 11
-8.91006
 21
20.5399
  0
LINE
  8
0
 10
-8.91006
 20
20.5399
 11
-8.97768
 21
20.3981
  0
LINE
  8
0
 10
-8.97768
 20
20.3981
 11
-9.20778
 21
19.899
  0
LINE
  8
0
 10
-9.20778
 20
19.899
 11
-9.23878
 21
19.8268
  0
LINE
  8
0
 10
-9.23878
 20
19.8268
 11
-9.51056
 21
19.0902
  0
LINE
  8
0
 10
-9.51056
 20
19.0902
 11
-9.72369
 21
18.3344
  0
LINE
  8
0
 10
-9.72369
 20
18.3344
 11
-9.74103
 21
18.2578
  0
LINE
  8
0
 10
-9.74103
 20
18.2578
 11
-9.84825
 21
17.7188
  0
LINE
  8
0
 10
-9.84825
 20
17.7188
 11
-9.87688
 21
17.5643
  0
LINE
  8
0
 10
-9.87688
 20
17.5643
 11
-9.96916
 21
16.7846
  0
LINE
  8
0
 10
-9.96916
 20
16.7846
 11
-10
 21
16
  0
LINE
  8
0
 10
-10
 20
16
 11
-10
 21
-47
  0
LINE
  8
0
 10
-10
 20
-47
 11
-9.98355
 21
-47.3119
  0
LINE
  8
0
 10
-9.98355
 20
-47.3119
 11
-9.93443
 21
-47.6237
  0
LINE
  8
0
 10
-9.93443
 20
-47.6237
 11
-9.85316
 21
-47.922
  0
LINE
  8
0
 10
-9.85316
 20
-47.922
 11
-9.74063
 21
-48.2202
  0
LINE
  8
0
 10
-9.74063
 20
-48.2202
 11
-9.59807
 21
-48.4918
  0
LINE
  8
0
 10
-9.59807
 20
-48.4918
 11
-9.42705
 21
-48.7634
  0
LINE
  8
0
 10
-9.42705
 20
-48.7634
 11
-9.22943
 21
-48.9964
  0
LINE
  8
0
 10
-9.22943
 20
-48.9964
 11
-9.00739
 21
-49.2294
  0
LINE
  8
0
 10
-9.00739
 20
-49.2294
 11
-8.76335
 21
-49.4137
  0
LINE
  8
0
 10
-8.76335
 20
-49.4137
 11
-8.5
 21
-49.5981
  0
LINE
  8
0
 10
-8.5
 20
-49.5981
 11
-8.2202
 21
-49.7256
  0
LINE
  8
0
 10
-8.2202
 20
-49.7256
 11
-7.92705
 21
-49.8532
  0
LINE
  8
0
 10
-7.92705
 20
-49.8532
 11
-7.62373
 21
-49.9184
  0
LINE
  8
0
 10
-7.62373
 20
-49.9184
 11
-7.31358
 21
-49.9836
  0
LINE
  8
0
 10
-7.31358
 20
-49.9836
 11
7.31358
 21
-49.9836
  0
LINE
  8
0
 10
7.31358
 20
-49.9836
 11
7.62373
 21
-49.9184
  0
LINE
  8
0
 10
-3.5
 20
-12
 11
-3.5
 21
12
  0
LINE
  8
0
 10
-3.5
 20
12
 11
3.5
 21
12
  0
LINE
  8
0
 10
3.5
 20
12
 11
3.5
 21
-12
  0
LINE
  8
0
 10
3.5
 20
-12
 11
-3.5
 21
-12
  0
LINE
  8
0
 10
-6.75
 20
-42
 11
-6.75
 21
-22
  0
LINE
  8
0
 10
-6.75
 20
-22
 11
6.75
 21
-22
  0
LINE
  8
0
 10
6.75
 20
-22
 11
6.75
 21
-42
  0
LINE
  8
0
 10
6.75
 20
-42
 11
-6.75
 21
-42
  0
ENDSEC
  0
SECTION
  2
OBJECTS
  0
DICTIONARY
  0
ENDSEC
  0
EOF
