  0
SECTION
  2
HEADER
  9
$ACADVER
  1
AC1014
  9
$HANDSEED
  5
FFFF
  9
$MEASUREMENT
 70
     1
  0
ENDSEC
  0
SECTION
  2
TABLES
  0
TABLE
  2
VPORT
  5
8
330
0
100
AcDbSymbolTable
 70
     4
  0
VPORT
  5
2E
330
8
100
AcDbSymbolTableRecord
100
AcDbViewportTableRecord
  2
*ACTIVE
 70
     0
 10
0.0
 20
0.0
 11
1.0
 21
1.0
 12
210.0
 22
148.5
 13
0.0
 23
0.0
 14
10.0
 24
10.0
 15
10.0
 25
10.0
 16
0.0
 26
0.0
 36
1.0
 17
0.0
 27
0.0
 37
0.0
 40
341.0
 41
1.24
 42
50.0
 43
0.0
 44
0.0
 50
0.0
 51
0.0
 71
     0
 72
   100
 73
     1
 74
     3
 75
     0
 76
     0
 77
     0
 78
     0
  0
ENDTAB
  0
TABLE
  2
LTYPE
  5
5
330
0
100
AcDbSymbolTable
 70
     1
  0
LTYPE
  5
14
330
5
100
AcDbSymbolTableRecord
100
AcDbLinetypeTableRecord
  2
BYBLOCK
 70
     0
  3

 72
    65
 73
     0
 40
0.0
  0
LTYPE
  5
15
330
5
100
AcDbSymbolTableRecord
100
AcDbLinetypeTableRecord
  2
BYLAYER
 70
     0
  3

 72
    65
 73
     0
 40
0.0
  0
LTYPE
  5
16
330
5
100
AcDbSymbolTableRecord
100
AcDbLinetypeTableRecord
  2
CONTINUOUS
 70
     0
  3
Solid line
 72
    65
 73
     0
 40
0.0
  0
ENDTAB
  0
TABLE
  2
LAYER
  5
2
100
AcDbSymbolTable
 70
2
  0
LAYER
  5
50
100
AcDbSymbolTableRecord
100
AcDbLayerTableRecord
  2
0
 70
0
  6
CONTINUOUS
  0
LAYER
  5
51
100
AcDbSymbolTableRecord
100
AcDbLayerTableRecord
  2
Layer_1
 70
0
  6
CONTINUOUS
  0
ENDTAB
  0
TABLE
  2
STYLE
  5
3
330
0
100
AcDbSymbolTable
 70
     1
  0
STYLE
  5
11
330
3
100
AcDbSymbolTableRecord
100
AcDbTextStyleTableRecord
  2
STANDARD
 70
     0
 40
0.0
 41
1.0
 50
0.0
 71
     0
 42
2.5
  3
txt
  4

  0
ENDTAB
  0
TABLE
  2
VIEW
  5
6
330
0
100
AcDbSymbolTable
 70
     0
  0
ENDTAB
  0
TABLE
  2
UCS
  5
7
330
0
100
AcDbSymbolTable
 70
     0
  0
ENDTAB
  0
TABLE
  2
APPID
  5
9
330
0
100
AcDbSymbolTable
 70
     2
  0
APPID
  5
12
330
9
100
AcDbSymbolTableRecord
100
AcDbRegAppTableRecord
  2
ACAD
 70
     0
  0
ENDTAB
  0
TABLE
  2
DIMSTYLE
  5
A
330
0
100
AcDbSymbolTable
 70
     1
  0
DIMSTYLE
105
27
330
A
100
AcDbSymbolTableRecord
100
AcDbDimStyleTableRecord
  2
ISO-25
 70
     0
  3

  4

  5

  6

  7

 40
1.0
 41
2.5
 42
0.625
 43
3.75
 44
1.25
 45
0.0
 46
0.0
 47
0.0
 48
0.0
140
2.5
141
2.5
142
0.0
143
0.03937007874016
144
1.0
145
0.0
146
1.0
147
0.625
 71
     0
 72
     0
 73
     0
 74
     0
 75
     0
 76
     0
 77
     1
 78
     8
170
     0
171
     3
172
     1
173
     0
174
     0
175
     0
176
     0
177
     0
178
     0
270
     2
271
     2
272
     2
273
     2
274
     3
340
11
275
     0
280
     0
281
     0
282
     0
283
     0
284
     8
285
     0
286
     0
287
     3
288
     0
  0
ENDTAB
  0
TABLE
  2
BLOCK_RECORD
  5
1
330
0
100
AcDbSymbolTable
 70
     1
  0
BLOCK_RECORD
  5
1F
330
1
100
AcDbSymbolTableRecord
100
AcDbBlockTableRecord
  2
*MODEL_SPACE
  0
BLOCK_RECORD
  5
1B
330
1
100
AcDbSymbolTableRecord
100
AcDbBlockTableRecord
  2
*PAPER_SPACE
  0
ENDTAB
  0
ENDSEC
  0
SECTION
  2
BLOCKS
  0
BLOCK
  5
20
330
1F
100
AcDbEntity
  8
0
100
AcDbBlockBegin
  2
*MODEL_SPACE
 70
     0
 10
0.0
 20
0.0
 30
0.0
  3
*MODEL_SPACE
  1

  0
ENDBLK
  5
21
330
1F
100
AcDbEntity
  8
0
100
AcDbBlockEnd
  0
BLOCK
  5
1C
330
1B
100
AcDbEntity
 67
     1
  8
0
100
AcDbBlockBegin
  2
*PAPER_SPACE
  1

  0
ENDBLK
  5
1D
330
1B
100
AcDbEntity
 67
     1
  8
0
100
AcDbBlockEnd
  0
ENDSEC
  0
SECTION
  2
ENTITIES
  0
LWPOLYLINE
  5
100
100
AcDbEntity
  8
Layer_1
 62
7
100
AcDbPolyline
 90
46
 70
1
 10
187.240468
 20
10.291228
 30
0.0
 10
187.155801
 20
11.518897
 30
0.0
 10
186.901796
 20
12.746553
 30
0.0
 10
186.478468
 20
13.889556
 30
0.0
 10
185.928129
 20
14.990231
 30
0.0
 10
185.208455
 20
16.006223
 30
0.0
 10
184.361801
 20
16.895217
 30
0.0
 10
183.388137
 20
17.657220
 30
0.0
 10
182.329804
 20
18.292225
 30
0.0
 10
181.186801
 20
18.800220
 30
0.0
 10
180.001457
 20
19.138895
 30
0.0
 10
178.773801
 20
19.265889
 30
0.0
 10
177.546132
 20
19.265889
 30
0.0
 10
176.318463
 20
19.096553
 30
0.0
 10
175.133132
 20
18.757895
 30
0.0
 10
174.032457
 20
18.249900
 30
0.0
 10
172.974124
 20
17.614892
 30
0.0
 10
172.000460
 20
16.810564
 30
0.0
 10
171.196132
 20
15.921553
 30
0.0
 10
170.476457
 20
14.905561
 30
0.0
 10
169.926135
 20
13.804887
 30
0.0
 10
169.545135
 20
12.619559
 30
0.0
 10
169.291129
 20
11.391887
 30
0.0
 10
169.248801
 20
10.164233
 30
0.0
 10
169.333455
 20
8.936564
 30
0.0
 10
169.587460
 20
7.751217
 30
0.0
 10
170.053129
 20
6.608233
 30
0.0
 10
170.603468
 20
5.507556
 30
0.0
 10
171.365468
 20
4.491567
 30
0.0
 10
172.212124
 20
3.602553
 30
0.0
 10
173.185804
 20
2.840553
 30
0.0
 10
174.244137
 20
2.247889
 30
0.0
 10
175.387124
 20
1.782220
 30
0.0
 10
176.572468
 20
1.443561
 30
0.0
 10
177.800121
 20
1.316567
 30
0.0
 10
179.027791
 20
1.358892
 30
0.0
 10
180.255463
 20
1.528231
 30
0.0
 10
181.440791
 20
1.909231
 30
0.0
 10
182.541465
 20
2.417225
 30
0.0
 10
183.599799
 20
3.094559
 30
0.0
 10
184.531121
 20
3.856559
 30
0.0
 10
185.335465
 20
4.787897
 30
0.0
 10
186.055124
 20
5.803889
 30
0.0
 10
186.563137
 20
6.946892
 30
0.0
 10
186.944137
 20
8.089892
 30
0.0
 10
187.155801
 20
9.317564
 30
0.0
  0
LWPOLYLINE
  5
101
100
AcDbEntity
  8
Layer_1
 62
7
100
AcDbPolyline
 90
46
 70
1
 10
205.951796
 20
10.291228
 30
0.0
 10
205.867126
 20
11.518897
 30
0.0
 10
205.613137
 20
12.746553
 30
0.0
 10
205.189793
 20
13.889556
 30
0.0
 10
204.597129
 20
14.990231
 30
0.0
 10
203.877470
 20
16.006223
 30
0.0
 10
203.073126
 20
16.895217
 30
0.0
 10
202.099462
 20
17.657220
 30
0.0
 10
201.041129
 20
18.292225
 30
0.0
 10
199.898126
 20
18.800220
 30
0.0
 10
198.712798
 20
19.138895
 30
0.0
 10
197.485129
 20
19.265889
 30
0.0
 10
196.257457
 20
19.265889
 30
0.0
 10
195.029804
 20
19.096553
 30
0.0
 10
193.844457
 20
18.757895
 30
0.0
 10
192.701457
 20
18.249900
 30
0.0
 10
191.685465
 20
17.614892
 30
0.0
 10
190.711801
 20
16.810564
 30
0.0
 10
189.907457
 20
15.921553
 30
0.0
 10
189.187798
 20
14.905561
 30
0.0
 10
188.637460
 20
13.804887
 30
0.0
 10
188.256460
 20
12.619559
 30
0.0
 10
188.002470
 20
11.391887
 30
0.0
 10
187.917801
 20
10.164233
 30
0.0
 10
188.044796
 20
8.936564
 30
0.0
 10
188.298801
 20
7.751217
 30
0.0
 10
188.722129
 20
6.608233
 30
0.0
 10
189.314793
 20
5.507556
 30
0.0
 10
190.034468
 20
4.491567
 30
0.0
 10
190.923465
 20
3.602553
 30
0.0
 10
191.897129
 20
2.840553
 30
0.0
 10
192.955462
 20
2.247889
 30
0.0
 10
194.098465
 20
1.782220
 30
0.0
 10
195.283793
 20
1.443561
 30
0.0
 10
196.511462
 20
1.316567
 30
0.0
 10
197.739134
 20
1.358892
 30
0.0
 10
198.966788
 20
1.528231
 30
0.0
 10
200.152132
 20
1.909231
 30
0.0
 10
201.252790
 20
2.417225
 30
0.0
 10
202.311124
 20
3.094559
 30
0.0
 10
203.242462
 20
3.856559
 30
0.0
 10
204.046790
 20
4.787897
 30
0.0
 10
204.724124
 20
5.803889
 30
0.0
 10
205.274462
 20
6.946892
 30
0.0
 10
205.655462
 20
8.089892
 30
0.0
 10
205.867126
 20
9.317564
 30
0.0
  0
LWPOLYLINE
  5
102
100
AcDbEntity
  8
Layer_1
 62
7
100
AcDbPolyline
 90
46
 70
1
 10
224.409129
 20
10.291228
 30
0.0
 10
224.324462
 20
11.518897
 30
0.0
 10
224.070457
 20
12.746553
 30
0.0
 10
223.647129
 20
13.889556
 30
0.0
 10
223.054465
 20
14.990231
 30
0.0
 10
222.377131
 20
16.006223
 30
0.0
 10
221.530462
 20
16.895217
 30
0.0
 10
220.556798
 20
17.657220
 30
0.0
 10
219.498465
 20
18.292225
 30
0.0
 10
218.355462
 20
18.800220
 30
0.0
 10
217.170134
 20
19.138895
 30
0.0
 10
215.942462
 20
19.265889
 30
0.0
 10
214.714793
 20
19.265889
 30
0.0
 10
213.487124
 20
19.096553
 30
0.0
 10
212.301795
 20
18.757895
 30
0.0
 10
211.201134
 20
18.249900
 30
0.0
 10
210.142801
 20
17.614892
 30
0.0
 10
209.169137
 20
16.810564
 30
0.0
 10
208.364793
 20
15.921553
 30
0.0
 10
207.645134
 20
14.905561
 30
0.0
 10
207.094796
 20
13.804887
 30
0.0
 10
206.713796
 20
12.619559
 30
0.0
 10
206.459790
 20
11.391887
 30
0.0
 10
206.375121
 20
10.164233
 30
0.0
 10
206.502132
 20
8.936564
 30
0.0
 10
206.756121
 20
7.751217
 30
0.0
 10
207.179465
 20
6.608233
 30
0.0
 10
207.772129
 20
5.507556
 30
0.0
 10
208.491788
 20
4.491567
 30
0.0
 10
209.380801
 20
3.602553
 30
0.0
 10
210.354465
 20
2.840553
 30
0.0
 10
211.412798
 20
2.247889
 30
0.0
 10
212.555801
 20
1.782220
 30
0.0
 10
213.741129
 20
1.443561
 30
0.0
 10
214.968798
 20
1.316567
 30
0.0
 10
216.196470
 20
1.358892
 30
0.0
 10
217.424123
 20
1.528231
 30
0.0
 10
218.609467
 20
1.909231
 30
0.0
 10
219.710129
 20
2.417225
 30
0.0
 10
220.768462
 20
3.094559
 30
0.0
 10
221.699798
 20
3.856559
 30
0.0
 10
222.504126
 20
4.787897
 30
0.0
 10
223.181459
 20
5.803889
 30
0.0
 10
223.731798
 20
6.946892
 30
0.0
 10
224.112798
 20
8.089892
 30
0.0
 10
224.324462
 20
9.317564
 30
0.0
  0
LWPOLYLINE
  5
103
100
AcDbEntity
  8
Layer_1
 62
7
100
AcDbPolyline
 90
46
 70
1
 10
242.866464
 20
10.291228
 30
0.0
 10
242.781798
 20
11.518897
 30
0.0
 10
242.527790
 20
12.746553
 30
0.0
 10
242.104464
 20
13.889556
 30
0.0
 10
241.554126
 20
14.990231
 30
0.0
 10
240.834467
 20
16.006223
 30
0.0
 10
239.987798
 20
16.895217
 30
0.0
 10
239.014134
 20
17.657220
 30
0.0
 10
237.955800
 20
18.292225
 30
0.0
 10
236.812798
 20
18.800220
 30
0.0
 10
235.627470
 20
19.138895
 30
0.0
 10
234.399798
 20
19.265889
 30
0.0
 10
233.172129
 20
19.265889
 30
0.0
 10
231.944457
 20
19.096553
 30
0.0
 10
230.759129
 20
18.757895
 30
0.0
 10
229.658454
 20
18.249900
 30
0.0
 10
228.600121
 20
17.614892
 30
0.0
 10
227.626457
 20
16.810564
 30
0.0
 10
226.822129
 20
15.921553
 30
0.0
 10
226.102470
 20
14.905561
 30
0.0
 10
225.552131
 20
13.804887
 30
0.0
 10
225.171131
 20
12.619559
 30
0.0
 10
224.917126
 20
11.391887
 30
0.0
 10
224.874798
 20
10.164233
 30
0.0
 10
224.959467
 20
8.936564
 30
0.0
 10
225.213457
 20
7.751217
 30
0.0
 10
225.636801
 20
6.608233
 30
0.0
 10
226.229465
 20
5.507556
 30
0.0
 10
226.991465
 20
4.491567
 30
0.0
 10
227.838137
 20
3.602553
 30
0.0
 10
228.811801
 20
2.840553
 30
0.0
 10
229.870134
 20
2.247889
 30
0.0
 10
231.013137
 20
1.782220
 30
0.0
 10
232.198465
 20
1.443561
 30
0.0
 10
233.426134
 20
1.316567
 30
0.0
 10
234.653790
 20
1.358892
 30
0.0
 10
235.881459
 20
1.528231
 30
0.0
 10
237.066787
 20
1.909231
 30
0.0
 10
238.167462
 20
2.417225
 30
0.0
 10
239.225795
 20
3.094559
 30
0.0
 10
240.157134
 20
3.856559
 30
0.0
 10
240.961462
 20
4.787897
 30
0.0
 10
241.681121
 20
5.803889
 30
0.0
 10
242.189134
 20
6.946892
 30
0.0
 10
242.570134
 20
8.089892
 30
0.0
 10
242.781798
 20
9.317564
 30
0.0
  0
LWPOLYLINE
  5
104
100
AcDbEntity
  8
Layer_1
 62
7
100
AcDbPolyline
 90
46
 70
1
 10
261.577795
 20
10.291228
 30
0.0
 10
261.493128
 20
11.518897
 30
0.0
 10
261.239128
 20
12.746553
 30
0.0
 10
260.815795
 20
13.889556
 30
0.0
 10
260.223128
 20
14.990231
 30
0.0
 10
259.503462
 20
16.006223
 30
0.0
 10
258.656768
 20
16.895217
 30
0.0
 10
257.725462
 20
17.657220
 30
0.0
 10
256.667128
 20
18.292225
 30
0.0
 10
255.524128
 20
18.800220
 30
0.0
 10
254.338795
 20
19.138895
 30
0.0
 10
253.111128
 20
19.265889
 30
0.0
 10
251.883462
 20
19.265889
 30
0.0
 10
250.655800
 20
19.096553
 30
0.0
 10
249.470456
 20
18.757895
 30
0.0
 10
248.327470
 20
18.249900
 30
0.0
 10
247.311462
 20
17.614892
 30
0.0
 10
246.337798
 20
16.810564
 30
0.0
 10
245.533454
 20
15.921553
 30
0.0
 10
244.813795
 20
14.905561
 30
0.0
 10
244.263456
 20
13.804887
 30
0.0
 10
243.882456
 20
12.619559
 30
0.0
 10
243.628467
 20
11.391887
 30
0.0
 10
243.543798
 20
10.164233
 30
0.0
 10
243.670792
 20
8.936564
 30
0.0
 10
243.924798
 20
7.751217
 30
0.0
 10
244.348126
 20
6.608233
 30
0.0
 10
244.940790
 20
5.507556
 30
0.0
 10
245.660464
 20
4.491567
 30
0.0
 10
246.549462
 20
3.602553
 30
0.0
 10
247.523126
 20
2.840553
 30
0.0
 10
248.581459
 20
2.247889
 30
0.0
 10
249.724462
 20
1.782220
 30
0.0
 10
250.909790
 20
1.443561
 30
0.0
 10
252.137462
 20
1.316567
 30
0.0
 10
253.365128
 20
1.358892
 30
0.0
 10
254.592795
 20
1.528231
 30
0.0
 10
255.778128
 20
1.909231
 30
0.0
 10
256.878795
 20
2.417225
 30
0.0
 10
257.937128
 20
3.094559
 30
0.0
 10
258.868462
 20
3.856559
 30
0.0
 10
259.672795
 20
4.787897
 30
0.0
 10
260.350128
 20
5.803889
 30
0.0
 10
260.900462
 20
6.946892
 30
0.0
 10
261.281462
 20
8.089892
 30
0.0
 10
261.493128
 20
9.317564
 30
0.0
  0
LWPOLYLINE
  5
105
100
AcDbEntity
  8
Layer_1
 62
7
100
AcDbPolyline
 90
4
 70
0
 10
150.833794
 20
9.317564
 30
0.0
 10
150.833794
 20
0.300559
 30
0.0
 10
135.847789
 20
0.300559
 30
0.0
 10
135.847789
 20
92.121560
 30
0.0
  0
LWPOLYLINE
  5
106
100
AcDbEntity
  8
Layer_1
 62
7
100
AcDbPolyline
 90
2
 70
0
 10
244.813795
 20
29.298886
 30
0.0
 10
156.845135
 20
29.298886
 30
0.0
  0
LWPOLYLINE
  5
107
100
AcDbEntity
  8
Layer_1
 62
7
100
AcDbPolyline
 90
2
 70
0
 10
150.833794
 20
35.310228
 30
0.0
 10
150.833794
 20
71.801555
 30
0.0
  0
LWPOLYLINE
  5
108
100
AcDbEntity
  8
Layer_1
 62
7
100
AcDbPolyline
 90
11
 70
0
 10
156.845135
 20
29.298886
 30
0.0
 10
155.829127
 20
29.383553
 30
0.0
 10
154.855463
 20
29.637558
 30
0.0
 10
153.924124
 20
30.060886
 30
0.0
 10
153.077471
 20
30.611225
 30
0.0
 10
152.357796
 20
31.288558
 30
0.0
 10
151.765132
 20
32.092892
 30
0.0
 10
151.299463
 20
32.981889
 30
0.0
 10
150.960804
 20
33.955561
 30
0.0
 10
150.833794
 20
34.971561
 30
0.0
 10
150.833794
 20
35.310228
 30
0.0
  0
LWPOLYLINE
  5
109
100
AcDbEntity
  8
Layer_1
 62
7
100
AcDbPolyline
 90
2
 70
0
 10
260.815795
 20
71.335894
 30
0.0
 10
260.815795
 20
29.298886
 30
0.0
  0
LWPOLYLINE
  5
10a
100
AcDbEntity
  8
Layer_1
 62
7
100
AcDbPolyline
 90
2
 70
0
 10
250.825120
 20
57.958561
 30
0.0
 10
250.825120
 20
35.310228
 30
0.0
  0
LWPOLYLINE
  5
10b
100
AcDbEntity
  8
Layer_1
 62
7
100
AcDbPolyline
 90
2
 70
0
 10
153.881799
 20
107.996555
 30
0.0
 10
238.167462
 20
97.116894
 30
0.0
  0
LWPOLYLINE
  5
10c
100
AcDbEntity
  8
Layer_1
 62
7
100
AcDbPolyline
 90
2
 70
0
 10
135.847789
 20
87.591894
 30
0.0
 10
135.847789
 20
87.083891
 30
0.0
  0
LWPOLYLINE
  5
10d
100
AcDbEntity
  8
Layer_1
 62
7
100
AcDbPolyline
 90
2
 70
0
 10
160.824463
 20
21.297889
 30
0.0
 10
252.814795
 20
21.297889
 30
0.0
  0
LWPOLYLINE
  5
10e
100
AcDbEntity
  8
Layer_1
 62
7
100
AcDbPolyline
 90
15
 70
0
 10
150.833794
 20
9.317564
 30
0.0
 10
150.833794
 20
11.307220
 30
0.0
 10
150.918463
 20
12.619559
 30
0.0
 10
151.172468
 20
13.889556
 30
0.0
 10
151.595794
 20
15.117225
 30
0.0
 10
152.146132
 20
16.260228
 30
0.0
 10
152.865791
 20
17.360887
 30
0.0
 10
153.712460
 20
18.334551
 30
0.0
 10
154.686124
 20
19.223564
 30
0.0
 10
155.786801
 20
19.943223
 30
0.0
 10
156.929804
 20
20.535887
 30
0.0
 10
158.157458
 20
20.959230
 30
0.0
 10
159.427471
 20
21.213220
 30
0.0
 10
160.739793
 20
21.297889
 30
0.0
 10
160.824463
 20
21.297889
 30
0.0
  0
LWPOLYLINE
  5
10f
100
AcDbEntity
  8
Layer_1
 62
7
100
AcDbPolyline
 90
12
 70
0
 10
252.814795
 20
21.297889
 30
0.0
 10
254.000128
 20
21.382556
 30
0.0
 10
255.143128
 20
21.636564
 30
0.0
 10
256.201462
 20
22.059889
 30
0.0
 10
257.217462
 20
22.610228
 30
0.0
 10
258.148795
 20
23.329887
 30
0.0
 10
258.953102
 20
24.176556
 30
0.0
 10
259.630462
 20
25.107894
 30
0.0
 10
260.180795
 20
26.123886
 30
0.0
 10
260.561795
 20
27.224561
 30
0.0
 10
260.773435
 20
28.367564
 30
0.0
 10
260.815795
 20
29.298886
 30
0.0
  0
LWPOLYLINE
  5
110
100
AcDbEntity
  8
Layer_1
 62
7
100
AcDbPolyline
 90
11
 70
0
 10
244.813795
 20
29.298886
 30
0.0
 10
245.829803
 20
29.383553
 30
0.0
 10
246.803467
 20
29.637558
 30
0.0
 10
247.734790
 20
30.060886
 30
0.0
 10
248.581459
 20
30.611225
 30
0.0
 10
249.301134
 20
31.288558
 30
0.0
 10
249.893798
 20
32.092892
 30
0.0
 10
250.359467
 20
32.981889
 30
0.0
 10
250.655800
 20
33.955561
 30
0.0
 10
250.825120
 20
34.971561
 30
0.0
 10
250.825120
 20
35.310228
 30
0.0
  0
LWPOLYLINE
  5
111
100
AcDbEntity
  8
Layer_1
 62
7
100
AcDbPolyline
 90
2
 70
0
 10
162.094458
 20
81.749891
 30
0.0
 10
238.633131
 20
71.843889
 30
0.0
  0
LWPOLYLINE
  5
112
100
AcDbEntity
  8
Layer_1
 62
7
100
AcDbPolyline
 90
15
 70
0
 10
162.094458
 20
81.749891
 30
0.0
 10
160.824463
 20
81.834558
 30
0.0
 10
159.512124
 20
81.749891
 30
0.0
 10
158.242127
 20
81.495891
 30
0.0
 10
157.014455
 20
81.072558
 30
0.0
 10
155.829127
 20
80.479894
 30
0.0
 10
154.770794
 20
79.760227
 30
0.0
 10
153.797130
 20
78.913558
 30
0.0
 10
152.908132
 20
77.939891
 30
0.0
 10
152.188458
 20
76.839224
 30
0.0
 10
151.595794
 20
75.696222
 30
0.0
 10
151.172468
 20
74.468560
 30
0.0
 10
150.918463
 20
73.198555
 30
0.0
 10
150.833794
 20
71.886225
 30
0.0
 10
150.833794
 20
71.801555
 30
0.0
  0
LWPOLYLINE
  5
113
100
AcDbEntity
  8
Layer_1
 62
7
100
AcDbPolyline
 90
18
 70
0
 10
135.847789
 20
92.121560
 30
0.0
 10
135.932458
 20
93.772558
 30
0.0
 10
136.144138
 20
95.423555
 30
0.0
 10
136.567463
 20
96.989891
 30
0.0
 10
137.160130
 20
98.556222
 30
0.0
 10
137.879804
 20
99.995558
 30
0.0
 10
138.768799
 20
101.392557
 30
0.0
 10
139.784791
 20
102.704888
 30
0.0
 10
140.927791
 20
103.890224
 30
0.0
 10
142.197788
 20
104.948557
 30
0.0
 10
143.594796
 20
105.837560
 30
0.0
 10
145.034130
 20
106.641891
 30
0.0
 10
146.558132
 20
107.234557
 30
0.0
 10
148.124463
 20
107.700224
 30
0.0
 10
149.733132
 20
107.996555
 30
0.0
 10
151.384130
 20
108.123557
 30
0.0
 10
153.035130
 20
108.081224
 30
0.0
 10
153.881799
 20
107.996555
 30
0.0
  0
LWPOLYLINE
  5
114
100
AcDbEntity
  8
Layer_1
 62
7
100
AcDbPolyline
 90
2
 70
0
 10
127.169458
 20
70.319894
 30
0.0
 10
139.022788
 20
70.319894
 30
0.0
  0
LWPOLYLINE
  5
115
100
AcDbEntity
  8
Layer_1
 62
7
100
AcDbPolyline
 90
2
 70
0
 10
140.546791
 20
70.319894
 30
0.0
 10
142.028468
 20
70.319894
 30
0.0
  0
LWPOLYLINE
  5
116
100
AcDbEntity
  8
Layer_1
 62
7
100
AcDbPolyline
 90
2
 70
0
 10
143.552471
 20
70.319894
 30
0.0
 10
155.405802
 20
70.319894
 30
0.0
  0
LWPOLYLINE
  5
117
100
AcDbEntity
  8
Layer_1
 62
7
100
AcDbPolyline
 90
2
 70
0
 10
156.040791
 20
10.291228
 30
0.0
 10
148.293799
 20
10.291228
 30
0.0
  0
LWPOLYLINE
  5
118
100
AcDbEntity
  8
Layer_1
 62
7
100
AcDbPolyline
 90
2
 70
0
 10
146.812124
 20
10.291228
 30
0.0
 10
145.288138
 20
10.291228
 30
0.0
  0
LWPOLYLINE
  5
119
100
AcDbEntity
  8
Layer_1
 62
7
100
AcDbPolyline
 90
2
 70
0
 10
143.806460
 20
10.291228
 30
0.0
 10
136.059468
 20
10.291228
 30
0.0
  0
LWPOLYLINE
  5
11a
100
AcDbEntity
  8
Layer_1
 62
7
100
AcDbPolyline
 90
2
 70
0
 10
134.577791
 20
10.291228
 30
0.0
 10
133.053791
 20
10.291228
 30
0.0
  0
LWPOLYLINE
  5
11b
100
AcDbEntity
  8
Layer_1
 62
7
100
AcDbPolyline
 90
2
 70
0
 10
131.572130
 20
10.291228
 30
0.0
 10
123.825122
 20
10.291228
 30
0.0
  0
LWPOLYLINE
  5
11c
100
AcDbEntity
  8
Layer_1
 62
7
100
AcDbPolyline
 90
4
 70
0
 10
150.833794
 20
65.282227
 30
0.0
 10
145.838458
 20
65.282227
 30
0.0
 10
145.838458
 20
75.315222
 30
0.0
 10
151.468799
 20
75.315222
 30
0.0
  0
LWPOLYLINE
  5
11d
100
AcDbEntity
  8
Layer_1
 62
7
100
AcDbPolyline
 90
4
 70
0
 10
150.833794
 20
5.295892
 30
0.0
 10
145.838458
 20
5.295892
 30
0.0
 10
145.838458
 20
15.286564
 30
0.0
 10
151.680463
 20
15.286564
 30
0.0
  0
LWPOLYLINE
  5
11e
100
AcDbEntity
  8
Layer_1
 62
7
100
AcDbPolyline
 90
4
 70
0
 10
135.847789
 20
8.809551
 30
0.0
 10
145.838458
 20
8.809551
 30
0.0
 10
145.838458
 20
11.815231
 30
0.0
 10
135.847789
 20
11.815231
 30
0.0
  0
LWPOLYLINE
  5
11f
100
AcDbEntity
  8
Layer_1
 62
7
100
AcDbPolyline
 90
4
 70
0
 10
135.847789
 20
68.795891
 30
0.0
 10
145.838458
 20
68.795891
 30
0.0
 10
145.838458
 20
71.801555
 30
0.0
 10
135.847789
 20
71.801555
 30
0.0
  0
LWPOLYLINE
  5
120
100
AcDbEntity
  8
Layer_1
 62
7
100
AcDbPolyline
 90
15
 70
0
 10
250.825120
 20
57.958561
 30
0.0
 10
250.740467
 20
59.482555
 30
0.0
 10
250.486462
 20
61.006558
 30
0.0
 10
250.063136
 20
62.488227
 30
0.0
 10
249.512798
 20
63.927561
 30
0.0
 10
248.750795
 20
65.282227
 30
0.0
 10
247.904126
 20
66.552222
 30
0.0
 10
246.888136
 20
67.695225
 30
0.0
 10
245.745134
 20
68.753558
 30
0.0
 10
244.517462
 20
69.642555
 30
0.0
 10
243.162798
 20
70.446891
 30
0.0
 10
241.765790
 20
71.039555
 30
0.0
 10
240.284128
 20
71.505225
 30
0.0
 10
238.802470
 20
71.801555
 30
0.0
 10
238.633131
 20
71.843889
 30
0.0
  0
LWPOLYLINE
  5
121
100
AcDbEntity
  8
Layer_1
 62
7
100
AcDbPolyline
 90
19
 70
0
 10
260.815795
 20
71.335894
 30
0.0
 10
260.731128
 20
73.410227
 30
0.0
 10
260.477128
 20
75.484558
 30
0.0
 10
260.053795
 20
77.558891
 30
0.0
 10
259.503462
 20
79.590888
 30
0.0
 10
258.741462
 20
81.538227
 30
0.0
 10
257.852462
 20
83.443222
 30
0.0
 10
256.794128
 20
85.263558
 30
0.0
 10
255.608795
 20
86.956888
 30
0.0
 10
254.254128
 20
88.607894
 30
0.0
 10
252.814795
 20
90.089555
 30
0.0
 10
251.248462
 20
91.486560
 30
0.0
 10
249.555123
 20
92.756558
 30
0.0
 10
247.777131
 20
93.857227
 30
0.0
 10
245.914454
 20
94.830891
 30
0.0
 10
244.009467
 20
95.677560
 30
0.0
 10
242.019795
 20
96.312558
 30
0.0
 10
239.945457
 20
96.820555
 30
0.0
 10
238.167462
 20
97.116894
 30
0.0
  0
LWPOLYLINE
  5
122
100
AcDbEntity
  8
Layer_1
 62
7
100
AcDbPolyline
 90
19
 70
1
 10
185.123801
 20
82.977560
 30
0.0
 10
185.039134
 20
83.485555
 30
0.0
 10
184.785129
 20
83.951224
 30
0.0
 10
184.404127
 20
84.289891
 30
0.0
 10
183.938457
 20
84.501555
 30
0.0
 10
183.430463
 20
84.543888
 30
0.0
 10
182.964793
 20
84.416894
 30
0.0
 10
182.541465
 20
84.120555
 30
0.0
 10
182.202791
 20
83.739555
 30
0.0
 10
182.033455
 20
83.231558
 30
0.0
 10
182.033455
 20
82.723555
 30
0.0
 10
182.202791
 20
82.257894
 30
0.0
 10
182.499124
 20
81.834558
 30
0.0
 10
182.964793
 20
81.580560
 30
0.0
 10
183.430463
 20
81.453558
 30
0.0
 10
183.938457
 20
81.495891
 30
0.0
 10
184.404127
 20
81.665222
 30
0.0
 10
184.785129
 20
82.046222
 30
0.0
 10
185.039134
 20
82.469558
 30
0.0
  0
LWPOLYLINE
  5
123
100
AcDbEntity
  8
Layer_1
 62
7
100
AcDbPolyline
 90
19
 70
1
 10
158.157458
 20
100.588222
 30
0.0
 10
158.072788
 20
101.096227
 30
0.0
 10
157.818799
 20
101.561891
 30
0.0
 10
157.437799
 20
101.900557
 30
0.0
 10
156.972130
 20
102.112224
 30
0.0
 10
156.464135
 20
102.154560
 30
0.0
 10
155.998466
 20
102.027557
 30
0.0
 10
155.575122
 20
101.731224
 30
0.0
 10
155.236463
 20
101.350224
 30
0.0
 10
155.067127
 20
100.842224
 30
0.0
 10
155.067127
 20
100.334224
 30
0.0
 10
155.236463
 20
99.868560
 30
0.0
 10
155.575122
 20
99.445224
 30
0.0
 10
155.998466
 20
99.191224
 30
0.0
 10
156.464135
 20
99.064224
 30
0.0
 10
156.972130
 20
99.106558
 30
0.0
 10
157.437799
 20
99.318227
 30
0.0
 10
157.818799
 20
99.656891
 30
0.0
 10
158.072788
 20
100.080224
 30
0.0
  0
LWPOLYLINE
  5
124
100
AcDbEntity
  8
Layer_1
 62
7
100
AcDbPolyline
 90
2
 70
0
 10
194.691129
 20
102.747224
 30
0.0
 10
194.056121
 20
97.751894
 30
0.0
  0
LWPOLYLINE
  5
125
100
AcDbEntity
  8
Layer_1
 62
7
100
AcDbPolyline
 90
2
 70
0
 10
153.881799
 20
107.996555
 30
0.0
 10
153.373802
 20
103.043560
 30
0.0
  0
LWPOLYLINE
  5
126
100
AcDbEntity
  8
Layer_1
 62
7
100
AcDbPolyline
 90
15
 70
0
 10
140.843124
 20
92.121560
 30
0.0
 10
140.927791
 20
93.518560
 30
0.0
 10
141.181799
 20
94.830891
 30
0.0
 10
141.562799
 20
96.143222
 30
0.0
 10
142.155463
 20
97.370891
 30
0.0
 10
142.875122
 20
98.556222
 30
0.0
 10
143.721791
 20
99.614558
 30
0.0
 10
144.737799
 20
100.545893
 30
0.0
 10
145.796132
 20
101.350224
 30
0.0
 10
147.023802
 20
102.027557
 30
0.0
 10
148.251458
 20
102.535555
 30
0.0
 10
149.563796
 20
102.916557
 30
0.0
 10
150.918463
 20
103.085891
 30
0.0
 10
152.273127
 20
103.128224
 30
0.0
 10
153.246791
 20
103.043560
 30
0.0
  0
LWPOLYLINE
  5
127
100
AcDbEntity
  8
Layer_1
 62
7
100
AcDbPolyline
 90
2
 70
0
 10
140.843124
 20
92.121560
 30
0.0
 10
140.843124
 20
91.740560
 30
0.0
  0
LWPOLYLINE
  5
128
100
AcDbEntity
  8
Layer_1
 62
7
100
AcDbPolyline
 90
2
 70
0
 10
139.319138
 20
90.258891
 30
0.0
 10
135.847789
 20
90.258891
 30
0.0
  0
LWPOLYLINE
  5
129
100
AcDbEntity
  8
Layer_1
 62
7
100
AcDbPolyline
 90
6
 70
0
 10
139.319138
 20
90.258891
 30
0.0
 10
139.827132
 20
90.343560
 30
0.0
 10
140.250460
 20
90.555224
 30
0.0
 10
140.589135
 20
90.936224
 30
0.0
 10
140.800796
 20
91.401894
 30
0.0
 10
140.843124
 20
91.740560
 30
0.0
  0
LWPOLYLINE
  5
12a
100
AcDbEntity
  8
Layer_1
 62
7
100
AcDbPolyline
 90
2
 70
0
 10
165.565791
 20
106.514891
 30
0.0
 10
165.142463
 20
103.128224
 30
0.0
  0
LWPOLYLINE
  5
12b
100
AcDbEntity
  8
Layer_1
 62
7
100
AcDbPolyline
 90
2
 70
0
 10
164.888457
 20
101.138557
 30
0.0
 10
164.422788
 20
97.751894
 30
0.0
  0
LWPOLYLINE
  5
12c
100
AcDbEntity
  8
Layer_1
 62
7
100
AcDbPolyline
 90
2
 70
0
 10
164.168799
 20
95.804555
 30
0.0
 10
163.745457
 20
92.417891
 30
0.0
  0
LWPOLYLINE
  5
12d
100
AcDbEntity
  8
Layer_1
 62
7
100
AcDbPolyline
 90
2
 70
0
 10
163.491465
 20
90.428227
 30
0.0
 10
163.068124
 20
87.041558
 30
0.0
  0
LWPOLYLINE
  5
12e
100
AcDbEntity
  8
Layer_1
 62
7
100
AcDbPolyline
 90
2
 70
0
 10
162.814135
 20
85.094227
 30
0.0
 10
162.348465
 20
81.707555
 30
0.0
  0
LWPOLYLINE
  5
12f
100
AcDbEntity
  8
Layer_1
 62
7
100
AcDbPolyline
 90
2
 70
0
 10
250.825120
 20
38.866228
 30
0.0
 10
254.846795
 20
38.866228
 30
0.0
  0
LWPOLYLINE
  5
130
100
AcDbEntity
  8
Layer_1
 62
7
100
AcDbPolyline
 90
2
 70
0
 10
256.836462
 20
38.866228
 30
0.0
 10
260.815795
 20
38.866228
 30
0.0
  0
LWPOLYLINE
  5
131
100
AcDbEntity
  8
Layer_1
 62
7
100
AcDbPolyline
 90
46
 70
1
 10
92.413797
 20
10.291228
 30
0.0
 10
92.329128
 20
11.518897
 30
0.0
 10
92.075130
 20
12.746553
 30
0.0
 10
91.651797
 20
13.889556
 30
0.0
 10
91.101466
 20
14.990231
 30
0.0
 10
90.381800
 20
16.006223
 30
0.0
 10
89.535130
 20
16.895217
 30
0.0
 10
88.603800
 20
17.657220
 30
0.0
 10
87.545466
 20
18.292225
 30
0.0
 10
86.402464
 20
18.800220
 30
0.0
 10
85.217128
 20
19.138895
 30
0.0
 10
83.989464
 20
19.265889
 30
0.0
 10
82.761794
 20
19.265889
 30
0.0
 10
81.534130
 20
19.096553
 30
0.0
 10
80.348795
 20
18.757895
 30
0.0
 10
79.205795
 20
18.249900
 30
0.0
 10
78.147461
 20
17.614892
 30
0.0
 10
77.216131
 20
16.810564
 30
0.0
 10
76.369461
 20
15.921553
 30
0.0
 10
75.692128
 20
14.905561
 30
0.0
 10
75.141797
 20
13.804887
 30
0.0
 10
74.718464
 20
12.619559
 30
0.0
 10
74.506800
 20
11.391887
 30
0.0
 10
74.422131
 20
10.164233
 30
0.0
 10
74.506800
 20
8.936564
 30
0.0
 10
74.803131
 20
7.751217
 30
0.0
 10
75.226467
 20
6.608233
 30
0.0
 10
75.819131
 20
5.507556
 30
0.0
 10
76.538797
 20
4.491567
 30
0.0
 10
77.385467
 20
3.602553
 30
0.0
 10
78.359131
 20
2.840553
 30
0.0
 10
79.417464
 20
2.247889
 30
0.0
 10
80.560466
 20
1.782220
 30
0.0
 10
81.788130
 20
1.443561
 30
0.0
 10
82.973466
 20
1.316567
 30
0.0
 10
84.243464
 20
1.358892
 30
0.0
 10
85.428800
 20
1.528231
 30
0.0
 10
86.614128
 20
1.909231
 30
0.0
 10
87.757128
 20
2.417225
 30
0.0
 10
88.773128
 20
3.094559
 30
0.0
 10
89.704466
 20
3.856559
 30
0.0
 10
90.551128
 20
4.787897
 30
0.0
 10
91.228461
 20
5.803889
 30
0.0
 10
91.778800
 20
6.946892
 30
0.0
 10
92.159800
 20
8.089892
 30
0.0
 10
92.371464
 20
9.317564
 30
0.0
  0
LWPOLYLINE
  5
132
100
AcDbEntity
  8
Layer_1
 62
7
100
AcDbPolyline
 90
46
 70
1
 10
73.702464
 20
10.291228
 30
0.0
 10
73.617795
 20
11.518897
 30
0.0
 10
73.363797
 20
12.746553
 30
0.0
 10
72.982797
 20
13.889556
 30
0.0
 10
72.390133
 20
14.990231
 30
0.0
 10
71.670467
 20
16.006223
 30
0.0
 10
70.823795
 20
16.895217
 30
0.0
 10
69.892464
 20
17.657220
 30
0.0
 10
68.834131
 20
18.292225
 30
0.0
 10
67.691131
 20
18.800220
 30
0.0
 10
66.505795
 20
19.138895
 30
0.0
 10
65.278131
 20
19.265889
 30
0.0
 10
64.050461
 20
19.265889
 30
0.0
 10
62.822797
 20
19.096553
 30
0.0
 10
61.637461
 20
18.757895
 30
0.0
 10
60.494461
 20
18.249900
 30
0.0
 10
59.478461
 20
17.614892
 30
0.0
 10
58.504797
 20
16.810564
 30
0.0
 10
57.658133
 20
15.921553
 30
0.0
 10
56.980795
 20
14.905561
 30
0.0
 10
56.430464
 20
13.804887
 30
0.0
 10
56.007128
 20
12.619559
 30
0.0
 10
55.795467
 20
11.391887
 30
0.0
 10
55.710797
 20
10.164233
 30
0.0
 10
55.837800
 20
8.936564
 30
0.0
 10
56.091797
 20
7.751217
 30
0.0
 10
56.515133
 20
6.608233
 30
0.0
 10
57.107797
 20
5.507556
 30
0.0
 10
57.827464
 20
4.491567
 30
0.0
 10
58.674133
 20
3.602553
 30
0.0
 10
59.647797
 20
2.840553
 30
0.0
 10
60.748467
 20
2.247889
 30
0.0
 10
61.891467
 20
1.782220
 30
0.0
 10
63.076797
 20
1.443561
 30
0.0
 10
64.304467
 20
1.316567
 30
0.0
 10
65.532128
 20
1.358892
 30
0.0
 10
66.759800
 20
1.528231
 30
0.0
 10
67.902795
 20
1.909231
 30
0.0
 10
69.045795
 20
2.417225
 30
0.0
 10
70.061795
 20
3.094559
 30
0.0
 10
71.035467
 20
3.856559
 30
0.0
 10
71.839795
 20
4.787897
 30
0.0
 10
72.517128
 20
5.803889
 30
0.0
 10
73.067464
 20
6.946892
 30
0.0
 10
73.448467
 20
8.089892
 30
0.0
 10
73.660131
 20
9.317564
 30
0.0
  0
LWPOLYLINE
  5
133
100
AcDbEntity
  8
Layer_1
 62
7
100
AcDbPolyline
 90
46
 70
1
 10
55.245128
 20
10.291228
 30
0.0
 10
55.160467
 20
11.518897
 30
0.0
 10
54.906461
 20
12.746553
 30
0.0
 10
54.525461
 20
13.889556
 30
0.0
 10
53.932797
 20
14.990231
 30
0.0
 10
53.213131
 20
16.006223
 30
0.0
 10
52.366464
 20
16.895217
 30
0.0
 10
51.435128
 20
17.657220
 30
0.0
 10
50.376795
 20
18.292225
 30
0.0
 10
49.233798
 20
18.800220
 30
0.0
 10
48.048467
 20
19.138895
 30
0.0
 10
46.820795
 20
19.265889
 30
0.0
 10
45.593128
 20
19.265889
 30
0.0
 10
44.365462
 20
19.096553
 30
0.0
 10
43.180131
 20
18.757895
 30
0.0
 10
42.037134
 20
18.249900
 30
0.0
 10
40.978800
 20
17.614892
 30
0.0
 10
40.047464
 20
16.810564
 30
0.0
 10
39.200798
 20
15.921553
 30
0.0
 10
38.523467
 20
14.905561
 30
0.0
 10
37.973131
 20
13.804887
 30
0.0
 10
37.549798
 20
12.619559
 30
0.0
 10
37.338131
 20
11.391887
 30
0.0
 10
37.253464
 20
10.164233
 30
0.0
 10
37.380464
 20
8.936564
 30
0.0
 10
37.634467
 20
7.751217
 30
0.0
 10
38.057798
 20
6.608233
 30
0.0
 10
38.650464
 20
5.507556
 30
0.0
 10
39.370131
 20
4.491567
 30
0.0
 10
40.216798
 20
3.602553
 30
0.0
 10
41.190462
 20
2.840553
 30
0.0
 10
42.248795
 20
2.247889
 30
0.0
 10
43.391798
 20
1.782220
 30
0.0
 10
44.619464
 20
1.443561
 30
0.0
 10
45.847131
 20
1.316567
 30
0.0
 10
47.074798
 20
1.358892
 30
0.0
 10
48.302464
 20
1.528231
 30
0.0
 10
49.445467
 20
1.909231
 30
0.0
 10
50.588464
 20
2.417225
 30
0.0
 10
51.604462
 20
3.094559
 30
0.0
 10
52.578131
 20
3.856559
 30
0.0
 10
53.382464
 20
4.787897
 30
0.0
 10
54.059795
 20
5.803889
 30
0.0
 10
54.610131
 20
6.946892
 30
0.0
 10
54.991131
 20
8.089892
 30
0.0
 10
55.202795
 20
9.317564
 30
0.0
  0
LWPOLYLINE
  5
134
100
AcDbEntity
  8
Layer_1
 62
7
100
AcDbPolyline
 90
46
 70
1
 10
36.787795
 20
10.291228
 30
0.0
 10
36.703131
 20
11.518897
 30
0.0
 10
36.449131
 20
12.746553
 30
0.0
 10
36.068128
 20
13.889556
 30
0.0
 10
35.475464
 20
14.990231
 30
0.0
 10
34.755798
 20
16.006223
 30
0.0
 10
33.909131
 20
16.895217
 30
0.0
 10
32.977798
 20
17.657220
 30
0.0
 10
31.919464
 20
18.292225
 30
0.0
 10
30.776462
 20
18.800220
 30
0.0
 10
29.591131
 20
19.138895
 30
0.0
 10
28.363464
 20
19.265889
 30
0.0
 10
27.135798
 20
19.265889
 30
0.0
 10
25.908131
 20
19.096553
 30
0.0
 10
24.722798
 20
18.757895
 30
0.0
 10
23.579798
 20
18.249900
 30
0.0
 10
22.521465
 20
17.614892
 30
0.0
 10
21.590134
 20
16.810564
 30
0.0
 10
20.743462
 20
15.921553
 30
0.0
 10
20.066131
 20
14.905561
 30
0.0
 10
19.515798
 20
13.804887
 30
0.0
 10
19.092465
 20
12.619559
 30
0.0
 10
18.880798
 20
11.391887
 30
0.0
 10
18.796131
 20
10.164233
 30
0.0
 10
18.880798
 20
8.936564
 30
0.0
 10
19.177131
 20
7.751217
 30
0.0
 10
19.600465
 20
6.608233
 30
0.0
 10
20.193131
 20
5.507556
 30
0.0
 10
20.912795
 20
4.491567
 30
0.0
 10
21.759467
 20
3.602553
 30
0.0
 10
22.733131
 20
2.840553
 30
0.0
 10
23.791465
 20
2.247889
 30
0.0
 10
24.934467
 20
1.782220
 30
0.0
 10
26.162134
 20
1.443561
 30
0.0
 10
27.389798
 20
1.316567
 30
0.0
 10
28.617464
 20
1.358892
 30
0.0
 10
29.802798
 20
1.528231
 30
0.0
 10
30.988131
 20
1.909231
 30
0.0
 10
32.131131
 20
2.417225
 30
0.0
 10
33.147131
 20
3.094559
 30
0.0
 10
34.078464
 20
3.856559
 30
0.0
 10
34.925131
 20
4.787897
 30
0.0
 10
35.602464
 20
5.803889
 30
0.0
 10
36.152798
 20
6.946892
 30
0.0
 10
36.533798
 20
8.089892
 30
0.0
 10
36.745467
 20
9.317564
 30
0.0
  0
LWPOLYLINE
  5
135
100
AcDbEntity
  8
Layer_1
 62
7
100
AcDbPolyline
 90
46
 70
1
 10
18.076465
 20
10.291228
 30
0.0
 10
17.991798
 20
11.518897
 30
0.0
 10
17.737798
 20
12.746553
 30
0.0
 10
17.356798
 20
13.889556
 30
0.0
 10
16.764131
 20
14.990231
 30
0.0
 10
16.044465
 20
16.006223
 30
0.0
 10
15.197798
 20
16.895217
 30
0.0
 10
14.266465
 20
17.657220
 30
0.0
 10
13.208131
 20
18.292225
 30
0.0
 10
12.065131
 20
18.800220
 30
0.0
 10
10.879797
 20
19.138895
 30
0.0
 10
9.652131
 20
19.265889
 30
0.0
 10
8.424464
 20
19.265889
 30
0.0
 10
7.196798
 20
19.096553
 30
0.0
 10
6.011465
 20
18.757895
 30
0.0
 10
4.868466
 20
18.249900
 30
0.0
 10
3.852465
 20
17.614892
 30
0.0
 10
2.878798
 20
16.810564
 30
0.0
 10
2.032132
 20
15.921553
 30
0.0
 10
1.354798
 20
14.905561
 30
0.0
 10
0.804464
 20
13.804887
 30
0.0
 10
0.381131
 20
12.619559
 30
0.0
 10
0.169465
 20
11.391887
 30
0.0
 10
0.084798
 20
10.164233
 30
0.0
 10
0.211798
 20
8.936564
 30
0.0
 10
0.465798
 20
7.751217
 30
0.0
 10
0.889132
 20
6.608233
 30
0.0
 10
1.481798
 20
5.507556
 30
0.0
 10
2.201465
 20
4.491567
 30
0.0
 10
3.048132
 20
3.602553
 30
0.0
 10
4.021798
 20
2.840553
 30
0.0
 10
5.122465
 20
2.247889
 30
0.0
 10
6.265465
 20
1.782220
 30
0.0
 10
7.450797
 20
1.443561
 30
0.0
 10
8.678464
 20
1.316567
 30
0.0
 10
9.906132
 20
1.358892
 30
0.0
 10
11.133799
 20
1.528231
 30
0.0
 10
12.276799
 20
1.909231
 30
0.0
 10
13.419798
 20
2.417225
 30
0.0
 10
14.435798
 20
3.094559
 30
0.0
 10
15.409465
 20
3.856559
 30
0.0
 10
16.213798
 20
4.787897
 30
0.0
 10
16.891131
 20
5.803889
 30
0.0
 10
17.441465
 20
6.946892
 30
0.0
 10
17.822465
 20
8.089892
 30
0.0
 10
18.034131
 20
9.317564
 30
0.0
  0
LWPOLYLINE
  5
136
100
AcDbEntity
  8
Layer_1
 62
7
100
AcDbPolyline
 90
4
 70
0
 10
110.828799
 20
9.317564
 30
0.0
 10
110.828799
 20
0.300559
 30
0.0
 10
125.814794
 20
0.300559
 30
0.0
 10
125.814794
 20
92.121560
 30
0.0
  0
LWPOLYLINE
  5
137
100
AcDbEntity
  8
Layer_1
 62
7
100
AcDbPolyline
 90
2
 70
0
 10
16.806465
 20
29.298886
 30
0.0
 10
104.817464
 20
29.298886
 30
0.0
  0
LWPOLYLINE
  5
138
100
AcDbEntity
  8
Layer_1
 62
7
100
AcDbPolyline
 90
2
 70
0
 10
110.828799
 20
35.310228
 30
0.0
 10
110.828799
 20
71.801555
 30
0.0
  0
LWPOLYLINE
  5
139
100
AcDbEntity
  8
Layer_1
 62
7
100
AcDbPolyline
 90
11
 70
0
 10
104.817464
 20
29.298886
 30
0.0
 10
105.833463
 20
29.383553
 30
0.0
 10
106.807128
 20
29.637558
 30
0.0
 10
107.738466
 20
30.060886
 30
0.0
 10
108.542794
 20
30.611225
 30
0.0
 10
109.304797
 20
31.288558
 30
0.0
 10
109.897461
 20
32.092892
 30
0.0
 10
110.363130
 20
32.981889
 30
0.0
 10
110.659461
 20
33.955561
 30
0.0
 10
110.828799
 20
34.971561
 30
0.0
 10
110.828799
 20
35.310228
 30
0.0
  0
LWPOLYLINE
  5
13a
100
AcDbEntity
  8
Layer_1
 62
7
100
AcDbPolyline
 90
2
 70
0
 10
0.846798
 20
71.335894
 30
0.0
 10
0.846798
 20
29.298886
 30
0.0
  0
LWPOLYLINE
  5
13b
100
AcDbEntity
  8
Layer_1
 62
7
100
AcDbPolyline
 90
2
 70
0
 10
10.837465
 20
57.958561
 30
0.0
 10
10.837465
 20
35.310228
 30
0.0
  0
LWPOLYLINE
  5
13c
100
AcDbEntity
  8
Layer_1
 62
7
100
AcDbPolyline
 90
2
 70
0
 10
107.780794
 20
107.996555
 30
0.0
 10
23.495131
 20
97.116894
 30
0.0
  0
LWPOLYLINE
  5
13d
100
AcDbEntity
  8
Layer_1
 62
7
100
AcDbPolyline
 90
2
 70
0
 10
125.814794
 20
87.591894
 30
0.0
 10
125.814794
 20
87.083891
 30
0.0
  0
LWPOLYLINE
  5
13e
100
AcDbEntity
  8
Layer_1
 62
7
100
AcDbPolyline
 90
2
 70
0
 10
100.838130
 20
21.297889
 30
0.0
 10
8.847799
 20
21.297889
 30
0.0
  0
LWPOLYLINE
  5
13f
100
AcDbEntity
  8
Layer_1
 62
7
100
AcDbPolyline
 90
15
 70
0
 10
110.828799
 20
9.317564
 30
0.0
 10
110.828799
 20
11.307220
 30
0.0
 10
110.744130
 20
12.619559
 30
0.0
 10
110.490133
 20
13.889556
 30
0.0
 10
110.066797
 20
15.117225
 30
0.0
 10
109.516466
 20
16.260228
 30
0.0
 10
108.796799
 20
17.360887
 30
0.0
 10
107.950130
 20
18.334551
 30
0.0
 10
106.976466
 20
19.223564
 30
0.0
 10
105.875797
 20
19.943223
 30
0.0
 10
104.732797
 20
20.535887
 30
0.0
 10
103.505133
 20
20.959230
 30
0.0
 10
102.192794
 20
21.213220
 30
0.0
 10
100.922797
 20
21.297889
 30
0.0
 10
100.838130
 20
21.297889
 30
0.0
  0
LWPOLYLINE
  5
140
100
AcDbEntity
  8
Layer_1
 62
7
100
AcDbPolyline
 90
12
 70
0
 10
8.847799
 20
21.297889
 30
0.0
 10
7.662465
 20
21.382556
 30
0.0
 10
6.519465
 20
21.636564
 30
0.0
 10
5.461132
 20
22.059889
 30
0.0
 10
4.445131
 20
22.610228
 30
0.0
 10
3.513798
 20
23.329887
 30
0.0
 10
2.709465
 20
24.176556
 30
0.0
 10
2.032132
 20
25.107894
 30
0.0
 10
1.481798
 20
26.123886
 30
0.0
 10
1.100798
 20
27.224561
 30
0.0
 10
0.889132
 20
28.367564
 30
0.0
 10
0.846798
 20
29.298886
 30
0.0
  0
LWPOLYLINE
  5
141
100
AcDbEntity
  8
Layer_1
 62
7
100
AcDbPolyline
 90
11
 70
0
 10
16.806465
 20
29.298886
 30
0.0
 10
15.832798
 20
29.383553
 30
0.0
 10
14.859131
 20
29.637558
 30
0.0
 10
13.927798
 20
30.060886
 30
0.0
 10
13.081131
 20
30.611225
 30
0.0
 10
12.361465
 20
31.288558
 30
0.0
 10
11.768797
 20
32.092892
 30
0.0
 10
11.303132
 20
32.981889
 30
0.0
 10
10.964466
 20
33.955561
 30
0.0
 10
10.837465
 20
34.971561
 30
0.0
 10
10.837465
 20
35.310228
 30
0.0
  0
LWPOLYLINE
  5
142
100
AcDbEntity
  8
Layer_1
 62
7
100
AcDbPolyline
 90
2
 70
0
 10
99.525797
 20
81.749891
 30
0.0
 10
23.029462
 20
71.843889
 30
0.0
  0
LWPOLYLINE
  5
143
100
AcDbEntity
  8
Layer_1
 62
7
100
AcDbPolyline
 90
15
 70
0
 10
99.525797
 20
81.749891
 30
0.0
 10
100.838130
 20
81.834558
 30
0.0
 10
102.150461
 20
81.749891
 30
0.0
 10
103.420466
 20
81.495891
 30
0.0
 10
104.648128
 20
81.072558
 30
0.0
 10
105.833463
 20
80.479894
 30
0.0
 10
106.891797
 20
79.760227
 30
0.0
 10
107.865461
 20
78.913558
 30
0.0
 10
108.754466
 20
77.939891
 30
0.0
 10
109.474133
 20
76.839224
 30
0.0
 10
110.066797
 20
75.696222
 30
0.0
 10
110.490133
 20
74.468560
 30
0.0
 10
110.744130
 20
73.198555
 30
0.0
 10
110.828799
 20
71.886225
 30
0.0
 10
110.828799
 20
71.801555
 30
0.0
  0
LWPOLYLINE
  5
144
100
AcDbEntity
  8
Layer_1
 62
7
100
AcDbPolyline
 90
18
 70
0
 10
125.814794
 20
92.121560
 30
0.0
 10
125.730125
 20
93.772558
 30
0.0
 10
125.476135
 20
95.423555
 30
0.0
 10
125.052791
 20
96.989891
 30
0.0
 10
124.502471
 20
98.556222
 30
0.0
 10
123.740469
 20
99.995558
 30
0.0
 10
122.893799
 20
101.392557
 30
0.0
 10
121.835466
 20
102.704888
 30
0.0
 10
120.692463
 20
103.890224
 30
0.0
 10
119.464794
 20
104.948557
 30
0.0
 10
118.067794
 20
105.837560
 30
0.0
 10
116.628461
 20
106.641891
 30
0.0
 10
115.104466
 20
107.234557
 30
0.0
 10
113.538130
 20
107.700224
 30
0.0
 10
111.887133
 20
107.996555
 30
0.0
 10
110.278461
 20
108.123557
 30
0.0
 10
108.627463
 20
108.081224
 30
0.0
 10
107.780794
 20
107.996555
 30
0.0
  0
LWPOLYLINE
  5
145
100
AcDbEntity
  8
Layer_1
 62
7
100
AcDbPolyline
 90
2
 70
0
 10
134.493125
 20
70.319894
 30
0.0
 10
122.597469
 20
70.319894
 30
0.0
  0
LWPOLYLINE
  5
146
100
AcDbEntity
  8
Layer_1
 62
7
100
AcDbPolyline
 90
2
 70
0
 10
121.115799
 20
70.319894
 30
0.0
 10
119.634130
 20
70.319894
 30
0.0
  0
LWPOLYLINE
  5
147
100
AcDbEntity
  8
Layer_1
 62
7
100
AcDbPolyline
 90
2
 70
0
 10
118.110130
 20
70.319894
 30
0.0
 10
106.256799
 20
70.319894
 30
0.0
  0
LWPOLYLINE
  5
148
100
AcDbEntity
  8
Layer_1
 62
7
100
AcDbPolyline
 90
2
 70
0
 10
105.621799
 20
10.291228
 30
0.0
 10
113.368799
 20
10.291228
 30
0.0
  0
LWPOLYLINE
  5
149
100
AcDbEntity
  8
Layer_1
 62
7
100
AcDbPolyline
 90
2
 70
0
 10
114.850461
 20
10.291228
 30
0.0
 10
116.374463
 20
10.291228
 30
0.0
  0
LWPOLYLINE
  5
14a
100
AcDbEntity
  8
Layer_1
 62
7
100
AcDbPolyline
 90
2
 70
0
 10
117.856130
 20
10.291228
 30
0.0
 10
125.603130
 20
10.291228
 30
0.0
  0
LWPOLYLINE
  5
14b
100
AcDbEntity
  8
Layer_1
 62
7
100
AcDbPolyline
 90
2
 70
0
 10
127.084791
 20
10.291228
 30
0.0
 10
128.608794
 20
10.291228
 30
0.0
  0
LWPOLYLINE
  5
14c
100
AcDbEntity
  8
Layer_1
 62
7
100
AcDbPolyline
 90
2
 70
0
 10
130.090468
 20
10.291228
 30
0.0
 10
137.795135
 20
10.291228
 30
0.0
  0
LWPOLYLINE
  5
14d
100
AcDbEntity
  8
Layer_1
 62
7
100
AcDbPolyline
 90
4
 70
0
 10
110.828799
 20
65.282227
 30
0.0
 10
115.824133
 20
65.282227
 30
0.0
 10
115.824133
 20
75.315222
 30
0.0
 10
110.193799
 20
75.315222
 30
0.0
  0
LWPOLYLINE
  5
14e
100
AcDbEntity
  8
Layer_1
 62
7
100
AcDbPolyline
 90
4
 70
0
 10
110.828799
 20
5.295892
 30
0.0
 10
115.824133
 20
5.295892
 30
0.0
 10
115.824133
 20
15.286564
 30
0.0
 10
109.982127
 20
15.286564
 30
0.0
  0
LWPOLYLINE
  5
14f
100
AcDbEntity
  8
Layer_1
 62
7
100
AcDbPolyline
 90
4
 70
0
 10
125.814794
 20
8.809551
 30
0.0
 10
115.824133
 20
8.809551
 30
0.0
 10
115.824133
 20
11.815231
 30
0.0
 10
125.814794
 20
11.815231
 30
0.0
  0
LWPOLYLINE
  5
150
100
AcDbEntity
  8
Layer_1
 62
7
100
AcDbPolyline
 90
4
 70
0
 10
125.814794
 20
68.795891
 30
0.0
 10
115.824133
 20
68.795891
 30
0.0
 10
115.824133
 20
71.801555
 30
0.0
 10
125.814794
 20
71.801555
 30
0.0
  0
LWPOLYLINE
  5
151
100
AcDbEntity
  8
Layer_1
 62
7
100
AcDbPolyline
 90
15
 70
0
 10
10.837465
 20
57.958561
 30
0.0
 10
10.922131
 20
59.482555
 30
0.0
 10
11.176131
 20
61.006558
 30
0.0
 10
11.599464
 20
62.488227
 30
0.0
 10
12.149798
 20
63.927561
 30
0.0
 10
12.911797
 20
65.282227
 30
0.0
 10
13.758465
 20
66.552222
 30
0.0
 10
14.774465
 20
67.695225
 30
0.0
 10
15.917465
 20
68.753558
 30
0.0
 10
17.145131
 20
69.642555
 30
0.0
 10
18.457465
 20
70.446891
 30
0.0
 10
19.896798
 20
71.039555
 30
0.0
 10
21.336131
 20
71.505225
 30
0.0
 10
22.860129
 20
71.801555
 30
0.0
 10
23.029462
 20
71.843889
 30
0.0
  0
LWPOLYLINE
  5
152
100
AcDbEntity
  8
Layer_1
 62
7
100
AcDbPolyline
 90
19
 70
0
 10
0.846798
 20
71.335894
 30
0.0
 10
0.931465
 20
73.410227
 30
0.0
 10
1.185465
 20
75.484558
 30
0.0
 10
1.566465
 20
77.558891
 30
0.0
 10
2.159132
 20
79.590888
 30
0.0
 10
2.921131
 20
81.538227
 30
0.0
 10
3.810132
 20
83.443222
 30
0.0
 10
4.868466
 20
85.263558
 30
0.0
 10
6.053798
 20
86.956888
 30
0.0
 10
7.408465
 20
88.607894
 30
0.0
 10
8.847799
 20
90.089555
 30
0.0
 10
10.414132
 20
91.486560
 30
0.0
 10
12.107465
 20
92.756558
 30
0.0
 10
13.885465
 20
93.857227
 30
0.0
 10
15.748131
 20
94.830891
 30
0.0
 10
17.653131
 20
95.677560
 30
0.0
 10
19.642798
 20
96.312558
 30
0.0
 10
21.674798
 20
96.820555
 30
0.0
 10
23.495131
 20
97.116894
 30
0.0
  0
LWPOLYLINE
  5
153
100
AcDbEntity
  8
Layer_1
 62
7
100
AcDbPolyline
 90
19
 70
1
 10
79.629128
 20
82.977560
 30
0.0
 10
79.544461
 20
83.485555
 30
0.0
 10
79.290461
 20
83.951224
 30
0.0
 10
78.951797
 20
84.289891
 30
0.0
 10
78.443800
 20
84.501555
 30
0.0
 10
77.935797
 20
84.543888
 30
0.0
 10
77.470128
 20
84.416894
 30
0.0
 10
77.046800
 20
84.120555
 30
0.0
 10
76.708133
 20
83.739555
 30
0.0
 10
76.538797
 20
83.231558
 30
0.0
 10
76.538797
 20
82.723555
 30
0.0
 10
76.708133
 20
82.257894
 30
0.0
 10
77.046800
 20
81.834558
 30
0.0
 10
77.470128
 20
81.580560
 30
0.0
 10
77.935797
 20
81.453558
 30
0.0
 10
78.443800
 20
81.495891
 30
0.0
 10
78.909461
 20
81.665222
 30
0.0
 10
79.290461
 20
82.046222
 30
0.0
 10
79.544461
 20
82.469558
 30
0.0
  0
LWPOLYLINE
  5
154
100
AcDbEntity
  8
Layer_1
 62
7
100
AcDbPolyline
 90
19
 70
1
 10
106.595466
 20
100.588222
 30
0.0
 10
106.510797
 20
101.096227
 30
0.0
 10
106.256799
 20
101.561891
 30
0.0
 10
105.875797
 20
101.900557
 30
0.0
 10
105.410130
 20
102.112224
 30
0.0
 10
104.902133
 20
102.154560
 30
0.0
 10
104.436464
 20
102.027557
 30
0.0
 10
104.013130
 20
101.731224
 30
0.0
 10
103.674464
 20
101.350224
 30
0.0
 10
103.505133
 20
100.842224
 30
0.0
 10
103.505133
 20
100.334224
 30
0.0
 10
103.674464
 20
99.868560
 30
0.0
 10
104.013130
 20
99.445224
 30
0.0
 10
104.436464
 20
99.191224
 30
0.0
 10
104.944461
 20
99.064224
 30
0.0
 10
105.452464
 20
99.106558
 30
0.0
 10
105.918133
 20
99.318227
 30
0.0
 10
106.256799
 20
99.656891
 30
0.0
 10
106.510797
 20
100.080224
 30
0.0
  0
LWPOLYLINE
  5
155
100
AcDbEntity
  8
Layer_1
 62
7
100
AcDbPolyline
 90
2
 70
0
 10
66.971464
 20
102.747224
 30
0.0
 10
67.606461
 20
97.751894
 30
0.0
  0
LWPOLYLINE
  5
156
100
AcDbEntity
  8
Layer_1
 62
7
100
AcDbPolyline
 90
2
 70
0
 10
107.780794
 20
107.996555
 30
0.0
 10
108.246463
 20
103.043560
 30
0.0
  0
LWPOLYLINE
  5
157
100
AcDbEntity
  8
Layer_1
 62
7
100
AcDbPolyline
 90
15
 70
0
 10
120.819461
 20
92.121560
 30
0.0
 10
120.734799
 20
93.518560
 30
0.0
 10
120.480794
 20
94.830891
 30
0.0
 10
120.057466
 20
96.143222
 30
0.0
 10
119.507127
 20
97.370891
 30
0.0
 10
118.787461
 20
98.556222
 30
0.0
 10
117.898466
 20
99.614558
 30
0.0
 10
116.924799
 20
100.545893
 30
0.0
 10
115.824133
 20
101.350224
 30
0.0
 10
114.638797
 20
102.027557
 30
0.0
 10
113.411127
 20
102.535555
 30
0.0
 10
112.056461
 20
102.916557
 30
0.0
 10
110.744130
 20
103.085891
 30
0.0
 10
109.347130
 20
103.128224
 30
0.0
 10
108.415799
 20
103.043560
 30
0.0
  0
LWPOLYLINE
  5
158
100
AcDbEntity
  8
Layer_1
 62
7
100
AcDbPolyline
 90
2
 70
0
 10
120.819461
 20
92.121560
 30
0.0
 10
120.819461
 20
91.740560
 30
0.0
  0
LWPOLYLINE
  5
159
100
AcDbEntity
  8
Layer_1
 62
7
100
AcDbPolyline
 90
2
 70
0
 10
122.343463
 20
90.258891
 30
0.0
 10
125.814794
 20
90.258891
 30
0.0
  0
LWPOLYLINE
  5
15a
100
AcDbEntity
  8
Layer_1
 62
7
100
AcDbPolyline
 90
6
 70
0
 10
122.343463
 20
90.258891
 30
0.0
 10
121.835466
 20
90.343560
 30
0.0
 10
121.412133
 20
90.555224
 30
0.0
 10
121.073466
 20
90.936224
 30
0.0
 10
120.861794
 20
91.401894
 30
0.0
 10
120.819461
 20
91.740560
 30
0.0
  0
LWPOLYLINE
  5
15b
100
AcDbEntity
  8
Layer_1
 62
7
100
AcDbPolyline
 90
2
 70
0
 10
96.096800
 20
106.514891
 30
0.0
 10
96.520128
 20
103.128224
 30
0.0
  0
LWPOLYLINE
  5
15c
100
AcDbEntity
  8
Layer_1
 62
7
100
AcDbPolyline
 90
2
 70
0
 10
96.774133
 20
101.138557
 30
0.0
 10
97.197461
 20
97.751894
 30
0.0
  0
LWPOLYLINE
  5
15d
100
AcDbEntity
  8
Layer_1
 62
7
100
AcDbPolyline
 90
2
 70
0
 10
97.451466
 20
95.804555
 30
0.0
 10
97.917128
 20
92.417891
 30
0.0
  0
LWPOLYLINE
  5
15e
100
AcDbEntity
  8
Layer_1
 62
7
100
AcDbPolyline
 90
2
 70
0
 10
98.171133
 20
90.428227
 30
0.0
 10
98.594461
 20
87.041558
 30
0.0
  0
LWPOLYLINE
  5
15f
100
AcDbEntity
  8
Layer_1
 62
7
100
AcDbPolyline
 90
2
 70
0
 10
98.848466
 20
85.094227
 30
0.0
 10
99.271800
 20
81.707555
 30
0.0
  0
LWPOLYLINE
  5
160
100
AcDbEntity
  8
Layer_1
 62
7
100
AcDbPolyline
 90
2
 70
0
 10
10.837465
 20
38.866228
 30
0.0
 10
6.815799
 20
38.866228
 30
0.0
  0
LWPOLYLINE
  5
161
100
AcDbEntity
  8
Layer_1
 62
7
100
AcDbPolyline
 90
2
 70
0
 10
4.826131
 20
38.866228
 30
0.0
 10
0.846798
 20
38.866228
 30
0.0
  0
LWPOLYLINE
  5
162
100
AcDbEntity
  8
Layer_1
 62
7
100
AcDbPolyline
 90
13
 70
1
 10
153.373802
 20
103.043560
 30
0.0
 10
154.008794
 20
102.958891
 30
0.0
 10
154.051135
 20
103.001224
 30
0.0
 10
154.940132
 20
103.678557
 30
0.0
 10
155.956122
 20
104.017224
 30
0.0
 10
157.056799
 20
104.059557
 30
0.0
 10
158.115132
 20
103.763221
 30
0.0
 10
159.004127
 20
103.128224
 30
0.0
 10
159.681460
 20
102.281557
 30
0.0
 10
159.681460
 20
102.196891
 30
0.0
 10
194.056121
 20
97.751894
 30
0.0
 10
191.473801
 20
77.939891
 30
0.0
 10
150.833794
 20
83.189224
 30
0.0
  0
LWPOLYLINE
  5
163
100
AcDbEntity
  8
Layer_1
 62
7
100
AcDbPolyline
 90
20
 70
1
 10
156.887460
 20
99.021891
 30
0.0
 10
157.353130
 20
99.191224
 30
0.0
 10
157.776458
 20
99.487560
 30
0.0
 10
158.072788
 20
99.910891
 30
0.0
 10
158.199799
 20
100.376560
 30
0.0
 10
158.199799
 20
100.884557
 30
0.0
 10
158.030463
 20
101.350224
 30
0.0
 10
157.691788
 20
101.773557
 30
0.0
 10
157.310804
 20
102.027557
 30
0.0
 10
156.802791
 20
102.196891
 30
0.0
 10
156.294796
 20
102.154560
 30
0.0
 10
155.829127
 20
101.985227
 30
0.0
 10
155.448127
 20
101.688891
 30
0.0
 10
155.151796
 20
101.265560
 30
0.0
 10
155.024799
 20
100.799891
 30
0.0
 10
155.024799
 20
100.291891
 30
0.0
 10
155.194137
 20
99.826224
 30
0.0
 10
155.490468
 20
99.445224
 30
0.0
 10
155.913796
 20
99.148893
 30
0.0
 10
156.421791
 20
99.021891
 30
0.0
  0
LWPOLYLINE
  5
164
100
AcDbEntity
  8
Layer_1
 62
7
100
AcDbPolyline
 90
30
 70
1
 10
183.515132
 20
81.453558
 30
0.0
 10
183.853791
 20
81.453558
 30
0.0
 10
184.150121
 20
81.580560
 30
0.0
 10
184.446470
 20
81.707555
 30
0.0
 10
184.700460
 20
81.919227
 30
0.0
 10
184.912124
 20
82.173224
 30
0.0
 10
185.039134
 20
82.469558
 30
0.0
 10
185.123801
 20
82.808224
 30
0.0
 10
185.123801
 20
83.104555
 30
0.0
 10
185.039134
 20
83.443222
 30
0.0
 10
184.912124
 20
83.739555
 30
0.0
 10
184.742801
 20
83.993560
 30
0.0
 10
184.531121
 20
84.247558
 30
0.0
 10
184.234791
 20
84.374560
 30
0.0
 10
183.938457
 20
84.501555
 30
0.0
 10
183.599799
 20
84.543888
 30
0.0
 10
183.303468
 20
84.501555
 30
0.0
 10
182.964793
 20
84.416894
 30
0.0
 10
182.710804
 20
84.289891
 30
0.0
 10
182.456799
 20
84.078227
 30
0.0
 10
182.245134
 20
83.781888
 30
0.0
 10
182.118124
 20
83.527891
 30
0.0
 10
182.033455
 20
83.189224
 30
0.0
 10
182.033455
 20
82.850558
 30
0.0
 10
182.075796
 20
82.554224
 30
0.0
 10
182.202791
 20
82.257894
 30
0.0
 10
182.414455
 20
82.003888
 30
0.0
 10
182.626134
 20
81.749891
 30
0.0
 10
182.922468
 20
81.580560
 30
0.0
 10
183.218799
 20
81.495891
 30
0.0
  0
LWPOLYLINE
  5
165
100
AcDbEntity
  8
Layer_1
 62
7
100
AcDbPolyline
 90
13
 70
1
 10
108.246463
 20
103.043560
 30
0.0
 10
107.611463
 20
102.958891
 30
0.0
 10
107.611463
 20
103.001224
 30
0.0
 10
106.722461
 20
103.678557
 30
0.0
 10
105.706461
 20
104.017224
 30
0.0
 10
104.605794
 20
104.059557
 30
0.0
 10
103.547461
 20
103.763221
 30
0.0
 10
102.658464
 20
103.128224
 30
0.0
 10
101.981130
 20
102.281557
 30
0.0
 10
101.938797
 20
102.196891
 30
0.0
 10
67.606461
 20
97.751894
 30
0.0
 10
70.146464
 20
77.939891
 30
0.0
 10
110.828799
 20
83.189224
 30
0.0
  0
LWPOLYLINE
  5
166
100
AcDbEntity
  8
Layer_1
 62
7
100
AcDbPolyline
 90
20
 70
1
 10
104.732797
 20
99.021891
 30
0.0
 10
104.267128
 20
99.191224
 30
0.0
 10
103.886128
 20
99.487560
 30
0.0
 10
103.589794
 20
99.910891
 30
0.0
 10
103.462800
 20
100.376560
 30
0.0
 10
103.462800
 20
100.884557
 30
0.0
 10
103.632128
 20
101.350224
 30
0.0
 10
103.928461
 20
101.773557
 30
0.0
 10
104.351797
 20
102.027557
 30
0.0
 10
104.859799
 20
102.196891
 30
0.0
 10
105.325461
 20
102.154560
 30
0.0
 10
105.833463
 20
101.985227
 30
0.0
 10
106.214463
 20
101.688891
 30
0.0
 10
106.510797
 20
101.265560
 30
0.0
 10
106.637799
 20
100.799891
 30
0.0
 10
106.637799
 20
100.291891
 30
0.0
 10
106.468463
 20
99.826224
 30
0.0
 10
106.129797
 20
99.445224
 30
0.0
 10
105.748794
 20
99.148893
 30
0.0
 10
105.240799
 20
99.021891
 30
0.0
  0
LWPOLYLINE
  5
167
100
AcDbEntity
  8
Layer_1
 62
7
100
AcDbPolyline
 90
30
 70
1
 10
78.105133
 20
81.453558
 30
0.0
 10
77.808795
 20
81.453558
 30
0.0
 10
77.470128
 20
81.580560
 30
0.0
 10
77.216131
 20
81.707555
 30
0.0
 10
76.962133
 20
81.919227
 30
0.0
 10
76.750461
 20
82.173224
 30
0.0
 10
76.623467
 20
82.469558
 30
0.0
 10
76.538797
 20
82.808224
 30
0.0
 10
76.538797
 20
83.104555
 30
0.0
 10
76.581131
 20
83.443222
 30
0.0
 10
76.708133
 20
83.739555
 30
0.0
 10
76.919797
 20
83.993560
 30
0.0
 10
77.131461
 20
84.247558
 30
0.0
 10
77.427795
 20
84.374560
 30
0.0
 10
77.724133
 20
84.501555
 30
0.0
 10
78.062800
 20
84.543888
 30
0.0
 10
78.359131
 20
84.501555
 30
0.0
 10
78.697797
 20
84.416894
 30
0.0
 10
78.951797
 20
84.289891
 30
0.0
 10
79.205795
 20
84.078227
 30
0.0
 10
79.417464
 20
83.781888
 30
0.0
 10
79.544461
 20
83.527891
 30
0.0
 10
79.629128
 20
83.189224
 30
0.0
 10
79.629128
 20
82.850558
 30
0.0
 10
79.586795
 20
82.554224
 30
0.0
 10
79.459800
 20
82.257894
 30
0.0
 10
79.248128
 20
82.003888
 30
0.0
 10
79.036464
 20
81.749891
 30
0.0
 10
78.740133
 20
81.580560
 30
0.0
 10
78.443800
 20
81.495891
 30
0.0
  0
ENDSEC
  0
SECTION
  2
OBJECTS
  0
DICTIONARY
  5
C
330
0
100
AcDbDictionary
  3
ACAD_GROUP
350
D
  3
ACAD_MLINESTYLE
350
17
  0
DICTIONARY
  5
D
330
C
100
AcDbDictionary
  0
DICTIONARY
  5
1A
330
C
100
AcDbDictionary
  0
DICTIONARY
  5
17
330
C
100
AcDbDictionary
  3
STANDARD
350
18
  0
DICTIONARY
  5
19
330
C
100
AcDbDictionary
  0
ENDSEC
  0
EOF
