  0
SECTION
  2
BLOCKS
  0
ENDSEC
  0
SECTION
  2
ENTITIES
  0
LINE
  8
0
 10
-92
 20
-51
 11
-90.0204
 21
-51
  0
LINE
  8
0
 10
-90.0204
 20
-51
 11
-90.0204
 21
-50
  0
LINE
  8
0
 10
-90.0204
 20
-50
 11
-34.9796
 21
-50
  0
LINE
  8
0
 10
-34.9796
 20
-50
 11
-34.9796
 21
-51
  0
LINE
  8
0
 10
-34.9796
 20
-51
 11
-33
 21
-51
  0
LINE
  8
0
 10
-33
 20
-51
 11
-33
 21
-65
  0
LINE
  8
0
 10
-33
 20
-65
 11
-27
 21
-65
  0
LINE
  8
0
 10
-27
 20
-65
 11
-27
 21
-51
  0
LINE
  8
0
 10
-27
 20
-51
 11
-25.0203
 21
-51
  0
LINE
  8
0
 10
-25.0203
 20
-51
 11
-25.0203
 21
-50
  0
LINE
  8
0
 10
-25.0203
 20
-50
 11
-7
 21
-50
  0
LINE
  8
0
 10
-7
 20
-50
 11
-7
 21
100
  0
LINE
  8
0
 10
-7
 20
100
 11
-105
 21
100
  0
LINE
  8
0
 10
-105
 20
100
 11
-105
 21
-50
  0
LINE
  8
0
 10
-105
 20
-50
 11
-99.9796
 21
-50
  0
LINE
  8
0
 10
-99.9796
 20
-50
 11
-99.9796
 21
-51
  0
LINE
  8
0
 10
-99.9796
 20
-51
 11
-98
 21
-51
  0
LINE
  8
0
 10
-98
 20
-51
 11
-98
 21
-65
  0
LINE
  8
0
 10
-98
 20
-65
 11
-92
 21
-65
  0
LINE
  8
0
 10
-92
 20
-65
 11
-92
 21
-51
  0
LINE
  8
0
 10
-57.4079
 20
56.1108
 11
-58.7811
 21
56.4405
  0
LINE
  8
0
 10
-58.7811
 20
56.4405
 11
-60.0859
 21
56.9809
  0
LINE
  8
0
 10
-60.0859
 20
56.9809
 11
-61.2901
 21
57.7188
  0
LINE
  8
0
 10
-61.2901
 20
57.7188
 11
-62.364
 21
58.636
  0
LINE
  8
0
 10
-62.364
 20
58.636
 11
-63.2811
 21
59.7099
  0
LINE
  8
0
 10
-63.2811
 20
59.7099
 11
-64.0191
 21
60.9141
  0
LINE
  8
0
 10
-64.0191
 20
60.9141
 11
-64.5595
 21
62.2188
  0
LINE
  8
0
 10
-64.5595
 20
62.2188
 11
-64.8892
 21
63.5921
  0
LINE
  8
0
 10
-64.8892
 20
63.5921
 11
-65
 21
65
  0
LINE
  8
0
 10
-65
 20
65
 11
-64.8892
 21
66.4079
  0
LINE
  8
0
 10
-64.8892
 20
66.4079
 11
-64.5595
 21
67.7811
  0
LINE
  8
0
 10
-64.5595
 20
67.7811
 11
-64.0191
 21
69.0859
  0
LINE
  8
0
 10
-64.0191
 20
69.0859
 11
-63.2811
 21
70.2901
  0
LINE
  8
0
 10
-63.2811
 20
70.2901
 11
-62.364
 21
71.364
  0
LINE
  8
0
 10
-62.364
 20
71.364
 11
-61.2901
 21
72.2811
  0
LINE
  8
0
 10
-61.2901
 20
72.2811
 11
-60.0859
 21
73.0191
  0
LINE
  8
0
 10
-60.0859
 20
73.0191
 11
-58.7811
 21
73.5595
  0
LINE
  8
0
 10
-58.7811
 20
73.5595
 11
-57.4079
 21
73.8892
  0
LINE
  8
0
 10
-57.4079
 20
73.8892
 11
-56
 21
74
  0
LINE
  8
0
 10
-56
 20
74
 11
-54.5921
 21
73.8892
  0
LINE
  8
0
 10
-54.5921
 20
73.8892
 11
-53.2188
 21
73.5595
  0
LINE
  8
0
 10
-53.2188
 20
73.5595
 11
-51.9141
 21
73.0191
  0
LINE
  8
0
 10
-51.9141
 20
73.0191
 11
-50.7099
 21
72.2811
  0
LINE
  8
0
 10
-50.7099
 20
72.2811
 11
-49.636
 21
71.364
  0
LINE
  8
0
 10
-49.636
 20
71.364
 11
-48.7188
 21
70.2901
  0
LINE
  8
0
 10
-48.7188
 20
70.2901
 11
-47.9809
 21
69.0859
  0
LINE
  8
0
 10
-47.9809
 20
69.0859
 11
-47.4405
 21
67.7811
  0
LINE
  8
0
 10
-47.4405
 20
67.7811
 11
-47.1108
 21
66.4079
  0
LINE
  8
0
 10
-47.1108
 20
66.4079
 11
-47
 21
65
  0
LINE
  8
0
 10
-47
 20
65
 11
-47.1108
 21
63.5921
  0
LINE
  8
0
 10
-47.1108
 20
63.5921
 11
-47.4405
 21
62.2188
  0
LINE
  8
0
 10
-47.4405
 20
62.2188
 11
-47.9809
 21
60.9141
  0
LINE
  8
0
 10
-47.9809
 20
60.9141
 11
-48.7188
 21
59.7099
  0
LINE
  8
0
 10
-48.7188
 20
59.7099
 11
-49.636
 21
58.636
  0
LINE
  8
0
 10
-49.636
 20
58.636
 11
-50.7099
 21
57.7188
  0
LINE
  8
0
 10
-50.7099
 20
57.7188
 11
-51.9141
 21
56.9809
  0
LINE
  8
0
 10
-51.9141
 20
56.9809
 11
-53.2188
 21
56.4405
  0
LINE
  8
0
 10
-53.2188
 20
56.4405
 11
-54.5921
 21
56.1108
  0
LINE
  8
0
 10
-54.5921
 20
56.1108
 11
-56
 21
56
  0
LINE
  8
0
 10
-56
 20
56
 11
-57.4079
 21
56.1108
  0
LINE
  8
0
 10
-59.9109
 20
-34.6922
 11
-63.7254
 21
-33.7764
  0
LINE
  8
0
 10
-63.7254
 20
-33.7764
 11
-67.3498
 21
-32.2752
  0
LINE
  8
0
 10
-67.3498
 20
-32.2752
 11
-70.6946
 21
-30.2254
  0
LINE
  8
0
 10
-70.6946
 20
-30.2254
 11
-73.6777
 21
-27.6777
  0
LINE
  8
0
 10
-73.6777
 20
-27.6777
 11
-76.2254
 21
-24.6946
  0
LINE
  8
0
 10
-76.2254
 20
-24.6946
 11
-78.2752
 21
-21.3498
  0
LINE
  8
0
 10
-78.2752
 20
-21.3498
 11
-79.7764
 21
-17.7254
  0
LINE
  8
0
 10
-79.7764
 20
-17.7254
 11
-80.6922
 21
-13.9109
  0
LINE
  8
0
 10
-80.6922
 20
-13.9109
 11
-81
 21
-10
  0
LINE
  8
0
 10
-81
 20
-10
 11
-81
 21
0
  0
LINE
  8
0
 10
-81
 20
0
 11
-80.6922
 21
3.91086
  0
LINE
  8
0
 10
-80.6922
 20
3.91086
 11
-79.7764
 21
7.72542
  0
LINE
  8
0
 10
-79.7764
 20
7.72542
 11
-78.2752
 21
11.3498
  0
LINE
  8
0
 10
-78.2752
 20
11.3498
 11
-76.2254
 21
14.6946
  0
LINE
  8
0
 10
-76.2254
 20
14.6946
 11
-73.6777
 21
17.6777
  0
LINE
  8
0
 10
-73.6777
 20
17.6777
 11
-70.6946
 21
20.2254
  0
LINE
  8
0
 10
-70.6946
 20
20.2254
 11
-67.3498
 21
22.2752
  0
LINE
  8
0
 10
-67.3498
 20
22.2752
 11
-63.7254
 21
23.7764
  0
LINE
  8
0
 10
-63.7254
 20
23.7764
 11
-59.9109
 21
24.6922
  0
LINE
  8
0
 10
-59.9109
 20
24.6922
 11
-56
 21
25
  0
LINE
  8
0
 10
-56
 20
25
 11
-52.0891
 21
24.6922
  0
LINE
  8
0
 10
-52.0891
 20
24.6922
 11
-48.2746
 21
23.7764
  0
LINE
  8
0
 10
-48.2746
 20
23.7764
 11
-44.6502
 21
22.2752
  0
LINE
  8
0
 10
-44.6502
 20
22.2752
 11
-41.3054
 21
20.2254
  0
LINE
  8
0
 10
-41.3054
 20
20.2254
 11
-38.3223
 21
17.6777
  0
LINE
  8
0
 10
-38.3223
 20
17.6777
 11
-35.7746
 21
14.6946
  0
LINE
  8
0
 10
-35.7746
 20
14.6946
 11
-33.7248
 21
11.3498
  0
LINE
  8
0
 10
-33.7248
 20
11.3498
 11
-32.2236
 21
7.72542
  0
LINE
  8
0
 10
-32.2236
 20
7.72542
 11
-31.3078
 21
3.91086
  0
LINE
  8
0
 10
-31.3078
 20
3.91086
 11
-31
 21
0
  0
LINE
  8
0
 10
-31
 20
0
 11
-31
 21
-10
  0
LINE
  8
0
 10
-31
 20
-10
 11
-31.3078
 21
-13.9109
  0
LINE
  8
0
 10
-31.3078
 20
-13.9109
 11
-32.2236
 21
-17.7254
  0
LINE
  8
0
 10
-32.2236
 20
-17.7254
 11
-33.7248
 21
-21.3498
  0
LINE
  8
0
 10
-33.7248
 20
-21.3498
 11
-35.7746
 21
-24.6946
  0
LINE
  8
0
 10
-35.7746
 20
-24.6946
 11
-38.3223
 21
-27.6777
  0
LINE
  8
0
 10
-38.3223
 20
-27.6777
 11
-41.3054
 21
-30.2254
  0
LINE
  8
0
 10
-41.3054
 20
-30.2254
 11
-44.6502
 21
-32.2752
  0
LINE
  8
0
 10
-44.6502
 20
-32.2752
 11
-48.2746
 21
-33.7764
  0
LINE
  8
0
 10
-48.2746
 20
-33.7764
 11
-52.0891
 21
-34.6922
  0
LINE
  8
0
 10
-52.0891
 20
-34.6922
 11
-56
 21
-35
  0
LINE
  8
0
 10
-56
 20
-35
 11
-59.9109
 21
-34.6922
  0
LINE
  8
0
 10
-81.618
 20
18.0979
 11
-82.1756
 21
18.382
  0
LINE
  8
0
 10
-82.1756
 20
18.382
 11
-82.618
 21
18.8244
  0
LINE
  8
0
 10
-82.618
 20
18.8244
 11
-82.9021
 21
19.382
  0
LINE
  8
0
 10
-82.9021
 20
19.382
 11
-83
 21
20
  0
LINE
  8
0
 10
-83
 20
20
 11
-82.9021
 21
20.618
  0
LINE
  8
0
 10
-82.9021
 20
20.618
 11
-82.618
 21
21.1756
  0
LINE
  8
0
 10
-82.618
 20
21.1756
 11
-82.1756
 21
21.618
  0
LINE
  8
0
 10
-82.1756
 20
21.618
 11
-81.618
 21
21.9021
  0
LINE
  8
0
 10
-81.618
 20
21.9021
 11
-81
 21
22
  0
LINE
  8
0
 10
-81
 20
22
 11
-80.382
 21
21.9021
  0
LINE
  8
0
 10
-80.382
 20
21.9021
 11
-79.8244
 21
21.618
  0
LINE
  8
0
 10
-79.8244
 20
21.618
 11
-79.382
 21
21.1756
  0
LINE
  8
0
 10
-79.382
 20
21.1756
 11
-79.0979
 21
20.618
  0
LINE
  8
0
 10
-79.0979
 20
20.618
 11
-79
 21
20
  0
LINE
  8
0
 10
-79
 20
20
 11
-79.0979
 21
19.382
  0
LINE
  8
0
 10
-79.0979
 20
19.382
 11
-79.382
 21
18.8244
  0
LINE
  8
0
 10
-79.382
 20
18.8244
 11
-79.8244
 21
18.382
  0
LINE
  8
0
 10
-79.8244
 20
18.382
 11
-80.382
 21
18.0979
  0
LINE
  8
0
 10
-80.382
 20
18.0979
 11
-81
 21
18
  0
LINE
  8
0
 10
-81
 20
18
 11
-81.618
 21
18.0979
  0
LINE
  8
0
 10
-31.618
 20
18.0979
 11
-32.1756
 21
18.382
  0
LINE
  8
0
 10
-32.1756
 20
18.382
 11
-32.618
 21
18.8244
  0
LINE
  8
0
 10
-32.618
 20
18.8244
 11
-32.9021
 21
19.382
  0
LINE
  8
0
 10
-32.9021
 20
19.382
 11
-33
 21
20
  0
LINE
  8
0
 10
-33
 20
20
 11
-32.9021
 21
20.618
  0
LINE
  8
0
 10
-32.9021
 20
20.618
 11
-32.618
 21
21.1756
  0
LINE
  8
0
 10
-32.618
 20
21.1756
 11
-32.1756
 21
21.618
  0
LINE
  8
0
 10
-32.1756
 20
21.618
 11
-31.618
 21
21.9021
  0
LINE
  8
0
 10
-31.618
 20
21.9021
 11
-31
 21
22
  0
LINE
  8
0
 10
-31
 20
22
 11
-30.382
 21
21.9021
  0
LINE
  8
0
 10
-30.382
 20
21.9021
 11
-29.8244
 21
21.618
  0
LINE
  8
0
 10
-29.8244
 20
21.618
 11
-29.382
 21
21.1756
  0
LINE
  8
0
 10
-29.382
 20
21.1756
 11
-29.0979
 21
20.618
  0
LINE
  8
0
 10
-29.0979
 20
20.618
 11
-29
 21
20
  0
LINE
  8
0
 10
-29
 20
20
 11
-29.0979
 21
19.382
  0
LINE
  8
0
 10
-29.0979
 20
19.382
 11
-29.382
 21
18.8244
  0
LINE
  8
0
 10
-29.382
 20
18.8244
 11
-29.8244
 21
18.382
  0
LINE
  8
0
 10
-29.8244
 20
18.382
 11
-30.382
 21
18.0979
  0
LINE
  8
0
 10
-30.382
 20
18.0979
 11
-31
 21
18
  0
LINE
  8
0
 10
-31
 20
18
 11
-31.618
 21
18.0979
  0
LINE
  8
0
 10
-81.618
 20
-31.9021
 11
-82.1756
 21
-31.618
  0
LINE
  8
0
 10
-82.1756
 20
-31.618
 11
-82.618
 21
-31.1756
  0
LINE
  8
0
 10
-82.618
 20
-31.1756
 11
-82.9021
 21
-30.618
  0
LINE
  8
0
 10
-82.9021
 20
-30.618
 11
-83
 21
-30
  0
LINE
  8
0
 10
-83
 20
-30
 11
-82.9021
 21
-29.382
  0
LINE
  8
0
 10
-82.9021
 20
-29.382
 11
-82.618
 21
-28.8244
  0
LINE
  8
0
 10
-82.618
 20
-28.8244
 11
-82.1756
 21
-28.382
  0
LINE
  8
0
 10
-82.1756
 20
-28.382
 11
-81.618
 21
-28.0979
  0
LINE
  8
0
 10
-81.618
 20
-28.0979
 11
-81
 21
-28
  0
LINE
  8
0
 10
-81
 20
-28
 11
-80.382
 21
-28.0979
  0
LINE
  8
0
 10
-80.382
 20
-28.0979
 11
-79.8244
 21
-28.382
  0
LINE
  8
0
 10
-79.8244
 20
-28.382
 11
-79.382
 21
-28.8244
  0
LINE
  8
0
 10
-79.382
 20
-28.8244
 11
-79.0979
 21
-29.382
  0
LINE
  8
0
 10
-79.0979
 20
-29.382
 11
-79
 21
-30
  0
LINE
  8
0
 10
-79
 20
-30
 11
-79.0979
 21
-30.618
  0
LINE
  8
0
 10
-79.0979
 20
-30.618
 11
-79.382
 21
-31.1756
  0
LINE
  8
0
 10
-79.382
 20
-31.1756
 11
-79.8244
 21
-31.618
  0
LINE
  8
0
 10
-79.8244
 20
-31.618
 11
-80.382
 21
-31.9021
  0
LINE
  8
0
 10
-80.382
 20
-31.9021
 11
-81
 21
-32
  0
LINE
  8
0
 10
-81
 20
-32
 11
-81.618
 21
-31.9021
  0
LINE
  8
0
 10
-31.618
 20
-31.9021
 11
-32.1756
 21
-31.618
  0
LINE
  8
0
 10
-32.1756
 20
-31.618
 11
-32.618
 21
-31.1756
  0
LINE
  8
0
 10
-32.618
 20
-31.1756
 11
-32.9021
 21
-30.618
  0
LINE
  8
0
 10
-32.9021
 20
-30.618
 11
-33
 21
-30
  0
LINE
  8
0
 10
-33
 20
-30
 11
-32.9021
 21
-29.382
  0
LINE
  8
0
 10
-32.9021
 20
-29.382
 11
-32.618
 21
-28.8244
  0
LINE
  8
0
 10
-32.618
 20
-28.8244
 11
-32.1756
 21
-28.382
  0
LINE
  8
0
 10
-32.1756
 20
-28.382
 11
-31.618
 21
-28.0979
  0
LINE
  8
0
 10
-31.618
 20
-28.0979
 11
-31
 21
-28
  0
LINE
  8
0
 10
-31
 20
-28
 11
-30.382
 21
-28.0979
  0
LINE
  8
0
 10
-30.382
 20
-28.0979
 11
-29.8244
 21
-28.382
  0
LINE
  8
0
 10
-29.8244
 20
-28.382
 11
-29.382
 21
-28.8244
  0
LINE
  8
0
 10
-29.382
 20
-28.8244
 11
-29.0979
 21
-29.382
  0
LINE
  8
0
 10
-29.0979
 20
-29.382
 11
-29
 21
-30
  0
LINE
  8
0
 10
-29
 20
-30
 11
-29.0979
 21
-30.618
  0
LINE
  8
0
 10
-29.0979
 20
-30.618
 11
-29.382
 21
-31.1756
  0
LINE
  8
0
 10
-29.382
 20
-31.1756
 11
-29.8244
 21
-31.618
  0
LINE
  8
0
 10
-29.8244
 20
-31.618
 11
-30.382
 21
-31.9021
  0
LINE
  8
0
 10
-30.382
 20
-31.9021
 11
-31
 21
-32
  0
LINE
  8
0
 10
-31
 20
-32
 11
-31.618
 21
-31.9021
  0
ENDSEC
  0
SECTION
  2
OBJECTS
  0
DICTIONARY
  0
ENDSEC
  0
EOF
