  0
SECTION
  2
BLOCKS
  0
ENDSEC
  0
SECTION
  2
ENTITIES
  0
LINE
  8
0
 10
-35
 20
-15
 11
-5
 21
-15
  0
LINE
  8
0
 10
-5
 20
-15
 11
-5
 21
-30
  0
LINE
  8
0
 10
-5
 20
-30
 11
41
 21
-30
  0
LINE
  8
0
 10
41
 20
-30
 11
41
 21
-22
  0
LINE
  8
0
 10
41
 20
-22
 11
43
 21
-22
  0
LINE
  8
0
 10
43
 20
-22
 11
43
 21
-3
  0
LINE
  8
0
 10
43
 20
-3
 11
28.5
 21
-3
  0
LINE
  8
0
 10
28.5
 20
-3
 11
28.5
 21
0
  0
LINE
  8
0
 10
28.5
 20
0
 11
-35
 21
0
  0
LINE
  8
0
 10
-35
 20
0
 11
-35
 21
-15
  0
LINE
  8
0
 10
47
 20
-22
 11
49
 21
-22
  0
LINE
  8
0
 10
49
 20
-22
 11
49
 21
-30
  0
LINE
  8
0
 10
49
 20
-30
 11
65
 21
-30
  0
LINE
  8
0
 10
65
 20
-30
 11
65
 21
-3
  0
LINE
  8
0
 10
65
 20
-3
 11
47
 21
-3
  0
LINE
  8
0
 10
47
 20
-3
 11
47
 21
-22
  0
LINE
  8
0
 10
75
 20
-30
 11
91
 21
-30
  0
LINE
  8
0
 10
91
 20
-30
 11
91
 21
-22
  0
LINE
  8
0
 10
91
 20
-22
 11
93
 21
-22
  0
LINE
  8
0
 10
93
 20
-22
 11
93
 21
-3
  0
LINE
  8
0
 10
93
 20
-3
 11
75
 21
-3
  0
LINE
  8
0
 10
75
 20
-3
 11
75
 21
-30
  0
LINE
  8
0
 10
97
 20
-22
 11
99
 21
-22
  0
LINE
  8
0
 10
99
 20
-22
 11
99
 21
-30
  0
LINE
  8
0
 10
99
 20
-30
 11
115
 21
-30
  0
LINE
  8
0
 10
115
 20
-30
 11
115
 21
0
  0
LINE
  8
0
 10
115
 20
0
 11
111.5
 21
0
  0
LINE
  8
0
 10
111.5
 20
0
 11
111.5
 21
-3
  0
LINE
  8
0
 10
111.5
 20
-3
 11
97
 21
-3
  0
LINE
  8
0
 10
97
 20
-3
 11
97
 21
-22
  0
ENDSEC
  0
SECTION
  2
OBJECTS
  0
DICTIONARY
  0
ENDSEC
  0
EOF
