  0
SECTION
  2
BLOCKS
  0
ENDSEC
  0
SECTION
  2
ENTITIES
  0
LINE
  8
0
 10
-35
 20
-15
 11
-25
 21
-15
  0
LINE
  8
0
 10
-25
 20
-15
 11
-25
 21
-30
  0
LINE
  8
0
 10
-25
 20
-30
 11
-21.5
 21
-30
  0
LINE
  8
0
 10
-21.5
 20
-30
 11
-21.5
 21
-29
  0
LINE
  8
0
 10
-21.5
 20
-29
 11
-16
 21
-29
  0
LINE
  8
0
 10
-16
 20
-29
 11
-16
 21
-20
  0
LINE
  8
0
 10
-16
 20
-20
 11
-13
 21
-20
  0
LINE
  8
0
 10
-13
 20
-20
 11
-13
 21
-19
  0
LINE
  8
0
 10
-13
 20
-19
 11
-9
 21
-19
  0
LINE
  8
0
 10
-9
 20
-19
 11
-9
 21
-8
  0
LINE
  8
0
 10
-9
 20
-8
 11
-11
 21
-8
  0
LINE
  8
0
 10
-11
 20
-8
 11
-11
 21
-1
  0
LINE
  8
0
 10
-11
 20
-1
 11
-18.5
 21
-1
  0
LINE
  8
0
 10
-18.5
 20
-1
 11
-18.5
 21
0
  0
LINE
  8
0
 10
-18.5
 20
0
 11
-35
 21
0
  0
LINE
  8
0
 10
-35
 20
0
 11
-35
 21
-15
  0
LINE
  8
0
 10
9
 20
-19
 11
13
 21
-19
  0
LINE
  8
0
 10
13
 20
-19
 11
13
 21
-20
  0
LINE
  8
0
 10
13
 20
-20
 11
16
 21
-20
  0
LINE
  8
0
 10
16
 20
-20
 11
16
 21
-29
  0
LINE
  8
0
 10
16
 20
-29
 11
21.5
 21
-29
  0
LINE
  8
0
 10
21.5
 20
-29
 11
21.5
 21
-30
  0
LINE
  8
0
 10
21.5
 20
-30
 11
40
 21
-30
  0
LINE
  8
0
 10
40
 20
-30
 11
40
 21
-3
  0
LINE
  8
0
 10
40
 20
-3
 11
28.5
 21
-3
  0
LINE
  8
0
 10
28.5
 20
-3
 11
28.5
 21
0
  0
LINE
  8
0
 10
28.5
 20
0
 11
18.5
 21
0
  0
LINE
  8
0
 10
18.5
 20
0
 11
18.5
 21
-1
  0
LINE
  8
0
 10
18.5
 20
-1
 11
11
 21
-1
  0
LINE
  8
0
 10
11
 20
-1
 11
11
 21
-8
  0
LINE
  8
0
 10
11
 20
-8
 11
9
 21
-8
  0
LINE
  8
0
 10
9
 20
-8
 11
9
 21
-19
  0
LINE
  8
0
 10
100
 20
-30
 11
115
 21
-30
  0
LINE
  8
0
 10
115
 20
-30
 11
115
 21
0
  0
LINE
  8
0
 10
115
 20
0
 11
111.5
 21
0
  0
LINE
  8
0
 10
111.5
 20
0
 11
111.5
 21
-3
  0
LINE
  8
0
 10
111.5
 20
-3
 11
100
 21
-3
  0
LINE
  8
0
 10
100
 20
-3
 11
100
 21
-30
  0
ENDSEC
  0
SECTION
  2
OBJECTS
  0
DICTIONARY
  0
ENDSEC
  0
EOF
