  0
SECTION
  2
BLOCKS
  0
ENDSEC
  0
SECTION
  2
ENTITIES
  0
LINE
  8
0
 10
100.471
 20
-30.9815
 11
100.939
 21
-30.9261
  0
LINE
  8
0
 10
100.939
 20
-30.9261
 11
101.401
 21
-30.8342
  0
LINE
  8
0
 10
101.401
 20
-30.8342
 11
101.854
 21
-30.7063
  0
LINE
  8
0
 10
101.854
 20
-30.7063
 11
102.296
 21
-30.5433
  0
LINE
  8
0
 10
102.296
 20
-30.5433
 11
102.724
 21
-30.346
  0
LINE
  8
0
 10
102.724
 20
-30.346
 11
103.135
 21
-30.1158
  0
LINE
  8
0
 10
103.135
 20
-30.1158
 11
103.527
 21
-29.8541
  0
LINE
  8
0
 10
103.527
 20
-29.8541
 11
103.897
 21
-29.5624
  0
LINE
  8
0
 10
103.897
 20
-29.5624
 11
104.243
 21
-29.2426
  0
LINE
  8
0
 10
104.243
 20
-29.2426
 11
104.562
 21
-28.8967
  0
LINE
  8
0
 10
104.562
 20
-28.8967
 11
104.854
 21
-28.5267
  0
LINE
  8
0
 10
104.854
 20
-28.5267
 11
105.116
 21
-28.135
  0
LINE
  8
0
 10
105.116
 20
-28.135
 11
105.346
 21
-27.7239
  0
LINE
  8
0
 10
105.346
 20
-27.7239
 11
105.543
 21
-27.2961
  0
LINE
  8
0
 10
105.543
 20
-27.2961
 11
105.706
 21
-26.8541
  0
LINE
  8
0
 10
105.706
 20
-26.8541
 11
105.834
 21
-26.4007
  0
LINE
  8
0
 10
105.834
 20
-26.4007
 11
105.926
 21
-25.9386
  0
LINE
  8
0
 10
105.926
 20
-25.9386
 11
105.981
 21
-25.4707
  0
LINE
  8
0
 10
105.981
 20
-25.4707
 11
106
 21
-25
  0
LINE
  8
0
 10
106
 20
-25
 11
106
 21
25
  0
LINE
  8
0
 10
106
 20
25
 11
105.981
 21
25.4707
  0
LINE
  8
0
 10
105.981
 20
25.4707
 11
105.926
 21
25.9386
  0
LINE
  8
0
 10
105.926
 20
25.9386
 11
105.834
 21
26.4007
  0
LINE
  8
0
 10
105.834
 20
26.4007
 11
105.706
 21
26.8541
  0
LINE
  8
0
 10
105.706
 20
26.8541
 11
105.543
 21
27.2961
  0
LINE
  8
0
 10
105.543
 20
27.2961
 11
105.346
 21
27.7239
  0
LINE
  8
0
 10
105.346
 20
27.7239
 11
105.116
 21
28.135
  0
LINE
  8
0
 10
105.116
 20
28.135
 11
104.854
 21
28.5267
  0
LINE
  8
0
 10
104.854
 20
28.5267
 11
104.562
 21
28.8967
  0
LINE
  8
0
 10
104.562
 20
28.8967
 11
104.243
 21
29.2426
  0
LINE
  8
0
 10
104.243
 20
29.2426
 11
103.897
 21
29.5624
  0
LINE
  8
0
 10
103.897
 20
29.5624
 11
103.527
 21
29.8541
  0
LINE
  8
0
 10
103.527
 20
29.8541
 11
103.135
 21
30.1158
  0
LINE
  8
0
 10
103.135
 20
30.1158
 11
102.724
 21
30.346
  0
LINE
  8
0
 10
102.724
 20
30.346
 11
102.296
 21
30.5433
  0
LINE
  8
0
 10
102.296
 20
30.5433
 11
101.854
 21
30.7063
  0
LINE
  8
0
 10
101.854
 20
30.7063
 11
101.401
 21
30.8342
  0
LINE
  8
0
 10
101.401
 20
30.8342
 11
100.939
 21
30.9261
  0
LINE
  8
0
 10
100.939
 20
30.9261
 11
100.471
 21
30.9815
  0
LINE
  8
0
 10
100.471
 20
30.9815
 11
100
 21
31
  0
LINE
  8
0
 10
100
 20
31
 11
40
 21
31
  0
LINE
  8
0
 10
40
 20
31
 11
39.5293
 21
30.9815
  0
LINE
  8
0
 10
39.5293
 20
30.9815
 11
39.0614
 21
30.9261
  0
LINE
  8
0
 10
39.0614
 20
30.9261
 11
38.5993
 21
30.8342
  0
LINE
  8
0
 10
38.5993
 20
30.8342
 11
38.1459
 21
30.7063
  0
LINE
  8
0
 10
38.1459
 20
30.7063
 11
37.7039
 21
30.5433
  0
LINE
  8
0
 10
37.7039
 20
30.5433
 11
37.2761
 21
30.346
  0
LINE
  8
0
 10
37.2761
 20
30.346
 11
36.865
 21
30.1158
  0
LINE
  8
0
 10
36.865
 20
30.1158
 11
36.4733
 21
29.8541
  0
LINE
  8
0
 10
36.4733
 20
29.8541
 11
36.1033
 21
29.5624
  0
LINE
  8
0
 10
36.1033
 20
29.5624
 11
35.7574
 21
29.2426
  0
LINE
  8
0
 10
35.7574
 20
29.2426
 11
35.4376
 21
28.8967
  0
LINE
  8
0
 10
35.4376
 20
28.8967
 11
35.1459
 21
28.5267
  0
LINE
  8
0
 10
35.1459
 20
28.5267
 11
34.8842
 21
28.135
  0
LINE
  8
0
 10
34.8842
 20
28.135
 11
34.654
 21
27.7239
  0
LINE
  8
0
 10
34.654
 20
27.7239
 11
34.4567
 21
27.2961
  0
LINE
  8
0
 10
34.4567
 20
27.2961
 11
34.2937
 21
26.8541
  0
LINE
  8
0
 10
34.2937
 20
26.8541
 11
34.1658
 21
26.4007
  0
LINE
  8
0
 10
34.1658
 20
26.4007
 11
34.0739
 21
25.9386
  0
LINE
  8
0
 10
34.0739
 20
25.9386
 11
34.0185
 21
25.4707
  0
LINE
  8
0
 10
34.0185
 20
25.4707
 11
34
 21
25
  0
LINE
  8
0
 10
34
 20
25
 11
34
 21
-25
  0
LINE
  8
0
 10
34
 20
-25
 11
34.0185
 21
-25.4707
  0
LINE
  8
0
 10
34.0185
 20
-25.4707
 11
34.0739
 21
-25.9386
  0
LINE
  8
0
 10
34.0739
 20
-25.9386
 11
34.1658
 21
-26.4007
  0
LINE
  8
0
 10
34.1658
 20
-26.4007
 11
34.2937
 21
-26.8541
  0
LINE
  8
0
 10
34.2937
 20
-26.8541
 11
34.4567
 21
-27.2961
  0
LINE
  8
0
 10
34.4567
 20
-27.2961
 11
34.654
 21
-27.7239
  0
LINE
  8
0
 10
34.654
 20
-27.7239
 11
34.8842
 21
-28.135
  0
LINE
  8
0
 10
34.8842
 20
-28.135
 11
35.1459
 21
-28.5267
  0
LINE
  8
0
 10
35.1459
 20
-28.5267
 11
35.4376
 21
-28.8967
  0
LINE
  8
0
 10
35.4376
 20
-28.8967
 11
35.7574
 21
-29.2426
  0
LINE
  8
0
 10
35.7574
 20
-29.2426
 11
36.1033
 21
-29.5624
  0
LINE
  8
0
 10
36.1033
 20
-29.5624
 11
36.4733
 21
-29.8541
  0
LINE
  8
0
 10
36.4733
 20
-29.8541
 11
36.865
 21
-30.1158
  0
LINE
  8
0
 10
36.865
 20
-30.1158
 11
37.2761
 21
-30.346
  0
LINE
  8
0
 10
37.2761
 20
-30.346
 11
37.7039
 21
-30.5433
  0
LINE
  8
0
 10
37.7039
 20
-30.5433
 11
38.1459
 21
-30.7063
  0
LINE
  8
0
 10
38.1459
 20
-30.7063
 11
38.5993
 21
-30.8342
  0
LINE
  8
0
 10
38.5993
 20
-30.8342
 11
39.0614
 21
-30.9261
  0
LINE
  8
0
 10
39.0614
 20
-30.9261
 11
39.5293
 21
-30.9815
  0
LINE
  8
0
 10
39.5293
 20
-30.9815
 11
40
 21
-31
  0
LINE
  8
0
 10
40
 20
-31
 11
100
 21
-31
  0
LINE
  8
0
 10
100
 20
-31
 11
100.471
 21
-30.9815
  0
LINE
  8
0
 10
90
 20
23
 11
89.8431
 21
23.0062
  0
LINE
  8
0
 10
89.8431
 20
23.0062
 11
89.6871
 21
23.0246
  0
LINE
  8
0
 10
89.6871
 20
23.0246
 11
89.5331
 21
23.0553
  0
LINE
  8
0
 10
89.5331
 20
23.0553
 11
89.382
 21
23.0979
  0
LINE
  8
0
 10
89.382
 20
23.0979
 11
89.2346
 21
23.1522
  0
LINE
  8
0
 10
89.2346
 20
23.1522
 11
89.092
 21
23.218
  0
LINE
  8
0
 10
89.092
 20
23.218
 11
88.955
 21
23.2947
  0
LINE
  8
0
 10
88.955
 20
23.2947
 11
88.8244
 21
23.382
  0
LINE
  8
0
 10
88.8244
 20
23.382
 11
88.7011
 21
23.4792
  0
LINE
  8
0
 10
88.7011
 20
23.4792
 11
88.5858
 21
23.5858
  0
LINE
  8
0
 10
88.5858
 20
23.5858
 11
88.4792
 21
23.7011
  0
LINE
  8
0
 10
88.4792
 20
23.7011
 11
88.382
 21
23.8244
  0
LINE
  8
0
 10
88.382
 20
23.8244
 11
88.2947
 21
23.955
  0
LINE
  8
0
 10
88.2947
 20
23.955
 11
88.218
 21
24.092
  0
LINE
  8
0
 10
88.218
 20
24.092
 11
88.1522
 21
24.2346
  0
LINE
  8
0
 10
88.1522
 20
24.2346
 11
88.0979
 21
24.382
  0
LINE
  8
0
 10
88.0979
 20
24.382
 11
88.0553
 21
24.5331
  0
LINE
  8
0
 10
88.0553
 20
24.5331
 11
88.0246
 21
24.6871
  0
LINE
  8
0
 10
88.0246
 20
24.6871
 11
88.0062
 21
24.8431
  0
LINE
  8
0
 10
88.0062
 20
24.8431
 11
88
 21
25
  0
LINE
  8
0
 10
88
 20
25
 11
88.0062
 21
25.1569
  0
LINE
  8
0
 10
88.0062
 20
25.1569
 11
88.0246
 21
25.3129
  0
LINE
  8
0
 10
88.0246
 20
25.3129
 11
88.0553
 21
25.4669
  0
LINE
  8
0
 10
88.0553
 20
25.4669
 11
88.0979
 21
25.618
  0
LINE
  8
0
 10
88.0979
 20
25.618
 11
88.1522
 21
25.7654
  0
LINE
  8
0
 10
88.1522
 20
25.7654
 11
88.218
 21
25.908
  0
LINE
  8
0
 10
88.218
 20
25.908
 11
88.2947
 21
26.045
  0
LINE
  8
0
 10
88.2947
 20
26.045
 11
88.382
 21
26.1756
  0
LINE
  8
0
 10
88.382
 20
26.1756
 11
88.4792
 21
26.2989
  0
LINE
  8
0
 10
88.4792
 20
26.2989
 11
88.5858
 21
26.4142
  0
LINE
  8
0
 10
88.5858
 20
26.4142
 11
88.7011
 21
26.5208
  0
LINE
  8
0
 10
88.7011
 20
26.5208
 11
88.8244
 21
26.618
  0
LINE
  8
0
 10
88.8244
 20
26.618
 11
88.955
 21
26.7053
  0
LINE
  8
0
 10
88.955
 20
26.7053
 11
89.092
 21
26.782
  0
LINE
  8
0
 10
89.092
 20
26.782
 11
89.2346
 21
26.8477
  0
LINE
  8
0
 10
89.2346
 20
26.8477
 11
89.382
 21
26.9021
  0
LINE
  8
0
 10
89.382
 20
26.9021
 11
89.5331
 21
26.9447
  0
LINE
  8
0
 10
89.5331
 20
26.9447
 11
89.6871
 21
26.9754
  0
LINE
  8
0
 10
89.6871
 20
26.9754
 11
89.8431
 21
26.9938
  0
LINE
  8
0
 10
89.8431
 20
26.9938
 11
90
 21
27
  0
LINE
  8
0
 10
90
 20
27
 11
100
 21
27
  0
LINE
  8
0
 10
100
 20
27
 11
100.157
 21
26.9938
  0
LINE
  8
0
 10
100.157
 20
26.9938
 11
100.313
 21
26.9754
  0
LINE
  8
0
 10
100.313
 20
26.9754
 11
100.467
 21
26.9447
  0
LINE
  8
0
 10
100.467
 20
26.9447
 11
100.618
 21
26.9021
  0
LINE
  8
0
 10
100.618
 20
26.9021
 11
100.765
 21
26.8477
  0
LINE
  8
0
 10
100.765
 20
26.8477
 11
100.908
 21
26.782
  0
LINE
  8
0
 10
100.908
 20
26.782
 11
101.045
 21
26.7053
  0
LINE
  8
0
 10
101.045
 20
26.7053
 11
101.176
 21
26.618
  0
LINE
  8
0
 10
101.176
 20
26.618
 11
101.299
 21
26.5208
  0
LINE
  8
0
 10
101.299
 20
26.5208
 11
101.414
 21
26.4142
  0
LINE
  8
0
 10
101.414
 20
26.4142
 11
101.521
 21
26.2989
  0
LINE
  8
0
 10
101.521
 20
26.2989
 11
101.618
 21
26.1756
  0
LINE
  8
0
 10
101.618
 20
26.1756
 11
101.705
 21
26.045
  0
LINE
  8
0
 10
101.705
 20
26.045
 11
101.782
 21
25.908
  0
LINE
  8
0
 10
101.782
 20
25.908
 11
101.848
 21
25.7654
  0
LINE
  8
0
 10
101.848
 20
25.7654
 11
101.902
 21
25.618
  0
LINE
  8
0
 10
101.902
 20
25.618
 11
101.945
 21
25.4669
  0
LINE
  8
0
 10
101.945
 20
25.4669
 11
101.975
 21
25.3129
  0
LINE
  8
0
 10
101.975
 20
25.3129
 11
101.994
 21
25.1569
  0
LINE
  8
0
 10
101.994
 20
25.1569
 11
102
 21
25
  0
LINE
  8
0
 10
102
 20
25
 11
101.994
 21
24.8431
  0
LINE
  8
0
 10
101.994
 20
24.8431
 11
101.975
 21
24.6871
  0
LINE
  8
0
 10
101.975
 20
24.6871
 11
101.945
 21
24.5331
  0
LINE
  8
0
 10
101.945
 20
24.5331
 11
101.902
 21
24.382
  0
LINE
  8
0
 10
101.902
 20
24.382
 11
101.848
 21
24.2346
  0
LINE
  8
0
 10
101.848
 20
24.2346
 11
101.782
 21
24.092
  0
LINE
  8
0
 10
101.782
 20
24.092
 11
101.705
 21
23.955
  0
LINE
  8
0
 10
101.705
 20
23.955
 11
101.618
 21
23.8244
  0
LINE
  8
0
 10
101.618
 20
23.8244
 11
101.521
 21
23.7011
  0
LINE
  8
0
 10
101.521
 20
23.7011
 11
101.414
 21
23.5858
  0
LINE
  8
0
 10
101.414
 20
23.5858
 11
101.299
 21
23.4792
  0
LINE
  8
0
 10
101.299
 20
23.4792
 11
101.176
 21
23.382
  0
LINE
  8
0
 10
101.176
 20
23.382
 11
101.045
 21
23.2947
  0
LINE
  8
0
 10
101.045
 20
23.2947
 11
100.908
 21
23.218
  0
LINE
  8
0
 10
100.908
 20
23.218
 11
100.765
 21
23.1522
  0
LINE
  8
0
 10
100.765
 20
23.1522
 11
100.618
 21
23.0979
  0
LINE
  8
0
 10
100.618
 20
23.0979
 11
100.467
 21
23.0553
  0
LINE
  8
0
 10
100.467
 20
23.0553
 11
100.313
 21
23.0246
  0
LINE
  8
0
 10
100.313
 20
23.0246
 11
100.157
 21
23.0062
  0
LINE
  8
0
 10
100.157
 20
23.0062
 11
100
 21
23
  0
LINE
  8
0
 10
100
 20
23
 11
90
 21
23
  0
LINE
  8
0
 10
40
 20
23
 11
39.8431
 21
23.0062
  0
LINE
  8
0
 10
39.8431
 20
23.0062
 11
39.6871
 21
23.0246
  0
LINE
  8
0
 10
39.6871
 20
23.0246
 11
39.5331
 21
23.0553
  0
LINE
  8
0
 10
39.5331
 20
23.0553
 11
39.382
 21
23.0979
  0
LINE
  8
0
 10
39.382
 20
23.0979
 11
39.2346
 21
23.1522
  0
LINE
  8
0
 10
39.2346
 20
23.1522
 11
39.092
 21
23.218
  0
LINE
  8
0
 10
39.092
 20
23.218
 11
38.955
 21
23.2947
  0
LINE
  8
0
 10
38.955
 20
23.2947
 11
38.8244
 21
23.382
  0
LINE
  8
0
 10
38.8244
 20
23.382
 11
38.7011
 21
23.4792
  0
LINE
  8
0
 10
38.7011
 20
23.4792
 11
38.5858
 21
23.5858
  0
LINE
  8
0
 10
38.5858
 20
23.5858
 11
38.4792
 21
23.7011
  0
LINE
  8
0
 10
38.4792
 20
23.7011
 11
38.382
 21
23.8244
  0
LINE
  8
0
 10
38.382
 20
23.8244
 11
38.2947
 21
23.955
  0
LINE
  8
0
 10
38.2947
 20
23.955
 11
38.218
 21
24.092
  0
LINE
  8
0
 10
38.218
 20
24.092
 11
38.1523
 21
24.2346
  0
LINE
  8
0
 10
38.1523
 20
24.2346
 11
38.0979
 21
24.382
  0
LINE
  8
0
 10
38.0979
 20
24.382
 11
38.0553
 21
24.5331
  0
LINE
  8
0
 10
38.0553
 20
24.5331
 11
38.0246
 21
24.6871
  0
LINE
  8
0
 10
38.0246
 20
24.6871
 11
38.0062
 21
24.8431
  0
LINE
  8
0
 10
38.0062
 20
24.8431
 11
38
 21
25
  0
LINE
  8
0
 10
38
 20
25
 11
38.0062
 21
25.1569
  0
LINE
  8
0
 10
38.0062
 20
25.1569
 11
38.0246
 21
25.3129
  0
LINE
  8
0
 10
38.0246
 20
25.3129
 11
38.0553
 21
25.4669
  0
LINE
  8
0
 10
38.0553
 20
25.4669
 11
38.0979
 21
25.618
  0
LINE
  8
0
 10
38.0979
 20
25.618
 11
38.1523
 21
25.7654
  0
LINE
  8
0
 10
38.1523
 20
25.7654
 11
38.218
 21
25.908
  0
LINE
  8
0
 10
38.218
 20
25.908
 11
38.2947
 21
26.045
  0
LINE
  8
0
 10
38.2947
 20
26.045
 11
38.382
 21
26.1756
  0
LINE
  8
0
 10
38.382
 20
26.1756
 11
38.4792
 21
26.2989
  0
LINE
  8
0
 10
38.4792
 20
26.2989
 11
38.5858
 21
26.4142
  0
LINE
  8
0
 10
38.5858
 20
26.4142
 11
38.7011
 21
26.5208
  0
LINE
  8
0
 10
38.7011
 20
26.5208
 11
38.8244
 21
26.618
  0
LINE
  8
0
 10
38.8244
 20
26.618
 11
38.955
 21
26.7053
  0
LINE
  8
0
 10
38.955
 20
26.7053
 11
39.092
 21
26.782
  0
LINE
  8
0
 10
39.092
 20
26.782
 11
39.2346
 21
26.8477
  0
LINE
  8
0
 10
39.2346
 20
26.8477
 11
39.382
 21
26.9021
  0
LINE
  8
0
 10
39.382
 20
26.9021
 11
39.5331
 21
26.9447
  0
LINE
  8
0
 10
39.5331
 20
26.9447
 11
39.6871
 21
26.9754
  0
LINE
  8
0
 10
39.6871
 20
26.9754
 11
39.8431
 21
26.9938
  0
LINE
  8
0
 10
39.8431
 20
26.9938
 11
40
 21
27
  0
LINE
  8
0
 10
40
 20
27
 11
50
 21
27
  0
LINE
  8
0
 10
50
 20
27
 11
50.1569
 21
26.9938
  0
LINE
  8
0
 10
50.1569
 20
26.9938
 11
50.3129
 21
26.9754
  0
LINE
  8
0
 10
50.3129
 20
26.9754
 11
50.4669
 21
26.9447
  0
LINE
  8
0
 10
50.4669
 20
26.9447
 11
50.618
 21
26.9021
  0
LINE
  8
0
 10
50.618
 20
26.9021
 11
50.7654
 21
26.8477
  0
LINE
  8
0
 10
50.7654
 20
26.8477
 11
50.908
 21
26.782
  0
LINE
  8
0
 10
50.908
 20
26.782
 11
51.045
 21
26.7053
  0
LINE
  8
0
 10
51.045
 20
26.7053
 11
51.1756
 21
26.618
  0
LINE
  8
0
 10
51.1756
 20
26.618
 11
51.2989
 21
26.5208
  0
LINE
  8
0
 10
51.2989
 20
26.5208
 11
51.4142
 21
26.4142
  0
LINE
  8
0
 10
51.4142
 20
26.4142
 11
51.5208
 21
26.2989
  0
LINE
  8
0
 10
51.5208
 20
26.2989
 11
51.618
 21
26.1756
  0
LINE
  8
0
 10
51.618
 20
26.1756
 11
51.7053
 21
26.045
  0
LINE
  8
0
 10
51.7053
 20
26.045
 11
51.782
 21
25.908
  0
LINE
  8
0
 10
51.782
 20
25.908
 11
51.8478
 21
25.7654
  0
LINE
  8
0
 10
51.8478
 20
25.7654
 11
51.9021
 21
25.618
  0
LINE
  8
0
 10
51.9021
 20
25.618
 11
51.9447
 21
25.4669
  0
LINE
  8
0
 10
51.9447
 20
25.4669
 11
51.9754
 21
25.3129
  0
LINE
  8
0
 10
51.9754
 20
25.3129
 11
51.9938
 21
25.1569
  0
LINE
  8
0
 10
51.9938
 20
25.1569
 11
52
 21
25
  0
LINE
  8
0
 10
52
 20
25
 11
51.9938
 21
24.8431
  0
LINE
  8
0
 10
51.9938
 20
24.8431
 11
51.9754
 21
24.6871
  0
LINE
  8
0
 10
51.9754
 20
24.6871
 11
51.9447
 21
24.5331
  0
LINE
  8
0
 10
51.9447
 20
24.5331
 11
51.9021
 21
24.382
  0
LINE
  8
0
 10
51.9021
 20
24.382
 11
51.8478
 21
24.2346
  0
LINE
  8
0
 10
51.8478
 20
24.2346
 11
51.782
 21
24.092
  0
LINE
  8
0
 10
51.782
 20
24.092
 11
51.7053
 21
23.955
  0
LINE
  8
0
 10
51.7053
 20
23.955
 11
51.618
 21
23.8244
  0
LINE
  8
0
 10
51.618
 20
23.8244
 11
51.5208
 21
23.7011
  0
LINE
  8
0
 10
51.5208
 20
23.7011
 11
51.4142
 21
23.5858
  0
LINE
  8
0
 10
51.4142
 20
23.5858
 11
51.2989
 21
23.4792
  0
LINE
  8
0
 10
51.2989
 20
23.4792
 11
51.1756
 21
23.382
  0
LINE
  8
0
 10
51.1756
 20
23.382
 11
51.045
 21
23.2947
  0
LINE
  8
0
 10
51.045
 20
23.2947
 11
50.908
 21
23.218
  0
LINE
  8
0
 10
50.908
 20
23.218
 11
50.7654
 21
23.1522
  0
LINE
  8
0
 10
50.7654
 20
23.1522
 11
50.618
 21
23.0979
  0
LINE
  8
0
 10
50.618
 20
23.0979
 11
50.4669
 21
23.0553
  0
LINE
  8
0
 10
50.4669
 20
23.0553
 11
50.3129
 21
23.0246
  0
LINE
  8
0
 10
50.3129
 20
23.0246
 11
50.1569
 21
23.0062
  0
LINE
  8
0
 10
50.1569
 20
23.0062
 11
50
 21
23
  0
LINE
  8
0
 10
50
 20
23
 11
40
 21
23
  0
LINE
  8
0
 10
56.8266
 20
5.88623
 11
56.1712
 21
6.39825
  0
LINE
  8
0
 10
56.1712
 20
6.39825
 11
55.7808
 21
7.13255
  0
LINE
  8
0
 10
55.7808
 20
7.13255
 11
55.7228
 21
7.96217
  0
LINE
  8
0
 10
55.7228
 20
7.96217
 11
56.0072
 21
8.74367
  0
LINE
  8
0
 10
56.0072
 20
8.74367
 11
56.3209
 21
9.22667
  0
LINE
  8
0
 10
56.3209
 20
9.22667
 11
56.6512
 21
9.69844
  0
LINE
  8
0
 10
56.6512
 20
9.69844
 11
56.9978
 21
10.1584
  0
LINE
  8
0
 10
56.9978
 20
10.1584
 11
57.3603
 21
10.606
  0
LINE
  8
0
 10
57.3603
 20
10.606
 11
57.7381
 21
11.0406
  0
LINE
  8
0
 10
57.7381
 20
11.0406
 11
58.1309
 21
11.4619
  0
LINE
  8
0
 10
58.1309
 20
11.4619
 11
58.5381
 21
11.8691
  0
LINE
  8
0
 10
58.5381
 20
11.8691
 11
58.9594
 21
12.2619
  0
LINE
  8
0
 10
58.9594
 20
12.2619
 11
59.394
 21
12.6397
  0
LINE
  8
0
 10
59.394
 20
12.6397
 11
59.8416
 21
13.0022
  0
LINE
  8
0
 10
59.8416
 20
13.0022
 11
60.3016
 21
13.3488
  0
LINE
  8
0
 10
60.3016
 20
13.3488
 11
60.7733
 21
13.6791
  0
LINE
  8
0
 10
60.7733
 20
13.6791
 11
61.2563
 21
13.9928
  0
LINE
  8
0
 10
61.2563
 20
13.9928
 11
62.0378
 21
14.2772
  0
LINE
  8
0
 10
62.0378
 20
14.2772
 11
62.8674
 21
14.2192
  0
LINE
  8
0
 10
62.8674
 20
14.2192
 11
63.6017
 21
13.8288
  0
LINE
  8
0
 10
63.6017
 20
13.8288
 11
64.1138
 21
13.1734
  0
LINE
  8
0
 10
64.1138
 20
13.1734
 11
64.315
 21
12.3665
  0
LINE
  8
0
 10
64.315
 20
12.3665
 11
64.1705
 21
11.5475
  0
LINE
  8
0
 10
64.1705
 20
11.5475
 11
63.7055
 21
10.858
  0
LINE
  8
0
 10
63.7055
 20
10.858
 11
63.4469
 21
10.5994
  0
LINE
  8
0
 10
63.4469
 20
10.5994
 11
62.6527
 21
10.1127
  0
LINE
  8
0
 10
62.6527
 20
10.1127
 11
61.1612
 21
8.83882
  0
LINE
  8
0
 10
61.1612
 20
8.83882
 11
59.8873
 21
7.34731
  0
LINE
  8
0
 10
59.8873
 20
7.34731
 11
59.4006
 21
6.55313
  0
LINE
  8
0
 10
59.4006
 20
6.55313
 11
59.142
 21
6.29449
  0
LINE
  8
0
 10
59.142
 20
6.29449
 11
58.4525
 21
5.82945
  0
LINE
  8
0
 10
58.4525
 20
5.82945
 11
57.6335
 21
5.68504
  0
LINE
  8
0
 10
57.6335
 20
5.68504
 11
56.8266
 21
5.88623
  0
LINE
  8
0
 10
81.5475
 20
5.82945
 11
80.858
 21
6.29449
  0
LINE
  8
0
 10
80.858
 20
6.29449
 11
80.5994
 21
6.55313
  0
LINE
  8
0
 10
80.5994
 20
6.55313
 11
80.1127
 21
7.34731
  0
LINE
  8
0
 10
80.1127
 20
7.34731
 11
78.8388
 21
8.83882
  0
LINE
  8
0
 10
78.8388
 20
8.83882
 11
77.3473
 21
10.1127
  0
LINE
  8
0
 10
77.3473
 20
10.1127
 11
76.5531
 21
10.5994
  0
LINE
  8
0
 10
76.5531
 20
10.5994
 11
76.2945
 21
10.858
  0
LINE
  8
0
 10
76.2945
 20
10.858
 11
75.8295
 21
11.5475
  0
LINE
  8
0
 10
75.8295
 20
11.5475
 11
75.685
 21
12.3665
  0
LINE
  8
0
 10
75.685
 20
12.3665
 11
75.8862
 21
13.1734
  0
LINE
  8
0
 10
75.8862
 20
13.1734
 11
76.3983
 21
13.8288
  0
LINE
  8
0
 10
76.3983
 20
13.8288
 11
77.1326
 21
14.2192
  0
LINE
  8
0
 10
77.1326
 20
14.2192
 11
77.9622
 21
14.2772
  0
LINE
  8
0
 10
77.9622
 20
14.2772
 11
78.7437
 21
13.9928
  0
LINE
  8
0
 10
78.7437
 20
13.9928
 11
79.2267
 21
13.6791
  0
LINE
  8
0
 10
79.2267
 20
13.6791
 11
79.6984
 21
13.3488
  0
LINE
  8
0
 10
79.6984
 20
13.3488
 11
80.1584
 21
13.0022
  0
LINE
  8
0
 10
80.1584
 20
13.0022
 11
80.606
 21
12.6397
  0
LINE
  8
0
 10
80.606
 20
12.6397
 11
81.0406
 21
12.2619
  0
LINE
  8
0
 10
81.0406
 20
12.2619
 11
81.4619
 21
11.8691
  0
LINE
  8
0
 10
81.4619
 20
11.8691
 11
81.8691
 21
11.4619
  0
LINE
  8
0
 10
81.8691
 20
11.4619
 11
82.2619
 21
11.0406
  0
LINE
  8
0
 10
82.2619
 20
11.0406
 11
82.6397
 21
10.606
  0
LINE
  8
0
 10
82.6397
 20
10.606
 11
83.0022
 21
10.1584
  0
LINE
  8
0
 10
83.0022
 20
10.1584
 11
83.3488
 21
9.69844
  0
LINE
  8
0
 10
83.3488
 20
9.69844
 11
83.6791
 21
9.22667
  0
LINE
  8
0
 10
83.6791
 20
9.22667
 11
83.9928
 21
8.74367
  0
LINE
  8
0
 10
83.9928
 20
8.74367
 11
84.2772
 21
7.96217
  0
LINE
  8
0
 10
84.2772
 20
7.96217
 11
84.2192
 21
7.13255
  0
LINE
  8
0
 10
84.2192
 20
7.13255
 11
83.8288
 21
6.39825
  0
LINE
  8
0
 10
83.8288
 20
6.39825
 11
83.1734
 21
5.88623
  0
LINE
  8
0
 10
83.1734
 20
5.88623
 11
82.3665
 21
5.68504
  0
LINE
  8
0
 10
82.3665
 20
5.68504
 11
81.5475
 21
5.82945
  0
LINE
  8
0
 10
69.3135
 20
-8.72302
 11
68.6312
 21
-8.64227
  0
LINE
  8
0
 10
68.6312
 20
-8.64227
 11
67.9574
 21
-8.50822
  0
LINE
  8
0
 10
67.9574
 20
-8.50822
 11
67.2961
 21
-8.32173
  0
LINE
  8
0
 10
67.2961
 20
-8.32173
 11
66.6515
 21
-8.08394
  0
LINE
  8
0
 10
66.6515
 20
-8.08394
 11
66.0276
 21
-7.7963
  0
LINE
  8
0
 10
66.0276
 20
-7.7963
 11
65.4281
 21
-7.46059
  0
LINE
  8
0
 10
65.4281
 20
-7.46059
 11
64.8569
 21
-7.07889
  0
LINE
  8
0
 10
64.8569
 20
-7.07889
 11
64.3173
 21
-6.65355
  0
LINE
  8
0
 10
64.3173
 20
-6.65355
 11
63.8128
 21
-6.18718
  0
LINE
  8
0
 10
63.8128
 20
-6.18718
 11
63.3465
 21
-5.68266
  0
LINE
  8
0
 10
63.3465
 20
-5.68266
 11
62.9211
 21
-5.14311
  0
LINE
  8
0
 10
62.9211
 20
-5.14311
 11
62.5394
 21
-4.57185
  0
LINE
  8
0
 10
62.5394
 20
-4.57185
 11
62.2037
 21
-3.97241
  0
LINE
  8
0
 10
62.2037
 20
-3.97241
 11
61.9161
 21
-3.34846
  0
LINE
  8
0
 10
61.9161
 20
-3.34846
 11
61.6783
 21
-2.70389
  0
LINE
  8
0
 10
61.6783
 20
-2.70389
 11
61.4918
 21
-2.04263
  0
LINE
  8
0
 10
61.4918
 20
-2.04263
 11
61.3577
 21
-1.36879
  0
LINE
  8
0
 10
61.3577
 20
-1.36879
 11
61.277
 21
-0.686508
  0
LINE
  8
0
 10
61.277
 20
-0.686508
 11
61.25
 21
0
  0
LINE
  8
0
 10
61.25
 20
0
 11
61.277
 21
0.686508
  0
LINE
  8
0
 10
61.277
 20
0.686508
 11
61.3577
 21
1.36879
  0
LINE
  8
0
 10
61.3577
 20
1.36879
 11
61.4918
 21
2.04263
  0
LINE
  8
0
 10
61.4918
 20
2.04263
 11
61.6783
 21
2.70389
  0
LINE
  8
0
 10
61.6783
 20
2.70389
 11
61.9161
 21
3.34846
  0
LINE
  8
0
 10
61.9161
 20
3.34846
 11
62.2037
 21
3.97241
  0
LINE
  8
0
 10
62.2037
 20
3.97241
 11
62.5394
 21
4.57185
  0
LINE
  8
0
 10
62.5394
 20
4.57185
 11
62.9211
 21
5.14311
  0
LINE
  8
0
 10
62.9211
 20
5.14311
 11
63.3465
 21
5.68266
  0
LINE
  8
0
 10
63.3465
 20
5.68266
 11
63.8128
 21
6.18718
  0
LINE
  8
0
 10
63.8128
 20
6.18718
 11
64.3173
 21
6.65355
  0
LINE
  8
0
 10
64.3173
 20
6.65355
 11
64.8569
 21
7.07889
  0
LINE
  8
0
 10
64.8569
 20
7.07889
 11
65.4281
 21
7.46059
  0
LINE
  8
0
 10
65.4281
 20
7.46059
 11
66.0276
 21
7.7963
  0
LINE
  8
0
 10
66.0276
 20
7.7963
 11
66.6515
 21
8.08394
  0
LINE
  8
0
 10
66.6515
 20
8.08394
 11
67.2961
 21
8.32173
  0
LINE
  8
0
 10
67.2961
 20
8.32173
 11
67.9574
 21
8.50822
  0
LINE
  8
0
 10
67.9574
 20
8.50822
 11
68.6312
 21
8.64227
  0
LINE
  8
0
 10
68.6312
 20
8.64227
 11
69.3135
 21
8.72302
  0
LINE
  8
0
 10
69.3135
 20
8.72302
 11
70
 21
8.75
  0
LINE
  8
0
 10
70
 20
8.75
 11
70.6865
 21
8.72302
  0
LINE
  8
0
 10
70.6865
 20
8.72302
 11
71.3688
 21
8.64227
  0
LINE
  8
0
 10
71.3688
 20
8.64227
 11
72.0426
 21
8.50822
  0
LINE
  8
0
 10
72.0426
 20
8.50822
 11
72.7039
 21
8.32173
  0
LINE
  8
0
 10
72.7039
 20
8.32173
 11
73.3485
 21
8.08394
  0
LINE
  8
0
 10
73.3485
 20
8.08394
 11
73.9724
 21
7.7963
  0
LINE
  8
0
 10
73.9724
 20
7.7963
 11
74.5719
 21
7.46059
  0
LINE
  8
0
 10
74.5719
 20
7.46059
 11
75.1431
 21
7.07889
  0
LINE
  8
0
 10
75.1431
 20
7.07889
 11
75.6827
 21
6.65355
  0
LINE
  8
0
 10
75.6827
 20
6.65355
 11
76.1872
 21
6.18718
  0
LINE
  8
0
 10
76.1872
 20
6.18718
 11
76.6535
 21
5.68266
  0
LINE
  8
0
 10
76.6535
 20
5.68266
 11
77.0789
 21
5.14311
  0
LINE
  8
0
 10
77.0789
 20
5.14311
 11
77.4606
 21
4.57185
  0
LINE
  8
0
 10
77.4606
 20
4.57185
 11
77.7963
 21
3.97241
  0
LINE
  8
0
 10
77.7963
 20
3.97241
 11
78.0839
 21
3.34846
  0
LINE
  8
0
 10
78.0839
 20
3.34846
 11
78.3217
 21
2.70389
  0
LINE
  8
0
 10
78.3217
 20
2.70389
 11
78.5082
 21
2.04263
  0
LINE
  8
0
 10
78.5082
 20
2.04263
 11
78.6423
 21
1.36879
  0
LINE
  8
0
 10
78.6423
 20
1.36879
 11
78.723
 21
0.686508
  0
LINE
  8
0
 10
78.723
 20
0.686508
 11
78.75
 21
0
  0
LINE
  8
0
 10
78.75
 20
0
 11
78.723
 21
-0.686508
  0
LINE
  8
0
 10
78.723
 20
-0.686508
 11
78.6423
 21
-1.36879
  0
LINE
  8
0
 10
78.6423
 20
-1.36879
 11
78.5082
 21
-2.04263
  0
LINE
  8
0
 10
78.5082
 20
-2.04263
 11
78.3217
 21
-2.70389
  0
LINE
  8
0
 10
78.3217
 20
-2.70389
 11
78.0839
 21
-3.34846
  0
LINE
  8
0
 10
78.0839
 20
-3.34846
 11
77.7963
 21
-3.97241
  0
LINE
  8
0
 10
77.7963
 20
-3.97241
 11
77.4606
 21
-4.57185
  0
LINE
  8
0
 10
77.4606
 20
-4.57185
 11
77.0789
 21
-5.14311
  0
LINE
  8
0
 10
77.0789
 20
-5.14311
 11
76.6535
 21
-5.68266
  0
LINE
  8
0
 10
76.6535
 20
-5.68266
 11
76.1872
 21
-6.18718
  0
LINE
  8
0
 10
76.1872
 20
-6.18718
 11
75.6827
 21
-6.65355
  0
LINE
  8
0
 10
75.6827
 20
-6.65355
 11
75.1431
 21
-7.07889
  0
LINE
  8
0
 10
75.1431
 20
-7.07889
 11
74.5719
 21
-7.46059
  0
LINE
  8
0
 10
74.5719
 20
-7.46059
 11
73.9724
 21
-7.7963
  0
LINE
  8
0
 10
73.9724
 20
-7.7963
 11
73.3485
 21
-8.08394
  0
LINE
  8
0
 10
73.3485
 20
-8.08394
 11
72.7039
 21
-8.32173
  0
LINE
  8
0
 10
72.7039
 20
-8.32173
 11
72.0426
 21
-8.50822
  0
LINE
  8
0
 10
72.0426
 20
-8.50822
 11
71.3688
 21
-8.64227
  0
LINE
  8
0
 10
71.3688
 20
-8.64227
 11
70.6865
 21
-8.72302
  0
LINE
  8
0
 10
70.6865
 20
-8.72302
 11
70
 21
-8.75
  0
LINE
  8
0
 10
70
 20
-8.75
 11
69.3135
 21
-8.72302
  0
LINE
  8
0
 10
55.3431
 20
-1.99382
 11
55.1871
 21
-1.97537
  0
LINE
  8
0
 10
55.1871
 20
-1.97537
 11
55.0331
 21
-1.94473
  0
LINE
  8
0
 10
55.0331
 20
-1.94473
 11
54.882
 21
-1.9021
  0
LINE
  8
0
 10
54.882
 20
-1.9021
 11
54.7346
 21
-1.84775
  0
LINE
  8
0
 10
54.7346
 20
-1.84775
 11
54.592
 21
-1.78201
  0
LINE
  8
0
 10
54.592
 20
-1.78201
 11
54.455
 21
-1.70528
  0
LINE
  8
0
 10
54.455
 20
-1.70528
 11
54.3244
 21
-1.61803
  0
LINE
  8
0
 10
54.3244
 20
-1.61803
 11
54.2011
 21
-1.5208
  0
LINE
  8
0
 10
54.2011
 20
-1.5208
 11
54.0858
 21
-1.4142
  0
LINE
  8
0
 10
54.0858
 20
-1.4142
 11
53.9792
 21
-1.29889
  0
LINE
  8
0
 10
53.9792
 20
-1.29889
 11
53.882
 21
-1.17557
  0
LINE
  8
0
 10
53.882
 20
-1.17557
 11
53.7947
 21
-1.04498
  0
LINE
  8
0
 10
53.7947
 20
-1.04498
 11
53.718
 21
-0.907974
  0
LINE
  8
0
 10
53.718
 20
-0.907974
 11
53.6523
 21
-0.765366
  0
LINE
  8
0
 10
53.6523
 20
-0.765366
 11
53.5979
 21
-0.618027
  0
LINE
  8
0
 10
53.5979
 20
-0.618027
 11
53.5553
 21
-0.466888
  0
LINE
  8
0
 10
53.5553
 20
-0.466888
 11
53.5246
 21
-0.312866
  0
LINE
  8
0
 10
53.5246
 20
-0.312866
 11
53.5062
 21
-0.156906
  0
LINE
  8
0
 10
53.5062
 20
-0.156906
 11
53.5
 21
0
  0
LINE
  8
0
 10
53.5
 20
0
 11
53.5062
 21
0.156906
  0
LINE
  8
0
 10
53.5062
 20
0.156906
 11
53.5246
 21
0.312866
  0
LINE
  8
0
 10
53.5246
 20
0.312866
 11
53.5553
 21
0.466888
  0
LINE
  8
0
 10
53.5553
 20
0.466888
 11
53.5979
 21
0.618027
  0
LINE
  8
0
 10
53.5979
 20
0.618027
 11
53.6523
 21
0.765366
  0
LINE
  8
0
 10
53.6523
 20
0.765366
 11
53.718
 21
0.907974
  0
LINE
  8
0
 10
53.718
 20
0.907974
 11
53.7947
 21
1.04498
  0
LINE
  8
0
 10
53.7947
 20
1.04498
 11
53.882
 21
1.17557
  0
LINE
  8
0
 10
53.882
 20
1.17557
 11
53.9792
 21
1.29889
  0
LINE
  8
0
 10
53.9792
 20
1.29889
 11
54.0858
 21
1.4142
  0
LINE
  8
0
 10
54.0858
 20
1.4142
 11
54.2011
 21
1.5208
  0
LINE
  8
0
 10
54.2011
 20
1.5208
 11
54.3244
 21
1.61803
  0
LINE
  8
0
 10
54.3244
 20
1.61803
 11
54.455
 21
1.70528
  0
LINE
  8
0
 10
54.455
 20
1.70528
 11
54.592
 21
1.78201
  0
LINE
  8
0
 10
54.592
 20
1.78201
 11
54.7346
 21
1.84775
  0
LINE
  8
0
 10
54.7346
 20
1.84775
 11
54.882
 21
1.9021
  0
LINE
  8
0
 10
54.882
 20
1.9021
 11
55.0331
 21
1.94473
  0
LINE
  8
0
 10
55.0331
 20
1.94473
 11
55.1871
 21
1.97537
  0
LINE
  8
0
 10
55.1871
 20
1.97537
 11
55.3431
 21
1.99382
  0
LINE
  8
0
 10
55.3431
 20
1.99382
 11
55.5
 21
2
  0
LINE
  8
0
 10
55.5
 20
2
 11
55.6569
 21
1.99382
  0
LINE
  8
0
 10
55.6569
 20
1.99382
 11
55.8129
 21
1.97537
  0
LINE
  8
0
 10
55.8129
 20
1.97537
 11
55.9669
 21
1.94473
  0
LINE
  8
0
 10
55.9669
 20
1.94473
 11
56.118
 21
1.9021
  0
LINE
  8
0
 10
56.118
 20
1.9021
 11
56.2654
 21
1.84775
  0
LINE
  8
0
 10
56.2654
 20
1.84775
 11
56.408
 21
1.78201
  0
LINE
  8
0
 10
56.408
 20
1.78201
 11
56.545
 21
1.70528
  0
LINE
  8
0
 10
56.545
 20
1.70528
 11
56.6756
 21
1.61803
  0
LINE
  8
0
 10
56.6756
 20
1.61803
 11
56.7989
 21
1.5208
  0
LINE
  8
0
 10
56.7989
 20
1.5208
 11
56.9142
 21
1.4142
  0
LINE
  8
0
 10
56.9142
 20
1.4142
 11
57.0208
 21
1.29889
  0
LINE
  8
0
 10
57.0208
 20
1.29889
 11
57.118
 21
1.17557
  0
LINE
  8
0
 10
57.118
 20
1.17557
 11
57.2053
 21
1.04498
  0
LINE
  8
0
 10
57.2053
 20
1.04498
 11
57.282
 21
0.907974
  0
LINE
  8
0
 10
57.282
 20
0.907974
 11
57.3478
 21
0.765366
  0
LINE
  8
0
 10
57.3478
 20
0.765366
 11
57.4021
 21
0.618027
  0
LINE
  8
0
 10
57.4021
 20
0.618027
 11
57.4447
 21
0.466888
  0
LINE
  8
0
 10
57.4447
 20
0.466888
 11
57.4754
 21
0.312866
  0
LINE
  8
0
 10
57.4754
 20
0.312866
 11
57.4938
 21
0.156906
  0
LINE
  8
0
 10
57.4938
 20
0.156906
 11
57.5
 21
0
  0
LINE
  8
0
 10
57.5
 20
0
 11
57.4938
 21
-0.156906
  0
LINE
  8
0
 10
57.4938
 20
-0.156906
 11
57.4754
 21
-0.312866
  0
LINE
  8
0
 10
57.4754
 20
-0.312866
 11
57.4447
 21
-0.466888
  0
LINE
  8
0
 10
57.4447
 20
-0.466888
 11
57.4021
 21
-0.618027
  0
LINE
  8
0
 10
57.4021
 20
-0.618027
 11
57.3478
 21
-0.765366
  0
LINE
  8
0
 10
57.3478
 20
-0.765366
 11
57.282
 21
-0.907974
  0
LINE
  8
0
 10
57.282
 20
-0.907974
 11
57.2053
 21
-1.04498
  0
LINE
  8
0
 10
57.2053
 20
-1.04498
 11
57.118
 21
-1.17557
  0
LINE
  8
0
 10
57.118
 20
-1.17557
 11
57.0208
 21
-1.29889
  0
LINE
  8
0
 10
57.0208
 20
-1.29889
 11
56.9142
 21
-1.4142
  0
LINE
  8
0
 10
56.9142
 20
-1.4142
 11
56.7989
 21
-1.5208
  0
LINE
  8
0
 10
56.7989
 20
-1.5208
 11
56.6756
 21
-1.61803
  0
LINE
  8
0
 10
56.6756
 20
-1.61803
 11
56.545
 21
-1.70528
  0
LINE
  8
0
 10
56.545
 20
-1.70528
 11
56.408
 21
-1.78201
  0
LINE
  8
0
 10
56.408
 20
-1.78201
 11
56.2654
 21
-1.84775
  0
LINE
  8
0
 10
56.2654
 20
-1.84775
 11
56.118
 21
-1.9021
  0
LINE
  8
0
 10
56.118
 20
-1.9021
 11
55.9669
 21
-1.94473
  0
LINE
  8
0
 10
55.9669
 20
-1.94473
 11
55.8129
 21
-1.97537
  0
LINE
  8
0
 10
55.8129
 20
-1.97537
 11
55.6569
 21
-1.99382
  0
LINE
  8
0
 10
55.6569
 20
-1.99382
 11
55.5
 21
-2
  0
LINE
  8
0
 10
55.5
 20
-2
 11
55.3431
 21
-1.99382
  0
LINE
  8
0
 10
84.3431
 20
-1.99382
 11
84.1871
 21
-1.97537
  0
LINE
  8
0
 10
84.1871
 20
-1.97537
 11
84.0331
 21
-1.94473
  0
LINE
  8
0
 10
84.0331
 20
-1.94473
 11
83.882
 21
-1.9021
  0
LINE
  8
0
 10
83.882
 20
-1.9021
 11
83.7346
 21
-1.84775
  0
LINE
  8
0
 10
83.7346
 20
-1.84775
 11
83.592
 21
-1.78201
  0
LINE
  8
0
 10
83.592
 20
-1.78201
 11
83.455
 21
-1.70528
  0
LINE
  8
0
 10
83.455
 20
-1.70528
 11
83.3244
 21
-1.61803
  0
LINE
  8
0
 10
83.3244
 20
-1.61803
 11
83.2011
 21
-1.5208
  0
LINE
  8
0
 10
83.2011
 20
-1.5208
 11
83.0858
 21
-1.4142
  0
LINE
  8
0
 10
83.0858
 20
-1.4142
 11
82.9792
 21
-1.29889
  0
LINE
  8
0
 10
82.9792
 20
-1.29889
 11
82.882
 21
-1.17557
  0
LINE
  8
0
 10
82.882
 20
-1.17557
 11
82.7947
 21
-1.04498
  0
LINE
  8
0
 10
82.7947
 20
-1.04498
 11
82.718
 21
-0.907974
  0
LINE
  8
0
 10
82.718
 20
-0.907974
 11
82.6522
 21
-0.765366
  0
LINE
  8
0
 10
82.6522
 20
-0.765366
 11
82.5979
 21
-0.618027
  0
LINE
  8
0
 10
82.5979
 20
-0.618027
 11
82.5553
 21
-0.466888
  0
LINE
  8
0
 10
82.5553
 20
-0.466888
 11
82.5246
 21
-0.312866
  0
LINE
  8
0
 10
82.5246
 20
-0.312866
 11
82.5062
 21
-0.156906
  0
LINE
  8
0
 10
82.5062
 20
-0.156906
 11
82.5
 21
0
  0
LINE
  8
0
 10
82.5
 20
0
 11
82.5062
 21
0.156906
  0
LINE
  8
0
 10
82.5062
 20
0.156906
 11
82.5246
 21
0.312866
  0
LINE
  8
0
 10
82.5246
 20
0.312866
 11
82.5553
 21
0.466888
  0
LINE
  8
0
 10
82.5553
 20
0.466888
 11
82.5979
 21
0.618027
  0
LINE
  8
0
 10
82.5979
 20
0.618027
 11
82.6522
 21
0.765366
  0
LINE
  8
0
 10
82.6522
 20
0.765366
 11
82.718
 21
0.907974
  0
LINE
  8
0
 10
82.718
 20
0.907974
 11
82.7947
 21
1.04498
  0
LINE
  8
0
 10
82.7947
 20
1.04498
 11
82.882
 21
1.17557
  0
LINE
  8
0
 10
82.882
 20
1.17557
 11
82.9792
 21
1.29889
  0
LINE
  8
0
 10
82.9792
 20
1.29889
 11
83.0858
 21
1.4142
  0
LINE
  8
0
 10
83.0858
 20
1.4142
 11
83.2011
 21
1.5208
  0
LINE
  8
0
 10
83.2011
 20
1.5208
 11
83.3244
 21
1.61803
  0
LINE
  8
0
 10
83.3244
 20
1.61803
 11
83.455
 21
1.70528
  0
LINE
  8
0
 10
83.455
 20
1.70528
 11
83.592
 21
1.78201
  0
LINE
  8
0
 10
83.592
 20
1.78201
 11
83.7346
 21
1.84775
  0
LINE
  8
0
 10
83.7346
 20
1.84775
 11
83.882
 21
1.9021
  0
LINE
  8
0
 10
83.882
 20
1.9021
 11
84.0331
 21
1.94473
  0
LINE
  8
0
 10
84.0331
 20
1.94473
 11
84.1871
 21
1.97537
  0
LINE
  8
0
 10
84.1871
 20
1.97537
 11
84.3431
 21
1.99382
  0
LINE
  8
0
 10
84.3431
 20
1.99382
 11
84.5
 21
2
  0
LINE
  8
0
 10
84.5
 20
2
 11
84.6569
 21
1.99382
  0
LINE
  8
0
 10
84.6569
 20
1.99382
 11
84.8129
 21
1.97537
  0
LINE
  8
0
 10
84.8129
 20
1.97537
 11
84.9669
 21
1.94473
  0
LINE
  8
0
 10
84.9669
 20
1.94473
 11
85.118
 21
1.9021
  0
LINE
  8
0
 10
85.118
 20
1.9021
 11
85.2654
 21
1.84775
  0
LINE
  8
0
 10
85.2654
 20
1.84775
 11
85.408
 21
1.78201
  0
LINE
  8
0
 10
85.408
 20
1.78201
 11
85.545
 21
1.70528
  0
LINE
  8
0
 10
85.545
 20
1.70528
 11
85.6756
 21
1.61803
  0
LINE
  8
0
 10
85.6756
 20
1.61803
 11
85.7989
 21
1.5208
  0
LINE
  8
0
 10
85.7989
 20
1.5208
 11
85.9142
 21
1.4142
  0
LINE
  8
0
 10
85.9142
 20
1.4142
 11
86.0208
 21
1.29889
  0
LINE
  8
0
 10
86.0208
 20
1.29889
 11
86.118
 21
1.17557
  0
LINE
  8
0
 10
86.118
 20
1.17557
 11
86.2053
 21
1.04498
  0
LINE
  8
0
 10
86.2053
 20
1.04498
 11
86.282
 21
0.907974
  0
LINE
  8
0
 10
86.282
 20
0.907974
 11
86.3477
 21
0.765366
  0
LINE
  8
0
 10
86.3477
 20
0.765366
 11
86.4021
 21
0.618027
  0
LINE
  8
0
 10
86.4021
 20
0.618027
 11
86.4447
 21
0.466888
  0
LINE
  8
0
 10
86.4447
 20
0.466888
 11
86.4754
 21
0.312866
  0
LINE
  8
0
 10
86.4754
 20
0.312866
 11
86.4938
 21
0.156906
  0
LINE
  8
0
 10
86.4938
 20
0.156906
 11
86.5
 21
0
  0
LINE
  8
0
 10
86.5
 20
0
 11
86.4938
 21
-0.156906
  0
LINE
  8
0
 10
86.4938
 20
-0.156906
 11
86.4754
 21
-0.312866
  0
LINE
  8
0
 10
86.4754
 20
-0.312866
 11
86.4447
 21
-0.466888
  0
LINE
  8
0
 10
86.4447
 20
-0.466888
 11
86.4021
 21
-0.618027
  0
LINE
  8
0
 10
86.4021
 20
-0.618027
 11
86.3477
 21
-0.765366
  0
LINE
  8
0
 10
86.3477
 20
-0.765366
 11
86.282
 21
-0.907974
  0
LINE
  8
0
 10
86.282
 20
-0.907974
 11
86.2053
 21
-1.04498
  0
LINE
  8
0
 10
86.2053
 20
-1.04498
 11
86.118
 21
-1.17557
  0
LINE
  8
0
 10
86.118
 20
-1.17557
 11
86.0208
 21
-1.29889
  0
LINE
  8
0
 10
86.0208
 20
-1.29889
 11
85.9142
 21
-1.4142
  0
LINE
  8
0
 10
85.9142
 20
-1.4142
 11
85.7989
 21
-1.5208
  0
LINE
  8
0
 10
85.7989
 20
-1.5208
 11
85.6756
 21
-1.61803
  0
LINE
  8
0
 10
85.6756
 20
-1.61803
 11
85.545
 21
-1.70528
  0
LINE
  8
0
 10
85.545
 20
-1.70528
 11
85.408
 21
-1.78201
  0
LINE
  8
0
 10
85.408
 20
-1.78201
 11
85.2654
 21
-1.84775
  0
LINE
  8
0
 10
85.2654
 20
-1.84775
 11
85.118
 21
-1.9021
  0
LINE
  8
0
 10
85.118
 20
-1.9021
 11
84.9669
 21
-1.94473
  0
LINE
  8
0
 10
84.9669
 20
-1.94473
 11
84.8129
 21
-1.97537
  0
LINE
  8
0
 10
84.8129
 20
-1.97537
 11
84.6569
 21
-1.99382
  0
LINE
  8
0
 10
84.6569
 20
-1.99382
 11
84.5
 21
-2
  0
LINE
  8
0
 10
84.5
 20
-2
 11
84.3431
 21
-1.99382
  0
LINE
  8
0
 10
77.1326
 20
-14.2192
 11
76.3983
 21
-13.8288
  0
LINE
  8
0
 10
76.3983
 20
-13.8288
 11
75.8862
 21
-13.1734
  0
LINE
  8
0
 10
75.8862
 20
-13.1734
 11
75.685
 21
-12.3665
  0
LINE
  8
0
 10
75.685
 20
-12.3665
 11
75.8295
 21
-11.5475
  0
LINE
  8
0
 10
75.8295
 20
-11.5475
 11
76.2945
 21
-10.858
  0
LINE
  8
0
 10
76.2945
 20
-10.858
 11
76.5531
 21
-10.5994
  0
LINE
  8
0
 10
76.5531
 20
-10.5994
 11
77.3473
 21
-10.1127
  0
LINE
  8
0
 10
77.3473
 20
-10.1127
 11
78.8388
 21
-8.83882
  0
LINE
  8
0
 10
78.8388
 20
-8.83882
 11
80.1127
 21
-7.34731
  0
LINE
  8
0
 10
80.1127
 20
-7.34731
 11
80.5994
 21
-6.55313
  0
LINE
  8
0
 10
80.5994
 20
-6.55313
 11
80.858
 21
-6.29449
  0
LINE
  8
0
 10
80.858
 20
-6.29449
 11
81.5475
 21
-5.82945
  0
LINE
  8
0
 10
81.5475
 20
-5.82945
 11
82.3665
 21
-5.68504
  0
LINE
  8
0
 10
82.3665
 20
-5.68504
 11
83.1734
 21
-5.88623
  0
LINE
  8
0
 10
83.1734
 20
-5.88623
 11
83.8288
 21
-6.39825
  0
LINE
  8
0
 10
83.8288
 20
-6.39825
 11
84.2192
 21
-7.13255
  0
LINE
  8
0
 10
84.2192
 20
-7.13255
 11
84.2772
 21
-7.96217
  0
LINE
  8
0
 10
84.2772
 20
-7.96217
 11
83.9928
 21
-8.74367
  0
LINE
  8
0
 10
83.9928
 20
-8.74367
 11
83.6791
 21
-9.22667
  0
LINE
  8
0
 10
83.6791
 20
-9.22667
 11
83.3488
 21
-9.69844
  0
LINE
  8
0
 10
83.3488
 20
-9.69844
 11
83.0022
 21
-10.1584
  0
LINE
  8
0
 10
83.0022
 20
-10.1584
 11
82.6397
 21
-10.606
  0
LINE
  8
0
 10
82.6397
 20
-10.606
 11
82.2619
 21
-11.0406
  0
LINE
  8
0
 10
82.2619
 20
-11.0406
 11
81.8691
 21
-11.4619
  0
LINE
  8
0
 10
81.8691
 20
-11.4619
 11
81.4619
 21
-11.8691
  0
LINE
  8
0
 10
81.4619
 20
-11.8691
 11
81.0406
 21
-12.2619
  0
LINE
  8
0
 10
81.0406
 20
-12.2619
 11
80.606
 21
-12.6397
  0
LINE
  8
0
 10
80.606
 20
-12.6397
 11
80.1584
 21
-13.0022
  0
LINE
  8
0
 10
80.1584
 20
-13.0022
 11
79.6984
 21
-13.3488
  0
LINE
  8
0
 10
79.6984
 20
-13.3488
 11
79.2267
 21
-13.6791
  0
LINE
  8
0
 10
79.2267
 20
-13.6791
 11
78.7437
 21
-13.9928
  0
LINE
  8
0
 10
78.7437
 20
-13.9928
 11
77.9622
 21
-14.2772
  0
LINE
  8
0
 10
77.9622
 20
-14.2772
 11
77.1326
 21
-14.2192
  0
LINE
  8
0
 10
61.2563
 20
-13.9928
 11
60.7733
 21
-13.6791
  0
LINE
  8
0
 10
60.7733
 20
-13.6791
 11
60.3016
 21
-13.3488
  0
LINE
  8
0
 10
60.3016
 20
-13.3488
 11
59.8416
 21
-13.0022
  0
LINE
  8
0
 10
59.8416
 20
-13.0022
 11
59.394
 21
-12.6397
  0
LINE
  8
0
 10
59.394
 20
-12.6397
 11
58.9594
 21
-12.2619
  0
LINE
  8
0
 10
58.9594
 20
-12.2619
 11
58.5381
 21
-11.8691
  0
LINE
  8
0
 10
58.5381
 20
-11.8691
 11
58.1309
 21
-11.4619
  0
LINE
  8
0
 10
58.1309
 20
-11.4619
 11
57.7381
 21
-11.0406
  0
LINE
  8
0
 10
57.7381
 20
-11.0406
 11
57.3603
 21
-10.606
  0
LINE
  8
0
 10
57.3603
 20
-10.606
 11
56.9978
 21
-10.1584
  0
LINE
  8
0
 10
56.9978
 20
-10.1584
 11
56.6512
 21
-9.69844
  0
LINE
  8
0
 10
56.6512
 20
-9.69844
 11
56.3209
 21
-9.22667
  0
LINE
  8
0
 10
56.3209
 20
-9.22667
 11
56.0072
 21
-8.74367
  0
LINE
  8
0
 10
56.0072
 20
-8.74367
 11
55.7228
 21
-7.96217
  0
LINE
  8
0
 10
55.7228
 20
-7.96217
 11
55.7808
 21
-7.13255
  0
LINE
  8
0
 10
55.7808
 20
-7.13255
 11
56.1712
 21
-6.39825
  0
LINE
  8
0
 10
56.1712
 20
-6.39825
 11
56.8266
 21
-5.88623
  0
LINE
  8
0
 10
56.8266
 20
-5.88623
 11
57.6335
 21
-5.68504
  0
LINE
  8
0
 10
57.6335
 20
-5.68504
 11
58.4525
 21
-5.82945
  0
LINE
  8
0
 10
58.4525
 20
-5.82945
 11
59.142
 21
-6.29449
  0
LINE
  8
0
 10
59.142
 20
-6.29449
 11
59.4006
 21
-6.55313
  0
LINE
  8
0
 10
59.4006
 20
-6.55313
 11
59.8873
 21
-7.34731
  0
LINE
  8
0
 10
59.8873
 20
-7.34731
 11
61.1612
 21
-8.83882
  0
LINE
  8
0
 10
61.1612
 20
-8.83882
 11
62.6527
 21
-10.1127
  0
LINE
  8
0
 10
62.6527
 20
-10.1127
 11
63.4469
 21
-10.5994
  0
LINE
  8
0
 10
63.4469
 20
-10.5994
 11
63.7055
 21
-10.858
  0
LINE
  8
0
 10
63.7055
 20
-10.858
 11
64.1705
 21
-11.5475
  0
LINE
  8
0
 10
64.1705
 20
-11.5475
 11
64.315
 21
-12.3665
  0
LINE
  8
0
 10
64.315
 20
-12.3665
 11
64.1138
 21
-13.1734
  0
LINE
  8
0
 10
64.1138
 20
-13.1734
 11
63.6017
 21
-13.8288
  0
LINE
  8
0
 10
63.6017
 20
-13.8288
 11
62.8674
 21
-14.2192
  0
LINE
  8
0
 10
62.8674
 20
-14.2192
 11
62.0378
 21
-14.2772
  0
LINE
  8
0
 10
62.0378
 20
-14.2772
 11
61.2563
 21
-13.9928
  0
LINE
  8
0
 10
40
 20
-27
 11
39.8431
 21
-26.9938
  0
LINE
  8
0
 10
39.8431
 20
-26.9938
 11
39.6871
 21
-26.9754
  0
LINE
  8
0
 10
39.6871
 20
-26.9754
 11
39.5331
 21
-26.9447
  0
LINE
  8
0
 10
39.5331
 20
-26.9447
 11
39.382
 21
-26.9021
  0
LINE
  8
0
 10
39.382
 20
-26.9021
 11
39.2346
 21
-26.8477
  0
LINE
  8
0
 10
39.2346
 20
-26.8477
 11
39.092
 21
-26.782
  0
LINE
  8
0
 10
39.092
 20
-26.782
 11
38.955
 21
-26.7053
  0
LINE
  8
0
 10
38.955
 20
-26.7053
 11
38.8244
 21
-26.618
  0
LINE
  8
0
 10
38.8244
 20
-26.618
 11
38.7011
 21
-26.5208
  0
LINE
  8
0
 10
38.7011
 20
-26.5208
 11
38.5858
 21
-26.4142
  0
LINE
  8
0
 10
38.5858
 20
-26.4142
 11
38.4792
 21
-26.2989
  0
LINE
  8
0
 10
38.4792
 20
-26.2989
 11
38.382
 21
-26.1756
  0
LINE
  8
0
 10
38.382
 20
-26.1756
 11
38.2947
 21
-26.045
  0
LINE
  8
0
 10
38.2947
 20
-26.045
 11
38.218
 21
-25.908
  0
LINE
  8
0
 10
38.218
 20
-25.908
 11
38.1523
 21
-25.7654
  0
LINE
  8
0
 10
38.1523
 20
-25.7654
 11
38.0979
 21
-25.618
  0
LINE
  8
0
 10
38.0979
 20
-25.618
 11
38.0553
 21
-25.4669
  0
LINE
  8
0
 10
38.0553
 20
-25.4669
 11
38.0246
 21
-25.3129
  0
LINE
  8
0
 10
38.0246
 20
-25.3129
 11
38.0062
 21
-25.1569
  0
LINE
  8
0
 10
38.0062
 20
-25.1569
 11
38
 21
-25
  0
LINE
  8
0
 10
38
 20
-25
 11
38.0062
 21
-24.8431
  0
LINE
  8
0
 10
38.0062
 20
-24.8431
 11
38.0246
 21
-24.6871
  0
LINE
  8
0
 10
38.0246
 20
-24.6871
 11
38.0553
 21
-24.5331
  0
LINE
  8
0
 10
38.0553
 20
-24.5331
 11
38.0979
 21
-24.382
  0
LINE
  8
0
 10
38.0979
 20
-24.382
 11
38.1523
 21
-24.2346
  0
LINE
  8
0
 10
38.1523
 20
-24.2346
 11
38.218
 21
-24.092
  0
LINE
  8
0
 10
38.218
 20
-24.092
 11
38.2947
 21
-23.955
  0
LINE
  8
0
 10
38.2947
 20
-23.955
 11
38.382
 21
-23.8244
  0
LINE
  8
0
 10
38.382
 20
-23.8244
 11
38.4792
 21
-23.7011
  0
LINE
  8
0
 10
38.4792
 20
-23.7011
 11
38.5858
 21
-23.5858
  0
LINE
  8
0
 10
38.5858
 20
-23.5858
 11
38.7011
 21
-23.4792
  0
LINE
  8
0
 10
38.7011
 20
-23.4792
 11
38.8244
 21
-23.382
  0
LINE
  8
0
 10
38.8244
 20
-23.382
 11
38.955
 21
-23.2947
  0
LINE
  8
0
 10
38.955
 20
-23.2947
 11
39.092
 21
-23.218
  0
LINE
  8
0
 10
39.092
 20
-23.218
 11
39.2346
 21
-23.1522
  0
LINE
  8
0
 10
39.2346
 20
-23.1522
 11
39.382
 21
-23.0979
  0
LINE
  8
0
 10
39.382
 20
-23.0979
 11
39.5331
 21
-23.0553
  0
LINE
  8
0
 10
39.5331
 20
-23.0553
 11
39.6871
 21
-23.0246
  0
LINE
  8
0
 10
39.6871
 20
-23.0246
 11
39.8431
 21
-23.0062
  0
LINE
  8
0
 10
39.8431
 20
-23.0062
 11
40
 21
-23
  0
LINE
  8
0
 10
40
 20
-23
 11
50
 21
-23
  0
LINE
  8
0
 10
50
 20
-23
 11
50.1569
 21
-23.0062
  0
LINE
  8
0
 10
50.1569
 20
-23.0062
 11
50.3129
 21
-23.0246
  0
LINE
  8
0
 10
50.3129
 20
-23.0246
 11
50.4669
 21
-23.0553
  0
LINE
  8
0
 10
50.4669
 20
-23.0553
 11
50.618
 21
-23.0979
  0
LINE
  8
0
 10
50.618
 20
-23.0979
 11
50.7654
 21
-23.1522
  0
LINE
  8
0
 10
50.7654
 20
-23.1522
 11
50.908
 21
-23.218
  0
LINE
  8
0
 10
50.908
 20
-23.218
 11
51.045
 21
-23.2947
  0
LINE
  8
0
 10
51.045
 20
-23.2947
 11
51.1756
 21
-23.382
  0
LINE
  8
0
 10
51.1756
 20
-23.382
 11
51.2989
 21
-23.4792
  0
LINE
  8
0
 10
51.2989
 20
-23.4792
 11
51.4142
 21
-23.5858
  0
LINE
  8
0
 10
51.4142
 20
-23.5858
 11
51.5208
 21
-23.7011
  0
LINE
  8
0
 10
51.5208
 20
-23.7011
 11
51.618
 21
-23.8244
  0
LINE
  8
0
 10
51.618
 20
-23.8244
 11
51.7053
 21
-23.955
  0
LINE
  8
0
 10
51.7053
 20
-23.955
 11
51.782
 21
-24.092
  0
LINE
  8
0
 10
51.782
 20
-24.092
 11
51.8478
 21
-24.2346
  0
LINE
  8
0
 10
51.8478
 20
-24.2346
 11
51.9021
 21
-24.382
  0
LINE
  8
0
 10
51.9021
 20
-24.382
 11
51.9447
 21
-24.5331
  0
LINE
  8
0
 10
51.9447
 20
-24.5331
 11
51.9754
 21
-24.6871
  0
LINE
  8
0
 10
51.9754
 20
-24.6871
 11
51.9938
 21
-24.8431
  0
LINE
  8
0
 10
51.9938
 20
-24.8431
 11
52
 21
-25
  0
LINE
  8
0
 10
52
 20
-25
 11
51.9938
 21
-25.1569
  0
LINE
  8
0
 10
51.9938
 20
-25.1569
 11
51.9754
 21
-25.3129
  0
LINE
  8
0
 10
51.9754
 20
-25.3129
 11
51.9447
 21
-25.4669
  0
LINE
  8
0
 10
51.9447
 20
-25.4669
 11
51.9021
 21
-25.618
  0
LINE
  8
0
 10
51.9021
 20
-25.618
 11
51.8478
 21
-25.7654
  0
LINE
  8
0
 10
51.8478
 20
-25.7654
 11
51.782
 21
-25.908
  0
LINE
  8
0
 10
51.782
 20
-25.908
 11
51.7053
 21
-26.045
  0
LINE
  8
0
 10
51.7053
 20
-26.045
 11
51.618
 21
-26.1756
  0
LINE
  8
0
 10
51.618
 20
-26.1756
 11
51.5208
 21
-26.2989
  0
LINE
  8
0
 10
51.5208
 20
-26.2989
 11
51.4142
 21
-26.4142
  0
LINE
  8
0
 10
51.4142
 20
-26.4142
 11
51.2989
 21
-26.5208
  0
LINE
  8
0
 10
51.2989
 20
-26.5208
 11
51.1756
 21
-26.618
  0
LINE
  8
0
 10
51.1756
 20
-26.618
 11
51.045
 21
-26.7053
  0
LINE
  8
0
 10
51.045
 20
-26.7053
 11
50.908
 21
-26.782
  0
LINE
  8
0
 10
50.908
 20
-26.782
 11
50.7654
 21
-26.8477
  0
LINE
  8
0
 10
50.7654
 20
-26.8477
 11
50.618
 21
-26.9021
  0
LINE
  8
0
 10
50.618
 20
-26.9021
 11
50.4669
 21
-26.9447
  0
LINE
  8
0
 10
50.4669
 20
-26.9447
 11
50.3129
 21
-26.9754
  0
LINE
  8
0
 10
50.3129
 20
-26.9754
 11
50.1569
 21
-26.9938
  0
LINE
  8
0
 10
50.1569
 20
-26.9938
 11
50
 21
-27
  0
LINE
  8
0
 10
50
 20
-27
 11
40
 21
-27
  0
LINE
  8
0
 10
90
 20
-27
 11
89.8431
 21
-26.9938
  0
LINE
  8
0
 10
89.8431
 20
-26.9938
 11
89.6871
 21
-26.9754
  0
LINE
  8
0
 10
89.6871
 20
-26.9754
 11
89.5331
 21
-26.9447
  0
LINE
  8
0
 10
89.5331
 20
-26.9447
 11
89.382
 21
-26.9021
  0
LINE
  8
0
 10
89.382
 20
-26.9021
 11
89.2346
 21
-26.8477
  0
LINE
  8
0
 10
89.2346
 20
-26.8477
 11
89.092
 21
-26.782
  0
LINE
  8
0
 10
89.092
 20
-26.782
 11
88.955
 21
-26.7053
  0
LINE
  8
0
 10
88.955
 20
-26.7053
 11
88.8244
 21
-26.618
  0
LINE
  8
0
 10
88.8244
 20
-26.618
 11
88.7011
 21
-26.5208
  0
LINE
  8
0
 10
88.7011
 20
-26.5208
 11
88.5858
 21
-26.4142
  0
LINE
  8
0
 10
88.5858
 20
-26.4142
 11
88.4792
 21
-26.2989
  0
LINE
  8
0
 10
88.4792
 20
-26.2989
 11
88.382
 21
-26.1756
  0
LINE
  8
0
 10
88.382
 20
-26.1756
 11
88.2947
 21
-26.045
  0
LINE
  8
0
 10
88.2947
 20
-26.045
 11
88.218
 21
-25.908
  0
LINE
  8
0
 10
88.218
 20
-25.908
 11
88.1522
 21
-25.7654
  0
LINE
  8
0
 10
88.1522
 20
-25.7654
 11
88.0979
 21
-25.618
  0
LINE
  8
0
 10
88.0979
 20
-25.618
 11
88.0553
 21
-25.4669
  0
LINE
  8
0
 10
88.0553
 20
-25.4669
 11
88.0246
 21
-25.3129
  0
LINE
  8
0
 10
88.0246
 20
-25.3129
 11
88.0062
 21
-25.1569
  0
LINE
  8
0
 10
88.0062
 20
-25.1569
 11
88
 21
-25
  0
LINE
  8
0
 10
88
 20
-25
 11
88.0062
 21
-24.8431
  0
LINE
  8
0
 10
88.0062
 20
-24.8431
 11
88.0246
 21
-24.6871
  0
LINE
  8
0
 10
88.0246
 20
-24.6871
 11
88.0553
 21
-24.5331
  0
LINE
  8
0
 10
88.0553
 20
-24.5331
 11
88.0979
 21
-24.382
  0
LINE
  8
0
 10
88.0979
 20
-24.382
 11
88.1522
 21
-24.2346
  0
LINE
  8
0
 10
88.1522
 20
-24.2346
 11
88.218
 21
-24.092
  0
LINE
  8
0
 10
88.218
 20
-24.092
 11
88.2947
 21
-23.955
  0
LINE
  8
0
 10
88.2947
 20
-23.955
 11
88.382
 21
-23.8244
  0
LINE
  8
0
 10
88.382
 20
-23.8244
 11
88.4792
 21
-23.7011
  0
LINE
  8
0
 10
88.4792
 20
-23.7011
 11
88.5858
 21
-23.5858
  0
LINE
  8
0
 10
88.5858
 20
-23.5858
 11
88.7011
 21
-23.4792
  0
LINE
  8
0
 10
88.7011
 20
-23.4792
 11
88.8244
 21
-23.382
  0
LINE
  8
0
 10
88.8244
 20
-23.382
 11
88.955
 21
-23.2947
  0
LINE
  8
0
 10
88.955
 20
-23.2947
 11
89.092
 21
-23.218
  0
LINE
  8
0
 10
89.092
 20
-23.218
 11
89.2346
 21
-23.1522
  0
LINE
  8
0
 10
89.2346
 20
-23.1522
 11
89.382
 21
-23.0979
  0
LINE
  8
0
 10
89.382
 20
-23.0979
 11
89.5331
 21
-23.0553
  0
LINE
  8
0
 10
89.5331
 20
-23.0553
 11
89.6871
 21
-23.0246
  0
LINE
  8
0
 10
89.6871
 20
-23.0246
 11
89.8431
 21
-23.0062
  0
LINE
  8
0
 10
89.8431
 20
-23.0062
 11
90
 21
-23
  0
LINE
  8
0
 10
90
 20
-23
 11
100
 21
-23
  0
LINE
  8
0
 10
100
 20
-23
 11
100.157
 21
-23.0062
  0
LINE
  8
0
 10
100.157
 20
-23.0062
 11
100.313
 21
-23.0246
  0
LINE
  8
0
 10
100.313
 20
-23.0246
 11
100.467
 21
-23.0553
  0
LINE
  8
0
 10
100.467
 20
-23.0553
 11
100.618
 21
-23.0979
  0
LINE
  8
0
 10
100.618
 20
-23.0979
 11
100.765
 21
-23.1522
  0
LINE
  8
0
 10
100.765
 20
-23.1522
 11
100.908
 21
-23.218
  0
LINE
  8
0
 10
100.908
 20
-23.218
 11
101.045
 21
-23.2947
  0
LINE
  8
0
 10
101.045
 20
-23.2947
 11
101.176
 21
-23.382
  0
LINE
  8
0
 10
101.176
 20
-23.382
 11
101.299
 21
-23.4792
  0
LINE
  8
0
 10
101.299
 20
-23.4792
 11
101.414
 21
-23.5858
  0
LINE
  8
0
 10
101.414
 20
-23.5858
 11
101.521
 21
-23.7011
  0
LINE
  8
0
 10
101.521
 20
-23.7011
 11
101.618
 21
-23.8244
  0
LINE
  8
0
 10
101.618
 20
-23.8244
 11
101.705
 21
-23.955
  0
LINE
  8
0
 10
101.705
 20
-23.955
 11
101.782
 21
-24.092
  0
LINE
  8
0
 10
101.782
 20
-24.092
 11
101.848
 21
-24.2346
  0
LINE
  8
0
 10
101.848
 20
-24.2346
 11
101.902
 21
-24.382
  0
LINE
  8
0
 10
101.902
 20
-24.382
 11
101.945
 21
-24.5331
  0
LINE
  8
0
 10
101.945
 20
-24.5331
 11
101.975
 21
-24.6871
  0
LINE
  8
0
 10
101.975
 20
-24.6871
 11
101.994
 21
-24.8431
  0
LINE
  8
0
 10
101.994
 20
-24.8431
 11
102
 21
-25
  0
LINE
  8
0
 10
102
 20
-25
 11
101.994
 21
-25.1569
  0
LINE
  8
0
 10
101.994
 20
-25.1569
 11
101.975
 21
-25.3129
  0
LINE
  8
0
 10
101.975
 20
-25.3129
 11
101.945
 21
-25.4669
  0
LINE
  8
0
 10
101.945
 20
-25.4669
 11
101.902
 21
-25.618
  0
LINE
  8
0
 10
101.902
 20
-25.618
 11
101.848
 21
-25.7654
  0
LINE
  8
0
 10
101.848
 20
-25.7654
 11
101.782
 21
-25.908
  0
LINE
  8
0
 10
101.782
 20
-25.908
 11
101.705
 21
-26.045
  0
LINE
  8
0
 10
101.705
 20
-26.045
 11
101.618
 21
-26.1756
  0
LINE
  8
0
 10
101.618
 20
-26.1756
 11
101.521
 21
-26.2989
  0
LINE
  8
0
 10
101.521
 20
-26.2989
 11
101.414
 21
-26.4142
  0
LINE
  8
0
 10
101.414
 20
-26.4142
 11
101.299
 21
-26.5208
  0
LINE
  8
0
 10
101.299
 20
-26.5208
 11
101.176
 21
-26.618
  0
LINE
  8
0
 10
101.176
 20
-26.618
 11
101.045
 21
-26.7053
  0
LINE
  8
0
 10
101.045
 20
-26.7053
 11
100.908
 21
-26.782
  0
LINE
  8
0
 10
100.908
 20
-26.782
 11
100.765
 21
-26.8477
  0
LINE
  8
0
 10
100.765
 20
-26.8477
 11
100.618
 21
-26.9021
  0
LINE
  8
0
 10
100.618
 20
-26.9021
 11
100.467
 21
-26.9447
  0
LINE
  8
0
 10
100.467
 20
-26.9447
 11
100.313
 21
-26.9754
  0
LINE
  8
0
 10
100.313
 20
-26.9754
 11
100.157
 21
-26.9938
  0
LINE
  8
0
 10
100.157
 20
-26.9938
 11
100
 21
-27
  0
LINE
  8
0
 10
100
 20
-27
 11
90
 21
-27
  0
ENDSEC
  0
SECTION
  2
OBJECTS
  0
DICTIONARY
  0
ENDSEC
  0
EOF
