  0
SECTION
  2
BLOCKS
  0
ENDSEC
  0
SECTION
  2
ENTITIES
  0
LINE
  8
0
 10
-34
 20
0
 11
-33.9384
 21
-0.782165
  0
LINE
  8
0
 10
-33.9384
 20
-0.782165
 11
-33.7553
 21
-1.54507
  0
LINE
  8
0
 10
-33.7553
 20
-1.54507
 11
-33.455
 21
-2.26994
  0
LINE
  8
0
 10
-33.455
 20
-2.26994
 11
-33.0451
 21
-2.93892
  0
LINE
  8
0
 10
-33.0451
 20
-2.93892
 11
-32.5355
 21
-3.53552
  0
LINE
  8
0
 10
-32.5355
 20
-3.53552
 11
-26.1912
 21
-9.84078
  0
LINE
  8
0
 10
-26.1912
 20
-9.84078
 11
-25.8686
 21
-10.7151
  0
LINE
  8
0
 10
-25.8686
 20
-10.7151
 11
-24.9482
 21
-12.7117
  0
LINE
  8
0
 10
-24.9482
 20
-12.7117
 11
-23.8739
 21
-14.63
  0
LINE
  8
0
 10
-23.8739
 20
-14.63
 11
-22.6525
 21
-16.458
  0
LINE
  8
0
 10
-22.6525
 20
-16.458
 11
-21.2914
 21
-18.1845
  0
LINE
  8
0
 10
-21.2914
 20
-18.1845
 11
-19.799
 21
-19.799
  0
LINE
  8
0
 10
-19.799
 20
-19.799
 11
-18.1845
 21
-21.2914
  0
LINE
  8
0
 10
-18.1845
 20
-21.2914
 11
-16.458
 21
-22.6525
  0
LINE
  8
0
 10
-16.458
 20
-22.6525
 11
-14.63
 21
-23.8739
  0
LINE
  8
0
 10
-14.63
 20
-23.8739
 11
-12.7117
 21
-24.9482
  0
LINE
  8
0
 10
-12.7117
 20
-24.9482
 11
-10.7151
 21
-25.8686
  0
LINE
  8
0
 10
-10.7151
 20
-25.8686
 11
-8.65248
 21
-26.6296
  0
LINE
  8
0
 10
-8.65248
 20
-26.6296
 11
-6.53647
 21
-27.2264
  0
LINE
  8
0
 10
-6.53647
 20
-27.2264
 11
-4.38016
 21
-27.6553
  0
LINE
  8
0
 10
-4.38016
 20
-27.6553
 11
-2.19685
 21
-27.9137
  0
LINE
  8
0
 10
-2.19685
 20
-27.9137
 11
0
 21
-28
  0
LINE
  8
0
 10
0
 20
-28
 11
10
 21
-28
  0
LINE
  8
0
 10
10
 20
-28
 11
10.6926
 21
-27.9728
  0
LINE
  8
0
 10
10.6926
 20
-27.9728
 11
18.9099
 21
-31.4908
  0
LINE
  8
0
 10
18.9099
 20
-31.4908
 11
19.654
 21
-31.7398
  0
LINE
  8
0
 10
19.654
 20
-31.7398
 11
20.4278
 21
-31.8693
  0
LINE
  8
0
 10
20.4278
 20
-31.8693
 11
21.2124
 21
-31.8761
  0
LINE
  8
0
 10
21.2124
 20
-31.8761
 11
21.9883
 21
-31.7602
  0
LINE
  8
0
 10
21.9883
 20
-31.7602
 11
22.7366
 21
-31.5243
  0
LINE
  8
0
 10
22.7366
 20
-31.5243
 11
23.4388
 21
-31.1742
  0
LINE
  8
0
 10
23.4388
 20
-31.1742
 11
24.0775
 21
-30.7186
  0
LINE
  8
0
 10
24.0775
 20
-30.7186
 11
24.6371
 21
-30.1686
  0
LINE
  8
0
 10
24.6371
 20
-30.1686
 11
25.1038
 21
-29.5379
  0
LINE
  8
0
 10
25.1038
 20
-29.5379
 11
25.4661
 21
-28.842
  0
LINE
  8
0
 10
25.4661
 20
-28.842
 11
28.936
 21
-20.5968
  0
LINE
  8
0
 10
28.936
 20
-20.5968
 11
29.799
 21
-19.799
  0
LINE
  8
0
 10
29.799
 20
-19.799
 11
31.2914
 21
-18.1845
  0
LINE
  8
0
 10
31.2914
 20
-18.1845
 11
32.6525
 21
-16.458
  0
LINE
  8
0
 10
32.6525
 20
-16.458
 11
33.8739
 21
-14.63
  0
LINE
  8
0
 10
33.8739
 20
-14.63
 11
34.9482
 21
-12.7117
  0
LINE
  8
0
 10
34.9482
 20
-12.7117
 11
35.8686
 21
-10.7151
  0
LINE
  8
0
 10
35.8686
 20
-10.7151
 11
36.6296
 21
-8.65248
  0
LINE
  8
0
 10
36.6296
 20
-8.65248
 11
37.2264
 21
-6.53647
  0
LINE
  8
0
 10
37.2264
 20
-6.53647
 11
37.6553
 21
-4.38016
  0
LINE
  8
0
 10
37.6553
 20
-4.38016
 11
37.9137
 21
-2.19685
  0
LINE
  8
0
 10
37.9137
 20
-2.19685
 11
38
 21
0
  0
LINE
  8
0
 10
38
 20
0
 11
37.9137
 21
2.19685
  0
LINE
  8
0
 10
37.9137
 20
2.19685
 11
37.6553
 21
4.38016
  0
LINE
  8
0
 10
37.6553
 20
4.38016
 11
37.2264
 21
6.53647
  0
LINE
  8
0
 10
37.2264
 20
6.53647
 11
36.6296
 21
8.65248
  0
LINE
  8
0
 10
36.6296
 20
8.65248
 11
35.8686
 21
10.7151
  0
LINE
  8
0
 10
35.8686
 20
10.7151
 11
34.9482
 21
12.7117
  0
LINE
  8
0
 10
34.9482
 20
12.7117
 11
33.8739
 21
14.63
  0
LINE
  8
0
 10
33.8739
 20
14.63
 11
32.6525
 21
16.458
  0
LINE
  8
0
 10
32.6525
 20
16.458
 11
31.2914
 21
18.1845
  0
LINE
  8
0
 10
31.2914
 20
18.1845
 11
29.799
 21
19.799
  0
LINE
  8
0
 10
29.799
 20
19.799
 11
28.936
 21
20.5968
  0
LINE
  8
0
 10
28.936
 20
20.5968
 11
25.4661
 21
28.842
  0
LINE
  8
0
 10
25.4661
 20
28.842
 11
25.1038
 21
29.5379
  0
LINE
  8
0
 10
25.1038
 20
29.5379
 11
24.6371
 21
30.1686
  0
LINE
  8
0
 10
24.6371
 20
30.1686
 11
24.0775
 21
30.7186
  0
LINE
  8
0
 10
24.0775
 20
30.7186
 11
23.4388
 21
31.1742
  0
LINE
  8
0
 10
23.4388
 20
31.1742
 11
22.7366
 21
31.5243
  0
LINE
  8
0
 10
22.7366
 20
31.5243
 11
21.9883
 21
31.7602
  0
LINE
  8
0
 10
21.9883
 20
31.7602
 11
21.2124
 21
31.8761
  0
LINE
  8
0
 10
21.2124
 20
31.8761
 11
20.4278
 21
31.8693
  0
LINE
  8
0
 10
20.4278
 20
31.8693
 11
19.654
 21
31.7398
  0
LINE
  8
0
 10
19.654
 20
31.7398
 11
18.9099
 21
31.4908
  0
LINE
  8
0
 10
18.9099
 20
31.4908
 11
10.6926
 21
27.9728
  0
LINE
  8
0
 10
10.6926
 20
27.9728
 11
10
 21
28
  0
LINE
  8
0
 10
10
 20
28
 11
10
 21
28
  0
LINE
  8
0
 10
10
 20
28
 11
0
 21
28
  0
LINE
  8
0
 10
0
 20
28
 11
-2.19685
 21
27.9137
  0
LINE
  8
0
 10
-2.19685
 20
27.9137
 11
-4.38016
 21
27.6553
  0
LINE
  8
0
 10
-4.38016
 20
27.6553
 11
-6.53647
 21
27.2264
  0
LINE
  8
0
 10
-6.53647
 20
27.2264
 11
-8.65248
 21
26.6296
  0
LINE
  8
0
 10
-8.65248
 20
26.6296
 11
-10.7151
 21
25.8686
  0
LINE
  8
0
 10
-10.7151
 20
25.8686
 11
-12.7117
 21
24.9482
  0
LINE
  8
0
 10
-12.7117
 20
24.9482
 11
-14.63
 21
23.8739
  0
LINE
  8
0
 10
-14.63
 20
23.8739
 11
-16.458
 21
22.6525
  0
LINE
  8
0
 10
-16.458
 20
22.6525
 11
-18.1845
 21
21.2914
  0
LINE
  8
0
 10
-18.1845
 20
21.2914
 11
-19.799
 21
19.799
  0
LINE
  8
0
 10
-19.799
 20
19.799
 11
-21.2914
 21
18.1845
  0
LINE
  8
0
 10
-21.2914
 20
18.1845
 11
-22.6525
 21
16.458
  0
LINE
  8
0
 10
-22.6525
 20
16.458
 11
-23.8739
 21
14.63
  0
LINE
  8
0
 10
-23.8739
 20
14.63
 11
-24.9482
 21
12.7117
  0
LINE
  8
0
 10
-24.9482
 20
12.7117
 11
-25.8686
 21
10.7151
  0
LINE
  8
0
 10
-25.8686
 20
10.7151
 11
-26.1912
 21
9.84078
  0
LINE
  8
0
 10
-26.1912
 20
9.84078
 11
-32.5355
 21
3.53552
  0
LINE
  8
0
 10
-32.5355
 20
3.53552
 11
-33.0451
 21
2.93892
  0
LINE
  8
0
 10
-33.0451
 20
2.93892
 11
-33.455
 21
2.26994
  0
LINE
  8
0
 10
-33.455
 20
2.26994
 11
-33.7553
 21
1.54507
  0
LINE
  8
0
 10
-33.7553
 20
1.54507
 11
-33.9384
 21
0.782166
  0
LINE
  8
0
 10
-33.9384
 20
0.782166
 11
-34
 21
0
  0
LINE
  8
0
 10
-31.5
 20
0
 11
-31.4266
 21
0.463516
  0
LINE
  8
0
 10
-31.4266
 20
0.463516
 11
-31.2135
 21
0.881668
  0
LINE
  8
0
 10
-31.2135
 20
0.881668
 11
-30.8817
 21
1.21352
  0
LINE
  8
0
 10
-30.8817
 20
1.21352
 11
-30.4635
 21
1.42657
  0
LINE
  8
0
 10
-30.4635
 20
1.42657
 11
-30
 21
1.5
  0
LINE
  8
0
 10
-30
 20
1.5
 11
-29.5365
 21
1.42657
  0
LINE
  8
0
 10
-29.5365
 20
1.42657
 11
-29.1183
 21
1.21352
  0
LINE
  8
0
 10
-29.1183
 20
1.21352
 11
-28.7865
 21
0.881668
  0
LINE
  8
0
 10
-28.7865
 20
0.881668
 11
-28.5734
 21
0.463516
  0
LINE
  8
0
 10
-28.5734
 20
0.463516
 11
-28.5
 21
0
  0
LINE
  8
0
 10
-28.5
 20
0
 11
-28.5734
 21
-0.463515
  0
LINE
  8
0
 10
-28.5734
 20
-0.463515
 11
-28.7865
 21
-0.881667
  0
LINE
  8
0
 10
-28.7865
 20
-0.881667
 11
-29.1183
 21
-1.21352
  0
LINE
  8
0
 10
-29.1183
 20
-1.21352
 11
-29.5365
 21
-1.42657
  0
LINE
  8
0
 10
-29.5365
 20
-1.42657
 11
-30
 21
-1.5
  0
LINE
  8
0
 10
-30
 20
-1.5
 11
-30.4635
 21
-1.42657
  0
LINE
  8
0
 10
-30.4635
 20
-1.42657
 11
-30.8817
 21
-1.21352
  0
LINE
  8
0
 10
-30.8817
 20
-1.21352
 11
-31.2135
 21
-0.881667
  0
LINE
  8
0
 10
-31.2135
 20
-0.881667
 11
-31.4266
 21
-0.463515
  0
LINE
  8
0
 10
-31.4266
 20
-0.463515
 11
-31.5
 21
0
  0
LINE
  8
0
 10
-25
 20
0
 11
-24.9229
 21
1.96148
  0
LINE
  8
0
 10
-24.9229
 20
1.96148
 11
-24.6922
 21
3.91086
  0
LINE
  8
0
 10
-24.6922
 20
3.91086
 11
-24.3092
 21
5.83613
  0
LINE
  8
0
 10
-24.3092
 20
5.83613
 11
-23.7764
 21
7.72542
  0
LINE
  8
0
 10
-23.7764
 20
7.72542
 11
-23.097
 21
9.56709
  0
LINE
  8
0
 10
-23.097
 20
9.56709
 11
-22.2752
 21
11.3498
  0
LINE
  8
0
 10
-22.2752
 20
11.3498
 11
-21.316
 21
13.0625
  0
LINE
  8
0
 10
-21.316
 20
13.0625
 11
-20.2254
 21
14.6946
  0
LINE
  8
0
 10
-20.2254
 20
14.6946
 11
-19.0101
 21
16.2362
  0
LINE
  8
0
 10
-19.0101
 20
16.2362
 11
-17.6777
 21
17.6777
  0
LINE
  8
0
 10
-17.6777
 20
17.6777
 11
-16.2362
 21
19.0101
  0
LINE
  8
0
 10
-16.2362
 20
19.0101
 11
-14.6946
 21
20.2254
  0
LINE
  8
0
 10
-14.6946
 20
20.2254
 11
-13.0625
 21
21.316
  0
LINE
  8
0
 10
-13.0625
 20
21.316
 11
-11.3498
 21
22.2752
  0
LINE
  8
0
 10
-11.3498
 20
22.2752
 11
-9.56709
 21
23.097
  0
LINE
  8
0
 10
-9.56709
 20
23.097
 11
-7.72542
 21
23.7764
  0
LINE
  8
0
 10
-7.72542
 20
23.7764
 11
-5.83613
 21
24.3092
  0
LINE
  8
0
 10
-5.83613
 20
24.3092
 11
-3.91086
 21
24.6922
  0
LINE
  8
0
 10
-3.91086
 20
24.6922
 11
-1.96148
 21
24.9229
  0
LINE
  8
0
 10
-1.96148
 20
24.9229
 11
0
 21
25
  0
LINE
  8
0
 10
0
 20
25
 11
10
 21
25
  0
LINE
  8
0
 10
10
 20
25
 11
11.9615
 21
24.9229
  0
LINE
  8
0
 10
11.9615
 20
24.9229
 11
13.9109
 21
24.6922
  0
LINE
  8
0
 10
13.9109
 20
24.6922
 11
15.8361
 21
24.3092
  0
LINE
  8
0
 10
15.8361
 20
24.3092
 11
17.7254
 21
23.7764
  0
LINE
  8
0
 10
17.7254
 20
23.7764
 11
19.5671
 21
23.097
  0
LINE
  8
0
 10
19.5671
 20
23.097
 11
21.3498
 21
22.2752
  0
LINE
  8
0
 10
21.3498
 20
22.2752
 11
23.0625
 21
21.316
  0
LINE
  8
0
 10
23.0625
 20
21.316
 11
24.6946
 21
20.2254
  0
LINE
  8
0
 10
24.6946
 20
20.2254
 11
26.2362
 21
19.0101
  0
LINE
  8
0
 10
26.2362
 20
19.0101
 11
27.6777
 21
17.6777
  0
LINE
  8
0
 10
27.6777
 20
17.6777
 11
29.0101
 21
16.2362
  0
LINE
  8
0
 10
29.0101
 20
16.2362
 11
30.2254
 21
14.6946
  0
LINE
  8
0
 10
30.2254
 20
14.6946
 11
31.316
 21
13.0625
  0
LINE
  8
0
 10
31.316
 20
13.0625
 11
32.2752
 21
11.3498
  0
LINE
  8
0
 10
32.2752
 20
11.3498
 11
33.097
 21
9.56709
  0
LINE
  8
0
 10
33.097
 20
9.56709
 11
33.7764
 21
7.72542
  0
LINE
  8
0
 10
33.7764
 20
7.72542
 11
34.3092
 21
5.83613
  0
LINE
  8
0
 10
34.3092
 20
5.83613
 11
34.6922
 21
3.91086
  0
LINE
  8
0
 10
34.6922
 20
3.91086
 11
34.9229
 21
1.96148
  0
LINE
  8
0
 10
34.9229
 20
1.96148
 11
35
 21
0
  0
LINE
  8
0
 10
35
 20
0
 11
34.9229
 21
-1.96148
  0
LINE
  8
0
 10
34.9229
 20
-1.96148
 11
34.6922
 21
-3.91086
  0
LINE
  8
0
 10
34.6922
 20
-3.91086
 11
34.3092
 21
-5.83613
  0
LINE
  8
0
 10
34.3092
 20
-5.83613
 11
33.7764
 21
-7.72542
  0
LINE
  8
0
 10
33.7764
 20
-7.72542
 11
33.097
 21
-9.56709
  0
LINE
  8
0
 10
33.097
 20
-9.56709
 11
32.2752
 21
-11.3498
  0
LINE
  8
0
 10
32.2752
 20
-11.3498
 11
31.316
 21
-13.0625
  0
LINE
  8
0
 10
31.316
 20
-13.0625
 11
30.2254
 21
-14.6946
  0
LINE
  8
0
 10
30.2254
 20
-14.6946
 11
29.0101
 21
-16.2362
  0
LINE
  8
0
 10
29.0101
 20
-16.2362
 11
27.6777
 21
-17.6777
  0
LINE
  8
0
 10
27.6777
 20
-17.6777
 11
26.2362
 21
-19.0101
  0
LINE
  8
0
 10
26.2362
 20
-19.0101
 11
24.6946
 21
-20.2254
  0
LINE
  8
0
 10
24.6946
 20
-20.2254
 11
23.0625
 21
-21.316
  0
LINE
  8
0
 10
23.0625
 20
-21.316
 11
21.3498
 21
-22.2752
  0
LINE
  8
0
 10
21.3498
 20
-22.2752
 11
19.5671
 21
-23.097
  0
LINE
  8
0
 10
19.5671
 20
-23.097
 11
17.7254
 21
-23.7764
  0
LINE
  8
0
 10
17.7254
 20
-23.7764
 11
15.8361
 21
-24.3092
  0
LINE
  8
0
 10
15.8361
 20
-24.3092
 11
13.9109
 21
-24.6922
  0
LINE
  8
0
 10
13.9109
 20
-24.6922
 11
11.9615
 21
-24.9229
  0
LINE
  8
0
 10
11.9615
 20
-24.9229
 11
10
 21
-25
  0
LINE
  8
0
 10
10
 20
-25
 11
0
 21
-25
  0
LINE
  8
0
 10
0
 20
-25
 11
-1.96148
 21
-24.9229
  0
LINE
  8
0
 10
-1.96148
 20
-24.9229
 11
-3.91086
 21
-24.6922
  0
LINE
  8
0
 10
-3.91086
 20
-24.6922
 11
-5.83613
 21
-24.3092
  0
LINE
  8
0
 10
-5.83613
 20
-24.3092
 11
-7.72542
 21
-23.7764
  0
LINE
  8
0
 10
-7.72542
 20
-23.7764
 11
-9.56709
 21
-23.097
  0
LINE
  8
0
 10
-9.56709
 20
-23.097
 11
-11.3498
 21
-22.2752
  0
LINE
  8
0
 10
-11.3498
 20
-22.2752
 11
-13.0625
 21
-21.316
  0
LINE
  8
0
 10
-13.0625
 20
-21.316
 11
-14.6946
 21
-20.2254
  0
LINE
  8
0
 10
-14.6946
 20
-20.2254
 11
-16.2362
 21
-19.0101
  0
LINE
  8
0
 10
-16.2362
 20
-19.0101
 11
-17.6777
 21
-17.6777
  0
LINE
  8
0
 10
-17.6777
 20
-17.6777
 11
-19.0101
 21
-16.2362
  0
LINE
  8
0
 10
-19.0101
 20
-16.2362
 11
-20.2254
 21
-14.6946
  0
LINE
  8
0
 10
-20.2254
 20
-14.6946
 11
-21.316
 21
-13.0625
  0
LINE
  8
0
 10
-21.316
 20
-13.0625
 11
-22.2752
 21
-11.3498
  0
LINE
  8
0
 10
-22.2752
 20
-11.3498
 11
-23.097
 21
-9.56709
  0
LINE
  8
0
 10
-23.097
 20
-9.56709
 11
-23.7764
 21
-7.72542
  0
LINE
  8
0
 10
-23.7764
 20
-7.72542
 11
-24.3092
 21
-5.83613
  0
LINE
  8
0
 10
-24.3092
 20
-5.83613
 11
-24.6922
 21
-3.91086
  0
LINE
  8
0
 10
-24.6922
 20
-3.91086
 11
-24.9229
 21
-1.96148
  0
LINE
  8
0
 10
-24.9229
 20
-1.96148
 11
-25
 21
0
  0
LINE
  8
0
 10
19.7419
 20
-27.9201
 11
19.7828
 21
-27.4526
  0
LINE
  8
0
 10
19.7828
 20
-27.4526
 11
19.9661
 21
-27.0206
  0
LINE
  8
0
 10
19.9661
 20
-27.0206
 11
20.274
 21
-26.6665
  0
LINE
  8
0
 10
20.274
 20
-26.6665
 11
20.6763
 21
-26.4247
  0
LINE
  8
0
 10
20.6763
 20
-26.4247
 11
21.1336
 21
-26.3192
  0
LINE
  8
0
 10
21.1336
 20
-26.3192
 11
21.6011
 21
-26.3601
  0
LINE
  8
0
 10
21.6011
 20
-26.3601
 11
22.0331
 21
-26.5434
  0
LINE
  8
0
 10
22.0331
 20
-26.5434
 11
22.3873
 21
-26.8513
  0
LINE
  8
0
 10
22.3873
 20
-26.8513
 11
22.629
 21
-27.2536
  0
LINE
  8
0
 10
22.629
 20
-27.2536
 11
22.7345
 21
-27.7109
  0
LINE
  8
0
 10
22.7345
 20
-27.7109
 11
22.6936
 21
-28.1784
  0
LINE
  8
0
 10
22.6936
 20
-28.1784
 11
22.5103
 21
-28.6104
  0
LINE
  8
0
 10
22.5103
 20
-28.6104
 11
22.2024
 21
-28.9646
  0
LINE
  8
0
 10
22.2024
 20
-28.9646
 11
21.8001
 21
-29.2063
  0
LINE
  8
0
 10
21.8001
 20
-29.2063
 11
21.3428
 21
-29.3118
  0
LINE
  8
0
 10
21.3428
 20
-29.3118
 11
20.8753
 21
-29.2709
  0
LINE
  8
0
 10
20.8753
 20
-29.2709
 11
20.4433
 21
-29.0876
  0
LINE
  8
0
 10
20.4433
 20
-29.0876
 11
20.0891
 21
-28.7797
  0
LINE
  8
0
 10
20.0891
 20
-28.7797
 11
19.8474
 21
-28.3774
  0
LINE
  8
0
 10
19.8474
 20
-28.3774
 11
19.7419
 21
-27.9201
  0
LINE
  8
0
 10
19.7419
 20
27.9201
 11
19.8474
 21
28.3774
  0
LINE
  8
0
 10
19.8474
 20
28.3774
 11
20.0891
 21
28.7797
  0
LINE
  8
0
 10
20.0891
 20
28.7797
 11
20.4433
 21
29.0876
  0
LINE
  8
0
 10
20.4433
 20
29.0876
 11
20.8753
 21
29.2709
  0
LINE
  8
0
 10
20.8753
 20
29.2709
 11
21.3428
 21
29.3118
  0
LINE
  8
0
 10
21.3428
 20
29.3118
 11
21.8001
 21
29.2063
  0
LINE
  8
0
 10
21.8001
 20
29.2063
 11
22.2024
 21
28.9646
  0
LINE
  8
0
 10
22.2024
 20
28.9646
 11
22.5103
 21
28.6104
  0
LINE
  8
0
 10
22.5103
 20
28.6104
 11
22.6936
 21
28.1784
  0
LINE
  8
0
 10
22.6936
 20
28.1784
 11
22.7345
 21
27.7109
  0
LINE
  8
0
 10
22.7345
 20
27.7109
 11
22.629
 21
27.2536
  0
LINE
  8
0
 10
22.629
 20
27.2536
 11
22.3873
 21
26.8513
  0
LINE
  8
0
 10
22.3873
 20
26.8513
 11
22.0331
 21
26.5434
  0
LINE
  8
0
 10
22.0331
 20
26.5434
 11
21.6011
 21
26.3601
  0
LINE
  8
0
 10
21.6011
 20
26.3601
 11
21.1336
 21
26.3192
  0
LINE
  8
0
 10
21.1336
 20
26.3192
 11
20.6763
 21
26.4247
  0
LINE
  8
0
 10
20.6763
 20
26.4247
 11
20.274
 21
26.6665
  0
LINE
  8
0
 10
20.274
 20
26.6665
 11
19.9661
 21
27.0206
  0
LINE
  8
0
 10
19.9661
 20
27.0206
 11
19.7828
 21
27.4526
  0
LINE
  8
0
 10
19.7828
 20
27.4526
 11
19.7419
 21
27.9201
  0
ENDSEC
  0
SECTION
  2
OBJECTS
  0
DICTIONARY
  0
ENDSEC
  0
EOF
