  0
SECTION
  2
BLOCKS
  0
ENDSEC
  0
SECTION
  2
ENTITIES
  0
LINE
  8
0
 10
36.5
 20
-3
 11
37.427
 21
-2.85316
  0
LINE
  8
0
 10
37.427
 20
-2.85316
 11
38.2634
 21
-2.42705
  0
LINE
  8
0
 10
38.2634
 20
-2.42705
 11
38.927
 21
-1.76335
  0
LINE
  8
0
 10
38.927
 20
-1.76335
 11
39.3532
 21
-0.927048
  0
LINE
  8
0
 10
39.3532
 20
-0.927048
 11
39.5
 21
0
  0
LINE
  8
0
 10
39.5
 20
0
 11
39.3532
 21
0.927048
  0
LINE
  8
0
 10
39.3532
 20
0.927048
 11
38.927
 21
1.76335
  0
LINE
  8
0
 10
38.927
 20
1.76335
 11
38.2634
 21
2.42705
  0
LINE
  8
0
 10
38.2634
 20
2.42705
 11
37.427
 21
2.85316
  0
LINE
  8
0
 10
37.427
 20
2.85316
 11
36.5
 21
3
  0
LINE
  8
0
 10
36.5
 20
3
 11
36.5
 21
4
  0
LINE
  8
0
 10
36.5
 20
4
 11
29.6988
 21
4
  0
LINE
  8
0
 10
29.6988
 20
4
 11
29.3444
 21
6.23735
  0
LINE
  8
0
 10
29.3444
 20
6.23735
 11
28.5317
 21
9.27051
  0
LINE
  8
0
 10
28.5317
 20
9.27051
 11
27.4064
 21
12.2021
  0
LINE
  8
0
 10
27.4064
 20
12.2021
 11
25.9808
 21
15
  0
LINE
  8
0
 10
25.9808
 20
15
 11
25.9234
 21
15.0883
  0
LINE
  8
0
 10
25.9234
 20
15.0883
 11
2.14452
 21
4
  0
LINE
  8
0
 10
2.14452
 20
4
 11
2.05849
 21
4
  0
LINE
  8
0
 10
2.05849
 20
4
 11
2.04295
 21
4.00952
  0
LINE
  8
0
 10
2.04295
 20
4.00952
 11
1.39056
 21
4.27974
  0
LINE
  8
0
 10
1.39056
 20
4.27974
 11
0.703949
 21
4.4446
  0
LINE
  8
0
 10
0.703949
 20
4.4446
 11
0
 21
4.5
  0
LINE
  8
0
 10
0
 20
4.5
 11
-0.703949
 21
4.4446
  0
LINE
  8
0
 10
-0.703949
 20
4.4446
 11
-1.39056
 21
4.27974
  0
LINE
  8
0
 10
-1.39056
 20
4.27974
 11
-2.04295
 21
4.00952
  0
LINE
  8
0
 10
-2.04295
 20
4.00952
 11
-2.05849
 21
4
  0
LINE
  8
0
 10
-2.05849
 20
4
 11
-8.5
 21
4
  0
LINE
  8
0
 10
-8.5
 20
4
 11
-8.5
 21
3
  0
LINE
  8
0
 10
-8.5
 20
3
 11
-9.42705
 21
2.85316
  0
LINE
  8
0
 10
-9.42705
 20
2.85316
 11
-10.2634
 21
2.42705
  0
LINE
  8
0
 10
-10.2634
 20
2.42705
 11
-10.927
 21
1.76335
  0
LINE
  8
0
 10
-10.927
 20
1.76335
 11
-11.3532
 21
0.927048
  0
LINE
  8
0
 10
-11.3532
 20
0.927048
 11
-11.5
 21
0
  0
LINE
  8
0
 10
-11.5
 20
0
 11
-11.3532
 21
-0.927048
  0
LINE
  8
0
 10
-11.3532
 20
-0.927048
 11
-10.927
 21
-1.76335
  0
LINE
  8
0
 10
-10.927
 20
-1.76335
 11
-10.2634
 21
-2.42705
  0
LINE
  8
0
 10
-10.2634
 20
-2.42705
 11
-9.42705
 21
-2.85316
  0
LINE
  8
0
 10
-9.42705
 20
-2.85316
 11
-8.5
 21
-3
  0
LINE
  8
0
 10
-8.5
 20
-3
 11
-8.5
 21
-16
  0
LINE
  8
0
 10
-8.5
 20
-16
 11
36.5
 21
-16
  0
LINE
  8
0
 10
36.5
 20
-16
 11
36.5
 21
-3
  0
LINE
  8
0
 10
-8.5
 20
-1.24998
 11
-8.88626
 21
-1.18881
  0
LINE
  8
0
 10
-8.88626
 20
-1.18881
 11
-9.23473
 21
-1.01126
  0
LINE
  8
0
 10
-9.23473
 20
-1.01126
 11
-9.51126
 21
-0.734726
  0
LINE
  8
0
 10
-9.51126
 20
-0.734726
 11
-9.68881
 21
-0.386261
  0
LINE
  8
0
 10
-9.68881
 20
-0.386261
 11
-9.75
 21
0
  0
LINE
  8
0
 10
-9.75
 20
0
 11
-9.68881
 21
0.386261
  0
LINE
  8
0
 10
-9.68881
 20
0.386261
 11
-9.51126
 21
0.734726
  0
LINE
  8
0
 10
-9.51126
 20
0.734726
 11
-9.23473
 21
1.01126
  0
LINE
  8
0
 10
-9.23473
 20
1.01126
 11
-8.88626
 21
1.18881
  0
LINE
  8
0
 10
-8.88626
 20
1.18881
 11
-8.5
 21
1.24998
  0
LINE
  8
0
 10
-8.5
 20
1.24998
 11
-8.11372
 21
1.18881
  0
LINE
  8
0
 10
-8.11372
 20
1.18881
 11
-7.76526
 21
1.01126
  0
LINE
  8
0
 10
-7.76526
 20
1.01126
 11
-7.48872
 21
0.734726
  0
LINE
  8
0
 10
-7.48872
 20
0.734726
 11
-7.31117
 21
0.386261
  0
LINE
  8
0
 10
-7.31117
 20
0.386261
 11
-7.25
 21
0
  0
LINE
  8
0
 10
-7.25
 20
0
 11
-7.31117
 21
-0.386261
  0
LINE
  8
0
 10
-7.31117
 20
-0.386261
 11
-7.48872
 21
-0.734726
  0
LINE
  8
0
 10
-7.48872
 20
-0.734726
 11
-7.76526
 21
-1.01126
  0
LINE
  8
0
 10
-7.76526
 20
-1.01126
 11
-8.11372
 21
-1.18881
  0
LINE
  8
0
 10
-8.11372
 20
-1.18881
 11
-8.5
 21
-1.24998
  0
LINE
  8
0
 10
36.5
 20
-1.24998
 11
36.1137
 21
-1.18881
  0
LINE
  8
0
 10
36.1137
 20
-1.18881
 11
35.7653
 21
-1.01126
  0
LINE
  8
0
 10
35.7653
 20
-1.01126
 11
35.4887
 21
-0.734726
  0
LINE
  8
0
 10
35.4887
 20
-0.734726
 11
35.3112
 21
-0.386261
  0
LINE
  8
0
 10
35.3112
 20
-0.386261
 11
35.25
 21
0
  0
LINE
  8
0
 10
35.25
 20
0
 11
35.3112
 21
0.386261
  0
LINE
  8
0
 10
35.3112
 20
0.386261
 11
35.4887
 21
0.734726
  0
LINE
  8
0
 10
35.4887
 20
0.734726
 11
35.7653
 21
1.01126
  0
LINE
  8
0
 10
35.7653
 20
1.01126
 11
36.1137
 21
1.18881
  0
LINE
  8
0
 10
36.1137
 20
1.18881
 11
36.5
 21
1.24998
  0
LINE
  8
0
 10
36.5
 20
1.24998
 11
36.8863
 21
1.18881
  0
LINE
  8
0
 10
36.8863
 20
1.18881
 11
37.2347
 21
1.01126
  0
LINE
  8
0
 10
37.2347
 20
1.01126
 11
37.5113
 21
0.734726
  0
LINE
  8
0
 10
37.5113
 20
0.734726
 11
37.6888
 21
0.386261
  0
LINE
  8
0
 10
37.6888
 20
0.386261
 11
37.75
 21
0
  0
LINE
  8
0
 10
37.75
 20
0
 11
37.6888
 21
-0.386261
  0
LINE
  8
0
 10
37.6888
 20
-0.386261
 11
37.5113
 21
-0.734726
  0
LINE
  8
0
 10
37.5113
 20
-0.734726
 11
37.2347
 21
-1.01126
  0
LINE
  8
0
 10
37.2347
 20
-1.01126
 11
36.8863
 21
-1.18881
  0
LINE
  8
0
 10
36.8863
 20
-1.18881
 11
36.5
 21
-1.24998
  0
ENDSEC
  0
SECTION
  2
OBJECTS
  0
DICTIONARY
  0
ENDSEC
  0
EOF
