  0
SECTION
  2
BLOCKS
  0
ENDSEC
  0
SECTION
  2
ENTITIES
  0
LINE
  8
0
 10
32.5
 20
16
 11
31.8607
 21
16
  0
LINE
  8
0
 10
31.8607
 20
16
 11
31.8316
 21
16.0572
  0
LINE
  8
0
 10
31.8316
 20
16.0572
 11
31.0572
 21
16.8316
  0
LINE
  8
0
 10
31.0572
 20
16.8316
 11
30.0816
 21
17.3287
  0
LINE
  8
0
 10
30.0816
 20
17.3287
 11
29
 21
17.5
  0
LINE
  8
0
 10
29
 20
17.5
 11
27.9184
 21
17.3287
  0
LINE
  8
0
 10
27.9184
 20
17.3287
 11
26.9427
 21
16.8316
  0
LINE
  8
0
 10
26.9427
 20
16.8316
 11
26.1684
 21
16.0572
  0
LINE
  8
0
 10
26.1684
 20
16.0572
 11
26.1393
 21
16
  0
LINE
  8
0
 10
26.1393
 20
16
 11
-8.5
 21
16
  0
LINE
  8
0
 10
-8.5
 20
16
 11
-8.5
 21
-4
  0
LINE
  8
0
 10
-8.5
 20
-4
 11
32.5
 21
-4
  0
LINE
  8
0
 10
32.5
 20
-4
 11
32.5
 21
16
  0
LINE
  8
0
 10
28.5056
 20
12.4783
 11
28.0595
 21
12.7056
  0
LINE
  8
0
 10
28.0595
 20
12.7056
 11
27.7056
 21
13.0595
  0
LINE
  8
0
 10
27.7056
 20
13.0595
 11
27.4783
 21
13.5056
  0
LINE
  8
0
 10
27.4783
 20
13.5056
 11
27.4
 21
14
  0
LINE
  8
0
 10
27.4
 20
14
 11
27.4783
 21
14.4944
  0
LINE
  8
0
 10
27.4783
 20
14.4944
 11
27.7056
 21
14.9404
  0
LINE
  8
0
 10
27.7056
 20
14.9404
 11
28.0595
 21
15.2944
  0
LINE
  8
0
 10
28.0595
 20
15.2944
 11
28.5056
 21
15.5217
  0
LINE
  8
0
 10
28.5056
 20
15.5217
 11
29
 21
15.6
  0
LINE
  8
0
 10
29
 20
15.6
 11
29.4944
 21
15.5217
  0
LINE
  8
0
 10
29.4944
 20
15.5217
 11
29.9404
 21
15.2944
  0
LINE
  8
0
 10
29.9404
 20
15.2944
 11
30.2944
 21
14.9404
  0
LINE
  8
0
 10
30.2944
 20
14.9404
 11
30.5217
 21
14.4944
  0
LINE
  8
0
 10
30.5217
 20
14.4944
 11
30.6
 21
14
  0
LINE
  8
0
 10
30.6
 20
14
 11
30.5217
 21
13.5056
  0
LINE
  8
0
 10
30.5217
 20
13.5056
 11
30.2944
 21
13.0595
  0
LINE
  8
0
 10
30.2944
 20
13.0595
 11
29.9404
 21
12.7056
  0
LINE
  8
0
 10
29.9404
 20
12.7056
 11
29.4944
 21
12.4783
  0
LINE
  8
0
 10
29.4944
 20
12.4783
 11
29
 21
12.4
  0
LINE
  8
0
 10
29
 20
12.4
 11
28.5056
 21
12.4783
  0
LINE
  8
0
 10
-0.162018
 20
-1.5415
 11
-0.478973
 21
-1.47414
  0
LINE
  8
0
 10
-0.478973
 20
-1.47414
 11
-0.774994
 21
-1.34233
  0
LINE
  8
0
 10
-0.774994
 20
-1.34233
 11
-1.03714
 21
-1.15187
  0
LINE
  8
0
 10
-1.03714
 20
-1.15187
 11
-1.25397
 21
-0.911057
  0
LINE
  8
0
 10
-1.25397
 20
-0.911057
 11
-1.41599
 21
-0.630432
  0
LINE
  8
0
 10
-1.41599
 20
-0.630432
 11
-1.51613
 21
-0.32225
  0
LINE
  8
0
 10
-1.51613
 20
-0.32225
 11
-1.54999
 21
0
  0
LINE
  8
0
 10
-1.54999
 20
0
 11
-1.51613
 21
0.32225
  0
LINE
  8
0
 10
-1.51613
 20
0.32225
 11
-1.41599
 21
0.630432
  0
LINE
  8
0
 10
-1.41599
 20
0.630432
 11
-1.25397
 21
0.911057
  0
LINE
  8
0
 10
-1.25397
 20
0.911057
 11
-1.03714
 21
1.15187
  0
LINE
  8
0
 10
-1.03714
 20
1.15187
 11
-0.774994
 21
1.34233
  0
LINE
  8
0
 10
-0.774994
 20
1.34233
 11
-0.478973
 21
1.47414
  0
LINE
  8
0
 10
-0.478973
 20
1.47414
 11
-0.162018
 21
1.5415
  0
LINE
  8
0
 10
-0.162018
 20
1.5415
 11
0.162018
 21
1.5415
  0
LINE
  8
0
 10
0.162018
 20
1.5415
 11
0.478973
 21
1.47414
  0
LINE
  8
0
 10
0.478973
 20
1.47414
 11
0.774994
 21
1.34233
  0
LINE
  8
0
 10
0.774994
 20
1.34233
 11
1.03714
 21
1.15187
  0
LINE
  8
0
 10
1.03714
 20
1.15187
 11
1.25397
 21
0.911057
  0
LINE
  8
0
 10
1.25397
 20
0.911057
 11
1.41599
 21
0.630432
  0
LINE
  8
0
 10
1.41599
 20
0.630432
 11
1.51613
 21
0.32225
  0
LINE
  8
0
 10
1.51613
 20
0.32225
 11
1.54999
 21
0
  0
LINE
  8
0
 10
1.54999
 20
0
 11
1.51613
 21
-0.32225
  0
LINE
  8
0
 10
1.51613
 20
-0.32225
 11
1.41599
 21
-0.630432
  0
LINE
  8
0
 10
1.41599
 20
-0.630432
 11
1.25397
 21
-0.911057
  0
LINE
  8
0
 10
1.25397
 20
-0.911057
 11
1.03714
 21
-1.15187
  0
LINE
  8
0
 10
1.03714
 20
-1.15187
 11
0.774994
 21
-1.34233
  0
LINE
  8
0
 10
0.774994
 20
-1.34233
 11
0.478973
 21
-1.47414
  0
LINE
  8
0
 10
0.478973
 20
-1.47414
 11
0.162018
 21
-1.5415
  0
LINE
  8
0
 10
0.162018
 20
-1.5415
 11
-0.162018
 21
-1.5415
  0
ENDSEC
  0
SECTION
  2
OBJECTS
  0
DICTIONARY
  0
ENDSEC
  0
EOF
